G04 #@! TF.GenerationSoftware,KiCad,Pcbnew,9.0.2*
G04 #@! TF.CreationDate,2025-05-16T19:44:45+03:00*
G04 #@! TF.ProjectId,spro2,7370726f-322e-46b6-9963-61645f706362,rev?*
G04 #@! TF.SameCoordinates,Original*
G04 #@! TF.FileFunction,Copper,L1,Top*
G04 #@! TF.FilePolarity,Positive*
%FSLAX46Y46*%
G04 Gerber Fmt 4.6, Leading zero omitted, Abs format (unit mm)*
G04 Created by KiCad (PCBNEW 9.0.2) date 2025-05-16 19:44:45*
%MOMM*%
%LPD*%
G01*
G04 APERTURE LIST*
G04 Aperture macros list*
%AMRoundRect*
0 Rectangle with rounded corners*
0 $1 Rounding radius*
0 $2 $3 $4 $5 $6 $7 $8 $9 X,Y pos of 4 corners*
0 Add a 4 corners polygon primitive as box body*
4,1,4,$2,$3,$4,$5,$6,$7,$8,$9,$2,$3,0*
0 Add four circle primitives for the rounded corners*
1,1,$1+$1,$2,$3*
1,1,$1+$1,$4,$5*
1,1,$1+$1,$6,$7*
1,1,$1+$1,$8,$9*
0 Add four rect primitives between the rounded corners*
20,1,$1+$1,$2,$3,$4,$5,0*
20,1,$1+$1,$4,$5,$6,$7,0*
20,1,$1+$1,$6,$7,$8,$9,0*
20,1,$1+$1,$8,$9,$2,$3,0*%
G04 Aperture macros list end*
G04 #@! TA.AperFunction,ComponentPad*
%ADD10RoundRect,0.250000X0.750000X0.750000X-0.750000X0.750000X-0.750000X-0.750000X0.750000X-0.750000X0*%
G04 #@! TD*
G04 #@! TA.AperFunction,ComponentPad*
%ADD11C,2.000000*%
G04 #@! TD*
G04 #@! TA.AperFunction,ComponentPad*
%ADD12R,2.400000X2.400000*%
G04 #@! TD*
G04 #@! TA.AperFunction,ComponentPad*
%ADD13C,2.400000*%
G04 #@! TD*
G04 #@! TA.AperFunction,ComponentPad*
%ADD14RoundRect,0.250000X0.550000X0.550000X-0.550000X0.550000X-0.550000X-0.550000X0.550000X-0.550000X0*%
G04 #@! TD*
G04 #@! TA.AperFunction,ComponentPad*
%ADD15C,1.600000*%
G04 #@! TD*
G04 #@! TA.AperFunction,ComponentPad*
%ADD16RoundRect,0.250000X-0.550000X0.550000X-0.550000X-0.550000X0.550000X-0.550000X0.550000X0.550000X0*%
G04 #@! TD*
G04 #@! TA.AperFunction,ComponentPad*
%ADD17RoundRect,0.250000X-0.550000X-0.550000X0.550000X-0.550000X0.550000X0.550000X-0.550000X0.550000X0*%
G04 #@! TD*
G04 #@! TA.AperFunction,ComponentPad*
%ADD18R,1.130000X1.130000*%
G04 #@! TD*
G04 #@! TA.AperFunction,ComponentPad*
%ADD19C,1.130000*%
G04 #@! TD*
G04 #@! TA.AperFunction,ComponentPad*
%ADD20RoundRect,0.250000X0.750000X-0.750000X0.750000X0.750000X-0.750000X0.750000X-0.750000X-0.750000X0*%
G04 #@! TD*
G04 #@! TA.AperFunction,ComponentPad*
%ADD21R,1.600000X1.600000*%
G04 #@! TD*
G04 #@! TA.AperFunction,ComponentPad*
%ADD22O,1.600000X1.600000*%
G04 #@! TD*
G04 #@! TA.AperFunction,ComponentPad*
%ADD23RoundRect,0.250000X0.550000X-0.550000X0.550000X0.550000X-0.550000X0.550000X-0.550000X-0.550000X0*%
G04 #@! TD*
G04 #@! TA.AperFunction,Conductor*
%ADD24C,0.320000*%
G04 #@! TD*
G04 #@! TA.AperFunction,Conductor*
%ADD25C,0.600000*%
G04 #@! TD*
G04 APERTURE END LIST*
D10*
X127167677Y-103250000D03*
D11*
X122167677Y-103250000D03*
D12*
X93500000Y-84750000D03*
D13*
X98580000Y-84750000D03*
X103660000Y-84750000D03*
D12*
X80250000Y-106960000D03*
D13*
X80250000Y-112040000D03*
D12*
X137500000Y-85750000D03*
D13*
X142500000Y-85750000D03*
X147500000Y-85750000D03*
X152500000Y-85750000D03*
D14*
X155182380Y-114300000D03*
D15*
X152682380Y-114300000D03*
X88750000Y-104000000D03*
X98910000Y-104000000D03*
X87500000Y-127250000D03*
X77340000Y-127250000D03*
D16*
X102250000Y-107440000D03*
D15*
X102250000Y-115060000D03*
D10*
X127117677Y-114250000D03*
D11*
X122117677Y-114250000D03*
D15*
X168330000Y-94250000D03*
X158170000Y-94250000D03*
X100160000Y-118000000D03*
X90000000Y-118000000D03*
D16*
X105500000Y-96380000D03*
D15*
X105500000Y-104000000D03*
X102000000Y-128750000D03*
X107000000Y-128750000D03*
X88750000Y-110750000D03*
X98910000Y-110750000D03*
X162955113Y-131000000D03*
X152795113Y-131000000D03*
D17*
X159700000Y-108450000D03*
D15*
X159700000Y-110990000D03*
X159700000Y-113530000D03*
X159700000Y-116070000D03*
X167320000Y-116070000D03*
X167320000Y-113530000D03*
X167320000Y-110990000D03*
X167320000Y-108450000D03*
D18*
X109560000Y-98590000D03*
D19*
X109560000Y-101130000D03*
X109560000Y-103670000D03*
X109560000Y-106210000D03*
X109560000Y-108750000D03*
X109560000Y-111290000D03*
X109560000Y-113830000D03*
X117500000Y-113830000D03*
X117500000Y-111290000D03*
X117500000Y-108750000D03*
X117500000Y-106210000D03*
X117500000Y-103670000D03*
X117500000Y-101130000D03*
X117500000Y-98590000D03*
D15*
X77340000Y-131750000D03*
X87500000Y-131750000D03*
X98910000Y-107250000D03*
X88750000Y-107250000D03*
D14*
X154455113Y-105750000D03*
D15*
X151955113Y-105750000D03*
X110500000Y-118500000D03*
X105500000Y-118500000D03*
X77340000Y-122500000D03*
X87500000Y-122500000D03*
X122920000Y-135830000D03*
X122920000Y-125670000D03*
X158170000Y-98750000D03*
X168330000Y-98750000D03*
X93500000Y-90750000D03*
X93500000Y-95750000D03*
X87500000Y-136000000D03*
X97660000Y-136000000D03*
X166500000Y-122750000D03*
X161500000Y-122750000D03*
D20*
X112250000Y-91500000D03*
D11*
X112250000Y-86500000D03*
D15*
X158170000Y-89750000D03*
X168330000Y-89750000D03*
X126500000Y-135830000D03*
X126500000Y-125670000D03*
X90750000Y-122000000D03*
X90750000Y-132160000D03*
D21*
X132250000Y-95050000D03*
D22*
X132250000Y-97590000D03*
X132250000Y-100130000D03*
X132250000Y-102670000D03*
X132250000Y-105210000D03*
X132250000Y-107750000D03*
X132250000Y-110290000D03*
X132250000Y-112830000D03*
X132250000Y-115370000D03*
X132250000Y-117910000D03*
X132250000Y-120450000D03*
X132250000Y-122990000D03*
X132250000Y-125530000D03*
X132250000Y-128070000D03*
X132250000Y-130610000D03*
X147490000Y-130610000D03*
X147490000Y-128070000D03*
X147490000Y-125530000D03*
X147490000Y-122990000D03*
X147490000Y-120450000D03*
X147490000Y-117910000D03*
X147490000Y-115370000D03*
X147490000Y-112830000D03*
X147490000Y-110290000D03*
X147490000Y-107750000D03*
X147490000Y-105210000D03*
X147490000Y-102670000D03*
X147490000Y-100130000D03*
X147490000Y-97590000D03*
X147490000Y-95050000D03*
D15*
X152500000Y-93044888D03*
X152500000Y-98044888D03*
X123500000Y-82000000D03*
X133660000Y-82000000D03*
X77340000Y-118000000D03*
X87500000Y-118000000D03*
D16*
X94250000Y-122250000D03*
D15*
X94250000Y-129870000D03*
X110670000Y-82000000D03*
X120830000Y-82000000D03*
D11*
X102000000Y-134000000D03*
X112000000Y-134000000D03*
X112000000Y-123750000D03*
X102000000Y-123750000D03*
D15*
X88750000Y-100250000D03*
X98910000Y-100250000D03*
D23*
X102000000Y-104000000D03*
D15*
X102000000Y-96380000D03*
X98910000Y-114250000D03*
X88750000Y-114250000D03*
X158170000Y-103250000D03*
X168330000Y-103250000D03*
D17*
X154544888Y-123500000D03*
D15*
X157044888Y-123500000D03*
D16*
X127800000Y-85950000D03*
D15*
X125260000Y-85950000D03*
X122720000Y-85950000D03*
X120180000Y-85950000D03*
X120180000Y-93570000D03*
X122720000Y-93570000D03*
X125260000Y-93570000D03*
X127800000Y-93570000D03*
X119170000Y-125670000D03*
X119170000Y-135830000D03*
D24*
X167320000Y-113530000D02*
X165720000Y-113530000D01*
X164500000Y-114750000D02*
X164500000Y-118000000D01*
X164500000Y-118000000D02*
X163250000Y-119250000D01*
X165720000Y-113530000D02*
X164500000Y-114750000D01*
X150260000Y-122990000D02*
X147490000Y-122990000D01*
X163250000Y-119250000D02*
X154000000Y-119250000D01*
X154000000Y-119250000D02*
X150260000Y-122990000D01*
X142500000Y-109500000D02*
X143290000Y-110290000D01*
X142500000Y-85750000D02*
X142500000Y-109500000D01*
X143290000Y-110290000D02*
X147490000Y-110290000D01*
X144500000Y-138000000D02*
X145250000Y-137250000D01*
X115750000Y-136500000D02*
X117250000Y-138000000D01*
X117250000Y-138000000D02*
X144500000Y-138000000D01*
X145250000Y-121500000D02*
X146300000Y-120450000D01*
X115750000Y-99500000D02*
X115750000Y-136500000D01*
X145250000Y-137250000D02*
X145250000Y-121500000D01*
X116660000Y-98590000D02*
X115750000Y-99500000D01*
X146300000Y-120450000D02*
X147490000Y-120450000D01*
X117500000Y-98590000D02*
X116660000Y-98590000D01*
D25*
X147490000Y-128070000D02*
X153430000Y-128070000D01*
X154544888Y-126955112D02*
X154544888Y-123500000D01*
X147500000Y-85750000D02*
X147500000Y-88044888D01*
X153430000Y-128070000D02*
X154544888Y-126955112D01*
X147500000Y-88044888D02*
X152500000Y-93044888D01*
X169750000Y-119500000D02*
X169750000Y-110250000D01*
X111250000Y-96000000D02*
X106000000Y-90750000D01*
X109560000Y-106210000D02*
X111250000Y-104520000D01*
X156500000Y-89750000D02*
X154455113Y-91794887D01*
X154455113Y-102750000D02*
X154455113Y-105750000D01*
X154455113Y-91794887D02*
X154455113Y-102750000D01*
X169750000Y-111240000D02*
X167320000Y-111240000D01*
X158170000Y-89750000D02*
X156500000Y-89750000D01*
X93500000Y-84750000D02*
X93500000Y-90750000D01*
X111250000Y-104520000D02*
X111250000Y-96000000D01*
X169000000Y-105750000D02*
X169750000Y-106500000D01*
X154455113Y-105750000D02*
X169000000Y-105750000D01*
X166500000Y-122750000D02*
X169750000Y-119500000D01*
X169750000Y-106500000D02*
X169750000Y-110250000D01*
X169750000Y-110250000D02*
X169750000Y-111240000D01*
X106000000Y-90750000D02*
X93500000Y-90750000D01*
X154375113Y-102670000D02*
X154455113Y-102750000D01*
X147490000Y-102670000D02*
X154375113Y-102670000D01*
D24*
X138580000Y-112830000D02*
X147490000Y-112830000D01*
X137500000Y-85750000D02*
X137500000Y-111750000D01*
X137500000Y-111750000D02*
X138580000Y-112830000D01*
X173000000Y-129250000D02*
X171250000Y-131000000D01*
X98580000Y-84750000D02*
X103330000Y-80000000D01*
X171250000Y-131000000D02*
X162955113Y-131000000D01*
X164750000Y-80000000D02*
X173000000Y-88250000D01*
X173000000Y-88250000D02*
X173000000Y-129250000D01*
X103330000Y-80000000D02*
X164750000Y-80000000D01*
X102000000Y-104000000D02*
X105500000Y-104000000D01*
X98910000Y-114250000D02*
X100000000Y-114250000D01*
X100000000Y-114250000D02*
X100500000Y-113750000D01*
X100500000Y-113750000D02*
X100500000Y-104000000D01*
X98910000Y-104000000D02*
X100750000Y-104000000D01*
X100750000Y-104000000D02*
X102000000Y-104000000D01*
X97500000Y-98000000D02*
X81750000Y-98000000D01*
X102000000Y-96380000D02*
X99120000Y-96380000D01*
X109130000Y-96380000D02*
X105500000Y-96380000D01*
X80250000Y-99500000D02*
X80250000Y-106960000D01*
X109560000Y-96810000D02*
X109130000Y-96380000D01*
X88750000Y-114250000D02*
X90000000Y-115500000D01*
X109560000Y-98590000D02*
X109560000Y-96810000D01*
X105500000Y-96380000D02*
X102000000Y-96380000D01*
X80250000Y-106960000D02*
X87540000Y-114250000D01*
X81750000Y-98000000D02*
X80250000Y-99500000D01*
X99120000Y-96380000D02*
X97500000Y-98000000D01*
X90000000Y-115500000D02*
X90000000Y-118000000D01*
X87540000Y-114250000D02*
X88750000Y-114250000D01*
X87500000Y-127250000D02*
X89000000Y-125750000D01*
X89000000Y-125750000D02*
X89000000Y-119500000D01*
X89000000Y-119500000D02*
X87500000Y-118000000D01*
D25*
X120180000Y-93570000D02*
X120180000Y-98680000D01*
X122132323Y-100632323D02*
X122132323Y-103250000D01*
X120180000Y-98680000D02*
X122132323Y-100632323D01*
D24*
X168330000Y-94250000D02*
X168330000Y-89750000D01*
X168330000Y-98750000D02*
X168330000Y-94250000D01*
X77340000Y-131750000D02*
X77340000Y-127250000D01*
X157010000Y-114300000D02*
X155182380Y-114300000D01*
X159700000Y-113530000D02*
X157780000Y-113530000D01*
X157780000Y-113530000D02*
X157010000Y-114300000D01*
X107870000Y-101130000D02*
X107500000Y-101500000D01*
X109560000Y-101130000D02*
X107870000Y-101130000D01*
X107500000Y-116500000D02*
X105500000Y-118500000D01*
X102000000Y-123750000D02*
X102000000Y-128750000D01*
X107500000Y-101500000D02*
X107500000Y-116500000D01*
X102000000Y-134000000D02*
X102000000Y-128750000D01*
X118750000Y-119250000D02*
X122920000Y-123420000D01*
X118750000Y-101130000D02*
X118750000Y-119250000D01*
X120500000Y-89750000D02*
X118750000Y-91500000D01*
X122920000Y-123420000D02*
X122920000Y-125670000D01*
X133660000Y-82000000D02*
X133660000Y-88090000D01*
X132000000Y-89750000D02*
X120500000Y-89750000D01*
X118750000Y-101130000D02*
X117500000Y-101130000D01*
X133660000Y-88090000D02*
X132000000Y-89750000D01*
X118750000Y-91500000D02*
X118750000Y-101130000D01*
X88750000Y-107250000D02*
X88750000Y-110750000D01*
X87500000Y-136000000D02*
X87500000Y-131750000D01*
X158170000Y-98750000D02*
X158170000Y-103250000D01*
X128750000Y-118250000D02*
X127117677Y-116617677D01*
X122920000Y-135830000D02*
X122920000Y-133830000D01*
X122920000Y-133830000D02*
X128750000Y-128000000D01*
X127117677Y-116617677D02*
X127117677Y-114250000D01*
X128750000Y-128000000D02*
X128750000Y-118250000D01*
X119170000Y-135830000D02*
X122920000Y-135830000D01*
X125260000Y-88240000D02*
X125260000Y-85950000D01*
X124750000Y-88750000D02*
X125260000Y-88240000D01*
X120000000Y-88750000D02*
X124750000Y-88750000D01*
X112250000Y-91500000D02*
X117250000Y-91500000D01*
X117250000Y-91500000D02*
X120000000Y-88750000D01*
X77340000Y-114950000D02*
X80250000Y-112040000D01*
X77340000Y-122500000D02*
X77340000Y-118000000D01*
X77340000Y-118000000D02*
X77340000Y-114950000D01*
X123500000Y-82000000D02*
X120830000Y-82000000D01*
X100160000Y-118000000D02*
X102660000Y-120500000D01*
X110500000Y-120500000D02*
X110500000Y-120000000D01*
X110500000Y-122250000D02*
X112000000Y-123750000D01*
X110500000Y-118000000D02*
X110500000Y-120000000D01*
X110500000Y-120000000D02*
X110500000Y-122250000D01*
X102660000Y-120500000D02*
X110500000Y-120500000D01*
M02*
