M48
; DRILL file {KiCad 8.0.5} date 2025-05-15T16:05:48+0300
; FORMAT={-:-/ absolute / metric / decimal}
; #@! TF.CreationDate,2025-05-15T16:05:48+03:00
; #@! TF.GenerationSoftware,Kicad,Pcbnew,8.0.5
; #@! TF.FileFunction,Plated,1,2,PTH
FMAT,2
METRIC
; #@! TA.AperFunction,Plated,PTH,ComponentDrill
T1C0.730
; #@! TA.AperFunction,Plated,PTH,ComponentDrill
T2C0.800
; #@! TA.AperFunction,Plated,PTH,ComponentDrill
T3C1.000
; #@! TA.AperFunction,Plated,PTH,ComponentDrill
T4C1.200
%
G90
G05
T1
X116.08Y-98.5
X116.08Y-101.04
X116.08Y-103.58
X116.08Y-106.12
X116.08Y-108.66
X116.08Y-111.2
X116.08Y-113.74
X124.02Y-98.5
X124.02Y-101.04
X124.02Y-103.58
X124.02Y-106.12
X124.02Y-108.66
X124.02Y-111.2
X124.02Y-113.74
T2
X77.17Y-115.5
X77.17Y-120.25
X77.17Y-125.0
X77.17Y-129.75
X87.33Y-115.5
X87.33Y-120.25
X87.33Y-125.0
X87.33Y-129.75
X90.42Y-90.75
X90.42Y-95.75
X90.42Y-100.75
X90.42Y-105.75
X90.42Y-111.0
X90.42Y-115.5
X90.42Y-120.25
X100.58Y-90.75
X100.58Y-95.75
X100.58Y-100.75
X100.58Y-105.75
X100.58Y-111.0
X100.58Y-115.5
X100.58Y-120.25
X105.58Y-108.63
X105.58Y-116.25
X106.08Y-97.13
X106.08Y-104.75
X106.58Y-121.0
X107.58Y-91.0
X108.58Y-121.0
X109.58Y-91.0
X111.0Y-108.63
X111.0Y-116.25
X111.33Y-97.13
X111.33Y-104.75
X115.17Y-86.5
X115.17Y-91.25
X115.25Y-126.5
X115.25Y-136.66
X116.125Y-121.0
X118.125Y-121.0
X120.75Y-126.5
X120.75Y-136.66
X123.33Y-121.0
X125.33Y-86.5
X125.33Y-91.25
X125.33Y-121.0
X126.33Y-126.5
X126.33Y-136.66
X152.5Y-93.045
X152.5Y-95.045
X152.545Y-108.0
X152.545Y-116.0
X152.795Y-123.5
X152.795Y-131.0
X154.545Y-108.0
X154.545Y-116.0
X154.795Y-123.5
X158.17Y-89.75
X158.17Y-94.25
X158.17Y-98.75
X158.17Y-103.25
X159.25Y-108.38
X159.25Y-110.92
X159.25Y-113.46
X159.25Y-116.0
X159.5Y-123.5
X161.5Y-123.5
X162.955Y-131.0
X166.87Y-108.38
X166.87Y-110.92
X166.87Y-113.46
X166.87Y-116.0
X168.33Y-89.75
X168.33Y-94.25
X168.33Y-98.75
X168.33Y-103.25
T3
X132.25Y-95.05
X132.25Y-97.59
X132.25Y-100.13
X132.25Y-102.67
X132.25Y-105.21
X132.25Y-107.75
X132.25Y-110.29
X132.25Y-112.83
X132.25Y-115.37
X132.25Y-117.91
X132.25Y-120.45
X132.25Y-122.99
X132.25Y-125.53
X132.25Y-128.07
X132.25Y-130.61
X147.49Y-95.05
X147.49Y-97.59
X147.49Y-100.13
X147.49Y-102.67
X147.49Y-105.21
X147.49Y-107.75
X147.49Y-110.29
X147.49Y-112.83
X147.49Y-115.37
X147.49Y-117.91
X147.49Y-120.45
X147.49Y-122.99
X147.49Y-125.53
X147.49Y-128.07
X147.49Y-130.61
T4
X83.5Y-95.71
X83.5Y-100.79
X95.59Y-84.0
X100.67Y-84.0
X105.75Y-84.0
X130.0Y-85.75
X135.0Y-85.75
X140.0Y-85.75
X145.0Y-85.75
M30
