%TF.GenerationSoftware,KiCad,Pcbnew,8.0.5*%
%TF.CreationDate,2025-05-15T16:04:32+03:00*%
%TF.ProjectId,spro2,7370726f-322e-46b6-9963-61645f706362,rev?*%
%TF.SameCoordinates,Original*%
%TF.FileFunction,Soldermask,Top*%
%TF.FilePolarity,Negative*%
%FSLAX46Y46*%
G04 Gerber Fmt 4.6, Leading zero omitted, Abs format (unit mm)*
G04 Created by KiCad (PCBNEW 8.0.5) date 2025-05-15 16:04:32*
%MOMM*%
%LPD*%
G01*
G04 APERTURE LIST*
G04 Aperture macros list*
%AMRoundRect*
0 Rectangle with rounded corners*
0 $1 Rounding radius*
0 $2 $3 $4 $5 $6 $7 $8 $9 X,Y pos of 4 corners*
0 Add a 4 corners polygon primitive as box body*
4,1,4,$2,$3,$4,$5,$6,$7,$8,$9,$2,$3,0*
0 Add four circle primitives for the rounded corners*
1,1,$1+$1,$2,$3*
1,1,$1+$1,$4,$5*
1,1,$1+$1,$6,$7*
1,1,$1+$1,$8,$9*
0 Add four rect primitives between the rounded corners*
20,1,$1+$1,$2,$3,$4,$5,0*
20,1,$1+$1,$4,$5,$6,$7,0*
20,1,$1+$1,$6,$7,$8,$9,0*
20,1,$1+$1,$8,$9,$2,$3,0*%
G04 Aperture macros list end*
%ADD10R,1.600000X1.600000*%
%ADD11C,1.600000*%
%ADD12O,1.600000X1.600000*%
%ADD13C,2.200000*%
%ADD14R,1.130000X1.130000*%
%ADD15C,1.130000*%
%ADD16C,2.604000*%
%ADD17RoundRect,0.102000X-1.200000X-1.200000X1.200000X-1.200000X1.200000X1.200000X-1.200000X1.200000X0*%
%ADD18RoundRect,0.102000X-1.200000X1.200000X-1.200000X-1.200000X1.200000X-1.200000X1.200000X1.200000X0*%
G04 APERTURE END LIST*
D10*
%TO.C,C9*%
X152544888Y-116000000D03*
D11*
X154544888Y-116000000D03*
%TD*%
D10*
%TO.C,C6*%
X161500000Y-123500000D03*
D11*
X159500000Y-123500000D03*
%TD*%
%TO.C,R11*%
X100580000Y-95750000D03*
D12*
X90420000Y-95750000D03*
%TD*%
D11*
%TO.C,R18*%
X87330000Y-125000000D03*
D12*
X77170000Y-125000000D03*
%TD*%
D10*
%TO.C,D3*%
X111000000Y-108630000D03*
D12*
X111000000Y-116250000D03*
%TD*%
D10*
%TO.C,C7*%
X116124888Y-121000000D03*
D11*
X118124888Y-121000000D03*
%TD*%
%TO.C,R3*%
X168330000Y-94250000D03*
D12*
X158170000Y-94250000D03*
%TD*%
D11*
%TO.C,R14*%
X100580000Y-115500000D03*
D12*
X90420000Y-115500000D03*
%TD*%
D10*
%TO.C,D1*%
X111330000Y-97130000D03*
D12*
X111330000Y-104750000D03*
%TD*%
D11*
%TO.C,R10*%
X90420000Y-105750000D03*
D12*
X100580000Y-105750000D03*
%TD*%
D13*
%TO.C,H3*%
X172250000Y-82000000D03*
%TD*%
D11*
%TO.C,R1*%
X162955113Y-131000000D03*
D12*
X152795113Y-131000000D03*
%TD*%
D13*
%TO.C,H2*%
X77750000Y-136500000D03*
%TD*%
D10*
%TO.C,U2*%
X159250000Y-108380000D03*
D12*
X159250000Y-110920000D03*
X159250000Y-113460000D03*
X159250000Y-116000000D03*
X166870000Y-116000000D03*
X166870000Y-113460000D03*
X166870000Y-110920000D03*
X166870000Y-108380000D03*
%TD*%
D14*
%TO.C,U3*%
X116080000Y-98500000D03*
D15*
X116080000Y-101040000D03*
X116080000Y-103580000D03*
X116080000Y-106120000D03*
X116080000Y-108660000D03*
X116080000Y-111200000D03*
X116080000Y-113740000D03*
X124020000Y-113740000D03*
X124020000Y-111200000D03*
X124020000Y-108660000D03*
X124020000Y-106120000D03*
X124020000Y-103580000D03*
X124020000Y-101040000D03*
X124020000Y-98500000D03*
%TD*%
D11*
%TO.C,R19*%
X77170000Y-129750000D03*
D12*
X87330000Y-129750000D03*
%TD*%
D13*
%TO.C,H1*%
X77750000Y-82000000D03*
%TD*%
D16*
%TO.C,U1*%
X105750000Y-84000000D03*
X100670000Y-84000000D03*
D17*
X95590000Y-84000000D03*
%TD*%
D11*
%TO.C,R9*%
X90420000Y-100750000D03*
D12*
X100580000Y-100750000D03*
%TD*%
D13*
%TO.C,H4*%
X172250000Y-136500000D03*
%TD*%
D10*
%TO.C,C5*%
X107580000Y-91000000D03*
D11*
X109580000Y-91000000D03*
%TD*%
%TO.C,R17*%
X77170000Y-120250000D03*
D12*
X87330000Y-120250000D03*
%TD*%
D11*
%TO.C,R8*%
X125330000Y-86500000D03*
D12*
X115170000Y-86500000D03*
%TD*%
D11*
%TO.C,Rg1*%
X158170000Y-98750000D03*
D12*
X168330000Y-98750000D03*
%TD*%
D10*
%TO.C,C4*%
X106580000Y-121000000D03*
D11*
X108580000Y-121000000D03*
%TD*%
D10*
%TO.C,C3*%
X125330000Y-121000000D03*
D11*
X123330000Y-121000000D03*
%TD*%
D10*
%TO.C,C8*%
X152544888Y-108000000D03*
D11*
X154544888Y-108000000D03*
%TD*%
%TO.C,R2*%
X158170000Y-89750000D03*
D12*
X168330000Y-89750000D03*
%TD*%
D11*
%TO.C,R4*%
X126330000Y-136660000D03*
D12*
X126330000Y-126500000D03*
%TD*%
D11*
%TO.C,R15*%
X100580000Y-120250000D03*
D12*
X90420000Y-120250000D03*
%TD*%
D10*
%TO.C,A1*%
X132250000Y-95050000D03*
D12*
X132250000Y-97590000D03*
X132250000Y-100130000D03*
X132250000Y-102670000D03*
X132250000Y-105210000D03*
X132250000Y-107750000D03*
X132250000Y-110290000D03*
X132250000Y-112830000D03*
X132250000Y-115370000D03*
X132250000Y-117910000D03*
X132250000Y-120450000D03*
X132250000Y-122990000D03*
X132250000Y-125530000D03*
X132250000Y-128070000D03*
X132250000Y-130610000D03*
X147490000Y-130610000D03*
X147490000Y-128070000D03*
X147490000Y-125530000D03*
X147490000Y-122990000D03*
X147490000Y-120450000D03*
X147490000Y-117910000D03*
X147490000Y-115370000D03*
X147490000Y-112830000D03*
X147490000Y-110290000D03*
X147490000Y-107750000D03*
X147490000Y-105210000D03*
X147490000Y-102670000D03*
X147490000Y-100130000D03*
X147490000Y-97590000D03*
X147490000Y-95050000D03*
%TD*%
D10*
%TO.C,C1*%
X152500000Y-93044888D03*
D11*
X152500000Y-95044888D03*
%TD*%
%TO.C,R7*%
X115170000Y-91250000D03*
D12*
X125330000Y-91250000D03*
%TD*%
D11*
%TO.C,R16*%
X87330000Y-115500000D03*
D12*
X77170000Y-115500000D03*
%TD*%
D10*
%TO.C,D4*%
X105580000Y-116250000D03*
D12*
X105580000Y-108630000D03*
%TD*%
D11*
%TO.C,R6*%
X120750000Y-126500000D03*
D12*
X120750000Y-136660000D03*
%TD*%
D16*
%TO.C,J3*%
X83500000Y-100790000D03*
D18*
X83500000Y-95710000D03*
%TD*%
D11*
%TO.C,R12*%
X100580000Y-90750000D03*
D12*
X90420000Y-90750000D03*
%TD*%
D10*
%TO.C,D2*%
X106080000Y-104750000D03*
D12*
X106080000Y-97130000D03*
%TD*%
D11*
%TO.C,R13*%
X100580000Y-111000000D03*
D12*
X90420000Y-111000000D03*
%TD*%
D11*
%TO.C,Rf1*%
X158170000Y-103250000D03*
D12*
X168330000Y-103250000D03*
%TD*%
D10*
%TO.C,C2*%
X152794888Y-123500000D03*
D11*
X154794888Y-123500000D03*
%TD*%
%TO.C,R5*%
X115250000Y-126500000D03*
D12*
X115250000Y-136660000D03*
%TD*%
D17*
%TO.C,J2*%
X130000000Y-85750000D03*
D16*
X135000000Y-85750000D03*
X140000000Y-85750000D03*
X145000000Y-85750000D03*
%TD*%
M02*
