%TF.GenerationSoftware,KiCad,Pcbnew,9.0.2*%
%TF.CreationDate,2025-05-16T19:45:09+03:00*%
%TF.ProjectId,spro2,7370726f-322e-46b6-9963-61645f706362,rev?*%
%TF.SameCoordinates,Original*%
%TF.FileFunction,Drillmap*%
%TF.FilePolarity,Positive*%
%FSLAX45Y45*%
G04 Gerber Fmt 4.5, Leading zero omitted, Abs format (unit mm)*
G04 Created by KiCad (PCBNEW 9.0.2) date 2025-05-16 19:45:09*
%MOMM*%
%LPD*%
G01*
G04 APERTURE LIST*
%ADD10C,0.050000*%
%ADD11C,0.200000*%
%ADD12C,0.220000*%
G04 APERTURE END LIST*
D10*
X7500000Y-7925000D02*
X17500000Y-7925000D01*
X17500000Y-13925000D01*
X7500000Y-13925000D01*
X7500000Y-7925000D01*
D11*
D12*
X7665000Y-8090000D02*
X7885000Y-8310000D01*
X7885000Y-8090000D02*
X7665000Y-8310000D01*
X7665000Y-13540000D02*
X7885000Y-13760000D01*
X7885000Y-13540000D02*
X7665000Y-13760000D01*
X17115000Y-8090000D02*
X17335000Y-8310000D01*
X17335000Y-8090000D02*
X17115000Y-8310000D01*
X17115000Y-13540000D02*
X17335000Y-13760000D01*
X17335000Y-13540000D02*
X17115000Y-13760000D01*
D11*
X7758277Y-14238984D02*
X7758277Y-14038984D01*
X7758277Y-14038984D02*
X7805896Y-14038984D01*
X7805896Y-14038984D02*
X7834467Y-14048508D01*
X7834467Y-14048508D02*
X7853515Y-14067555D01*
X7853515Y-14067555D02*
X7863039Y-14086603D01*
X7863039Y-14086603D02*
X7872562Y-14124698D01*
X7872562Y-14124698D02*
X7872562Y-14153269D01*
X7872562Y-14153269D02*
X7863039Y-14191365D01*
X7863039Y-14191365D02*
X7853515Y-14210412D01*
X7853515Y-14210412D02*
X7834467Y-14229460D01*
X7834467Y-14229460D02*
X7805896Y-14238984D01*
X7805896Y-14238984D02*
X7758277Y-14238984D01*
X7958277Y-14238984D02*
X7958277Y-14105650D01*
X7958277Y-14143746D02*
X7967801Y-14124698D01*
X7967801Y-14124698D02*
X7977324Y-14115174D01*
X7977324Y-14115174D02*
X7996372Y-14105650D01*
X7996372Y-14105650D02*
X8015420Y-14105650D01*
X8082086Y-14238984D02*
X8082086Y-14105650D01*
X8082086Y-14038984D02*
X8072562Y-14048508D01*
X8072562Y-14048508D02*
X8082086Y-14058031D01*
X8082086Y-14058031D02*
X8091610Y-14048508D01*
X8091610Y-14048508D02*
X8082086Y-14038984D01*
X8082086Y-14038984D02*
X8082086Y-14058031D01*
X8205896Y-14238984D02*
X8186848Y-14229460D01*
X8186848Y-14229460D02*
X8177324Y-14210412D01*
X8177324Y-14210412D02*
X8177324Y-14038984D01*
X8310658Y-14238984D02*
X8291610Y-14229460D01*
X8291610Y-14229460D02*
X8282086Y-14210412D01*
X8282086Y-14210412D02*
X8282086Y-14038984D01*
X8539229Y-14238984D02*
X8539229Y-14038984D01*
X8539229Y-14038984D02*
X8605896Y-14181841D01*
X8605896Y-14181841D02*
X8672563Y-14038984D01*
X8672563Y-14038984D02*
X8672563Y-14238984D01*
X8853515Y-14238984D02*
X8853515Y-14134222D01*
X8853515Y-14134222D02*
X8843991Y-14115174D01*
X8843991Y-14115174D02*
X8824944Y-14105650D01*
X8824944Y-14105650D02*
X8786848Y-14105650D01*
X8786848Y-14105650D02*
X8767801Y-14115174D01*
X8853515Y-14229460D02*
X8834467Y-14238984D01*
X8834467Y-14238984D02*
X8786848Y-14238984D01*
X8786848Y-14238984D02*
X8767801Y-14229460D01*
X8767801Y-14229460D02*
X8758277Y-14210412D01*
X8758277Y-14210412D02*
X8758277Y-14191365D01*
X8758277Y-14191365D02*
X8767801Y-14172317D01*
X8767801Y-14172317D02*
X8786848Y-14162793D01*
X8786848Y-14162793D02*
X8834467Y-14162793D01*
X8834467Y-14162793D02*
X8853515Y-14153269D01*
X8948753Y-14105650D02*
X8948753Y-14305650D01*
X8948753Y-14115174D02*
X8967801Y-14105650D01*
X8967801Y-14105650D02*
X9005896Y-14105650D01*
X9005896Y-14105650D02*
X9024944Y-14115174D01*
X9024944Y-14115174D02*
X9034467Y-14124698D01*
X9034467Y-14124698D02*
X9043991Y-14143746D01*
X9043991Y-14143746D02*
X9043991Y-14200888D01*
X9043991Y-14200888D02*
X9034467Y-14219936D01*
X9034467Y-14219936D02*
X9024944Y-14229460D01*
X9024944Y-14229460D02*
X9005896Y-14238984D01*
X9005896Y-14238984D02*
X8967801Y-14238984D01*
X8967801Y-14238984D02*
X8948753Y-14229460D01*
X9129705Y-14219936D02*
X9139229Y-14229460D01*
X9139229Y-14229460D02*
X9129705Y-14238984D01*
X9129705Y-14238984D02*
X9120182Y-14229460D01*
X9120182Y-14229460D02*
X9129705Y-14219936D01*
X9129705Y-14219936D02*
X9129705Y-14238984D01*
X9129705Y-14115174D02*
X9139229Y-14124698D01*
X9139229Y-14124698D02*
X9129705Y-14134222D01*
X9129705Y-14134222D02*
X9120182Y-14124698D01*
X9120182Y-14124698D02*
X9129705Y-14115174D01*
X9129705Y-14115174D02*
X9129705Y-14134222D01*
X7297500Y-14467500D02*
X7497500Y-14667500D01*
X7497500Y-14467500D02*
X7297500Y-14667500D01*
X7748753Y-14478031D02*
X7758277Y-14468508D01*
X7758277Y-14468508D02*
X7777324Y-14458984D01*
X7777324Y-14458984D02*
X7824943Y-14458984D01*
X7824943Y-14458984D02*
X7843991Y-14468508D01*
X7843991Y-14468508D02*
X7853515Y-14478031D01*
X7853515Y-14478031D02*
X7863039Y-14497079D01*
X7863039Y-14497079D02*
X7863039Y-14516127D01*
X7863039Y-14516127D02*
X7853515Y-14544698D01*
X7853515Y-14544698D02*
X7739229Y-14658984D01*
X7739229Y-14658984D02*
X7863039Y-14658984D01*
X7948753Y-14639936D02*
X7958277Y-14649460D01*
X7958277Y-14649460D02*
X7948753Y-14658984D01*
X7948753Y-14658984D02*
X7939229Y-14649460D01*
X7939229Y-14649460D02*
X7948753Y-14639936D01*
X7948753Y-14639936D02*
X7948753Y-14658984D01*
X8034467Y-14478031D02*
X8043991Y-14468508D01*
X8043991Y-14468508D02*
X8063039Y-14458984D01*
X8063039Y-14458984D02*
X8110658Y-14458984D01*
X8110658Y-14458984D02*
X8129705Y-14468508D01*
X8129705Y-14468508D02*
X8139229Y-14478031D01*
X8139229Y-14478031D02*
X8148753Y-14497079D01*
X8148753Y-14497079D02*
X8148753Y-14516127D01*
X8148753Y-14516127D02*
X8139229Y-14544698D01*
X8139229Y-14544698D02*
X8024943Y-14658984D01*
X8024943Y-14658984D02*
X8148753Y-14658984D01*
X8272562Y-14458984D02*
X8291610Y-14458984D01*
X8291610Y-14458984D02*
X8310658Y-14468508D01*
X8310658Y-14468508D02*
X8320182Y-14478031D01*
X8320182Y-14478031D02*
X8329705Y-14497079D01*
X8329705Y-14497079D02*
X8339229Y-14535174D01*
X8339229Y-14535174D02*
X8339229Y-14582793D01*
X8339229Y-14582793D02*
X8329705Y-14620888D01*
X8329705Y-14620888D02*
X8320182Y-14639936D01*
X8320182Y-14639936D02*
X8310658Y-14649460D01*
X8310658Y-14649460D02*
X8291610Y-14658984D01*
X8291610Y-14658984D02*
X8272562Y-14658984D01*
X8272562Y-14658984D02*
X8253515Y-14649460D01*
X8253515Y-14649460D02*
X8243991Y-14639936D01*
X8243991Y-14639936D02*
X8234467Y-14620888D01*
X8234467Y-14620888D02*
X8224943Y-14582793D01*
X8224943Y-14582793D02*
X8224943Y-14535174D01*
X8224943Y-14535174D02*
X8234467Y-14497079D01*
X8234467Y-14497079D02*
X8243991Y-14478031D01*
X8243991Y-14478031D02*
X8253515Y-14468508D01*
X8253515Y-14468508D02*
X8272562Y-14458984D01*
X8463039Y-14458984D02*
X8482086Y-14458984D01*
X8482086Y-14458984D02*
X8501134Y-14468508D01*
X8501134Y-14468508D02*
X8510658Y-14478031D01*
X8510658Y-14478031D02*
X8520182Y-14497079D01*
X8520182Y-14497079D02*
X8529705Y-14535174D01*
X8529705Y-14535174D02*
X8529705Y-14582793D01*
X8529705Y-14582793D02*
X8520182Y-14620888D01*
X8520182Y-14620888D02*
X8510658Y-14639936D01*
X8510658Y-14639936D02*
X8501134Y-14649460D01*
X8501134Y-14649460D02*
X8482086Y-14658984D01*
X8482086Y-14658984D02*
X8463039Y-14658984D01*
X8463039Y-14658984D02*
X8443991Y-14649460D01*
X8443991Y-14649460D02*
X8434467Y-14639936D01*
X8434467Y-14639936D02*
X8424944Y-14620888D01*
X8424944Y-14620888D02*
X8415420Y-14582793D01*
X8415420Y-14582793D02*
X8415420Y-14535174D01*
X8415420Y-14535174D02*
X8424944Y-14497079D01*
X8424944Y-14497079D02*
X8434467Y-14478031D01*
X8434467Y-14478031D02*
X8443991Y-14468508D01*
X8443991Y-14468508D02*
X8463039Y-14458984D01*
X8615420Y-14658984D02*
X8615420Y-14525650D01*
X8615420Y-14544698D02*
X8624944Y-14535174D01*
X8624944Y-14535174D02*
X8643991Y-14525650D01*
X8643991Y-14525650D02*
X8672563Y-14525650D01*
X8672563Y-14525650D02*
X8691610Y-14535174D01*
X8691610Y-14535174D02*
X8701134Y-14554222D01*
X8701134Y-14554222D02*
X8701134Y-14658984D01*
X8701134Y-14554222D02*
X8710658Y-14535174D01*
X8710658Y-14535174D02*
X8729705Y-14525650D01*
X8729705Y-14525650D02*
X8758277Y-14525650D01*
X8758277Y-14525650D02*
X8777325Y-14535174D01*
X8777325Y-14535174D02*
X8786848Y-14554222D01*
X8786848Y-14554222D02*
X8786848Y-14658984D01*
X8882086Y-14658984D02*
X8882086Y-14525650D01*
X8882086Y-14544698D02*
X8891610Y-14535174D01*
X8891610Y-14535174D02*
X8910658Y-14525650D01*
X8910658Y-14525650D02*
X8939229Y-14525650D01*
X8939229Y-14525650D02*
X8958277Y-14535174D01*
X8958277Y-14535174D02*
X8967801Y-14554222D01*
X8967801Y-14554222D02*
X8967801Y-14658984D01*
X8967801Y-14554222D02*
X8977325Y-14535174D01*
X8977325Y-14535174D02*
X8996372Y-14525650D01*
X8996372Y-14525650D02*
X9024944Y-14525650D01*
X9024944Y-14525650D02*
X9043991Y-14535174D01*
X9043991Y-14535174D02*
X9053515Y-14554222D01*
X9053515Y-14554222D02*
X9053515Y-14658984D01*
X9443991Y-14449460D02*
X9272563Y-14706603D01*
X9701134Y-14458984D02*
X9720182Y-14458984D01*
X9720182Y-14458984D02*
X9739229Y-14468508D01*
X9739229Y-14468508D02*
X9748753Y-14478031D01*
X9748753Y-14478031D02*
X9758277Y-14497079D01*
X9758277Y-14497079D02*
X9767801Y-14535174D01*
X9767801Y-14535174D02*
X9767801Y-14582793D01*
X9767801Y-14582793D02*
X9758277Y-14620888D01*
X9758277Y-14620888D02*
X9748753Y-14639936D01*
X9748753Y-14639936D02*
X9739229Y-14649460D01*
X9739229Y-14649460D02*
X9720182Y-14658984D01*
X9720182Y-14658984D02*
X9701134Y-14658984D01*
X9701134Y-14658984D02*
X9682087Y-14649460D01*
X9682087Y-14649460D02*
X9672563Y-14639936D01*
X9672563Y-14639936D02*
X9663039Y-14620888D01*
X9663039Y-14620888D02*
X9653515Y-14582793D01*
X9653515Y-14582793D02*
X9653515Y-14535174D01*
X9653515Y-14535174D02*
X9663039Y-14497079D01*
X9663039Y-14497079D02*
X9672563Y-14478031D01*
X9672563Y-14478031D02*
X9682087Y-14468508D01*
X9682087Y-14468508D02*
X9701134Y-14458984D01*
X9853515Y-14639936D02*
X9863039Y-14649460D01*
X9863039Y-14649460D02*
X9853515Y-14658984D01*
X9853515Y-14658984D02*
X9843991Y-14649460D01*
X9843991Y-14649460D02*
X9853515Y-14639936D01*
X9853515Y-14639936D02*
X9853515Y-14658984D01*
X9986848Y-14458984D02*
X10005896Y-14458984D01*
X10005896Y-14458984D02*
X10024944Y-14468508D01*
X10024944Y-14468508D02*
X10034468Y-14478031D01*
X10034468Y-14478031D02*
X10043991Y-14497079D01*
X10043991Y-14497079D02*
X10053515Y-14535174D01*
X10053515Y-14535174D02*
X10053515Y-14582793D01*
X10053515Y-14582793D02*
X10043991Y-14620888D01*
X10043991Y-14620888D02*
X10034468Y-14639936D01*
X10034468Y-14639936D02*
X10024944Y-14649460D01*
X10024944Y-14649460D02*
X10005896Y-14658984D01*
X10005896Y-14658984D02*
X9986848Y-14658984D01*
X9986848Y-14658984D02*
X9967801Y-14649460D01*
X9967801Y-14649460D02*
X9958277Y-14639936D01*
X9958277Y-14639936D02*
X9948753Y-14620888D01*
X9948753Y-14620888D02*
X9939229Y-14582793D01*
X9939229Y-14582793D02*
X9939229Y-14535174D01*
X9939229Y-14535174D02*
X9948753Y-14497079D01*
X9948753Y-14497079D02*
X9958277Y-14478031D01*
X9958277Y-14478031D02*
X9967801Y-14468508D01*
X9967801Y-14468508D02*
X9986848Y-14458984D01*
X10167801Y-14544698D02*
X10148753Y-14535174D01*
X10148753Y-14535174D02*
X10139229Y-14525650D01*
X10139229Y-14525650D02*
X10129706Y-14506603D01*
X10129706Y-14506603D02*
X10129706Y-14497079D01*
X10129706Y-14497079D02*
X10139229Y-14478031D01*
X10139229Y-14478031D02*
X10148753Y-14468508D01*
X10148753Y-14468508D02*
X10167801Y-14458984D01*
X10167801Y-14458984D02*
X10205896Y-14458984D01*
X10205896Y-14458984D02*
X10224944Y-14468508D01*
X10224944Y-14468508D02*
X10234468Y-14478031D01*
X10234468Y-14478031D02*
X10243991Y-14497079D01*
X10243991Y-14497079D02*
X10243991Y-14506603D01*
X10243991Y-14506603D02*
X10234468Y-14525650D01*
X10234468Y-14525650D02*
X10224944Y-14535174D01*
X10224944Y-14535174D02*
X10205896Y-14544698D01*
X10205896Y-14544698D02*
X10167801Y-14544698D01*
X10167801Y-14544698D02*
X10148753Y-14554222D01*
X10148753Y-14554222D02*
X10139229Y-14563746D01*
X10139229Y-14563746D02*
X10129706Y-14582793D01*
X10129706Y-14582793D02*
X10129706Y-14620888D01*
X10129706Y-14620888D02*
X10139229Y-14639936D01*
X10139229Y-14639936D02*
X10148753Y-14649460D01*
X10148753Y-14649460D02*
X10167801Y-14658984D01*
X10167801Y-14658984D02*
X10205896Y-14658984D01*
X10205896Y-14658984D02*
X10224944Y-14649460D01*
X10224944Y-14649460D02*
X10234468Y-14639936D01*
X10234468Y-14639936D02*
X10243991Y-14620888D01*
X10243991Y-14620888D02*
X10243991Y-14582793D01*
X10243991Y-14582793D02*
X10234468Y-14563746D01*
X10234468Y-14563746D02*
X10224944Y-14554222D01*
X10224944Y-14554222D02*
X10205896Y-14544698D01*
X10415420Y-14458984D02*
X10377325Y-14458984D01*
X10377325Y-14458984D02*
X10358277Y-14468508D01*
X10358277Y-14468508D02*
X10348753Y-14478031D01*
X10348753Y-14478031D02*
X10329706Y-14506603D01*
X10329706Y-14506603D02*
X10320182Y-14544698D01*
X10320182Y-14544698D02*
X10320182Y-14620888D01*
X10320182Y-14620888D02*
X10329706Y-14639936D01*
X10329706Y-14639936D02*
X10339229Y-14649460D01*
X10339229Y-14649460D02*
X10358277Y-14658984D01*
X10358277Y-14658984D02*
X10396372Y-14658984D01*
X10396372Y-14658984D02*
X10415420Y-14649460D01*
X10415420Y-14649460D02*
X10424944Y-14639936D01*
X10424944Y-14639936D02*
X10434468Y-14620888D01*
X10434468Y-14620888D02*
X10434468Y-14573269D01*
X10434468Y-14573269D02*
X10424944Y-14554222D01*
X10424944Y-14554222D02*
X10415420Y-14544698D01*
X10415420Y-14544698D02*
X10396372Y-14535174D01*
X10396372Y-14535174D02*
X10358277Y-14535174D01*
X10358277Y-14535174D02*
X10339229Y-14544698D01*
X10339229Y-14544698D02*
X10329706Y-14554222D01*
X10329706Y-14554222D02*
X10320182Y-14573269D01*
X10605896Y-14458984D02*
X10567801Y-14458984D01*
X10567801Y-14458984D02*
X10548753Y-14468508D01*
X10548753Y-14468508D02*
X10539229Y-14478031D01*
X10539229Y-14478031D02*
X10520182Y-14506603D01*
X10520182Y-14506603D02*
X10510658Y-14544698D01*
X10510658Y-14544698D02*
X10510658Y-14620888D01*
X10510658Y-14620888D02*
X10520182Y-14639936D01*
X10520182Y-14639936D02*
X10529706Y-14649460D01*
X10529706Y-14649460D02*
X10548753Y-14658984D01*
X10548753Y-14658984D02*
X10586849Y-14658984D01*
X10586849Y-14658984D02*
X10605896Y-14649460D01*
X10605896Y-14649460D02*
X10615420Y-14639936D01*
X10615420Y-14639936D02*
X10624944Y-14620888D01*
X10624944Y-14620888D02*
X10624944Y-14573269D01*
X10624944Y-14573269D02*
X10615420Y-14554222D01*
X10615420Y-14554222D02*
X10605896Y-14544698D01*
X10605896Y-14544698D02*
X10586849Y-14535174D01*
X10586849Y-14535174D02*
X10548753Y-14535174D01*
X10548753Y-14535174D02*
X10529706Y-14544698D01*
X10529706Y-14544698D02*
X10520182Y-14554222D01*
X10520182Y-14554222D02*
X10510658Y-14573269D01*
X10701134Y-14458984D02*
X10701134Y-14497079D01*
X10777325Y-14458984D02*
X10777325Y-14497079D01*
X11072563Y-14735174D02*
X11063039Y-14725650D01*
X11063039Y-14725650D02*
X11043991Y-14697079D01*
X11043991Y-14697079D02*
X11034468Y-14678031D01*
X11034468Y-14678031D02*
X11024944Y-14649460D01*
X11024944Y-14649460D02*
X11015420Y-14601841D01*
X11015420Y-14601841D02*
X11015420Y-14563746D01*
X11015420Y-14563746D02*
X11024944Y-14516127D01*
X11024944Y-14516127D02*
X11034468Y-14487555D01*
X11034468Y-14487555D02*
X11043991Y-14468508D01*
X11043991Y-14468508D02*
X11063039Y-14439936D01*
X11063039Y-14439936D02*
X11072563Y-14430412D01*
X11234468Y-14525650D02*
X11234468Y-14658984D01*
X11186848Y-14449460D02*
X11139230Y-14592317D01*
X11139230Y-14592317D02*
X11263039Y-14592317D01*
X11491610Y-14658984D02*
X11491610Y-14458984D01*
X11577325Y-14658984D02*
X11577325Y-14554222D01*
X11577325Y-14554222D02*
X11567801Y-14535174D01*
X11567801Y-14535174D02*
X11548753Y-14525650D01*
X11548753Y-14525650D02*
X11520182Y-14525650D01*
X11520182Y-14525650D02*
X11501134Y-14535174D01*
X11501134Y-14535174D02*
X11491610Y-14544698D01*
X11701134Y-14658984D02*
X11682087Y-14649460D01*
X11682087Y-14649460D02*
X11672563Y-14639936D01*
X11672563Y-14639936D02*
X11663039Y-14620888D01*
X11663039Y-14620888D02*
X11663039Y-14563746D01*
X11663039Y-14563746D02*
X11672563Y-14544698D01*
X11672563Y-14544698D02*
X11682087Y-14535174D01*
X11682087Y-14535174D02*
X11701134Y-14525650D01*
X11701134Y-14525650D02*
X11729706Y-14525650D01*
X11729706Y-14525650D02*
X11748753Y-14535174D01*
X11748753Y-14535174D02*
X11758277Y-14544698D01*
X11758277Y-14544698D02*
X11767801Y-14563746D01*
X11767801Y-14563746D02*
X11767801Y-14620888D01*
X11767801Y-14620888D02*
X11758277Y-14639936D01*
X11758277Y-14639936D02*
X11748753Y-14649460D01*
X11748753Y-14649460D02*
X11729706Y-14658984D01*
X11729706Y-14658984D02*
X11701134Y-14658984D01*
X11882087Y-14658984D02*
X11863039Y-14649460D01*
X11863039Y-14649460D02*
X11853515Y-14630412D01*
X11853515Y-14630412D02*
X11853515Y-14458984D01*
X12034468Y-14649460D02*
X12015420Y-14658984D01*
X12015420Y-14658984D02*
X11977325Y-14658984D01*
X11977325Y-14658984D02*
X11958277Y-14649460D01*
X11958277Y-14649460D02*
X11948753Y-14630412D01*
X11948753Y-14630412D02*
X11948753Y-14554222D01*
X11948753Y-14554222D02*
X11958277Y-14535174D01*
X11958277Y-14535174D02*
X11977325Y-14525650D01*
X11977325Y-14525650D02*
X12015420Y-14525650D01*
X12015420Y-14525650D02*
X12034468Y-14535174D01*
X12034468Y-14535174D02*
X12043991Y-14554222D01*
X12043991Y-14554222D02*
X12043991Y-14573269D01*
X12043991Y-14573269D02*
X11948753Y-14592317D01*
X12120182Y-14649460D02*
X12139230Y-14658984D01*
X12139230Y-14658984D02*
X12177325Y-14658984D01*
X12177325Y-14658984D02*
X12196372Y-14649460D01*
X12196372Y-14649460D02*
X12205896Y-14630412D01*
X12205896Y-14630412D02*
X12205896Y-14620888D01*
X12205896Y-14620888D02*
X12196372Y-14601841D01*
X12196372Y-14601841D02*
X12177325Y-14592317D01*
X12177325Y-14592317D02*
X12148753Y-14592317D01*
X12148753Y-14592317D02*
X12129706Y-14582793D01*
X12129706Y-14582793D02*
X12120182Y-14563746D01*
X12120182Y-14563746D02*
X12120182Y-14554222D01*
X12120182Y-14554222D02*
X12129706Y-14535174D01*
X12129706Y-14535174D02*
X12148753Y-14525650D01*
X12148753Y-14525650D02*
X12177325Y-14525650D01*
X12177325Y-14525650D02*
X12196372Y-14535174D01*
X12272563Y-14735174D02*
X12282087Y-14725650D01*
X12282087Y-14725650D02*
X12301134Y-14697079D01*
X12301134Y-14697079D02*
X12310658Y-14678031D01*
X12310658Y-14678031D02*
X12320182Y-14649460D01*
X12320182Y-14649460D02*
X12329706Y-14601841D01*
X12329706Y-14601841D02*
X12329706Y-14563746D01*
X12329706Y-14563746D02*
X12320182Y-14516127D01*
X12320182Y-14516127D02*
X12310658Y-14487555D01*
X12310658Y-14487555D02*
X12301134Y-14468508D01*
X12301134Y-14468508D02*
X12282087Y-14439936D01*
X12282087Y-14439936D02*
X12272563Y-14430412D01*
X12634468Y-14735174D02*
X12624944Y-14725650D01*
X12624944Y-14725650D02*
X12605896Y-14697079D01*
X12605896Y-14697079D02*
X12596372Y-14678031D01*
X12596372Y-14678031D02*
X12586849Y-14649460D01*
X12586849Y-14649460D02*
X12577325Y-14601841D01*
X12577325Y-14601841D02*
X12577325Y-14563746D01*
X12577325Y-14563746D02*
X12586849Y-14516127D01*
X12586849Y-14516127D02*
X12596372Y-14487555D01*
X12596372Y-14487555D02*
X12605896Y-14468508D01*
X12605896Y-14468508D02*
X12624944Y-14439936D01*
X12624944Y-14439936D02*
X12634468Y-14430412D01*
X12710658Y-14525650D02*
X12710658Y-14658984D01*
X12710658Y-14544698D02*
X12720182Y-14535174D01*
X12720182Y-14535174D02*
X12739230Y-14525650D01*
X12739230Y-14525650D02*
X12767801Y-14525650D01*
X12767801Y-14525650D02*
X12786849Y-14535174D01*
X12786849Y-14535174D02*
X12796372Y-14554222D01*
X12796372Y-14554222D02*
X12796372Y-14658984D01*
X12920182Y-14658984D02*
X12901134Y-14649460D01*
X12901134Y-14649460D02*
X12891611Y-14639936D01*
X12891611Y-14639936D02*
X12882087Y-14620888D01*
X12882087Y-14620888D02*
X12882087Y-14563746D01*
X12882087Y-14563746D02*
X12891611Y-14544698D01*
X12891611Y-14544698D02*
X12901134Y-14535174D01*
X12901134Y-14535174D02*
X12920182Y-14525650D01*
X12920182Y-14525650D02*
X12948753Y-14525650D01*
X12948753Y-14525650D02*
X12967801Y-14535174D01*
X12967801Y-14535174D02*
X12977325Y-14544698D01*
X12977325Y-14544698D02*
X12986849Y-14563746D01*
X12986849Y-14563746D02*
X12986849Y-14620888D01*
X12986849Y-14620888D02*
X12977325Y-14639936D01*
X12977325Y-14639936D02*
X12967801Y-14649460D01*
X12967801Y-14649460D02*
X12948753Y-14658984D01*
X12948753Y-14658984D02*
X12920182Y-14658984D01*
X13043992Y-14525650D02*
X13120182Y-14525650D01*
X13072563Y-14458984D02*
X13072563Y-14630412D01*
X13072563Y-14630412D02*
X13082087Y-14649460D01*
X13082087Y-14649460D02*
X13101134Y-14658984D01*
X13101134Y-14658984D02*
X13120182Y-14658984D01*
X13339230Y-14525650D02*
X13339230Y-14725650D01*
X13339230Y-14535174D02*
X13358277Y-14525650D01*
X13358277Y-14525650D02*
X13396373Y-14525650D01*
X13396373Y-14525650D02*
X13415420Y-14535174D01*
X13415420Y-14535174D02*
X13424944Y-14544698D01*
X13424944Y-14544698D02*
X13434468Y-14563746D01*
X13434468Y-14563746D02*
X13434468Y-14620888D01*
X13434468Y-14620888D02*
X13424944Y-14639936D01*
X13424944Y-14639936D02*
X13415420Y-14649460D01*
X13415420Y-14649460D02*
X13396373Y-14658984D01*
X13396373Y-14658984D02*
X13358277Y-14658984D01*
X13358277Y-14658984D02*
X13339230Y-14649460D01*
X13548753Y-14658984D02*
X13529706Y-14649460D01*
X13529706Y-14649460D02*
X13520182Y-14630412D01*
X13520182Y-14630412D02*
X13520182Y-14458984D01*
X13710658Y-14658984D02*
X13710658Y-14554222D01*
X13710658Y-14554222D02*
X13701134Y-14535174D01*
X13701134Y-14535174D02*
X13682087Y-14525650D01*
X13682087Y-14525650D02*
X13643992Y-14525650D01*
X13643992Y-14525650D02*
X13624944Y-14535174D01*
X13710658Y-14649460D02*
X13691611Y-14658984D01*
X13691611Y-14658984D02*
X13643992Y-14658984D01*
X13643992Y-14658984D02*
X13624944Y-14649460D01*
X13624944Y-14649460D02*
X13615420Y-14630412D01*
X13615420Y-14630412D02*
X13615420Y-14611365D01*
X13615420Y-14611365D02*
X13624944Y-14592317D01*
X13624944Y-14592317D02*
X13643992Y-14582793D01*
X13643992Y-14582793D02*
X13691611Y-14582793D01*
X13691611Y-14582793D02*
X13710658Y-14573269D01*
X13777325Y-14525650D02*
X13853515Y-14525650D01*
X13805896Y-14458984D02*
X13805896Y-14630412D01*
X13805896Y-14630412D02*
X13815420Y-14649460D01*
X13815420Y-14649460D02*
X13834468Y-14658984D01*
X13834468Y-14658984D02*
X13853515Y-14658984D01*
X13996373Y-14649460D02*
X13977325Y-14658984D01*
X13977325Y-14658984D02*
X13939230Y-14658984D01*
X13939230Y-14658984D02*
X13920182Y-14649460D01*
X13920182Y-14649460D02*
X13910658Y-14630412D01*
X13910658Y-14630412D02*
X13910658Y-14554222D01*
X13910658Y-14554222D02*
X13920182Y-14535174D01*
X13920182Y-14535174D02*
X13939230Y-14525650D01*
X13939230Y-14525650D02*
X13977325Y-14525650D01*
X13977325Y-14525650D02*
X13996373Y-14535174D01*
X13996373Y-14535174D02*
X14005896Y-14554222D01*
X14005896Y-14554222D02*
X14005896Y-14573269D01*
X14005896Y-14573269D02*
X13910658Y-14592317D01*
X14177325Y-14658984D02*
X14177325Y-14458984D01*
X14177325Y-14649460D02*
X14158277Y-14658984D01*
X14158277Y-14658984D02*
X14120182Y-14658984D01*
X14120182Y-14658984D02*
X14101134Y-14649460D01*
X14101134Y-14649460D02*
X14091611Y-14639936D01*
X14091611Y-14639936D02*
X14082087Y-14620888D01*
X14082087Y-14620888D02*
X14082087Y-14563746D01*
X14082087Y-14563746D02*
X14091611Y-14544698D01*
X14091611Y-14544698D02*
X14101134Y-14535174D01*
X14101134Y-14535174D02*
X14120182Y-14525650D01*
X14120182Y-14525650D02*
X14158277Y-14525650D01*
X14158277Y-14525650D02*
X14177325Y-14535174D01*
X14253515Y-14735174D02*
X14263039Y-14725650D01*
X14263039Y-14725650D02*
X14282087Y-14697079D01*
X14282087Y-14697079D02*
X14291611Y-14678031D01*
X14291611Y-14678031D02*
X14301134Y-14649460D01*
X14301134Y-14649460D02*
X14310658Y-14601841D01*
X14310658Y-14601841D02*
X14310658Y-14563746D01*
X14310658Y-14563746D02*
X14301134Y-14516127D01*
X14301134Y-14516127D02*
X14291611Y-14487555D01*
X14291611Y-14487555D02*
X14282087Y-14468508D01*
X14282087Y-14468508D02*
X14263039Y-14439936D01*
X14263039Y-14439936D02*
X14253515Y-14430412D01*
M02*
