G04 #@! TF.GenerationSoftware,KiCad,Pcbnew,9.0.2*
G04 #@! TF.CreationDate,2025-05-16T19:44:45+03:00*
G04 #@! TF.ProjectId,spro2,7370726f-322e-46b6-9963-61645f706362,rev?*
G04 #@! TF.SameCoordinates,Original*
G04 #@! TF.FileFunction,Legend,Top*
G04 #@! TF.FilePolarity,Positive*
%FSLAX46Y46*%
G04 Gerber Fmt 4.6, Leading zero omitted, Abs format (unit mm)*
G04 Created by KiCad (PCBNEW 9.0.2) date 2025-05-16 19:44:45*
%MOMM*%
%LPD*%
G01*
G04 APERTURE LIST*
G04 Aperture macros list*
%AMRoundRect*
0 Rectangle with rounded corners*
0 $1 Rounding radius*
0 $2 $3 $4 $5 $6 $7 $8 $9 X,Y pos of 4 corners*
0 Add a 4 corners polygon primitive as box body*
4,1,4,$2,$3,$4,$5,$6,$7,$8,$9,$2,$3,0*
0 Add four circle primitives for the rounded corners*
1,1,$1+$1,$2,$3*
1,1,$1+$1,$4,$5*
1,1,$1+$1,$6,$7*
1,1,$1+$1,$8,$9*
0 Add four rect primitives between the rounded corners*
20,1,$1+$1,$2,$3,$4,$5,0*
20,1,$1+$1,$4,$5,$6,$7,0*
20,1,$1+$1,$6,$7,$8,$9,0*
20,1,$1+$1,$8,$9,$2,$3,0*%
G04 Aperture macros list end*
%ADD10C,0.150000*%
%ADD11C,0.100000*%
%ADD12C,0.254000*%
%ADD13C,0.120000*%
%ADD14C,0.200000*%
%ADD15RoundRect,0.250000X0.750000X0.750000X-0.750000X0.750000X-0.750000X-0.750000X0.750000X-0.750000X0*%
%ADD16C,2.000000*%
%ADD17RoundRect,0.102000X-1.200000X-1.200000X1.200000X-1.200000X1.200000X1.200000X-1.200000X1.200000X0*%
%ADD18C,2.604000*%
%ADD19RoundRect,0.102000X-1.200000X1.200000X-1.200000X-1.200000X1.200000X-1.200000X1.200000X1.200000X0*%
%ADD20RoundRect,0.250000X0.550000X0.550000X-0.550000X0.550000X-0.550000X-0.550000X0.550000X-0.550000X0*%
%ADD21C,1.600000*%
%ADD22RoundRect,0.250000X-0.550000X0.550000X-0.550000X-0.550000X0.550000X-0.550000X0.550000X0.550000X0*%
%ADD23C,2.200000*%
%ADD24RoundRect,0.250000X-0.550000X-0.550000X0.550000X-0.550000X0.550000X0.550000X-0.550000X0.550000X0*%
%ADD25R,1.130000X1.130000*%
%ADD26C,1.130000*%
%ADD27RoundRect,0.250000X0.750000X-0.750000X0.750000X0.750000X-0.750000X0.750000X-0.750000X-0.750000X0*%
%ADD28R,1.600000X1.600000*%
%ADD29O,1.600000X1.600000*%
%ADD30RoundRect,0.250000X0.550000X-0.550000X0.550000X0.550000X-0.550000X0.550000X-0.550000X-0.550000X0*%
G04 APERTURE END LIST*
D10*
X127001010Y-97609580D02*
X126953391Y-97657200D01*
X126953391Y-97657200D02*
X126810534Y-97704819D01*
X126810534Y-97704819D02*
X126715296Y-97704819D01*
X126715296Y-97704819D02*
X126572439Y-97657200D01*
X126572439Y-97657200D02*
X126477201Y-97561961D01*
X126477201Y-97561961D02*
X126429582Y-97466723D01*
X126429582Y-97466723D02*
X126381963Y-97276247D01*
X126381963Y-97276247D02*
X126381963Y-97133390D01*
X126381963Y-97133390D02*
X126429582Y-96942914D01*
X126429582Y-96942914D02*
X126477201Y-96847676D01*
X126477201Y-96847676D02*
X126572439Y-96752438D01*
X126572439Y-96752438D02*
X126715296Y-96704819D01*
X126715296Y-96704819D02*
X126810534Y-96704819D01*
X126810534Y-96704819D02*
X126953391Y-96752438D01*
X126953391Y-96752438D02*
X127001010Y-96800057D01*
X127477201Y-97704819D02*
X127667677Y-97704819D01*
X127667677Y-97704819D02*
X127762915Y-97657200D01*
X127762915Y-97657200D02*
X127810534Y-97609580D01*
X127810534Y-97609580D02*
X127905772Y-97466723D01*
X127905772Y-97466723D02*
X127953391Y-97276247D01*
X127953391Y-97276247D02*
X127953391Y-96895295D01*
X127953391Y-96895295D02*
X127905772Y-96800057D01*
X127905772Y-96800057D02*
X127858153Y-96752438D01*
X127858153Y-96752438D02*
X127762915Y-96704819D01*
X127762915Y-96704819D02*
X127572439Y-96704819D01*
X127572439Y-96704819D02*
X127477201Y-96752438D01*
X127477201Y-96752438D02*
X127429582Y-96800057D01*
X127429582Y-96800057D02*
X127381963Y-96895295D01*
X127381963Y-96895295D02*
X127381963Y-97133390D01*
X127381963Y-97133390D02*
X127429582Y-97228628D01*
X127429582Y-97228628D02*
X127477201Y-97276247D01*
X127477201Y-97276247D02*
X127572439Y-97323866D01*
X127572439Y-97323866D02*
X127762915Y-97323866D01*
X127762915Y-97323866D02*
X127858153Y-97276247D01*
X127858153Y-97276247D02*
X127905772Y-97228628D01*
X127905772Y-97228628D02*
X127953391Y-97133390D01*
D11*
X88738095Y-84207419D02*
X88738095Y-85016942D01*
X88738095Y-85016942D02*
X88785714Y-85112180D01*
X88785714Y-85112180D02*
X88833333Y-85159800D01*
X88833333Y-85159800D02*
X88928571Y-85207419D01*
X88928571Y-85207419D02*
X89119047Y-85207419D01*
X89119047Y-85207419D02*
X89214285Y-85159800D01*
X89214285Y-85159800D02*
X89261904Y-85112180D01*
X89261904Y-85112180D02*
X89309523Y-85016942D01*
X89309523Y-85016942D02*
X89309523Y-84207419D01*
X90309523Y-85207419D02*
X89738095Y-85207419D01*
X90023809Y-85207419D02*
X90023809Y-84207419D01*
X90023809Y-84207419D02*
X89928571Y-84350276D01*
X89928571Y-84350276D02*
X89833333Y-84445514D01*
X89833333Y-84445514D02*
X89738095Y-84493133D01*
X78166666Y-102707419D02*
X78166666Y-103421704D01*
X78166666Y-103421704D02*
X78119047Y-103564561D01*
X78119047Y-103564561D02*
X78023809Y-103659800D01*
X78023809Y-103659800D02*
X77880952Y-103707419D01*
X77880952Y-103707419D02*
X77785714Y-103707419D01*
X78595238Y-102802657D02*
X78642857Y-102755038D01*
X78642857Y-102755038D02*
X78738095Y-102707419D01*
X78738095Y-102707419D02*
X78976190Y-102707419D01*
X78976190Y-102707419D02*
X79071428Y-102755038D01*
X79071428Y-102755038D02*
X79119047Y-102802657D01*
X79119047Y-102802657D02*
X79166666Y-102897895D01*
X79166666Y-102897895D02*
X79166666Y-102993133D01*
X79166666Y-102993133D02*
X79119047Y-103135990D01*
X79119047Y-103135990D02*
X78547619Y-103707419D01*
X78547619Y-103707419D02*
X79166666Y-103707419D01*
X155666666Y-85207419D02*
X155666666Y-85921704D01*
X155666666Y-85921704D02*
X155619047Y-86064561D01*
X155619047Y-86064561D02*
X155523809Y-86159800D01*
X155523809Y-86159800D02*
X155380952Y-86207419D01*
X155380952Y-86207419D02*
X155285714Y-86207419D01*
X156666666Y-86207419D02*
X156095238Y-86207419D01*
X156380952Y-86207419D02*
X156380952Y-85207419D01*
X156380952Y-85207419D02*
X156285714Y-85350276D01*
X156285714Y-85350276D02*
X156190476Y-85445514D01*
X156190476Y-85445514D02*
X156095238Y-85493133D01*
D10*
X152083333Y-119109580D02*
X152035714Y-119157200D01*
X152035714Y-119157200D02*
X151892857Y-119204819D01*
X151892857Y-119204819D02*
X151797619Y-119204819D01*
X151797619Y-119204819D02*
X151654762Y-119157200D01*
X151654762Y-119157200D02*
X151559524Y-119061961D01*
X151559524Y-119061961D02*
X151511905Y-118966723D01*
X151511905Y-118966723D02*
X151464286Y-118776247D01*
X151464286Y-118776247D02*
X151464286Y-118633390D01*
X151464286Y-118633390D02*
X151511905Y-118442914D01*
X151511905Y-118442914D02*
X151559524Y-118347676D01*
X151559524Y-118347676D02*
X151654762Y-118252438D01*
X151654762Y-118252438D02*
X151797619Y-118204819D01*
X151797619Y-118204819D02*
X151892857Y-118204819D01*
X151892857Y-118204819D02*
X152035714Y-118252438D01*
X152035714Y-118252438D02*
X152083333Y-118300057D01*
X152940476Y-118204819D02*
X152750000Y-118204819D01*
X152750000Y-118204819D02*
X152654762Y-118252438D01*
X152654762Y-118252438D02*
X152607143Y-118300057D01*
X152607143Y-118300057D02*
X152511905Y-118442914D01*
X152511905Y-118442914D02*
X152464286Y-118633390D01*
X152464286Y-118633390D02*
X152464286Y-119014342D01*
X152464286Y-119014342D02*
X152511905Y-119109580D01*
X152511905Y-119109580D02*
X152559524Y-119157200D01*
X152559524Y-119157200D02*
X152654762Y-119204819D01*
X152654762Y-119204819D02*
X152845238Y-119204819D01*
X152845238Y-119204819D02*
X152940476Y-119157200D01*
X152940476Y-119157200D02*
X152988095Y-119109580D01*
X152988095Y-119109580D02*
X153035714Y-119014342D01*
X153035714Y-119014342D02*
X153035714Y-118776247D01*
X153035714Y-118776247D02*
X152988095Y-118681009D01*
X152988095Y-118681009D02*
X152940476Y-118633390D01*
X152940476Y-118633390D02*
X152845238Y-118585771D01*
X152845238Y-118585771D02*
X152654762Y-118585771D01*
X152654762Y-118585771D02*
X152559524Y-118633390D01*
X152559524Y-118633390D02*
X152511905Y-118681009D01*
X152511905Y-118681009D02*
X152464286Y-118776247D01*
X85357142Y-104454819D02*
X85023809Y-103978628D01*
X84785714Y-104454819D02*
X84785714Y-103454819D01*
X84785714Y-103454819D02*
X85166666Y-103454819D01*
X85166666Y-103454819D02*
X85261904Y-103502438D01*
X85261904Y-103502438D02*
X85309523Y-103550057D01*
X85309523Y-103550057D02*
X85357142Y-103645295D01*
X85357142Y-103645295D02*
X85357142Y-103788152D01*
X85357142Y-103788152D02*
X85309523Y-103883390D01*
X85309523Y-103883390D02*
X85261904Y-103931009D01*
X85261904Y-103931009D02*
X85166666Y-103978628D01*
X85166666Y-103978628D02*
X84785714Y-103978628D01*
X86309523Y-104454819D02*
X85738095Y-104454819D01*
X86023809Y-104454819D02*
X86023809Y-103454819D01*
X86023809Y-103454819D02*
X85928571Y-103597676D01*
X85928571Y-103597676D02*
X85833333Y-103692914D01*
X85833333Y-103692914D02*
X85738095Y-103740533D01*
X87261904Y-104454819D02*
X86690476Y-104454819D01*
X86976190Y-104454819D02*
X86976190Y-103454819D01*
X86976190Y-103454819D02*
X86880952Y-103597676D01*
X86880952Y-103597676D02*
X86785714Y-103692914D01*
X86785714Y-103692914D02*
X86690476Y-103740533D01*
X81777142Y-125454819D02*
X81443809Y-124978628D01*
X81205714Y-125454819D02*
X81205714Y-124454819D01*
X81205714Y-124454819D02*
X81586666Y-124454819D01*
X81586666Y-124454819D02*
X81681904Y-124502438D01*
X81681904Y-124502438D02*
X81729523Y-124550057D01*
X81729523Y-124550057D02*
X81777142Y-124645295D01*
X81777142Y-124645295D02*
X81777142Y-124788152D01*
X81777142Y-124788152D02*
X81729523Y-124883390D01*
X81729523Y-124883390D02*
X81681904Y-124931009D01*
X81681904Y-124931009D02*
X81586666Y-124978628D01*
X81586666Y-124978628D02*
X81205714Y-124978628D01*
X82729523Y-125454819D02*
X82158095Y-125454819D01*
X82443809Y-125454819D02*
X82443809Y-124454819D01*
X82443809Y-124454819D02*
X82348571Y-124597676D01*
X82348571Y-124597676D02*
X82253333Y-124692914D01*
X82253333Y-124692914D02*
X82158095Y-124740533D01*
X83300952Y-124883390D02*
X83205714Y-124835771D01*
X83205714Y-124835771D02*
X83158095Y-124788152D01*
X83158095Y-124788152D02*
X83110476Y-124692914D01*
X83110476Y-124692914D02*
X83110476Y-124645295D01*
X83110476Y-124645295D02*
X83158095Y-124550057D01*
X83158095Y-124550057D02*
X83205714Y-124502438D01*
X83205714Y-124502438D02*
X83300952Y-124454819D01*
X83300952Y-124454819D02*
X83491428Y-124454819D01*
X83491428Y-124454819D02*
X83586666Y-124502438D01*
X83586666Y-124502438D02*
X83634285Y-124550057D01*
X83634285Y-124550057D02*
X83681904Y-124645295D01*
X83681904Y-124645295D02*
X83681904Y-124692914D01*
X83681904Y-124692914D02*
X83634285Y-124788152D01*
X83634285Y-124788152D02*
X83586666Y-124835771D01*
X83586666Y-124835771D02*
X83491428Y-124883390D01*
X83491428Y-124883390D02*
X83300952Y-124883390D01*
X83300952Y-124883390D02*
X83205714Y-124931009D01*
X83205714Y-124931009D02*
X83158095Y-124978628D01*
X83158095Y-124978628D02*
X83110476Y-125073866D01*
X83110476Y-125073866D02*
X83110476Y-125264342D01*
X83110476Y-125264342D02*
X83158095Y-125359580D01*
X83158095Y-125359580D02*
X83205714Y-125407200D01*
X83205714Y-125407200D02*
X83300952Y-125454819D01*
X83300952Y-125454819D02*
X83491428Y-125454819D01*
X83491428Y-125454819D02*
X83586666Y-125407200D01*
X83586666Y-125407200D02*
X83634285Y-125359580D01*
X83634285Y-125359580D02*
X83681904Y-125264342D01*
X83681904Y-125264342D02*
X83681904Y-125073866D01*
X83681904Y-125073866D02*
X83634285Y-124978628D01*
X83634285Y-124978628D02*
X83586666Y-124931009D01*
X83586666Y-124931009D02*
X83491428Y-124883390D01*
X103761905Y-111704819D02*
X103761905Y-110704819D01*
X103761905Y-110704819D02*
X104000000Y-110704819D01*
X104000000Y-110704819D02*
X104142857Y-110752438D01*
X104142857Y-110752438D02*
X104238095Y-110847676D01*
X104238095Y-110847676D02*
X104285714Y-110942914D01*
X104285714Y-110942914D02*
X104333333Y-111133390D01*
X104333333Y-111133390D02*
X104333333Y-111276247D01*
X104333333Y-111276247D02*
X104285714Y-111466723D01*
X104285714Y-111466723D02*
X104238095Y-111561961D01*
X104238095Y-111561961D02*
X104142857Y-111657200D01*
X104142857Y-111657200D02*
X104000000Y-111704819D01*
X104000000Y-111704819D02*
X103761905Y-111704819D01*
X104666667Y-110704819D02*
X105285714Y-110704819D01*
X105285714Y-110704819D02*
X104952381Y-111085771D01*
X104952381Y-111085771D02*
X105095238Y-111085771D01*
X105095238Y-111085771D02*
X105190476Y-111133390D01*
X105190476Y-111133390D02*
X105238095Y-111181009D01*
X105238095Y-111181009D02*
X105285714Y-111276247D01*
X105285714Y-111276247D02*
X105285714Y-111514342D01*
X105285714Y-111514342D02*
X105238095Y-111609580D01*
X105238095Y-111609580D02*
X105190476Y-111657200D01*
X105190476Y-111657200D02*
X105095238Y-111704819D01*
X105095238Y-111704819D02*
X104809524Y-111704819D01*
X104809524Y-111704819D02*
X104714286Y-111657200D01*
X104714286Y-111657200D02*
X104666667Y-111609580D01*
X103738095Y-107954819D02*
X103738095Y-106954819D01*
X104309523Y-107954819D02*
X103880952Y-107383390D01*
X104309523Y-106954819D02*
X103738095Y-107526247D01*
X124451010Y-120859580D02*
X124403391Y-120907200D01*
X124403391Y-120907200D02*
X124260534Y-120954819D01*
X124260534Y-120954819D02*
X124165296Y-120954819D01*
X124165296Y-120954819D02*
X124022439Y-120907200D01*
X124022439Y-120907200D02*
X123927201Y-120811961D01*
X123927201Y-120811961D02*
X123879582Y-120716723D01*
X123879582Y-120716723D02*
X123831963Y-120526247D01*
X123831963Y-120526247D02*
X123831963Y-120383390D01*
X123831963Y-120383390D02*
X123879582Y-120192914D01*
X123879582Y-120192914D02*
X123927201Y-120097676D01*
X123927201Y-120097676D02*
X124022439Y-120002438D01*
X124022439Y-120002438D02*
X124165296Y-119954819D01*
X124165296Y-119954819D02*
X124260534Y-119954819D01*
X124260534Y-119954819D02*
X124403391Y-120002438D01*
X124403391Y-120002438D02*
X124451010Y-120050057D01*
X124784344Y-119954819D02*
X125451010Y-119954819D01*
X125451010Y-119954819D02*
X125022439Y-120954819D01*
X170583333Y-94704819D02*
X170250000Y-94228628D01*
X170011905Y-94704819D02*
X170011905Y-93704819D01*
X170011905Y-93704819D02*
X170392857Y-93704819D01*
X170392857Y-93704819D02*
X170488095Y-93752438D01*
X170488095Y-93752438D02*
X170535714Y-93800057D01*
X170535714Y-93800057D02*
X170583333Y-93895295D01*
X170583333Y-93895295D02*
X170583333Y-94038152D01*
X170583333Y-94038152D02*
X170535714Y-94133390D01*
X170535714Y-94133390D02*
X170488095Y-94181009D01*
X170488095Y-94181009D02*
X170392857Y-94228628D01*
X170392857Y-94228628D02*
X170011905Y-94228628D01*
X170916667Y-93704819D02*
X171535714Y-93704819D01*
X171535714Y-93704819D02*
X171202381Y-94085771D01*
X171202381Y-94085771D02*
X171345238Y-94085771D01*
X171345238Y-94085771D02*
X171440476Y-94133390D01*
X171440476Y-94133390D02*
X171488095Y-94181009D01*
X171488095Y-94181009D02*
X171535714Y-94276247D01*
X171535714Y-94276247D02*
X171535714Y-94514342D01*
X171535714Y-94514342D02*
X171488095Y-94609580D01*
X171488095Y-94609580D02*
X171440476Y-94657200D01*
X171440476Y-94657200D02*
X171345238Y-94704819D01*
X171345238Y-94704819D02*
X171059524Y-94704819D01*
X171059524Y-94704819D02*
X170964286Y-94657200D01*
X170964286Y-94657200D02*
X170916667Y-94609580D01*
X94437142Y-120824819D02*
X94103809Y-120348628D01*
X93865714Y-120824819D02*
X93865714Y-119824819D01*
X93865714Y-119824819D02*
X94246666Y-119824819D01*
X94246666Y-119824819D02*
X94341904Y-119872438D01*
X94341904Y-119872438D02*
X94389523Y-119920057D01*
X94389523Y-119920057D02*
X94437142Y-120015295D01*
X94437142Y-120015295D02*
X94437142Y-120158152D01*
X94437142Y-120158152D02*
X94389523Y-120253390D01*
X94389523Y-120253390D02*
X94341904Y-120301009D01*
X94341904Y-120301009D02*
X94246666Y-120348628D01*
X94246666Y-120348628D02*
X93865714Y-120348628D01*
X95389523Y-120824819D02*
X94818095Y-120824819D01*
X95103809Y-120824819D02*
X95103809Y-119824819D01*
X95103809Y-119824819D02*
X95008571Y-119967676D01*
X95008571Y-119967676D02*
X94913333Y-120062914D01*
X94913333Y-120062914D02*
X94818095Y-120110533D01*
X96246666Y-120158152D02*
X96246666Y-120824819D01*
X96008571Y-119777200D02*
X95770476Y-120491485D01*
X95770476Y-120491485D02*
X96389523Y-120491485D01*
X104761905Y-94704819D02*
X104761905Y-93704819D01*
X104761905Y-93704819D02*
X105000000Y-93704819D01*
X105000000Y-93704819D02*
X105142857Y-93752438D01*
X105142857Y-93752438D02*
X105238095Y-93847676D01*
X105238095Y-93847676D02*
X105285714Y-93942914D01*
X105285714Y-93942914D02*
X105333333Y-94133390D01*
X105333333Y-94133390D02*
X105333333Y-94276247D01*
X105333333Y-94276247D02*
X105285714Y-94466723D01*
X105285714Y-94466723D02*
X105238095Y-94561961D01*
X105238095Y-94561961D02*
X105142857Y-94657200D01*
X105142857Y-94657200D02*
X105000000Y-94704819D01*
X105000000Y-94704819D02*
X104761905Y-94704819D01*
X106285714Y-94704819D02*
X105714286Y-94704819D01*
X106000000Y-94704819D02*
X106000000Y-93704819D01*
X106000000Y-93704819D02*
X105904762Y-93847676D01*
X105904762Y-93847676D02*
X105809524Y-93942914D01*
X105809524Y-93942914D02*
X105714286Y-93990533D01*
X107754819Y-96641904D02*
X106754819Y-96641904D01*
X107754819Y-96070476D02*
X107183390Y-96499047D01*
X106754819Y-96070476D02*
X107326247Y-96641904D01*
X109607142Y-128359580D02*
X109559523Y-128407200D01*
X109559523Y-128407200D02*
X109416666Y-128454819D01*
X109416666Y-128454819D02*
X109321428Y-128454819D01*
X109321428Y-128454819D02*
X109178571Y-128407200D01*
X109178571Y-128407200D02*
X109083333Y-128311961D01*
X109083333Y-128311961D02*
X109035714Y-128216723D01*
X109035714Y-128216723D02*
X108988095Y-128026247D01*
X108988095Y-128026247D02*
X108988095Y-127883390D01*
X108988095Y-127883390D02*
X109035714Y-127692914D01*
X109035714Y-127692914D02*
X109083333Y-127597676D01*
X109083333Y-127597676D02*
X109178571Y-127502438D01*
X109178571Y-127502438D02*
X109321428Y-127454819D01*
X109321428Y-127454819D02*
X109416666Y-127454819D01*
X109416666Y-127454819D02*
X109559523Y-127502438D01*
X109559523Y-127502438D02*
X109607142Y-127550057D01*
X110559523Y-128454819D02*
X109988095Y-128454819D01*
X110273809Y-128454819D02*
X110273809Y-127454819D01*
X110273809Y-127454819D02*
X110178571Y-127597676D01*
X110178571Y-127597676D02*
X110083333Y-127692914D01*
X110083333Y-127692914D02*
X109988095Y-127740533D01*
X111511904Y-128454819D02*
X110940476Y-128454819D01*
X111226190Y-128454819D02*
X111226190Y-127454819D01*
X111226190Y-127454819D02*
X111130952Y-127597676D01*
X111130952Y-127597676D02*
X111035714Y-127692914D01*
X111035714Y-127692914D02*
X110940476Y-127740533D01*
X85357142Y-110954819D02*
X85023809Y-110478628D01*
X84785714Y-110954819D02*
X84785714Y-109954819D01*
X84785714Y-109954819D02*
X85166666Y-109954819D01*
X85166666Y-109954819D02*
X85261904Y-110002438D01*
X85261904Y-110002438D02*
X85309523Y-110050057D01*
X85309523Y-110050057D02*
X85357142Y-110145295D01*
X85357142Y-110145295D02*
X85357142Y-110288152D01*
X85357142Y-110288152D02*
X85309523Y-110383390D01*
X85309523Y-110383390D02*
X85261904Y-110431009D01*
X85261904Y-110431009D02*
X85166666Y-110478628D01*
X85166666Y-110478628D02*
X84785714Y-110478628D01*
X86309523Y-110954819D02*
X85738095Y-110954819D01*
X86023809Y-110954819D02*
X86023809Y-109954819D01*
X86023809Y-109954819D02*
X85928571Y-110097676D01*
X85928571Y-110097676D02*
X85833333Y-110192914D01*
X85833333Y-110192914D02*
X85738095Y-110240533D01*
X86928571Y-109954819D02*
X87023809Y-109954819D01*
X87023809Y-109954819D02*
X87119047Y-110002438D01*
X87119047Y-110002438D02*
X87166666Y-110050057D01*
X87166666Y-110050057D02*
X87214285Y-110145295D01*
X87214285Y-110145295D02*
X87261904Y-110335771D01*
X87261904Y-110335771D02*
X87261904Y-110573866D01*
X87261904Y-110573866D02*
X87214285Y-110764342D01*
X87214285Y-110764342D02*
X87166666Y-110859580D01*
X87166666Y-110859580D02*
X87119047Y-110907200D01*
X87119047Y-110907200D02*
X87023809Y-110954819D01*
X87023809Y-110954819D02*
X86928571Y-110954819D01*
X86928571Y-110954819D02*
X86833333Y-110907200D01*
X86833333Y-110907200D02*
X86785714Y-110859580D01*
X86785714Y-110859580D02*
X86738095Y-110764342D01*
X86738095Y-110764342D02*
X86690476Y-110573866D01*
X86690476Y-110573866D02*
X86690476Y-110335771D01*
X86690476Y-110335771D02*
X86738095Y-110145295D01*
X86738095Y-110145295D02*
X86785714Y-110050057D01*
X86785714Y-110050057D02*
X86833333Y-110002438D01*
X86833333Y-110002438D02*
X86928571Y-109954819D01*
X167738095Y-82454819D02*
X167738095Y-81454819D01*
X167738095Y-81931009D02*
X168309523Y-81931009D01*
X168309523Y-82454819D02*
X168309523Y-81454819D01*
X168690476Y-81454819D02*
X169309523Y-81454819D01*
X169309523Y-81454819D02*
X168976190Y-81835771D01*
X168976190Y-81835771D02*
X169119047Y-81835771D01*
X169119047Y-81835771D02*
X169214285Y-81883390D01*
X169214285Y-81883390D02*
X169261904Y-81931009D01*
X169261904Y-81931009D02*
X169309523Y-82026247D01*
X169309523Y-82026247D02*
X169309523Y-82264342D01*
X169309523Y-82264342D02*
X169261904Y-82359580D01*
X169261904Y-82359580D02*
X169214285Y-82407200D01*
X169214285Y-82407200D02*
X169119047Y-82454819D01*
X169119047Y-82454819D02*
X168833333Y-82454819D01*
X168833333Y-82454819D02*
X168738095Y-82407200D01*
X168738095Y-82407200D02*
X168690476Y-82359580D01*
X157708446Y-133824819D02*
X157375113Y-133348628D01*
X157137018Y-133824819D02*
X157137018Y-132824819D01*
X157137018Y-132824819D02*
X157517970Y-132824819D01*
X157517970Y-132824819D02*
X157613208Y-132872438D01*
X157613208Y-132872438D02*
X157660827Y-132920057D01*
X157660827Y-132920057D02*
X157708446Y-133015295D01*
X157708446Y-133015295D02*
X157708446Y-133158152D01*
X157708446Y-133158152D02*
X157660827Y-133253390D01*
X157660827Y-133253390D02*
X157613208Y-133301009D01*
X157613208Y-133301009D02*
X157517970Y-133348628D01*
X157517970Y-133348628D02*
X157137018Y-133348628D01*
X158660827Y-133824819D02*
X158089399Y-133824819D01*
X158375113Y-133824819D02*
X158375113Y-132824819D01*
X158375113Y-132824819D02*
X158279875Y-132967676D01*
X158279875Y-132967676D02*
X158184637Y-133062914D01*
X158184637Y-133062914D02*
X158089399Y-133110533D01*
X80738095Y-136954819D02*
X80738095Y-135954819D01*
X80738095Y-136431009D02*
X81309523Y-136431009D01*
X81309523Y-136954819D02*
X81309523Y-135954819D01*
X81738095Y-136050057D02*
X81785714Y-136002438D01*
X81785714Y-136002438D02*
X81880952Y-135954819D01*
X81880952Y-135954819D02*
X82119047Y-135954819D01*
X82119047Y-135954819D02*
X82214285Y-136002438D01*
X82214285Y-136002438D02*
X82261904Y-136050057D01*
X82261904Y-136050057D02*
X82309523Y-136145295D01*
X82309523Y-136145295D02*
X82309523Y-136240533D01*
X82309523Y-136240533D02*
X82261904Y-136383390D01*
X82261904Y-136383390D02*
X81690476Y-136954819D01*
X81690476Y-136954819D02*
X82309523Y-136954819D01*
X162738095Y-117954819D02*
X162738095Y-118764342D01*
X162738095Y-118764342D02*
X162785714Y-118859580D01*
X162785714Y-118859580D02*
X162833333Y-118907200D01*
X162833333Y-118907200D02*
X162928571Y-118954819D01*
X162928571Y-118954819D02*
X163119047Y-118954819D01*
X163119047Y-118954819D02*
X163214285Y-118907200D01*
X163214285Y-118907200D02*
X163261904Y-118859580D01*
X163261904Y-118859580D02*
X163309523Y-118764342D01*
X163309523Y-118764342D02*
X163309523Y-117954819D01*
X163738095Y-118050057D02*
X163785714Y-118002438D01*
X163785714Y-118002438D02*
X163880952Y-117954819D01*
X163880952Y-117954819D02*
X164119047Y-117954819D01*
X164119047Y-117954819D02*
X164214285Y-118002438D01*
X164214285Y-118002438D02*
X164261904Y-118050057D01*
X164261904Y-118050057D02*
X164309523Y-118145295D01*
X164309523Y-118145295D02*
X164309523Y-118240533D01*
X164309523Y-118240533D02*
X164261904Y-118383390D01*
X164261904Y-118383390D02*
X163690476Y-118954819D01*
X163690476Y-118954819D02*
X164309523Y-118954819D01*
D12*
X112562380Y-117054318D02*
X112562380Y-118082413D01*
X112562380Y-118082413D02*
X112622857Y-118203365D01*
X112622857Y-118203365D02*
X112683333Y-118263842D01*
X112683333Y-118263842D02*
X112804285Y-118324318D01*
X112804285Y-118324318D02*
X113046190Y-118324318D01*
X113046190Y-118324318D02*
X113167142Y-118263842D01*
X113167142Y-118263842D02*
X113227619Y-118203365D01*
X113227619Y-118203365D02*
X113288095Y-118082413D01*
X113288095Y-118082413D02*
X113288095Y-117054318D01*
X113771904Y-117054318D02*
X114558095Y-117054318D01*
X114558095Y-117054318D02*
X114134761Y-117538127D01*
X114134761Y-117538127D02*
X114316190Y-117538127D01*
X114316190Y-117538127D02*
X114437142Y-117598603D01*
X114437142Y-117598603D02*
X114497618Y-117659080D01*
X114497618Y-117659080D02*
X114558095Y-117780032D01*
X114558095Y-117780032D02*
X114558095Y-118082413D01*
X114558095Y-118082413D02*
X114497618Y-118203365D01*
X114497618Y-118203365D02*
X114437142Y-118263842D01*
X114437142Y-118263842D02*
X114316190Y-118324318D01*
X114316190Y-118324318D02*
X113953333Y-118324318D01*
X113953333Y-118324318D02*
X113832380Y-118263842D01*
X113832380Y-118263842D02*
X113771904Y-118203365D01*
D10*
X81777142Y-129954819D02*
X81443809Y-129478628D01*
X81205714Y-129954819D02*
X81205714Y-128954819D01*
X81205714Y-128954819D02*
X81586666Y-128954819D01*
X81586666Y-128954819D02*
X81681904Y-129002438D01*
X81681904Y-129002438D02*
X81729523Y-129050057D01*
X81729523Y-129050057D02*
X81777142Y-129145295D01*
X81777142Y-129145295D02*
X81777142Y-129288152D01*
X81777142Y-129288152D02*
X81729523Y-129383390D01*
X81729523Y-129383390D02*
X81681904Y-129431009D01*
X81681904Y-129431009D02*
X81586666Y-129478628D01*
X81586666Y-129478628D02*
X81205714Y-129478628D01*
X82729523Y-129954819D02*
X82158095Y-129954819D01*
X82443809Y-129954819D02*
X82443809Y-128954819D01*
X82443809Y-128954819D02*
X82348571Y-129097676D01*
X82348571Y-129097676D02*
X82253333Y-129192914D01*
X82253333Y-129192914D02*
X82158095Y-129240533D01*
X83205714Y-129954819D02*
X83396190Y-129954819D01*
X83396190Y-129954819D02*
X83491428Y-129907200D01*
X83491428Y-129907200D02*
X83539047Y-129859580D01*
X83539047Y-129859580D02*
X83634285Y-129716723D01*
X83634285Y-129716723D02*
X83681904Y-129526247D01*
X83681904Y-129526247D02*
X83681904Y-129145295D01*
X83681904Y-129145295D02*
X83634285Y-129050057D01*
X83634285Y-129050057D02*
X83586666Y-129002438D01*
X83586666Y-129002438D02*
X83491428Y-128954819D01*
X83491428Y-128954819D02*
X83300952Y-128954819D01*
X83300952Y-128954819D02*
X83205714Y-129002438D01*
X83205714Y-129002438D02*
X83158095Y-129050057D01*
X83158095Y-129050057D02*
X83110476Y-129145295D01*
X83110476Y-129145295D02*
X83110476Y-129383390D01*
X83110476Y-129383390D02*
X83158095Y-129478628D01*
X83158095Y-129478628D02*
X83205714Y-129526247D01*
X83205714Y-129526247D02*
X83300952Y-129573866D01*
X83300952Y-129573866D02*
X83491428Y-129573866D01*
X83491428Y-129573866D02*
X83586666Y-129526247D01*
X83586666Y-129526247D02*
X83634285Y-129478628D01*
X83634285Y-129478628D02*
X83681904Y-129383390D01*
X80988095Y-82454819D02*
X80988095Y-81454819D01*
X80988095Y-81931009D02*
X81559523Y-81931009D01*
X81559523Y-82454819D02*
X81559523Y-81454819D01*
X82559523Y-82454819D02*
X81988095Y-82454819D01*
X82273809Y-82454819D02*
X82273809Y-81454819D01*
X82273809Y-81454819D02*
X82178571Y-81597676D01*
X82178571Y-81597676D02*
X82083333Y-81692914D01*
X82083333Y-81692914D02*
X81988095Y-81740533D01*
X86083333Y-107704819D02*
X85750000Y-107228628D01*
X85511905Y-107704819D02*
X85511905Y-106704819D01*
X85511905Y-106704819D02*
X85892857Y-106704819D01*
X85892857Y-106704819D02*
X85988095Y-106752438D01*
X85988095Y-106752438D02*
X86035714Y-106800057D01*
X86035714Y-106800057D02*
X86083333Y-106895295D01*
X86083333Y-106895295D02*
X86083333Y-107038152D01*
X86083333Y-107038152D02*
X86035714Y-107133390D01*
X86035714Y-107133390D02*
X85988095Y-107181009D01*
X85988095Y-107181009D02*
X85892857Y-107228628D01*
X85892857Y-107228628D02*
X85511905Y-107228628D01*
X86559524Y-107704819D02*
X86750000Y-107704819D01*
X86750000Y-107704819D02*
X86845238Y-107657200D01*
X86845238Y-107657200D02*
X86892857Y-107609580D01*
X86892857Y-107609580D02*
X86988095Y-107466723D01*
X86988095Y-107466723D02*
X87035714Y-107276247D01*
X87035714Y-107276247D02*
X87035714Y-106895295D01*
X87035714Y-106895295D02*
X86988095Y-106800057D01*
X86988095Y-106800057D02*
X86940476Y-106752438D01*
X86940476Y-106752438D02*
X86845238Y-106704819D01*
X86845238Y-106704819D02*
X86654762Y-106704819D01*
X86654762Y-106704819D02*
X86559524Y-106752438D01*
X86559524Y-106752438D02*
X86511905Y-106800057D01*
X86511905Y-106800057D02*
X86464286Y-106895295D01*
X86464286Y-106895295D02*
X86464286Y-107133390D01*
X86464286Y-107133390D02*
X86511905Y-107228628D01*
X86511905Y-107228628D02*
X86559524Y-107276247D01*
X86559524Y-107276247D02*
X86654762Y-107323866D01*
X86654762Y-107323866D02*
X86845238Y-107323866D01*
X86845238Y-107323866D02*
X86940476Y-107276247D01*
X86940476Y-107276247D02*
X86988095Y-107228628D01*
X86988095Y-107228628D02*
X87035714Y-107133390D01*
X167488095Y-136954819D02*
X167488095Y-135954819D01*
X167488095Y-136431009D02*
X168059523Y-136431009D01*
X168059523Y-136954819D02*
X168059523Y-135954819D01*
X168964285Y-136288152D02*
X168964285Y-136954819D01*
X168726190Y-135907200D02*
X168488095Y-136621485D01*
X168488095Y-136621485D02*
X169107142Y-136621485D01*
X155583333Y-101609580D02*
X155535714Y-101657200D01*
X155535714Y-101657200D02*
X155392857Y-101704819D01*
X155392857Y-101704819D02*
X155297619Y-101704819D01*
X155297619Y-101704819D02*
X155154762Y-101657200D01*
X155154762Y-101657200D02*
X155059524Y-101561961D01*
X155059524Y-101561961D02*
X155011905Y-101466723D01*
X155011905Y-101466723D02*
X154964286Y-101276247D01*
X154964286Y-101276247D02*
X154964286Y-101133390D01*
X154964286Y-101133390D02*
X155011905Y-100942914D01*
X155011905Y-100942914D02*
X155059524Y-100847676D01*
X155059524Y-100847676D02*
X155154762Y-100752438D01*
X155154762Y-100752438D02*
X155297619Y-100704819D01*
X155297619Y-100704819D02*
X155392857Y-100704819D01*
X155392857Y-100704819D02*
X155535714Y-100752438D01*
X155535714Y-100752438D02*
X155583333Y-100800057D01*
X156488095Y-100704819D02*
X156011905Y-100704819D01*
X156011905Y-100704819D02*
X155964286Y-101181009D01*
X155964286Y-101181009D02*
X156011905Y-101133390D01*
X156011905Y-101133390D02*
X156107143Y-101085771D01*
X156107143Y-101085771D02*
X156345238Y-101085771D01*
X156345238Y-101085771D02*
X156440476Y-101133390D01*
X156440476Y-101133390D02*
X156488095Y-101181009D01*
X156488095Y-101181009D02*
X156535714Y-101276247D01*
X156535714Y-101276247D02*
X156535714Y-101514342D01*
X156535714Y-101514342D02*
X156488095Y-101609580D01*
X156488095Y-101609580D02*
X156440476Y-101657200D01*
X156440476Y-101657200D02*
X156345238Y-101704819D01*
X156345238Y-101704819D02*
X156107143Y-101704819D01*
X156107143Y-101704819D02*
X156011905Y-101657200D01*
X156011905Y-101657200D02*
X155964286Y-101609580D01*
X104857142Y-116609580D02*
X104809523Y-116657200D01*
X104809523Y-116657200D02*
X104666666Y-116704819D01*
X104666666Y-116704819D02*
X104571428Y-116704819D01*
X104571428Y-116704819D02*
X104428571Y-116657200D01*
X104428571Y-116657200D02*
X104333333Y-116561961D01*
X104333333Y-116561961D02*
X104285714Y-116466723D01*
X104285714Y-116466723D02*
X104238095Y-116276247D01*
X104238095Y-116276247D02*
X104238095Y-116133390D01*
X104238095Y-116133390D02*
X104285714Y-115942914D01*
X104285714Y-115942914D02*
X104333333Y-115847676D01*
X104333333Y-115847676D02*
X104428571Y-115752438D01*
X104428571Y-115752438D02*
X104571428Y-115704819D01*
X104571428Y-115704819D02*
X104666666Y-115704819D01*
X104666666Y-115704819D02*
X104809523Y-115752438D01*
X104809523Y-115752438D02*
X104857142Y-115800057D01*
X105809523Y-116704819D02*
X105238095Y-116704819D01*
X105523809Y-116704819D02*
X105523809Y-115704819D01*
X105523809Y-115704819D02*
X105428571Y-115847676D01*
X105428571Y-115847676D02*
X105333333Y-115942914D01*
X105333333Y-115942914D02*
X105238095Y-115990533D01*
X106142857Y-115704819D02*
X106761904Y-115704819D01*
X106761904Y-115704819D02*
X106428571Y-116085771D01*
X106428571Y-116085771D02*
X106571428Y-116085771D01*
X106571428Y-116085771D02*
X106666666Y-116133390D01*
X106666666Y-116133390D02*
X106714285Y-116181009D01*
X106714285Y-116181009D02*
X106761904Y-116276247D01*
X106761904Y-116276247D02*
X106761904Y-116514342D01*
X106761904Y-116514342D02*
X106714285Y-116609580D01*
X106714285Y-116609580D02*
X106666666Y-116657200D01*
X106666666Y-116657200D02*
X106571428Y-116704819D01*
X106571428Y-116704819D02*
X106285714Y-116704819D01*
X106285714Y-116704819D02*
X106190476Y-116657200D01*
X106190476Y-116657200D02*
X106142857Y-116609580D01*
X81777142Y-120584819D02*
X81443809Y-120108628D01*
X81205714Y-120584819D02*
X81205714Y-119584819D01*
X81205714Y-119584819D02*
X81586666Y-119584819D01*
X81586666Y-119584819D02*
X81681904Y-119632438D01*
X81681904Y-119632438D02*
X81729523Y-119680057D01*
X81729523Y-119680057D02*
X81777142Y-119775295D01*
X81777142Y-119775295D02*
X81777142Y-119918152D01*
X81777142Y-119918152D02*
X81729523Y-120013390D01*
X81729523Y-120013390D02*
X81681904Y-120061009D01*
X81681904Y-120061009D02*
X81586666Y-120108628D01*
X81586666Y-120108628D02*
X81205714Y-120108628D01*
X82729523Y-120584819D02*
X82158095Y-120584819D01*
X82443809Y-120584819D02*
X82443809Y-119584819D01*
X82443809Y-119584819D02*
X82348571Y-119727676D01*
X82348571Y-119727676D02*
X82253333Y-119822914D01*
X82253333Y-119822914D02*
X82158095Y-119870533D01*
X83062857Y-119584819D02*
X83729523Y-119584819D01*
X83729523Y-119584819D02*
X83300952Y-120584819D01*
X122583333Y-124204819D02*
X122250000Y-123728628D01*
X122011905Y-124204819D02*
X122011905Y-123204819D01*
X122011905Y-123204819D02*
X122392857Y-123204819D01*
X122392857Y-123204819D02*
X122488095Y-123252438D01*
X122488095Y-123252438D02*
X122535714Y-123300057D01*
X122535714Y-123300057D02*
X122583333Y-123395295D01*
X122583333Y-123395295D02*
X122583333Y-123538152D01*
X122583333Y-123538152D02*
X122535714Y-123633390D01*
X122535714Y-123633390D02*
X122488095Y-123681009D01*
X122488095Y-123681009D02*
X122392857Y-123728628D01*
X122392857Y-123728628D02*
X122011905Y-123728628D01*
X123154762Y-123633390D02*
X123059524Y-123585771D01*
X123059524Y-123585771D02*
X123011905Y-123538152D01*
X123011905Y-123538152D02*
X122964286Y-123442914D01*
X122964286Y-123442914D02*
X122964286Y-123395295D01*
X122964286Y-123395295D02*
X123011905Y-123300057D01*
X123011905Y-123300057D02*
X123059524Y-123252438D01*
X123059524Y-123252438D02*
X123154762Y-123204819D01*
X123154762Y-123204819D02*
X123345238Y-123204819D01*
X123345238Y-123204819D02*
X123440476Y-123252438D01*
X123440476Y-123252438D02*
X123488095Y-123300057D01*
X123488095Y-123300057D02*
X123535714Y-123395295D01*
X123535714Y-123395295D02*
X123535714Y-123442914D01*
X123535714Y-123442914D02*
X123488095Y-123538152D01*
X123488095Y-123538152D02*
X123440476Y-123585771D01*
X123440476Y-123585771D02*
X123345238Y-123633390D01*
X123345238Y-123633390D02*
X123154762Y-123633390D01*
X123154762Y-123633390D02*
X123059524Y-123681009D01*
X123059524Y-123681009D02*
X123011905Y-123728628D01*
X123011905Y-123728628D02*
X122964286Y-123823866D01*
X122964286Y-123823866D02*
X122964286Y-124014342D01*
X122964286Y-124014342D02*
X123011905Y-124109580D01*
X123011905Y-124109580D02*
X123059524Y-124157200D01*
X123059524Y-124157200D02*
X123154762Y-124204819D01*
X123154762Y-124204819D02*
X123345238Y-124204819D01*
X123345238Y-124204819D02*
X123440476Y-124157200D01*
X123440476Y-124157200D02*
X123488095Y-124109580D01*
X123488095Y-124109580D02*
X123535714Y-124014342D01*
X123535714Y-124014342D02*
X123535714Y-123823866D01*
X123535714Y-123823866D02*
X123488095Y-123728628D01*
X123488095Y-123728628D02*
X123440476Y-123681009D01*
X123440476Y-123681009D02*
X123345238Y-123633390D01*
X170630952Y-98954819D02*
X170297619Y-98478628D01*
X170059524Y-98954819D02*
X170059524Y-97954819D01*
X170059524Y-97954819D02*
X170440476Y-97954819D01*
X170440476Y-97954819D02*
X170535714Y-98002438D01*
X170535714Y-98002438D02*
X170583333Y-98050057D01*
X170583333Y-98050057D02*
X170630952Y-98145295D01*
X170630952Y-98145295D02*
X170630952Y-98288152D01*
X170630952Y-98288152D02*
X170583333Y-98383390D01*
X170583333Y-98383390D02*
X170535714Y-98431009D01*
X170535714Y-98431009D02*
X170440476Y-98478628D01*
X170440476Y-98478628D02*
X170059524Y-98478628D01*
X171488095Y-98288152D02*
X171488095Y-99097676D01*
X171488095Y-99097676D02*
X171440476Y-99192914D01*
X171440476Y-99192914D02*
X171392857Y-99240533D01*
X171392857Y-99240533D02*
X171297619Y-99288152D01*
X171297619Y-99288152D02*
X171154762Y-99288152D01*
X171154762Y-99288152D02*
X171059524Y-99240533D01*
X171488095Y-98907200D02*
X171392857Y-98954819D01*
X171392857Y-98954819D02*
X171202381Y-98954819D01*
X171202381Y-98954819D02*
X171107143Y-98907200D01*
X171107143Y-98907200D02*
X171059524Y-98859580D01*
X171059524Y-98859580D02*
X171011905Y-98764342D01*
X171011905Y-98764342D02*
X171011905Y-98478628D01*
X171011905Y-98478628D02*
X171059524Y-98383390D01*
X171059524Y-98383390D02*
X171107143Y-98335771D01*
X171107143Y-98335771D02*
X171202381Y-98288152D01*
X171202381Y-98288152D02*
X171392857Y-98288152D01*
X171392857Y-98288152D02*
X171488095Y-98335771D01*
X172488095Y-98954819D02*
X171916667Y-98954819D01*
X172202381Y-98954819D02*
X172202381Y-97954819D01*
X172202381Y-97954819D02*
X172107143Y-98097676D01*
X172107143Y-98097676D02*
X172011905Y-98192914D01*
X172011905Y-98192914D02*
X171916667Y-98240533D01*
X90583333Y-90859580D02*
X90535714Y-90907200D01*
X90535714Y-90907200D02*
X90392857Y-90954819D01*
X90392857Y-90954819D02*
X90297619Y-90954819D01*
X90297619Y-90954819D02*
X90154762Y-90907200D01*
X90154762Y-90907200D02*
X90059524Y-90811961D01*
X90059524Y-90811961D02*
X90011905Y-90716723D01*
X90011905Y-90716723D02*
X89964286Y-90526247D01*
X89964286Y-90526247D02*
X89964286Y-90383390D01*
X89964286Y-90383390D02*
X90011905Y-90192914D01*
X90011905Y-90192914D02*
X90059524Y-90097676D01*
X90059524Y-90097676D02*
X90154762Y-90002438D01*
X90154762Y-90002438D02*
X90297619Y-89954819D01*
X90297619Y-89954819D02*
X90392857Y-89954819D01*
X90392857Y-89954819D02*
X90535714Y-90002438D01*
X90535714Y-90002438D02*
X90583333Y-90050057D01*
X91440476Y-90288152D02*
X91440476Y-90954819D01*
X91202381Y-89907200D02*
X90964286Y-90621485D01*
X90964286Y-90621485D02*
X91583333Y-90621485D01*
X84107142Y-136454819D02*
X83773809Y-135978628D01*
X83535714Y-136454819D02*
X83535714Y-135454819D01*
X83535714Y-135454819D02*
X83916666Y-135454819D01*
X83916666Y-135454819D02*
X84011904Y-135502438D01*
X84011904Y-135502438D02*
X84059523Y-135550057D01*
X84059523Y-135550057D02*
X84107142Y-135645295D01*
X84107142Y-135645295D02*
X84107142Y-135788152D01*
X84107142Y-135788152D02*
X84059523Y-135883390D01*
X84059523Y-135883390D02*
X84011904Y-135931009D01*
X84011904Y-135931009D02*
X83916666Y-135978628D01*
X83916666Y-135978628D02*
X83535714Y-135978628D01*
X84488095Y-135550057D02*
X84535714Y-135502438D01*
X84535714Y-135502438D02*
X84630952Y-135454819D01*
X84630952Y-135454819D02*
X84869047Y-135454819D01*
X84869047Y-135454819D02*
X84964285Y-135502438D01*
X84964285Y-135502438D02*
X85011904Y-135550057D01*
X85011904Y-135550057D02*
X85059523Y-135645295D01*
X85059523Y-135645295D02*
X85059523Y-135740533D01*
X85059523Y-135740533D02*
X85011904Y-135883390D01*
X85011904Y-135883390D02*
X84440476Y-136454819D01*
X84440476Y-136454819D02*
X85059523Y-136454819D01*
X85678571Y-135454819D02*
X85773809Y-135454819D01*
X85773809Y-135454819D02*
X85869047Y-135502438D01*
X85869047Y-135502438D02*
X85916666Y-135550057D01*
X85916666Y-135550057D02*
X85964285Y-135645295D01*
X85964285Y-135645295D02*
X86011904Y-135835771D01*
X86011904Y-135835771D02*
X86011904Y-136073866D01*
X86011904Y-136073866D02*
X85964285Y-136264342D01*
X85964285Y-136264342D02*
X85916666Y-136359580D01*
X85916666Y-136359580D02*
X85869047Y-136407200D01*
X85869047Y-136407200D02*
X85773809Y-136454819D01*
X85773809Y-136454819D02*
X85678571Y-136454819D01*
X85678571Y-136454819D02*
X85583333Y-136407200D01*
X85583333Y-136407200D02*
X85535714Y-136359580D01*
X85535714Y-136359580D02*
X85488095Y-136264342D01*
X85488095Y-136264342D02*
X85440476Y-136073866D01*
X85440476Y-136073866D02*
X85440476Y-135835771D01*
X85440476Y-135835771D02*
X85488095Y-135645295D01*
X85488095Y-135645295D02*
X85535714Y-135550057D01*
X85535714Y-135550057D02*
X85583333Y-135502438D01*
X85583333Y-135502438D02*
X85678571Y-135454819D01*
X163833333Y-125609580D02*
X163785714Y-125657200D01*
X163785714Y-125657200D02*
X163642857Y-125704819D01*
X163642857Y-125704819D02*
X163547619Y-125704819D01*
X163547619Y-125704819D02*
X163404762Y-125657200D01*
X163404762Y-125657200D02*
X163309524Y-125561961D01*
X163309524Y-125561961D02*
X163261905Y-125466723D01*
X163261905Y-125466723D02*
X163214286Y-125276247D01*
X163214286Y-125276247D02*
X163214286Y-125133390D01*
X163214286Y-125133390D02*
X163261905Y-124942914D01*
X163261905Y-124942914D02*
X163309524Y-124847676D01*
X163309524Y-124847676D02*
X163404762Y-124752438D01*
X163404762Y-124752438D02*
X163547619Y-124704819D01*
X163547619Y-124704819D02*
X163642857Y-124704819D01*
X163642857Y-124704819D02*
X163785714Y-124752438D01*
X163785714Y-124752438D02*
X163833333Y-124800057D01*
X164166667Y-124704819D02*
X164785714Y-124704819D01*
X164785714Y-124704819D02*
X164452381Y-125085771D01*
X164452381Y-125085771D02*
X164595238Y-125085771D01*
X164595238Y-125085771D02*
X164690476Y-125133390D01*
X164690476Y-125133390D02*
X164738095Y-125181009D01*
X164738095Y-125181009D02*
X164785714Y-125276247D01*
X164785714Y-125276247D02*
X164785714Y-125514342D01*
X164785714Y-125514342D02*
X164738095Y-125609580D01*
X164738095Y-125609580D02*
X164690476Y-125657200D01*
X164690476Y-125657200D02*
X164595238Y-125704819D01*
X164595238Y-125704819D02*
X164309524Y-125704819D01*
X164309524Y-125704819D02*
X164214286Y-125657200D01*
X164214286Y-125657200D02*
X164166667Y-125609580D01*
X107833333Y-84609580D02*
X107785714Y-84657200D01*
X107785714Y-84657200D02*
X107642857Y-84704819D01*
X107642857Y-84704819D02*
X107547619Y-84704819D01*
X107547619Y-84704819D02*
X107404762Y-84657200D01*
X107404762Y-84657200D02*
X107309524Y-84561961D01*
X107309524Y-84561961D02*
X107261905Y-84466723D01*
X107261905Y-84466723D02*
X107214286Y-84276247D01*
X107214286Y-84276247D02*
X107214286Y-84133390D01*
X107214286Y-84133390D02*
X107261905Y-83942914D01*
X107261905Y-83942914D02*
X107309524Y-83847676D01*
X107309524Y-83847676D02*
X107404762Y-83752438D01*
X107404762Y-83752438D02*
X107547619Y-83704819D01*
X107547619Y-83704819D02*
X107642857Y-83704819D01*
X107642857Y-83704819D02*
X107785714Y-83752438D01*
X107785714Y-83752438D02*
X107833333Y-83800057D01*
X108404762Y-84133390D02*
X108309524Y-84085771D01*
X108309524Y-84085771D02*
X108261905Y-84038152D01*
X108261905Y-84038152D02*
X108214286Y-83942914D01*
X108214286Y-83942914D02*
X108214286Y-83895295D01*
X108214286Y-83895295D02*
X108261905Y-83800057D01*
X108261905Y-83800057D02*
X108309524Y-83752438D01*
X108309524Y-83752438D02*
X108404762Y-83704819D01*
X108404762Y-83704819D02*
X108595238Y-83704819D01*
X108595238Y-83704819D02*
X108690476Y-83752438D01*
X108690476Y-83752438D02*
X108738095Y-83800057D01*
X108738095Y-83800057D02*
X108785714Y-83895295D01*
X108785714Y-83895295D02*
X108785714Y-83942914D01*
X108785714Y-83942914D02*
X108738095Y-84038152D01*
X108738095Y-84038152D02*
X108690476Y-84085771D01*
X108690476Y-84085771D02*
X108595238Y-84133390D01*
X108595238Y-84133390D02*
X108404762Y-84133390D01*
X108404762Y-84133390D02*
X108309524Y-84181009D01*
X108309524Y-84181009D02*
X108261905Y-84228628D01*
X108261905Y-84228628D02*
X108214286Y-84323866D01*
X108214286Y-84323866D02*
X108214286Y-84514342D01*
X108214286Y-84514342D02*
X108261905Y-84609580D01*
X108261905Y-84609580D02*
X108309524Y-84657200D01*
X108309524Y-84657200D02*
X108404762Y-84704819D01*
X108404762Y-84704819D02*
X108595238Y-84704819D01*
X108595238Y-84704819D02*
X108690476Y-84657200D01*
X108690476Y-84657200D02*
X108738095Y-84609580D01*
X108738095Y-84609580D02*
X108785714Y-84514342D01*
X108785714Y-84514342D02*
X108785714Y-84323866D01*
X108785714Y-84323866D02*
X108738095Y-84228628D01*
X108738095Y-84228628D02*
X108690476Y-84181009D01*
X108690476Y-84181009D02*
X108595238Y-84133390D01*
X170583333Y-90204819D02*
X170250000Y-89728628D01*
X170011905Y-90204819D02*
X170011905Y-89204819D01*
X170011905Y-89204819D02*
X170392857Y-89204819D01*
X170392857Y-89204819D02*
X170488095Y-89252438D01*
X170488095Y-89252438D02*
X170535714Y-89300057D01*
X170535714Y-89300057D02*
X170583333Y-89395295D01*
X170583333Y-89395295D02*
X170583333Y-89538152D01*
X170583333Y-89538152D02*
X170535714Y-89633390D01*
X170535714Y-89633390D02*
X170488095Y-89681009D01*
X170488095Y-89681009D02*
X170392857Y-89728628D01*
X170392857Y-89728628D02*
X170011905Y-89728628D01*
X170964286Y-89300057D02*
X171011905Y-89252438D01*
X171011905Y-89252438D02*
X171107143Y-89204819D01*
X171107143Y-89204819D02*
X171345238Y-89204819D01*
X171345238Y-89204819D02*
X171440476Y-89252438D01*
X171440476Y-89252438D02*
X171488095Y-89300057D01*
X171488095Y-89300057D02*
X171535714Y-89395295D01*
X171535714Y-89395295D02*
X171535714Y-89490533D01*
X171535714Y-89490533D02*
X171488095Y-89633390D01*
X171488095Y-89633390D02*
X170916667Y-90204819D01*
X170916667Y-90204819D02*
X171535714Y-90204819D01*
X126333333Y-124204819D02*
X126000000Y-123728628D01*
X125761905Y-124204819D02*
X125761905Y-123204819D01*
X125761905Y-123204819D02*
X126142857Y-123204819D01*
X126142857Y-123204819D02*
X126238095Y-123252438D01*
X126238095Y-123252438D02*
X126285714Y-123300057D01*
X126285714Y-123300057D02*
X126333333Y-123395295D01*
X126333333Y-123395295D02*
X126333333Y-123538152D01*
X126333333Y-123538152D02*
X126285714Y-123633390D01*
X126285714Y-123633390D02*
X126238095Y-123681009D01*
X126238095Y-123681009D02*
X126142857Y-123728628D01*
X126142857Y-123728628D02*
X125761905Y-123728628D01*
X127190476Y-123538152D02*
X127190476Y-124204819D01*
X126952381Y-123157200D02*
X126714286Y-123871485D01*
X126714286Y-123871485D02*
X127333333Y-123871485D01*
X93357142Y-133204819D02*
X93023809Y-132728628D01*
X92785714Y-133204819D02*
X92785714Y-132204819D01*
X92785714Y-132204819D02*
X93166666Y-132204819D01*
X93166666Y-132204819D02*
X93261904Y-132252438D01*
X93261904Y-132252438D02*
X93309523Y-132300057D01*
X93309523Y-132300057D02*
X93357142Y-132395295D01*
X93357142Y-132395295D02*
X93357142Y-132538152D01*
X93357142Y-132538152D02*
X93309523Y-132633390D01*
X93309523Y-132633390D02*
X93261904Y-132681009D01*
X93261904Y-132681009D02*
X93166666Y-132728628D01*
X93166666Y-132728628D02*
X92785714Y-132728628D01*
X94309523Y-133204819D02*
X93738095Y-133204819D01*
X94023809Y-133204819D02*
X94023809Y-132204819D01*
X94023809Y-132204819D02*
X93928571Y-132347676D01*
X93928571Y-132347676D02*
X93833333Y-132442914D01*
X93833333Y-132442914D02*
X93738095Y-132490533D01*
X95214285Y-132204819D02*
X94738095Y-132204819D01*
X94738095Y-132204819D02*
X94690476Y-132681009D01*
X94690476Y-132681009D02*
X94738095Y-132633390D01*
X94738095Y-132633390D02*
X94833333Y-132585771D01*
X94833333Y-132585771D02*
X95071428Y-132585771D01*
X95071428Y-132585771D02*
X95166666Y-132633390D01*
X95166666Y-132633390D02*
X95214285Y-132681009D01*
X95214285Y-132681009D02*
X95261904Y-132776247D01*
X95261904Y-132776247D02*
X95261904Y-133014342D01*
X95261904Y-133014342D02*
X95214285Y-133109580D01*
X95214285Y-133109580D02*
X95166666Y-133157200D01*
X95166666Y-133157200D02*
X95071428Y-133204819D01*
X95071428Y-133204819D02*
X94833333Y-133204819D01*
X94833333Y-133204819D02*
X94738095Y-133157200D01*
X94738095Y-133157200D02*
X94690476Y-133109580D01*
X149535714Y-135919104D02*
X150011904Y-135919104D01*
X149440476Y-136204819D02*
X149773809Y-135204819D01*
X149773809Y-135204819D02*
X150107142Y-136204819D01*
X150964285Y-136204819D02*
X150392857Y-136204819D01*
X150678571Y-136204819D02*
X150678571Y-135204819D01*
X150678571Y-135204819D02*
X150583333Y-135347676D01*
X150583333Y-135347676D02*
X150488095Y-135442914D01*
X150488095Y-135442914D02*
X150392857Y-135490533D01*
X138608095Y-130064819D02*
X138608095Y-130874342D01*
X138608095Y-130874342D02*
X138655714Y-130969580D01*
X138655714Y-130969580D02*
X138703333Y-131017200D01*
X138703333Y-131017200D02*
X138798571Y-131064819D01*
X138798571Y-131064819D02*
X138989047Y-131064819D01*
X138989047Y-131064819D02*
X139084285Y-131017200D01*
X139084285Y-131017200D02*
X139131904Y-130969580D01*
X139131904Y-130969580D02*
X139179523Y-130874342D01*
X139179523Y-130874342D02*
X139179523Y-130064819D01*
X139608095Y-131017200D02*
X139750952Y-131064819D01*
X139750952Y-131064819D02*
X139989047Y-131064819D01*
X139989047Y-131064819D02*
X140084285Y-131017200D01*
X140084285Y-131017200D02*
X140131904Y-130969580D01*
X140131904Y-130969580D02*
X140179523Y-130874342D01*
X140179523Y-130874342D02*
X140179523Y-130779104D01*
X140179523Y-130779104D02*
X140131904Y-130683866D01*
X140131904Y-130683866D02*
X140084285Y-130636247D01*
X140084285Y-130636247D02*
X139989047Y-130588628D01*
X139989047Y-130588628D02*
X139798571Y-130541009D01*
X139798571Y-130541009D02*
X139703333Y-130493390D01*
X139703333Y-130493390D02*
X139655714Y-130445771D01*
X139655714Y-130445771D02*
X139608095Y-130350533D01*
X139608095Y-130350533D02*
X139608095Y-130255295D01*
X139608095Y-130255295D02*
X139655714Y-130160057D01*
X139655714Y-130160057D02*
X139703333Y-130112438D01*
X139703333Y-130112438D02*
X139798571Y-130064819D01*
X139798571Y-130064819D02*
X140036666Y-130064819D01*
X140036666Y-130064819D02*
X140179523Y-130112438D01*
X140941428Y-130541009D02*
X141084285Y-130588628D01*
X141084285Y-130588628D02*
X141131904Y-130636247D01*
X141131904Y-130636247D02*
X141179523Y-130731485D01*
X141179523Y-130731485D02*
X141179523Y-130874342D01*
X141179523Y-130874342D02*
X141131904Y-130969580D01*
X141131904Y-130969580D02*
X141084285Y-131017200D01*
X141084285Y-131017200D02*
X140989047Y-131064819D01*
X140989047Y-131064819D02*
X140608095Y-131064819D01*
X140608095Y-131064819D02*
X140608095Y-130064819D01*
X140608095Y-130064819D02*
X140941428Y-130064819D01*
X140941428Y-130064819D02*
X141036666Y-130112438D01*
X141036666Y-130112438D02*
X141084285Y-130160057D01*
X141084285Y-130160057D02*
X141131904Y-130255295D01*
X141131904Y-130255295D02*
X141131904Y-130350533D01*
X141131904Y-130350533D02*
X141084285Y-130445771D01*
X141084285Y-130445771D02*
X141036666Y-130493390D01*
X141036666Y-130493390D02*
X140941428Y-130541009D01*
X140941428Y-130541009D02*
X140608095Y-130541009D01*
X155359580Y-95711554D02*
X155407200Y-95759173D01*
X155407200Y-95759173D02*
X155454819Y-95902030D01*
X155454819Y-95902030D02*
X155454819Y-95997268D01*
X155454819Y-95997268D02*
X155407200Y-96140125D01*
X155407200Y-96140125D02*
X155311961Y-96235363D01*
X155311961Y-96235363D02*
X155216723Y-96282982D01*
X155216723Y-96282982D02*
X155026247Y-96330601D01*
X155026247Y-96330601D02*
X154883390Y-96330601D01*
X154883390Y-96330601D02*
X154692914Y-96282982D01*
X154692914Y-96282982D02*
X154597676Y-96235363D01*
X154597676Y-96235363D02*
X154502438Y-96140125D01*
X154502438Y-96140125D02*
X154454819Y-95997268D01*
X154454819Y-95997268D02*
X154454819Y-95902030D01*
X154454819Y-95902030D02*
X154502438Y-95759173D01*
X154502438Y-95759173D02*
X154550057Y-95711554D01*
X155454819Y-94759173D02*
X155454819Y-95330601D01*
X155454819Y-95044887D02*
X154454819Y-95044887D01*
X154454819Y-95044887D02*
X154597676Y-95140125D01*
X154597676Y-95140125D02*
X154692914Y-95235363D01*
X154692914Y-95235363D02*
X154740533Y-95330601D01*
X131833333Y-84954819D02*
X131500000Y-84478628D01*
X131261905Y-84954819D02*
X131261905Y-83954819D01*
X131261905Y-83954819D02*
X131642857Y-83954819D01*
X131642857Y-83954819D02*
X131738095Y-84002438D01*
X131738095Y-84002438D02*
X131785714Y-84050057D01*
X131785714Y-84050057D02*
X131833333Y-84145295D01*
X131833333Y-84145295D02*
X131833333Y-84288152D01*
X131833333Y-84288152D02*
X131785714Y-84383390D01*
X131785714Y-84383390D02*
X131738095Y-84431009D01*
X131738095Y-84431009D02*
X131642857Y-84478628D01*
X131642857Y-84478628D02*
X131261905Y-84478628D01*
X132166667Y-83954819D02*
X132833333Y-83954819D01*
X132833333Y-83954819D02*
X132404762Y-84954819D01*
X81777142Y-116084819D02*
X81443809Y-115608628D01*
X81205714Y-116084819D02*
X81205714Y-115084819D01*
X81205714Y-115084819D02*
X81586666Y-115084819D01*
X81586666Y-115084819D02*
X81681904Y-115132438D01*
X81681904Y-115132438D02*
X81729523Y-115180057D01*
X81729523Y-115180057D02*
X81777142Y-115275295D01*
X81777142Y-115275295D02*
X81777142Y-115418152D01*
X81777142Y-115418152D02*
X81729523Y-115513390D01*
X81729523Y-115513390D02*
X81681904Y-115561009D01*
X81681904Y-115561009D02*
X81586666Y-115608628D01*
X81586666Y-115608628D02*
X81205714Y-115608628D01*
X82729523Y-116084819D02*
X82158095Y-116084819D01*
X82443809Y-116084819D02*
X82443809Y-115084819D01*
X82443809Y-115084819D02*
X82348571Y-115227676D01*
X82348571Y-115227676D02*
X82253333Y-115322914D01*
X82253333Y-115322914D02*
X82158095Y-115370533D01*
X83586666Y-115084819D02*
X83396190Y-115084819D01*
X83396190Y-115084819D02*
X83300952Y-115132438D01*
X83300952Y-115132438D02*
X83253333Y-115180057D01*
X83253333Y-115180057D02*
X83158095Y-115322914D01*
X83158095Y-115322914D02*
X83110476Y-115513390D01*
X83110476Y-115513390D02*
X83110476Y-115894342D01*
X83110476Y-115894342D02*
X83158095Y-115989580D01*
X83158095Y-115989580D02*
X83205714Y-116037200D01*
X83205714Y-116037200D02*
X83300952Y-116084819D01*
X83300952Y-116084819D02*
X83491428Y-116084819D01*
X83491428Y-116084819D02*
X83586666Y-116037200D01*
X83586666Y-116037200D02*
X83634285Y-115989580D01*
X83634285Y-115989580D02*
X83681904Y-115894342D01*
X83681904Y-115894342D02*
X83681904Y-115656247D01*
X83681904Y-115656247D02*
X83634285Y-115561009D01*
X83634285Y-115561009D02*
X83586666Y-115513390D01*
X83586666Y-115513390D02*
X83491428Y-115465771D01*
X83491428Y-115465771D02*
X83300952Y-115465771D01*
X83300952Y-115465771D02*
X83205714Y-115513390D01*
X83205714Y-115513390D02*
X83158095Y-115561009D01*
X83158095Y-115561009D02*
X83110476Y-115656247D01*
X96011905Y-126704819D02*
X96011905Y-125704819D01*
X96011905Y-125704819D02*
X96250000Y-125704819D01*
X96250000Y-125704819D02*
X96392857Y-125752438D01*
X96392857Y-125752438D02*
X96488095Y-125847676D01*
X96488095Y-125847676D02*
X96535714Y-125942914D01*
X96535714Y-125942914D02*
X96583333Y-126133390D01*
X96583333Y-126133390D02*
X96583333Y-126276247D01*
X96583333Y-126276247D02*
X96535714Y-126466723D01*
X96535714Y-126466723D02*
X96488095Y-126561961D01*
X96488095Y-126561961D02*
X96392857Y-126657200D01*
X96392857Y-126657200D02*
X96250000Y-126704819D01*
X96250000Y-126704819D02*
X96011905Y-126704819D01*
X97440476Y-126038152D02*
X97440476Y-126704819D01*
X97202381Y-125657200D02*
X96964286Y-126371485D01*
X96964286Y-126371485D02*
X97583333Y-126371485D01*
X95988095Y-122704819D02*
X95988095Y-121704819D01*
X96559523Y-122704819D02*
X96130952Y-122133390D01*
X96559523Y-121704819D02*
X95988095Y-122276247D01*
X108083333Y-82454819D02*
X107750000Y-81978628D01*
X107511905Y-82454819D02*
X107511905Y-81454819D01*
X107511905Y-81454819D02*
X107892857Y-81454819D01*
X107892857Y-81454819D02*
X107988095Y-81502438D01*
X107988095Y-81502438D02*
X108035714Y-81550057D01*
X108035714Y-81550057D02*
X108083333Y-81645295D01*
X108083333Y-81645295D02*
X108083333Y-81788152D01*
X108083333Y-81788152D02*
X108035714Y-81883390D01*
X108035714Y-81883390D02*
X107988095Y-81931009D01*
X107988095Y-81931009D02*
X107892857Y-81978628D01*
X107892857Y-81978628D02*
X107511905Y-81978628D01*
X108940476Y-81454819D02*
X108750000Y-81454819D01*
X108750000Y-81454819D02*
X108654762Y-81502438D01*
X108654762Y-81502438D02*
X108607143Y-81550057D01*
X108607143Y-81550057D02*
X108511905Y-81692914D01*
X108511905Y-81692914D02*
X108464286Y-81883390D01*
X108464286Y-81883390D02*
X108464286Y-82264342D01*
X108464286Y-82264342D02*
X108511905Y-82359580D01*
X108511905Y-82359580D02*
X108559524Y-82407200D01*
X108559524Y-82407200D02*
X108654762Y-82454819D01*
X108654762Y-82454819D02*
X108845238Y-82454819D01*
X108845238Y-82454819D02*
X108940476Y-82407200D01*
X108940476Y-82407200D02*
X108988095Y-82359580D01*
X108988095Y-82359580D02*
X109035714Y-82264342D01*
X109035714Y-82264342D02*
X109035714Y-82026247D01*
X109035714Y-82026247D02*
X108988095Y-81931009D01*
X108988095Y-81931009D02*
X108940476Y-81883390D01*
X108940476Y-81883390D02*
X108845238Y-81835771D01*
X108845238Y-81835771D02*
X108654762Y-81835771D01*
X108654762Y-81835771D02*
X108559524Y-81883390D01*
X108559524Y-81883390D02*
X108511905Y-81931009D01*
X108511905Y-81931009D02*
X108464286Y-82026247D01*
X111607142Y-130609580D02*
X111559523Y-130657200D01*
X111559523Y-130657200D02*
X111416666Y-130704819D01*
X111416666Y-130704819D02*
X111321428Y-130704819D01*
X111321428Y-130704819D02*
X111178571Y-130657200D01*
X111178571Y-130657200D02*
X111083333Y-130561961D01*
X111083333Y-130561961D02*
X111035714Y-130466723D01*
X111035714Y-130466723D02*
X110988095Y-130276247D01*
X110988095Y-130276247D02*
X110988095Y-130133390D01*
X110988095Y-130133390D02*
X111035714Y-129942914D01*
X111035714Y-129942914D02*
X111083333Y-129847676D01*
X111083333Y-129847676D02*
X111178571Y-129752438D01*
X111178571Y-129752438D02*
X111321428Y-129704819D01*
X111321428Y-129704819D02*
X111416666Y-129704819D01*
X111416666Y-129704819D02*
X111559523Y-129752438D01*
X111559523Y-129752438D02*
X111607142Y-129800057D01*
X112559523Y-130704819D02*
X111988095Y-130704819D01*
X112273809Y-130704819D02*
X112273809Y-129704819D01*
X112273809Y-129704819D02*
X112178571Y-129847676D01*
X112178571Y-129847676D02*
X112083333Y-129942914D01*
X112083333Y-129942914D02*
X111988095Y-129990533D01*
X113178571Y-129704819D02*
X113273809Y-129704819D01*
X113273809Y-129704819D02*
X113369047Y-129752438D01*
X113369047Y-129752438D02*
X113416666Y-129800057D01*
X113416666Y-129800057D02*
X113464285Y-129895295D01*
X113464285Y-129895295D02*
X113511904Y-130085771D01*
X113511904Y-130085771D02*
X113511904Y-130323866D01*
X113511904Y-130323866D02*
X113464285Y-130514342D01*
X113464285Y-130514342D02*
X113416666Y-130609580D01*
X113416666Y-130609580D02*
X113369047Y-130657200D01*
X113369047Y-130657200D02*
X113273809Y-130704819D01*
X113273809Y-130704819D02*
X113178571Y-130704819D01*
X113178571Y-130704819D02*
X113083333Y-130657200D01*
X113083333Y-130657200D02*
X113035714Y-130609580D01*
X113035714Y-130609580D02*
X112988095Y-130514342D01*
X112988095Y-130514342D02*
X112940476Y-130323866D01*
X112940476Y-130323866D02*
X112940476Y-130085771D01*
X112940476Y-130085771D02*
X112988095Y-129895295D01*
X112988095Y-129895295D02*
X113035714Y-129800057D01*
X113035714Y-129800057D02*
X113083333Y-129752438D01*
X113083333Y-129752438D02*
X113178571Y-129704819D01*
X97857142Y-124109580D02*
X97809523Y-124157200D01*
X97809523Y-124157200D02*
X97666666Y-124204819D01*
X97666666Y-124204819D02*
X97571428Y-124204819D01*
X97571428Y-124204819D02*
X97428571Y-124157200D01*
X97428571Y-124157200D02*
X97333333Y-124061961D01*
X97333333Y-124061961D02*
X97285714Y-123966723D01*
X97285714Y-123966723D02*
X97238095Y-123776247D01*
X97238095Y-123776247D02*
X97238095Y-123633390D01*
X97238095Y-123633390D02*
X97285714Y-123442914D01*
X97285714Y-123442914D02*
X97333333Y-123347676D01*
X97333333Y-123347676D02*
X97428571Y-123252438D01*
X97428571Y-123252438D02*
X97571428Y-123204819D01*
X97571428Y-123204819D02*
X97666666Y-123204819D01*
X97666666Y-123204819D02*
X97809523Y-123252438D01*
X97809523Y-123252438D02*
X97857142Y-123300057D01*
X98809523Y-124204819D02*
X98238095Y-124204819D01*
X98523809Y-124204819D02*
X98523809Y-123204819D01*
X98523809Y-123204819D02*
X98428571Y-123347676D01*
X98428571Y-123347676D02*
X98333333Y-123442914D01*
X98333333Y-123442914D02*
X98238095Y-123490533D01*
X99190476Y-123300057D02*
X99238095Y-123252438D01*
X99238095Y-123252438D02*
X99333333Y-123204819D01*
X99333333Y-123204819D02*
X99571428Y-123204819D01*
X99571428Y-123204819D02*
X99666666Y-123252438D01*
X99666666Y-123252438D02*
X99714285Y-123300057D01*
X99714285Y-123300057D02*
X99761904Y-123395295D01*
X99761904Y-123395295D02*
X99761904Y-123490533D01*
X99761904Y-123490533D02*
X99714285Y-123633390D01*
X99714285Y-123633390D02*
X99142857Y-124204819D01*
X99142857Y-124204819D02*
X99761904Y-124204819D01*
X85357142Y-100704819D02*
X85023809Y-100228628D01*
X84785714Y-100704819D02*
X84785714Y-99704819D01*
X84785714Y-99704819D02*
X85166666Y-99704819D01*
X85166666Y-99704819D02*
X85261904Y-99752438D01*
X85261904Y-99752438D02*
X85309523Y-99800057D01*
X85309523Y-99800057D02*
X85357142Y-99895295D01*
X85357142Y-99895295D02*
X85357142Y-100038152D01*
X85357142Y-100038152D02*
X85309523Y-100133390D01*
X85309523Y-100133390D02*
X85261904Y-100181009D01*
X85261904Y-100181009D02*
X85166666Y-100228628D01*
X85166666Y-100228628D02*
X84785714Y-100228628D01*
X86309523Y-100704819D02*
X85738095Y-100704819D01*
X86023809Y-100704819D02*
X86023809Y-99704819D01*
X86023809Y-99704819D02*
X85928571Y-99847676D01*
X85928571Y-99847676D02*
X85833333Y-99942914D01*
X85833333Y-99942914D02*
X85738095Y-99990533D01*
X86690476Y-99800057D02*
X86738095Y-99752438D01*
X86738095Y-99752438D02*
X86833333Y-99704819D01*
X86833333Y-99704819D02*
X87071428Y-99704819D01*
X87071428Y-99704819D02*
X87166666Y-99752438D01*
X87166666Y-99752438D02*
X87214285Y-99800057D01*
X87214285Y-99800057D02*
X87261904Y-99895295D01*
X87261904Y-99895295D02*
X87261904Y-99990533D01*
X87261904Y-99990533D02*
X87214285Y-100133390D01*
X87214285Y-100133390D02*
X86642857Y-100704819D01*
X86642857Y-100704819D02*
X87261904Y-100704819D01*
X101261905Y-94704819D02*
X101261905Y-93704819D01*
X101261905Y-93704819D02*
X101500000Y-93704819D01*
X101500000Y-93704819D02*
X101642857Y-93752438D01*
X101642857Y-93752438D02*
X101738095Y-93847676D01*
X101738095Y-93847676D02*
X101785714Y-93942914D01*
X101785714Y-93942914D02*
X101833333Y-94133390D01*
X101833333Y-94133390D02*
X101833333Y-94276247D01*
X101833333Y-94276247D02*
X101785714Y-94466723D01*
X101785714Y-94466723D02*
X101738095Y-94561961D01*
X101738095Y-94561961D02*
X101642857Y-94657200D01*
X101642857Y-94657200D02*
X101500000Y-94704819D01*
X101500000Y-94704819D02*
X101261905Y-94704819D01*
X102214286Y-93800057D02*
X102261905Y-93752438D01*
X102261905Y-93752438D02*
X102357143Y-93704819D01*
X102357143Y-93704819D02*
X102595238Y-93704819D01*
X102595238Y-93704819D02*
X102690476Y-93752438D01*
X102690476Y-93752438D02*
X102738095Y-93800057D01*
X102738095Y-93800057D02*
X102785714Y-93895295D01*
X102785714Y-93895295D02*
X102785714Y-93990533D01*
X102785714Y-93990533D02*
X102738095Y-94133390D01*
X102738095Y-94133390D02*
X102166667Y-94704819D01*
X102166667Y-94704819D02*
X102785714Y-94704819D01*
X101738095Y-106204819D02*
X101738095Y-105204819D01*
X102309523Y-106204819D02*
X101880952Y-105633390D01*
X102309523Y-105204819D02*
X101738095Y-105776247D01*
X85107142Y-114704819D02*
X84773809Y-114228628D01*
X84535714Y-114704819D02*
X84535714Y-113704819D01*
X84535714Y-113704819D02*
X84916666Y-113704819D01*
X84916666Y-113704819D02*
X85011904Y-113752438D01*
X85011904Y-113752438D02*
X85059523Y-113800057D01*
X85059523Y-113800057D02*
X85107142Y-113895295D01*
X85107142Y-113895295D02*
X85107142Y-114038152D01*
X85107142Y-114038152D02*
X85059523Y-114133390D01*
X85059523Y-114133390D02*
X85011904Y-114181009D01*
X85011904Y-114181009D02*
X84916666Y-114228628D01*
X84916666Y-114228628D02*
X84535714Y-114228628D01*
X86059523Y-114704819D02*
X85488095Y-114704819D01*
X85773809Y-114704819D02*
X85773809Y-113704819D01*
X85773809Y-113704819D02*
X85678571Y-113847676D01*
X85678571Y-113847676D02*
X85583333Y-113942914D01*
X85583333Y-113942914D02*
X85488095Y-113990533D01*
X86392857Y-113704819D02*
X87011904Y-113704819D01*
X87011904Y-113704819D02*
X86678571Y-114085771D01*
X86678571Y-114085771D02*
X86821428Y-114085771D01*
X86821428Y-114085771D02*
X86916666Y-114133390D01*
X86916666Y-114133390D02*
X86964285Y-114181009D01*
X86964285Y-114181009D02*
X87011904Y-114276247D01*
X87011904Y-114276247D02*
X87011904Y-114514342D01*
X87011904Y-114514342D02*
X86964285Y-114609580D01*
X86964285Y-114609580D02*
X86916666Y-114657200D01*
X86916666Y-114657200D02*
X86821428Y-114704819D01*
X86821428Y-114704819D02*
X86535714Y-114704819D01*
X86535714Y-114704819D02*
X86440476Y-114657200D01*
X86440476Y-114657200D02*
X86392857Y-114609580D01*
X170547618Y-103704819D02*
X170214285Y-103228628D01*
X169976190Y-103704819D02*
X169976190Y-102704819D01*
X169976190Y-102704819D02*
X170357142Y-102704819D01*
X170357142Y-102704819D02*
X170452380Y-102752438D01*
X170452380Y-102752438D02*
X170499999Y-102800057D01*
X170499999Y-102800057D02*
X170547618Y-102895295D01*
X170547618Y-102895295D02*
X170547618Y-103038152D01*
X170547618Y-103038152D02*
X170499999Y-103133390D01*
X170499999Y-103133390D02*
X170452380Y-103181009D01*
X170452380Y-103181009D02*
X170357142Y-103228628D01*
X170357142Y-103228628D02*
X169976190Y-103228628D01*
X170833333Y-103038152D02*
X171214285Y-103038152D01*
X170976190Y-103704819D02*
X170976190Y-102847676D01*
X170976190Y-102847676D02*
X171023809Y-102752438D01*
X171023809Y-102752438D02*
X171119047Y-102704819D01*
X171119047Y-102704819D02*
X171214285Y-102704819D01*
X172071428Y-103704819D02*
X171500000Y-103704819D01*
X171785714Y-103704819D02*
X171785714Y-102704819D01*
X171785714Y-102704819D02*
X171690476Y-102847676D01*
X171690476Y-102847676D02*
X171595238Y-102942914D01*
X171595238Y-102942914D02*
X171500000Y-102990533D01*
X151083333Y-126859580D02*
X151035714Y-126907200D01*
X151035714Y-126907200D02*
X150892857Y-126954819D01*
X150892857Y-126954819D02*
X150797619Y-126954819D01*
X150797619Y-126954819D02*
X150654762Y-126907200D01*
X150654762Y-126907200D02*
X150559524Y-126811961D01*
X150559524Y-126811961D02*
X150511905Y-126716723D01*
X150511905Y-126716723D02*
X150464286Y-126526247D01*
X150464286Y-126526247D02*
X150464286Y-126383390D01*
X150464286Y-126383390D02*
X150511905Y-126192914D01*
X150511905Y-126192914D02*
X150559524Y-126097676D01*
X150559524Y-126097676D02*
X150654762Y-126002438D01*
X150654762Y-126002438D02*
X150797619Y-125954819D01*
X150797619Y-125954819D02*
X150892857Y-125954819D01*
X150892857Y-125954819D02*
X151035714Y-126002438D01*
X151035714Y-126002438D02*
X151083333Y-126050057D01*
X151464286Y-126050057D02*
X151511905Y-126002438D01*
X151511905Y-126002438D02*
X151607143Y-125954819D01*
X151607143Y-125954819D02*
X151845238Y-125954819D01*
X151845238Y-125954819D02*
X151940476Y-126002438D01*
X151940476Y-126002438D02*
X151988095Y-126050057D01*
X151988095Y-126050057D02*
X152035714Y-126145295D01*
X152035714Y-126145295D02*
X152035714Y-126240533D01*
X152035714Y-126240533D02*
X151988095Y-126383390D01*
X151988095Y-126383390D02*
X151416667Y-126954819D01*
X151416667Y-126954819D02*
X152035714Y-126954819D01*
X129584819Y-90521904D02*
X130394342Y-90521904D01*
X130394342Y-90521904D02*
X130489580Y-90474285D01*
X130489580Y-90474285D02*
X130537200Y-90426666D01*
X130537200Y-90426666D02*
X130584819Y-90331428D01*
X130584819Y-90331428D02*
X130584819Y-90140952D01*
X130584819Y-90140952D02*
X130537200Y-90045714D01*
X130537200Y-90045714D02*
X130489580Y-89998095D01*
X130489580Y-89998095D02*
X130394342Y-89950476D01*
X130394342Y-89950476D02*
X129584819Y-89950476D01*
X129918152Y-89045714D02*
X130584819Y-89045714D01*
X129537200Y-89283809D02*
X130251485Y-89521904D01*
X130251485Y-89521904D02*
X130251485Y-88902857D01*
X119003333Y-124204819D02*
X118670000Y-123728628D01*
X118431905Y-124204819D02*
X118431905Y-123204819D01*
X118431905Y-123204819D02*
X118812857Y-123204819D01*
X118812857Y-123204819D02*
X118908095Y-123252438D01*
X118908095Y-123252438D02*
X118955714Y-123300057D01*
X118955714Y-123300057D02*
X119003333Y-123395295D01*
X119003333Y-123395295D02*
X119003333Y-123538152D01*
X119003333Y-123538152D02*
X118955714Y-123633390D01*
X118955714Y-123633390D02*
X118908095Y-123681009D01*
X118908095Y-123681009D02*
X118812857Y-123728628D01*
X118812857Y-123728628D02*
X118431905Y-123728628D01*
X119908095Y-123204819D02*
X119431905Y-123204819D01*
X119431905Y-123204819D02*
X119384286Y-123681009D01*
X119384286Y-123681009D02*
X119431905Y-123633390D01*
X119431905Y-123633390D02*
X119527143Y-123585771D01*
X119527143Y-123585771D02*
X119765238Y-123585771D01*
X119765238Y-123585771D02*
X119860476Y-123633390D01*
X119860476Y-123633390D02*
X119908095Y-123681009D01*
X119908095Y-123681009D02*
X119955714Y-123776247D01*
X119955714Y-123776247D02*
X119955714Y-124014342D01*
X119955714Y-124014342D02*
X119908095Y-124109580D01*
X119908095Y-124109580D02*
X119860476Y-124157200D01*
X119860476Y-124157200D02*
X119765238Y-124204819D01*
X119765238Y-124204819D02*
X119527143Y-124204819D01*
X119527143Y-124204819D02*
X119431905Y-124157200D01*
X119431905Y-124157200D02*
X119384286Y-124109580D01*
D13*
X130147323Y-106125000D02*
X129147323Y-106125000D01*
X129647323Y-106625000D02*
X129647323Y-105625000D01*
X124667677Y-108330000D02*
X124667677Y-98170000D01*
X124627677Y-108330000D02*
X124627677Y-98170000D01*
X124587677Y-108329000D02*
X124587677Y-98171000D01*
X124547677Y-108329000D02*
X124547677Y-98171000D01*
X124507677Y-108327000D02*
X124507677Y-98173000D01*
X124467677Y-108326000D02*
X124467677Y-98174000D01*
X124427677Y-108324000D02*
X124427677Y-98176000D01*
X124387677Y-108322000D02*
X124387677Y-98178000D01*
X124347677Y-108320000D02*
X124347677Y-98180000D01*
X124307677Y-108317000D02*
X124307677Y-98183000D01*
X124267677Y-108314000D02*
X124267677Y-98186000D01*
X124227677Y-108311000D02*
X124227677Y-98189000D01*
X124187677Y-108307000D02*
X124187677Y-98193000D01*
X124147677Y-108304000D02*
X124147677Y-98196000D01*
X124107677Y-108299000D02*
X124107677Y-98201000D01*
X124067677Y-108295000D02*
X124067677Y-98205000D01*
X124027677Y-108290000D02*
X124027677Y-98210000D01*
X123987677Y-108285000D02*
X123987677Y-98215000D01*
X123947677Y-108279000D02*
X123947677Y-98221000D01*
X123907677Y-108273000D02*
X123907677Y-98227000D01*
X123867677Y-108267000D02*
X123867677Y-98233000D01*
X123827677Y-108261000D02*
X123827677Y-98239000D01*
X123787677Y-108254000D02*
X123787677Y-98246000D01*
X123747677Y-108247000D02*
X123747677Y-98253000D01*
X123707677Y-108239000D02*
X123707677Y-98261000D01*
X123667677Y-108231000D02*
X123667677Y-98269000D01*
X123627677Y-108223000D02*
X123627677Y-98277000D01*
X123587677Y-108215000D02*
X123587677Y-98285000D01*
X123547677Y-108206000D02*
X123547677Y-98294000D01*
X123507677Y-108197000D02*
X123507677Y-98303000D01*
X123467677Y-108187000D02*
X123467677Y-98313000D01*
X123427677Y-108178000D02*
X123427677Y-98322000D01*
X123387677Y-108167000D02*
X123387677Y-104490000D01*
X123387677Y-102010000D02*
X123387677Y-98333000D01*
X123347677Y-108157000D02*
X123347677Y-104490000D01*
X123347677Y-102010000D02*
X123347677Y-98343000D01*
X123307677Y-108146000D02*
X123307677Y-104490000D01*
X123307677Y-102010000D02*
X123307677Y-98354000D01*
X123267677Y-108135000D02*
X123267677Y-104490000D01*
X123267677Y-102010000D02*
X123267677Y-98365000D01*
X123227677Y-108123000D02*
X123227677Y-104490000D01*
X123227677Y-102010000D02*
X123227677Y-98377000D01*
X123187677Y-108111000D02*
X123187677Y-104490000D01*
X123187677Y-102010000D02*
X123187677Y-98389000D01*
X123147677Y-108099000D02*
X123147677Y-104490000D01*
X123147677Y-102010000D02*
X123147677Y-98401000D01*
X123107677Y-108087000D02*
X123107677Y-104490000D01*
X123107677Y-102010000D02*
X123107677Y-98413000D01*
X123067677Y-108074000D02*
X123067677Y-104490000D01*
X123067677Y-102010000D02*
X123067677Y-98426000D01*
X123027677Y-108060000D02*
X123027677Y-104490000D01*
X123027677Y-102010000D02*
X123027677Y-98440000D01*
X122987677Y-108047000D02*
X122987677Y-104490000D01*
X122987677Y-102010000D02*
X122987677Y-98453000D01*
X122947677Y-108032000D02*
X122947677Y-104490000D01*
X122947677Y-102010000D02*
X122947677Y-98468000D01*
X122907677Y-108018000D02*
X122907677Y-104490000D01*
X122907677Y-102010000D02*
X122907677Y-98482000D01*
X122867677Y-108003000D02*
X122867677Y-104490000D01*
X122867677Y-102010000D02*
X122867677Y-98497000D01*
X122827677Y-107988000D02*
X122827677Y-104490000D01*
X122827677Y-102010000D02*
X122827677Y-98512000D01*
X122787677Y-107972000D02*
X122787677Y-104490000D01*
X122787677Y-102010000D02*
X122787677Y-98528000D01*
X122747677Y-107956000D02*
X122747677Y-104490000D01*
X122747677Y-102010000D02*
X122747677Y-98544000D01*
X122707677Y-107940000D02*
X122707677Y-104490000D01*
X122707677Y-102010000D02*
X122707677Y-98560000D01*
X122667677Y-107923000D02*
X122667677Y-104490000D01*
X122667677Y-102010000D02*
X122667677Y-98577000D01*
X122627677Y-107906000D02*
X122627677Y-104490000D01*
X122627677Y-102010000D02*
X122627677Y-98594000D01*
X122587677Y-107888000D02*
X122587677Y-104490000D01*
X122587677Y-102010000D02*
X122587677Y-98612000D01*
X122547677Y-107870000D02*
X122547677Y-104490000D01*
X122547677Y-102010000D02*
X122547677Y-98630000D01*
X122507677Y-107852000D02*
X122507677Y-104490000D01*
X122507677Y-102010000D02*
X122507677Y-98648000D01*
X122467677Y-107833000D02*
X122467677Y-104490000D01*
X122467677Y-102010000D02*
X122467677Y-98667000D01*
X122427677Y-107814000D02*
X122427677Y-104490000D01*
X122427677Y-102010000D02*
X122427677Y-98686000D01*
X122387677Y-107794000D02*
X122387677Y-104490000D01*
X122387677Y-102010000D02*
X122387677Y-98706000D01*
X122347677Y-107774000D02*
X122347677Y-104490000D01*
X122347677Y-102010000D02*
X122347677Y-98726000D01*
X122307677Y-107754000D02*
X122307677Y-104490000D01*
X122307677Y-102010000D02*
X122307677Y-98746000D01*
X122267677Y-107733000D02*
X122267677Y-104490000D01*
X122267677Y-102010000D02*
X122267677Y-98767000D01*
X122227677Y-107711000D02*
X122227677Y-104490000D01*
X122227677Y-102010000D02*
X122227677Y-98789000D01*
X122187677Y-107689000D02*
X122187677Y-104490000D01*
X122187677Y-102010000D02*
X122187677Y-98811000D01*
X122147677Y-107667000D02*
X122147677Y-104490000D01*
X122147677Y-102010000D02*
X122147677Y-98833000D01*
X122107677Y-107644000D02*
X122107677Y-104490000D01*
X122107677Y-102010000D02*
X122107677Y-98856000D01*
X122067677Y-107621000D02*
X122067677Y-104490000D01*
X122067677Y-102010000D02*
X122067677Y-98879000D01*
X122027677Y-107597000D02*
X122027677Y-104490000D01*
X122027677Y-102010000D02*
X122027677Y-98903000D01*
X121987677Y-107573000D02*
X121987677Y-104490000D01*
X121987677Y-102010000D02*
X121987677Y-98927000D01*
X121947677Y-107548000D02*
X121947677Y-104490000D01*
X121947677Y-102010000D02*
X121947677Y-98952000D01*
X121907677Y-107522000D02*
X121907677Y-104490000D01*
X121907677Y-102010000D02*
X121907677Y-98978000D01*
X121867677Y-107497000D02*
X121867677Y-104490000D01*
X121867677Y-102010000D02*
X121867677Y-99003000D01*
X121827677Y-107470000D02*
X121827677Y-104490000D01*
X121827677Y-102010000D02*
X121827677Y-99030000D01*
X121787677Y-107443000D02*
X121787677Y-104490000D01*
X121787677Y-102010000D02*
X121787677Y-99057000D01*
X121747677Y-107416000D02*
X121747677Y-104490000D01*
X121747677Y-102010000D02*
X121747677Y-99084000D01*
X121707677Y-107388000D02*
X121707677Y-104490000D01*
X121707677Y-102010000D02*
X121707677Y-99112000D01*
X121667677Y-107359000D02*
X121667677Y-104490000D01*
X121667677Y-102010000D02*
X121667677Y-99141000D01*
X121627677Y-107330000D02*
X121627677Y-104490000D01*
X121627677Y-102010000D02*
X121627677Y-99170000D01*
X121587677Y-107300000D02*
X121587677Y-104490000D01*
X121587677Y-102010000D02*
X121587677Y-99200000D01*
X121547677Y-107270000D02*
X121547677Y-104490000D01*
X121547677Y-102010000D02*
X121547677Y-99230000D01*
X121507677Y-107238000D02*
X121507677Y-104490000D01*
X121507677Y-102010000D02*
X121507677Y-99262000D01*
X121467677Y-107207000D02*
X121467677Y-104490000D01*
X121467677Y-102010000D02*
X121467677Y-99293000D01*
X121427677Y-107174000D02*
X121427677Y-104490000D01*
X121427677Y-102010000D02*
X121427677Y-99326000D01*
X121387677Y-107141000D02*
X121387677Y-104490000D01*
X121387677Y-102010000D02*
X121387677Y-99359000D01*
X121347677Y-107108000D02*
X121347677Y-104490000D01*
X121347677Y-102010000D02*
X121347677Y-99392000D01*
X121307677Y-107073000D02*
X121307677Y-104490000D01*
X121307677Y-102010000D02*
X121307677Y-99427000D01*
X121267677Y-107038000D02*
X121267677Y-104490000D01*
X121267677Y-102010000D02*
X121267677Y-99462000D01*
X121227677Y-107002000D02*
X121227677Y-104490000D01*
X121227677Y-102010000D02*
X121227677Y-99498000D01*
X121187677Y-106966000D02*
X121187677Y-104490000D01*
X121187677Y-102010000D02*
X121187677Y-99534000D01*
X121147677Y-106928000D02*
X121147677Y-104490000D01*
X121147677Y-102010000D02*
X121147677Y-99572000D01*
X121107677Y-106890000D02*
X121107677Y-104490000D01*
X121107677Y-102010000D02*
X121107677Y-99610000D01*
X121067677Y-106851000D02*
X121067677Y-104490000D01*
X121067677Y-102010000D02*
X121067677Y-99649000D01*
X121027677Y-106811000D02*
X121027677Y-104490000D01*
X121027677Y-102010000D02*
X121027677Y-99689000D01*
X120987677Y-106770000D02*
X120987677Y-104490000D01*
X120987677Y-102010000D02*
X120987677Y-99730000D01*
X120947677Y-106728000D02*
X120947677Y-104490000D01*
X120947677Y-102010000D02*
X120947677Y-99772000D01*
X120907677Y-106685000D02*
X120907677Y-99815000D01*
X120867677Y-106641000D02*
X120867677Y-99859000D01*
X120827677Y-106597000D02*
X120827677Y-99903000D01*
X120787677Y-106551000D02*
X120787677Y-99949000D01*
X120747677Y-106504000D02*
X120747677Y-99996000D01*
X120707677Y-106455000D02*
X120707677Y-100045000D01*
X120667677Y-106406000D02*
X120667677Y-100094000D01*
X120627677Y-106355000D02*
X120627677Y-100145000D01*
X120587677Y-106303000D02*
X120587677Y-100197000D01*
X120547677Y-106250000D02*
X120547677Y-100250000D01*
X120507677Y-106195000D02*
X120507677Y-100305000D01*
X120467677Y-106138000D02*
X120467677Y-100362000D01*
X120427677Y-106080000D02*
X120427677Y-100420000D01*
X120387677Y-106020000D02*
X120387677Y-100480000D01*
X120347677Y-105958000D02*
X120347677Y-100542000D01*
X120307677Y-105894000D02*
X120307677Y-100606000D01*
X120267677Y-105828000D02*
X120267677Y-100672000D01*
X120227677Y-105760000D02*
X120227677Y-100740000D01*
X120187677Y-105689000D02*
X120187677Y-100811000D01*
X120147677Y-105615000D02*
X120147677Y-100885000D01*
X120107677Y-105538000D02*
X120107677Y-100962000D01*
X120067677Y-105458000D02*
X120067677Y-101042000D01*
X120027677Y-105374000D02*
X120027677Y-101126000D01*
X119987677Y-105287000D02*
X119987677Y-101213000D01*
X119947677Y-105194000D02*
X119947677Y-101306000D01*
X119907677Y-105096000D02*
X119907677Y-101404000D01*
X119867677Y-104992000D02*
X119867677Y-101508000D01*
X119827677Y-104880000D02*
X119827677Y-101620000D01*
X119787677Y-104759000D02*
X119787677Y-101741000D01*
X119747677Y-104627000D02*
X119747677Y-101873000D01*
X119707677Y-104480000D02*
X119707677Y-102020000D01*
X119667677Y-104312000D02*
X119667677Y-102188000D01*
X119627677Y-104112000D02*
X119627677Y-102388000D01*
X119587677Y-103849000D02*
X119587677Y-102651000D01*
X129787677Y-103250000D02*
G75*
G02*
X119547677Y-103250000I-5120000J0D01*
G01*
X119547677Y-103250000D02*
G75*
G02*
X129787677Y-103250000I5120000J0D01*
G01*
D11*
X90960000Y-80750000D02*
X106200000Y-80750000D01*
X106200000Y-88750000D01*
X90960000Y-88750000D01*
X90960000Y-80750000D01*
X84250000Y-104420000D02*
X76250000Y-104420000D01*
X76250000Y-114580000D01*
X84250000Y-114580000D01*
X84250000Y-104420000D01*
X135240000Y-81750000D02*
X154760000Y-81750000D01*
X154760000Y-89750000D01*
X135240000Y-89750000D01*
X135240000Y-81750000D01*
D13*
X157432621Y-116139000D02*
X156802621Y-116139000D01*
X157117621Y-116454000D02*
X157117621Y-115824000D01*
X153932380Y-117530000D02*
X153932380Y-111070000D01*
X153892380Y-117530000D02*
X153892380Y-111070000D01*
X153852380Y-117529000D02*
X153852380Y-111071000D01*
X153812380Y-117528000D02*
X153812380Y-111072000D01*
X153772380Y-117526000D02*
X153772380Y-111074000D01*
X153732380Y-117524000D02*
X153732380Y-111076000D01*
X153692380Y-117521000D02*
X153692380Y-115340000D01*
X153692380Y-113260000D02*
X153692380Y-111079000D01*
X153652380Y-117518000D02*
X153652380Y-115340000D01*
X153652380Y-113260000D02*
X153652380Y-111082000D01*
X153612380Y-117514000D02*
X153612380Y-115340000D01*
X153612380Y-113260000D02*
X153612380Y-111086000D01*
X153572380Y-117510000D02*
X153572380Y-115340000D01*
X153572380Y-113260000D02*
X153572380Y-111090000D01*
X153532380Y-117505000D02*
X153532380Y-115340000D01*
X153532380Y-113260000D02*
X153532380Y-111095000D01*
X153492380Y-117500000D02*
X153492380Y-115340000D01*
X153492380Y-113260000D02*
X153492380Y-111100000D01*
X153452380Y-117495000D02*
X153452380Y-115340000D01*
X153452380Y-113260000D02*
X153452380Y-111105000D01*
X153412380Y-117488000D02*
X153412380Y-115340000D01*
X153412380Y-113260000D02*
X153412380Y-111112000D01*
X153372380Y-117482000D02*
X153372380Y-115340000D01*
X153372380Y-113260000D02*
X153372380Y-111118000D01*
X153332380Y-117474000D02*
X153332380Y-115340000D01*
X153332380Y-113260000D02*
X153332380Y-111126000D01*
X153292380Y-117467000D02*
X153292380Y-115340000D01*
X153292380Y-113260000D02*
X153292380Y-111133000D01*
X153252380Y-117459000D02*
X153252380Y-115340000D01*
X153252380Y-113260000D02*
X153252380Y-111141000D01*
X153212380Y-117450000D02*
X153212380Y-115340000D01*
X153212380Y-113260000D02*
X153212380Y-111150000D01*
X153172380Y-117440000D02*
X153172380Y-115340000D01*
X153172380Y-113260000D02*
X153172380Y-111160000D01*
X153132380Y-117431000D02*
X153132380Y-115340000D01*
X153132380Y-113260000D02*
X153132380Y-111169000D01*
X153092380Y-117420000D02*
X153092380Y-115340000D01*
X153092380Y-113260000D02*
X153092380Y-111180000D01*
X153052380Y-117409000D02*
X153052380Y-115340000D01*
X153052380Y-113260000D02*
X153052380Y-111191000D01*
X153012380Y-117398000D02*
X153012380Y-115340000D01*
X153012380Y-113260000D02*
X153012380Y-111202000D01*
X152972380Y-117386000D02*
X152972380Y-115340000D01*
X152972380Y-113260000D02*
X152972380Y-111214000D01*
X152932380Y-117373000D02*
X152932380Y-115340000D01*
X152932380Y-113260000D02*
X152932380Y-111227000D01*
X152892380Y-117360000D02*
X152892380Y-115340000D01*
X152892380Y-113260000D02*
X152892380Y-111240000D01*
X152852380Y-117347000D02*
X152852380Y-115340000D01*
X152852380Y-113260000D02*
X152852380Y-111253000D01*
X152812380Y-117332000D02*
X152812380Y-115340000D01*
X152812380Y-113260000D02*
X152812380Y-111268000D01*
X152772380Y-117317000D02*
X152772380Y-115340000D01*
X152772380Y-113260000D02*
X152772380Y-111283000D01*
X152732380Y-117302000D02*
X152732380Y-115340000D01*
X152732380Y-113260000D02*
X152732380Y-111298000D01*
X152692380Y-117286000D02*
X152692380Y-115340000D01*
X152692380Y-113260000D02*
X152692380Y-111314000D01*
X152652380Y-117269000D02*
X152652380Y-115340000D01*
X152652380Y-113260000D02*
X152652380Y-111331000D01*
X152612380Y-117252000D02*
X152612380Y-115340000D01*
X152612380Y-113260000D02*
X152612380Y-111348000D01*
X152572380Y-117234000D02*
X152572380Y-115340000D01*
X152572380Y-113260000D02*
X152572380Y-111366000D01*
X152532380Y-117215000D02*
X152532380Y-115340000D01*
X152532380Y-113260000D02*
X152532380Y-111385000D01*
X152492380Y-117196000D02*
X152492380Y-115340000D01*
X152492380Y-113260000D02*
X152492380Y-111404000D01*
X152452380Y-117176000D02*
X152452380Y-115340000D01*
X152452380Y-113260000D02*
X152452380Y-111424000D01*
X152412380Y-117155000D02*
X152412380Y-115340000D01*
X152412380Y-113260000D02*
X152412380Y-111445000D01*
X152372380Y-117134000D02*
X152372380Y-115340000D01*
X152372380Y-113260000D02*
X152372380Y-111466000D01*
X152332380Y-117112000D02*
X152332380Y-115340000D01*
X152332380Y-113260000D02*
X152332380Y-111488000D01*
X152292380Y-117089000D02*
X152292380Y-115340000D01*
X152292380Y-113260000D02*
X152292380Y-111511000D01*
X152252380Y-117065000D02*
X152252380Y-115340000D01*
X152252380Y-113260000D02*
X152252380Y-111535000D01*
X152212380Y-117041000D02*
X152212380Y-115340000D01*
X152212380Y-113260000D02*
X152212380Y-111559000D01*
X152172380Y-117016000D02*
X152172380Y-115340000D01*
X152172380Y-113260000D02*
X152172380Y-111584000D01*
X152132380Y-116990000D02*
X152132380Y-115340000D01*
X152132380Y-113260000D02*
X152132380Y-111610000D01*
X152092380Y-116963000D02*
X152092380Y-115340000D01*
X152092380Y-113260000D02*
X152092380Y-111637000D01*
X152052380Y-116936000D02*
X152052380Y-115340000D01*
X152052380Y-113260000D02*
X152052380Y-111664000D01*
X152012380Y-116907000D02*
X152012380Y-115340000D01*
X152012380Y-113260000D02*
X152012380Y-111693000D01*
X151972380Y-116877000D02*
X151972380Y-115340000D01*
X151972380Y-113260000D02*
X151972380Y-111723000D01*
X151932380Y-116847000D02*
X151932380Y-115340000D01*
X151932380Y-113260000D02*
X151932380Y-111753000D01*
X151892380Y-116816000D02*
X151892380Y-115340000D01*
X151892380Y-113260000D02*
X151892380Y-111784000D01*
X151852380Y-116783000D02*
X151852380Y-115340000D01*
X151852380Y-113260000D02*
X151852380Y-111817000D01*
X151812380Y-116750000D02*
X151812380Y-115340000D01*
X151812380Y-113260000D02*
X151812380Y-111850000D01*
X151772380Y-116715000D02*
X151772380Y-115340000D01*
X151772380Y-113260000D02*
X151772380Y-111885000D01*
X151732380Y-116679000D02*
X151732380Y-115340000D01*
X151732380Y-113260000D02*
X151732380Y-111921000D01*
X151692380Y-116642000D02*
X151692380Y-115340000D01*
X151692380Y-113260000D02*
X151692380Y-111958000D01*
X151652380Y-116604000D02*
X151652380Y-115340000D01*
X151652380Y-113260000D02*
X151652380Y-111996000D01*
X151612380Y-116564000D02*
X151612380Y-112036000D01*
X151572380Y-116523000D02*
X151572380Y-112077000D01*
X151532380Y-116481000D02*
X151532380Y-112119000D01*
X151492380Y-116437000D02*
X151492380Y-112163000D01*
X151452380Y-116391000D02*
X151452380Y-112209000D01*
X151412380Y-116344000D02*
X151412380Y-112256000D01*
X151372380Y-116295000D02*
X151372380Y-112305000D01*
X151332380Y-116243000D02*
X151332380Y-112357000D01*
X151292380Y-116190000D02*
X151292380Y-112410000D01*
X151252380Y-116134000D02*
X151252380Y-112466000D01*
X151212380Y-116075000D02*
X151212380Y-112525000D01*
X151172380Y-116014000D02*
X151172380Y-112586000D01*
X151132380Y-115949000D02*
X151132380Y-112651000D01*
X151092380Y-115881000D02*
X151092380Y-112719000D01*
X151052380Y-115809000D02*
X151052380Y-112791000D01*
X151012380Y-115732000D02*
X151012380Y-112868000D01*
X150972380Y-115650000D02*
X150972380Y-112950000D01*
X150932380Y-115561000D02*
X150932380Y-113039000D01*
X150892380Y-115465000D02*
X150892380Y-113135000D01*
X150852380Y-115358000D02*
X150852380Y-113242000D01*
X150812380Y-115239000D02*
X150812380Y-113361000D01*
X150772380Y-115101000D02*
X150772380Y-113499000D01*
X150732380Y-114933000D02*
X150732380Y-113667000D01*
X150692380Y-114702000D02*
X150692380Y-113898000D01*
X157202380Y-114300000D02*
G75*
G02*
X150662380Y-114300000I-3270000J0D01*
G01*
X150662380Y-114300000D02*
G75*
G02*
X157202380Y-114300000I3270000J0D01*
G01*
X89790000Y-104000000D02*
X90560000Y-104000000D01*
X97870000Y-104000000D02*
X97100000Y-104000000D01*
X90560000Y-102630000D02*
X97100000Y-102630000D01*
X97100000Y-105370000D01*
X90560000Y-105370000D01*
X90560000Y-102630000D01*
X86460000Y-127250000D02*
X85690000Y-127250000D01*
X78380000Y-127250000D02*
X79150000Y-127250000D01*
X85690000Y-128620000D02*
X79150000Y-128620000D01*
X79150000Y-125880000D01*
X85690000Y-125880000D01*
X85690000Y-128620000D01*
X102250000Y-108480000D02*
X102250000Y-109130000D01*
X103370000Y-109730000D02*
X101130000Y-109730000D01*
X103370000Y-109850000D02*
X101130000Y-109850000D01*
X103370000Y-109970000D02*
X101130000Y-109970000D01*
X102250000Y-114020000D02*
X102250000Y-113370000D01*
X103370000Y-109130000D02*
X101130000Y-109130000D01*
X101130000Y-113370000D01*
X103370000Y-113370000D01*
X103370000Y-109130000D01*
X130097323Y-117125000D02*
X129097323Y-117125000D01*
X129597323Y-117625000D02*
X129597323Y-116625000D01*
X124617677Y-119330000D02*
X124617677Y-109170000D01*
X124577677Y-119330000D02*
X124577677Y-109170000D01*
X124537677Y-119329000D02*
X124537677Y-109171000D01*
X124497677Y-119329000D02*
X124497677Y-109171000D01*
X124457677Y-119327000D02*
X124457677Y-109173000D01*
X124417677Y-119326000D02*
X124417677Y-109174000D01*
X124377677Y-119324000D02*
X124377677Y-109176000D01*
X124337677Y-119322000D02*
X124337677Y-109178000D01*
X124297677Y-119320000D02*
X124297677Y-109180000D01*
X124257677Y-119317000D02*
X124257677Y-109183000D01*
X124217677Y-119314000D02*
X124217677Y-109186000D01*
X124177677Y-119311000D02*
X124177677Y-109189000D01*
X124137677Y-119307000D02*
X124137677Y-109193000D01*
X124097677Y-119304000D02*
X124097677Y-109196000D01*
X124057677Y-119299000D02*
X124057677Y-109201000D01*
X124017677Y-119295000D02*
X124017677Y-109205000D01*
X123977677Y-119290000D02*
X123977677Y-109210000D01*
X123937677Y-119285000D02*
X123937677Y-109215000D01*
X123897677Y-119279000D02*
X123897677Y-109221000D01*
X123857677Y-119273000D02*
X123857677Y-109227000D01*
X123817677Y-119267000D02*
X123817677Y-109233000D01*
X123777677Y-119261000D02*
X123777677Y-109239000D01*
X123737677Y-119254000D02*
X123737677Y-109246000D01*
X123697677Y-119247000D02*
X123697677Y-109253000D01*
X123657677Y-119239000D02*
X123657677Y-109261000D01*
X123617677Y-119231000D02*
X123617677Y-109269000D01*
X123577677Y-119223000D02*
X123577677Y-109277000D01*
X123537677Y-119215000D02*
X123537677Y-109285000D01*
X123497677Y-119206000D02*
X123497677Y-109294000D01*
X123457677Y-119197000D02*
X123457677Y-109303000D01*
X123417677Y-119187000D02*
X123417677Y-109313000D01*
X123377677Y-119178000D02*
X123377677Y-109322000D01*
X123337677Y-119167000D02*
X123337677Y-115490000D01*
X123337677Y-113010000D02*
X123337677Y-109333000D01*
X123297677Y-119157000D02*
X123297677Y-115490000D01*
X123297677Y-113010000D02*
X123297677Y-109343000D01*
X123257677Y-119146000D02*
X123257677Y-115490000D01*
X123257677Y-113010000D02*
X123257677Y-109354000D01*
X123217677Y-119135000D02*
X123217677Y-115490000D01*
X123217677Y-113010000D02*
X123217677Y-109365000D01*
X123177677Y-119123000D02*
X123177677Y-115490000D01*
X123177677Y-113010000D02*
X123177677Y-109377000D01*
X123137677Y-119111000D02*
X123137677Y-115490000D01*
X123137677Y-113010000D02*
X123137677Y-109389000D01*
X123097677Y-119099000D02*
X123097677Y-115490000D01*
X123097677Y-113010000D02*
X123097677Y-109401000D01*
X123057677Y-119087000D02*
X123057677Y-115490000D01*
X123057677Y-113010000D02*
X123057677Y-109413000D01*
X123017677Y-119074000D02*
X123017677Y-115490000D01*
X123017677Y-113010000D02*
X123017677Y-109426000D01*
X122977677Y-119060000D02*
X122977677Y-115490000D01*
X122977677Y-113010000D02*
X122977677Y-109440000D01*
X122937677Y-119047000D02*
X122937677Y-115490000D01*
X122937677Y-113010000D02*
X122937677Y-109453000D01*
X122897677Y-119032000D02*
X122897677Y-115490000D01*
X122897677Y-113010000D02*
X122897677Y-109468000D01*
X122857677Y-119018000D02*
X122857677Y-115490000D01*
X122857677Y-113010000D02*
X122857677Y-109482000D01*
X122817677Y-119003000D02*
X122817677Y-115490000D01*
X122817677Y-113010000D02*
X122817677Y-109497000D01*
X122777677Y-118988000D02*
X122777677Y-115490000D01*
X122777677Y-113010000D02*
X122777677Y-109512000D01*
X122737677Y-118972000D02*
X122737677Y-115490000D01*
X122737677Y-113010000D02*
X122737677Y-109528000D01*
X122697677Y-118956000D02*
X122697677Y-115490000D01*
X122697677Y-113010000D02*
X122697677Y-109544000D01*
X122657677Y-118940000D02*
X122657677Y-115490000D01*
X122657677Y-113010000D02*
X122657677Y-109560000D01*
X122617677Y-118923000D02*
X122617677Y-115490000D01*
X122617677Y-113010000D02*
X122617677Y-109577000D01*
X122577677Y-118906000D02*
X122577677Y-115490000D01*
X122577677Y-113010000D02*
X122577677Y-109594000D01*
X122537677Y-118888000D02*
X122537677Y-115490000D01*
X122537677Y-113010000D02*
X122537677Y-109612000D01*
X122497677Y-118870000D02*
X122497677Y-115490000D01*
X122497677Y-113010000D02*
X122497677Y-109630000D01*
X122457677Y-118852000D02*
X122457677Y-115490000D01*
X122457677Y-113010000D02*
X122457677Y-109648000D01*
X122417677Y-118833000D02*
X122417677Y-115490000D01*
X122417677Y-113010000D02*
X122417677Y-109667000D01*
X122377677Y-118814000D02*
X122377677Y-115490000D01*
X122377677Y-113010000D02*
X122377677Y-109686000D01*
X122337677Y-118794000D02*
X122337677Y-115490000D01*
X122337677Y-113010000D02*
X122337677Y-109706000D01*
X122297677Y-118774000D02*
X122297677Y-115490000D01*
X122297677Y-113010000D02*
X122297677Y-109726000D01*
X122257677Y-118754000D02*
X122257677Y-115490000D01*
X122257677Y-113010000D02*
X122257677Y-109746000D01*
X122217677Y-118733000D02*
X122217677Y-115490000D01*
X122217677Y-113010000D02*
X122217677Y-109767000D01*
X122177677Y-118711000D02*
X122177677Y-115490000D01*
X122177677Y-113010000D02*
X122177677Y-109789000D01*
X122137677Y-118689000D02*
X122137677Y-115490000D01*
X122137677Y-113010000D02*
X122137677Y-109811000D01*
X122097677Y-118667000D02*
X122097677Y-115490000D01*
X122097677Y-113010000D02*
X122097677Y-109833000D01*
X122057677Y-118644000D02*
X122057677Y-115490000D01*
X122057677Y-113010000D02*
X122057677Y-109856000D01*
X122017677Y-118621000D02*
X122017677Y-115490000D01*
X122017677Y-113010000D02*
X122017677Y-109879000D01*
X121977677Y-118597000D02*
X121977677Y-115490000D01*
X121977677Y-113010000D02*
X121977677Y-109903000D01*
X121937677Y-118573000D02*
X121937677Y-115490000D01*
X121937677Y-113010000D02*
X121937677Y-109927000D01*
X121897677Y-118548000D02*
X121897677Y-115490000D01*
X121897677Y-113010000D02*
X121897677Y-109952000D01*
X121857677Y-118522000D02*
X121857677Y-115490000D01*
X121857677Y-113010000D02*
X121857677Y-109978000D01*
X121817677Y-118497000D02*
X121817677Y-115490000D01*
X121817677Y-113010000D02*
X121817677Y-110003000D01*
X121777677Y-118470000D02*
X121777677Y-115490000D01*
X121777677Y-113010000D02*
X121777677Y-110030000D01*
X121737677Y-118443000D02*
X121737677Y-115490000D01*
X121737677Y-113010000D02*
X121737677Y-110057000D01*
X121697677Y-118416000D02*
X121697677Y-115490000D01*
X121697677Y-113010000D02*
X121697677Y-110084000D01*
X121657677Y-118388000D02*
X121657677Y-115490000D01*
X121657677Y-113010000D02*
X121657677Y-110112000D01*
X121617677Y-118359000D02*
X121617677Y-115490000D01*
X121617677Y-113010000D02*
X121617677Y-110141000D01*
X121577677Y-118330000D02*
X121577677Y-115490000D01*
X121577677Y-113010000D02*
X121577677Y-110170000D01*
X121537677Y-118300000D02*
X121537677Y-115490000D01*
X121537677Y-113010000D02*
X121537677Y-110200000D01*
X121497677Y-118270000D02*
X121497677Y-115490000D01*
X121497677Y-113010000D02*
X121497677Y-110230000D01*
X121457677Y-118238000D02*
X121457677Y-115490000D01*
X121457677Y-113010000D02*
X121457677Y-110262000D01*
X121417677Y-118207000D02*
X121417677Y-115490000D01*
X121417677Y-113010000D02*
X121417677Y-110293000D01*
X121377677Y-118174000D02*
X121377677Y-115490000D01*
X121377677Y-113010000D02*
X121377677Y-110326000D01*
X121337677Y-118141000D02*
X121337677Y-115490000D01*
X121337677Y-113010000D02*
X121337677Y-110359000D01*
X121297677Y-118108000D02*
X121297677Y-115490000D01*
X121297677Y-113010000D02*
X121297677Y-110392000D01*
X121257677Y-118073000D02*
X121257677Y-115490000D01*
X121257677Y-113010000D02*
X121257677Y-110427000D01*
X121217677Y-118038000D02*
X121217677Y-115490000D01*
X121217677Y-113010000D02*
X121217677Y-110462000D01*
X121177677Y-118002000D02*
X121177677Y-115490000D01*
X121177677Y-113010000D02*
X121177677Y-110498000D01*
X121137677Y-117966000D02*
X121137677Y-115490000D01*
X121137677Y-113010000D02*
X121137677Y-110534000D01*
X121097677Y-117928000D02*
X121097677Y-115490000D01*
X121097677Y-113010000D02*
X121097677Y-110572000D01*
X121057677Y-117890000D02*
X121057677Y-115490000D01*
X121057677Y-113010000D02*
X121057677Y-110610000D01*
X121017677Y-117851000D02*
X121017677Y-115490000D01*
X121017677Y-113010000D02*
X121017677Y-110649000D01*
X120977677Y-117811000D02*
X120977677Y-115490000D01*
X120977677Y-113010000D02*
X120977677Y-110689000D01*
X120937677Y-117770000D02*
X120937677Y-115490000D01*
X120937677Y-113010000D02*
X120937677Y-110730000D01*
X120897677Y-117728000D02*
X120897677Y-115490000D01*
X120897677Y-113010000D02*
X120897677Y-110772000D01*
X120857677Y-117685000D02*
X120857677Y-110815000D01*
X120817677Y-117641000D02*
X120817677Y-110859000D01*
X120777677Y-117597000D02*
X120777677Y-110903000D01*
X120737677Y-117551000D02*
X120737677Y-110949000D01*
X120697677Y-117504000D02*
X120697677Y-110996000D01*
X120657677Y-117455000D02*
X120657677Y-111045000D01*
X120617677Y-117406000D02*
X120617677Y-111094000D01*
X120577677Y-117355000D02*
X120577677Y-111145000D01*
X120537677Y-117303000D02*
X120537677Y-111197000D01*
X120497677Y-117250000D02*
X120497677Y-111250000D01*
X120457677Y-117195000D02*
X120457677Y-111305000D01*
X120417677Y-117138000D02*
X120417677Y-111362000D01*
X120377677Y-117080000D02*
X120377677Y-111420000D01*
X120337677Y-117020000D02*
X120337677Y-111480000D01*
X120297677Y-116958000D02*
X120297677Y-111542000D01*
X120257677Y-116894000D02*
X120257677Y-111606000D01*
X120217677Y-116828000D02*
X120217677Y-111672000D01*
X120177677Y-116760000D02*
X120177677Y-111740000D01*
X120137677Y-116689000D02*
X120137677Y-111811000D01*
X120097677Y-116615000D02*
X120097677Y-111885000D01*
X120057677Y-116538000D02*
X120057677Y-111962000D01*
X120017677Y-116458000D02*
X120017677Y-112042000D01*
X119977677Y-116374000D02*
X119977677Y-112126000D01*
X119937677Y-116287000D02*
X119937677Y-112213000D01*
X119897677Y-116194000D02*
X119897677Y-112306000D01*
X119857677Y-116096000D02*
X119857677Y-112404000D01*
X119817677Y-115992000D02*
X119817677Y-112508000D01*
X119777677Y-115880000D02*
X119777677Y-112620000D01*
X119737677Y-115759000D02*
X119737677Y-112741000D01*
X119697677Y-115627000D02*
X119697677Y-112873000D01*
X119657677Y-115480000D02*
X119657677Y-113020000D01*
X119617677Y-115312000D02*
X119617677Y-113188000D01*
X119577677Y-115112000D02*
X119577677Y-113388000D01*
X119537677Y-114849000D02*
X119537677Y-113651000D01*
X129737677Y-114250000D02*
G75*
G02*
X119497677Y-114250000I-5120000J0D01*
G01*
X119497677Y-114250000D02*
G75*
G02*
X129737677Y-114250000I5120000J0D01*
G01*
X167290000Y-94250000D02*
X166520000Y-94250000D01*
X159210000Y-94250000D02*
X159980000Y-94250000D01*
X166520000Y-95620000D02*
X159980000Y-95620000D01*
X159980000Y-92880000D01*
X166520000Y-92880000D01*
X166520000Y-95620000D01*
X99120000Y-118000000D02*
X98350000Y-118000000D01*
X91040000Y-118000000D02*
X91810000Y-118000000D01*
X98350000Y-119370000D02*
X91810000Y-119370000D01*
X91810000Y-116630000D01*
X98350000Y-116630000D01*
X98350000Y-119370000D01*
X105500000Y-97420000D02*
X105500000Y-98070000D01*
X106620000Y-98670000D02*
X104380000Y-98670000D01*
X106620000Y-98790000D02*
X104380000Y-98790000D01*
X106620000Y-98910000D02*
X104380000Y-98910000D01*
X105500000Y-102960000D02*
X105500000Y-102310000D01*
X106620000Y-98070000D02*
X104380000Y-98070000D01*
X104380000Y-102310000D01*
X106620000Y-102310000D01*
X106620000Y-98070000D01*
X100780000Y-127380000D02*
X100780000Y-130120000D01*
X100780000Y-127380000D02*
X108220000Y-127380000D01*
X100780000Y-130120000D02*
X108220000Y-130120000D01*
X108220000Y-127380000D02*
X108220000Y-130120000D01*
X89790000Y-110750000D02*
X90560000Y-110750000D01*
X97870000Y-110750000D02*
X97100000Y-110750000D01*
X90560000Y-109380000D02*
X97100000Y-109380000D01*
X97100000Y-112120000D01*
X90560000Y-112120000D01*
X90560000Y-109380000D01*
X161915113Y-131000000D02*
X161145113Y-131000000D01*
X153835113Y-131000000D02*
X154605113Y-131000000D01*
X161145113Y-132370000D02*
X154605113Y-132370000D01*
X154605113Y-129630000D01*
X161145113Y-129630000D01*
X161145113Y-132370000D01*
X160860000Y-107120000D02*
X160860000Y-117400000D01*
X160860000Y-117400000D02*
X166160000Y-117400000D01*
X162510000Y-107120000D02*
X160860000Y-107120000D01*
X166160000Y-107120000D02*
X164510000Y-107120000D01*
X166160000Y-117400000D02*
X166160000Y-107120000D01*
X164510000Y-107120000D02*
G75*
G02*
X162510000Y-107120000I-1000000J0D01*
G01*
D14*
X108995000Y-96365000D02*
X116830000Y-96365000D01*
X110230000Y-116055000D02*
X116830000Y-116055000D01*
D13*
X78380000Y-131750000D02*
X79150000Y-131750000D01*
X86460000Y-131750000D02*
X85690000Y-131750000D01*
X79150000Y-130380000D02*
X85690000Y-130380000D01*
X85690000Y-133120000D01*
X79150000Y-133120000D01*
X79150000Y-130380000D01*
X97870000Y-107250000D02*
X97100000Y-107250000D01*
X89790000Y-107250000D02*
X90560000Y-107250000D01*
X97100000Y-108620000D02*
X90560000Y-108620000D01*
X90560000Y-105880000D01*
X97100000Y-105880000D01*
X97100000Y-108620000D01*
X157347324Y-107925000D02*
X156597324Y-107925000D01*
X156972324Y-108300000D02*
X156972324Y-107550000D01*
X153205113Y-109580000D02*
X153205113Y-101920000D01*
X153165113Y-109580000D02*
X153165113Y-101920000D01*
X153125113Y-109579000D02*
X153125113Y-101921000D01*
X153085113Y-109578000D02*
X153085113Y-101922000D01*
X153045113Y-109577000D02*
X153045113Y-101923000D01*
X153005113Y-109575000D02*
X153005113Y-101925000D01*
X152965113Y-109573000D02*
X152965113Y-106790000D01*
X152965113Y-104710000D02*
X152965113Y-101927000D01*
X152925113Y-109570000D02*
X152925113Y-106790000D01*
X152925113Y-104710000D02*
X152925113Y-101930000D01*
X152885113Y-109567000D02*
X152885113Y-106790000D01*
X152885113Y-104710000D02*
X152885113Y-101933000D01*
X152845113Y-109563000D02*
X152845113Y-106790000D01*
X152845113Y-104710000D02*
X152845113Y-101937000D01*
X152805113Y-109559000D02*
X152805113Y-106790000D01*
X152805113Y-104710000D02*
X152805113Y-101941000D01*
X152765113Y-109555000D02*
X152765113Y-106790000D01*
X152765113Y-104710000D02*
X152765113Y-101945000D01*
X152725113Y-109550000D02*
X152725113Y-106790000D01*
X152725113Y-104710000D02*
X152725113Y-101950000D01*
X152685113Y-109545000D02*
X152685113Y-106790000D01*
X152685113Y-104710000D02*
X152685113Y-101955000D01*
X152645113Y-109539000D02*
X152645113Y-106790000D01*
X152645113Y-104710000D02*
X152645113Y-101961000D01*
X152605113Y-109533000D02*
X152605113Y-106790000D01*
X152605113Y-104710000D02*
X152605113Y-101967000D01*
X152565113Y-109527000D02*
X152565113Y-106790000D01*
X152565113Y-104710000D02*
X152565113Y-101973000D01*
X152525113Y-109520000D02*
X152525113Y-106790000D01*
X152525113Y-104710000D02*
X152525113Y-101980000D01*
X152485113Y-109512000D02*
X152485113Y-106790000D01*
X152485113Y-104710000D02*
X152485113Y-101988000D01*
X152445113Y-109505000D02*
X152445113Y-106790000D01*
X152445113Y-104710000D02*
X152445113Y-101995000D01*
X152405113Y-109496000D02*
X152405113Y-106790000D01*
X152405113Y-104710000D02*
X152405113Y-102004000D01*
X152365113Y-109488000D02*
X152365113Y-106790000D01*
X152365113Y-104710000D02*
X152365113Y-102012000D01*
X152325113Y-109479000D02*
X152325113Y-106790000D01*
X152325113Y-104710000D02*
X152325113Y-102021000D01*
X152285113Y-109469000D02*
X152285113Y-106790000D01*
X152285113Y-104710000D02*
X152285113Y-102031000D01*
X152245113Y-109459000D02*
X152245113Y-106790000D01*
X152245113Y-104710000D02*
X152245113Y-102041000D01*
X152205113Y-109449000D02*
X152205113Y-106790000D01*
X152205113Y-104710000D02*
X152205113Y-102051000D01*
X152165113Y-109438000D02*
X152165113Y-106790000D01*
X152165113Y-104710000D02*
X152165113Y-102062000D01*
X152125113Y-109426000D02*
X152125113Y-106790000D01*
X152125113Y-104710000D02*
X152125113Y-102074000D01*
X152085113Y-109414000D02*
X152085113Y-106790000D01*
X152085113Y-104710000D02*
X152085113Y-102086000D01*
X152045113Y-109402000D02*
X152045113Y-106790000D01*
X152045113Y-104710000D02*
X152045113Y-102098000D01*
X152005113Y-109389000D02*
X152005113Y-106790000D01*
X152005113Y-104710000D02*
X152005113Y-102111000D01*
X151965113Y-109376000D02*
X151965113Y-106790000D01*
X151965113Y-104710000D02*
X151965113Y-102124000D01*
X151925113Y-109362000D02*
X151925113Y-106790000D01*
X151925113Y-104710000D02*
X151925113Y-102138000D01*
X151885113Y-109348000D02*
X151885113Y-106790000D01*
X151885113Y-104710000D02*
X151885113Y-102152000D01*
X151845113Y-109333000D02*
X151845113Y-106790000D01*
X151845113Y-104710000D02*
X151845113Y-102167000D01*
X151805113Y-109318000D02*
X151805113Y-106790000D01*
X151805113Y-104710000D02*
X151805113Y-102182000D01*
X151765113Y-109302000D02*
X151765113Y-106790000D01*
X151765113Y-104710000D02*
X151765113Y-102198000D01*
X151725113Y-109286000D02*
X151725113Y-106790000D01*
X151725113Y-104710000D02*
X151725113Y-102214000D01*
X151685113Y-109269000D02*
X151685113Y-106790000D01*
X151685113Y-104710000D02*
X151685113Y-102231000D01*
X151645113Y-109252000D02*
X151645113Y-106790000D01*
X151645113Y-104710000D02*
X151645113Y-102248000D01*
X151605113Y-109234000D02*
X151605113Y-106790000D01*
X151605113Y-104710000D02*
X151605113Y-102266000D01*
X151565113Y-109215000D02*
X151565113Y-106790000D01*
X151565113Y-104710000D02*
X151565113Y-102285000D01*
X151525113Y-109196000D02*
X151525113Y-106790000D01*
X151525113Y-104710000D02*
X151525113Y-102304000D01*
X151485113Y-109177000D02*
X151485113Y-106790000D01*
X151485113Y-104710000D02*
X151485113Y-102323000D01*
X151445113Y-109157000D02*
X151445113Y-106790000D01*
X151445113Y-104710000D02*
X151445113Y-102343000D01*
X151405113Y-109136000D02*
X151405113Y-106790000D01*
X151405113Y-104710000D02*
X151405113Y-102364000D01*
X151365113Y-109115000D02*
X151365113Y-106790000D01*
X151365113Y-104710000D02*
X151365113Y-102385000D01*
X151325113Y-109093000D02*
X151325113Y-106790000D01*
X151325113Y-104710000D02*
X151325113Y-102407000D01*
X151285113Y-109070000D02*
X151285113Y-106790000D01*
X151285113Y-104710000D02*
X151285113Y-102430000D01*
X151245113Y-109047000D02*
X151245113Y-106790000D01*
X151245113Y-104710000D02*
X151245113Y-102453000D01*
X151205113Y-109023000D02*
X151205113Y-106790000D01*
X151205113Y-104710000D02*
X151205113Y-102477000D01*
X151165113Y-108999000D02*
X151165113Y-106790000D01*
X151165113Y-104710000D02*
X151165113Y-102501000D01*
X151125113Y-108974000D02*
X151125113Y-106790000D01*
X151125113Y-104710000D02*
X151125113Y-102526000D01*
X151085113Y-108948000D02*
X151085113Y-106790000D01*
X151085113Y-104710000D02*
X151085113Y-102552000D01*
X151045113Y-108921000D02*
X151045113Y-106790000D01*
X151045113Y-104710000D02*
X151045113Y-102579000D01*
X151005113Y-108894000D02*
X151005113Y-106790000D01*
X151005113Y-104710000D02*
X151005113Y-102606000D01*
X150965113Y-108866000D02*
X150965113Y-106790000D01*
X150965113Y-104710000D02*
X150965113Y-102634000D01*
X150925113Y-108837000D02*
X150925113Y-106790000D01*
X150925113Y-104710000D02*
X150925113Y-102663000D01*
X150885113Y-108807000D02*
X150885113Y-102693000D01*
X150845113Y-108777000D02*
X150845113Y-102723000D01*
X150805113Y-108746000D02*
X150805113Y-102754000D01*
X150765113Y-108714000D02*
X150765113Y-102786000D01*
X150725113Y-108681000D02*
X150725113Y-102819000D01*
X150685113Y-108647000D02*
X150685113Y-102853000D01*
X150645113Y-108612000D02*
X150645113Y-102888000D01*
X150605113Y-108577000D02*
X150605113Y-102923000D01*
X150565113Y-108540000D02*
X150565113Y-102960000D01*
X150525113Y-108502000D02*
X150525113Y-102998000D01*
X150485113Y-108463000D02*
X150485113Y-103037000D01*
X150445113Y-108423000D02*
X150445113Y-103077000D01*
X150405113Y-108381000D02*
X150405113Y-103119000D01*
X150365113Y-108339000D02*
X150365113Y-103161000D01*
X150325113Y-108295000D02*
X150325113Y-103205000D01*
X150285113Y-108250000D02*
X150285113Y-103250000D01*
X150245113Y-108203000D02*
X150245113Y-103297000D01*
X150205113Y-108155000D02*
X150205113Y-103345000D01*
X150165113Y-108105000D02*
X150165113Y-103395000D01*
X150125113Y-108053000D02*
X150125113Y-103447000D01*
X150085113Y-108000000D02*
X150085113Y-103500000D01*
X150045113Y-107944000D02*
X150045113Y-103556000D01*
X150005113Y-107886000D02*
X150005113Y-103614000D01*
X149965113Y-107826000D02*
X149965113Y-103674000D01*
X149925113Y-107764000D02*
X149925113Y-103736000D01*
X149885113Y-107699000D02*
X149885113Y-103801000D01*
X149845113Y-107630000D02*
X149845113Y-103870000D01*
X149805113Y-107558000D02*
X149805113Y-103942000D01*
X149765113Y-107483000D02*
X149765113Y-104017000D01*
X149725113Y-107403000D02*
X149725113Y-104097000D01*
X149685113Y-107318000D02*
X149685113Y-104182000D01*
X149645113Y-107228000D02*
X149645113Y-104272000D01*
X149605113Y-107130000D02*
X149605113Y-104370000D01*
X149565113Y-107024000D02*
X149565113Y-104476000D01*
X149525113Y-106908000D02*
X149525113Y-104592000D01*
X149485113Y-106777000D02*
X149485113Y-104723000D01*
X149445113Y-106626000D02*
X149445113Y-104874000D01*
X149405113Y-106443000D02*
X149405113Y-105057000D01*
X149365113Y-106191000D02*
X149365113Y-105309000D01*
X157075113Y-105750000D02*
G75*
G02*
X149335113Y-105750000I-3870000J0D01*
G01*
X149335113Y-105750000D02*
G75*
G02*
X157075113Y-105750000I3870000J0D01*
G01*
X111720000Y-119870000D02*
X111720000Y-117130000D01*
X111720000Y-119870000D02*
X104280000Y-119870000D01*
X111720000Y-117130000D02*
X104280000Y-117130000D01*
X104280000Y-119870000D02*
X104280000Y-117130000D01*
X78380000Y-122500000D02*
X79150000Y-122500000D01*
X86460000Y-122500000D02*
X85690000Y-122500000D01*
X79150000Y-121130000D02*
X85690000Y-121130000D01*
X85690000Y-123870000D01*
X79150000Y-123870000D01*
X79150000Y-121130000D01*
X122920000Y-134790000D02*
X122920000Y-134020000D01*
X122920000Y-126710000D02*
X122920000Y-127480000D01*
X121550000Y-134020000D02*
X124290000Y-134020000D01*
X124290000Y-127480000D01*
X121550000Y-127480000D01*
X121550000Y-134020000D01*
X159210000Y-98750000D02*
X159980000Y-98750000D01*
X167290000Y-98750000D02*
X166520000Y-98750000D01*
X159980000Y-97380000D02*
X166520000Y-97380000D01*
X166520000Y-100120000D01*
X159980000Y-100120000D01*
X159980000Y-97380000D01*
X94870000Y-89530000D02*
X92130000Y-89530000D01*
X94870000Y-89530000D02*
X94870000Y-96970000D01*
X92130000Y-89530000D02*
X92130000Y-96970000D01*
X94870000Y-96970000D02*
X92130000Y-96970000D01*
X88540000Y-136000000D02*
X89310000Y-136000000D01*
X96620000Y-136000000D02*
X95850000Y-136000000D01*
X89310000Y-134630000D02*
X95850000Y-134630000D01*
X95850000Y-137370000D01*
X89310000Y-137370000D01*
X89310000Y-134630000D01*
X167720000Y-124120000D02*
X167720000Y-121380000D01*
X167720000Y-124120000D02*
X160280000Y-124120000D01*
X167720000Y-121380000D02*
X160280000Y-121380000D01*
X160280000Y-124120000D02*
X160280000Y-121380000D01*
X109375000Y-94479646D02*
X109375000Y-93479646D01*
X108875000Y-93979646D02*
X109875000Y-93979646D01*
X107170000Y-89000000D02*
X117330000Y-89000000D01*
X107170000Y-88960000D02*
X117330000Y-88960000D01*
X107171000Y-88920000D02*
X117329000Y-88920000D01*
X107171000Y-88880000D02*
X117329000Y-88880000D01*
X107173000Y-88840000D02*
X117327000Y-88840000D01*
X107174000Y-88800000D02*
X117326000Y-88800000D01*
X107176000Y-88760000D02*
X117324000Y-88760000D01*
X107178000Y-88720000D02*
X117322000Y-88720000D01*
X107180000Y-88680000D02*
X117320000Y-88680000D01*
X107183000Y-88640000D02*
X117317000Y-88640000D01*
X107186000Y-88600000D02*
X117314000Y-88600000D01*
X107189000Y-88560000D02*
X117311000Y-88560000D01*
X107193000Y-88520000D02*
X117307000Y-88520000D01*
X107196000Y-88480000D02*
X117304000Y-88480000D01*
X107201000Y-88440000D02*
X117299000Y-88440000D01*
X107205000Y-88400000D02*
X117295000Y-88400000D01*
X107210000Y-88360000D02*
X117290000Y-88360000D01*
X107215000Y-88320000D02*
X117285000Y-88320000D01*
X107221000Y-88280000D02*
X117279000Y-88280000D01*
X107227000Y-88240000D02*
X117273000Y-88240000D01*
X107233000Y-88200000D02*
X117267000Y-88200000D01*
X107239000Y-88160000D02*
X117261000Y-88160000D01*
X107246000Y-88120000D02*
X117254000Y-88120000D01*
X107253000Y-88080000D02*
X117247000Y-88080000D01*
X107261000Y-88040000D02*
X117239000Y-88040000D01*
X107269000Y-88000000D02*
X117231000Y-88000000D01*
X107277000Y-87960000D02*
X117223000Y-87960000D01*
X107285000Y-87920000D02*
X117215000Y-87920000D01*
X107294000Y-87880000D02*
X117206000Y-87880000D01*
X107303000Y-87840000D02*
X117197000Y-87840000D01*
X107313000Y-87800000D02*
X117187000Y-87800000D01*
X107322000Y-87760000D02*
X117178000Y-87760000D01*
X107333000Y-87720000D02*
X111010000Y-87720000D01*
X113490000Y-87720000D02*
X117167000Y-87720000D01*
X107343000Y-87680000D02*
X111010000Y-87680000D01*
X113490000Y-87680000D02*
X117157000Y-87680000D01*
X107354000Y-87640000D02*
X111010000Y-87640000D01*
X113490000Y-87640000D02*
X117146000Y-87640000D01*
X107365000Y-87600000D02*
X111010000Y-87600000D01*
X113490000Y-87600000D02*
X117135000Y-87600000D01*
X107377000Y-87560000D02*
X111010000Y-87560000D01*
X113490000Y-87560000D02*
X117123000Y-87560000D01*
X107389000Y-87520000D02*
X111010000Y-87520000D01*
X113490000Y-87520000D02*
X117111000Y-87520000D01*
X107401000Y-87480000D02*
X111010000Y-87480000D01*
X113490000Y-87480000D02*
X117099000Y-87480000D01*
X107413000Y-87440000D02*
X111010000Y-87440000D01*
X113490000Y-87440000D02*
X117087000Y-87440000D01*
X107426000Y-87400000D02*
X111010000Y-87400000D01*
X113490000Y-87400000D02*
X117074000Y-87400000D01*
X107440000Y-87360000D02*
X111010000Y-87360000D01*
X113490000Y-87360000D02*
X117060000Y-87360000D01*
X107453000Y-87320000D02*
X111010000Y-87320000D01*
X113490000Y-87320000D02*
X117047000Y-87320000D01*
X107468000Y-87280000D02*
X111010000Y-87280000D01*
X113490000Y-87280000D02*
X117032000Y-87280000D01*
X107482000Y-87240000D02*
X111010000Y-87240000D01*
X113490000Y-87240000D02*
X117018000Y-87240000D01*
X107497000Y-87200000D02*
X111010000Y-87200000D01*
X113490000Y-87200000D02*
X117003000Y-87200000D01*
X107512000Y-87160000D02*
X111010000Y-87160000D01*
X113490000Y-87160000D02*
X116988000Y-87160000D01*
X107528000Y-87120000D02*
X111010000Y-87120000D01*
X113490000Y-87120000D02*
X116972000Y-87120000D01*
X107544000Y-87080000D02*
X111010000Y-87080000D01*
X113490000Y-87080000D02*
X116956000Y-87080000D01*
X107560000Y-87040000D02*
X111010000Y-87040000D01*
X113490000Y-87040000D02*
X116940000Y-87040000D01*
X107577000Y-87000000D02*
X111010000Y-87000000D01*
X113490000Y-87000000D02*
X116923000Y-87000000D01*
X107594000Y-86960000D02*
X111010000Y-86960000D01*
X113490000Y-86960000D02*
X116906000Y-86960000D01*
X107612000Y-86920000D02*
X111010000Y-86920000D01*
X113490000Y-86920000D02*
X116888000Y-86920000D01*
X107630000Y-86880000D02*
X111010000Y-86880000D01*
X113490000Y-86880000D02*
X116870000Y-86880000D01*
X107648000Y-86840000D02*
X111010000Y-86840000D01*
X113490000Y-86840000D02*
X116852000Y-86840000D01*
X107667000Y-86800000D02*
X111010000Y-86800000D01*
X113490000Y-86800000D02*
X116833000Y-86800000D01*
X107686000Y-86760000D02*
X111010000Y-86760000D01*
X113490000Y-86760000D02*
X116814000Y-86760000D01*
X107706000Y-86720000D02*
X111010000Y-86720000D01*
X113490000Y-86720000D02*
X116794000Y-86720000D01*
X107726000Y-86680000D02*
X111010000Y-86680000D01*
X113490000Y-86680000D02*
X116774000Y-86680000D01*
X107746000Y-86640000D02*
X111010000Y-86640000D01*
X113490000Y-86640000D02*
X116754000Y-86640000D01*
X107767000Y-86600000D02*
X111010000Y-86600000D01*
X113490000Y-86600000D02*
X116733000Y-86600000D01*
X107789000Y-86560000D02*
X111010000Y-86560000D01*
X113490000Y-86560000D02*
X116711000Y-86560000D01*
X107811000Y-86520000D02*
X111010000Y-86520000D01*
X113490000Y-86520000D02*
X116689000Y-86520000D01*
X107833000Y-86480000D02*
X111010000Y-86480000D01*
X113490000Y-86480000D02*
X116667000Y-86480000D01*
X107856000Y-86440000D02*
X111010000Y-86440000D01*
X113490000Y-86440000D02*
X116644000Y-86440000D01*
X107879000Y-86400000D02*
X111010000Y-86400000D01*
X113490000Y-86400000D02*
X116621000Y-86400000D01*
X107903000Y-86360000D02*
X111010000Y-86360000D01*
X113490000Y-86360000D02*
X116597000Y-86360000D01*
X107927000Y-86320000D02*
X111010000Y-86320000D01*
X113490000Y-86320000D02*
X116573000Y-86320000D01*
X107952000Y-86280000D02*
X111010000Y-86280000D01*
X113490000Y-86280000D02*
X116548000Y-86280000D01*
X107978000Y-86240000D02*
X111010000Y-86240000D01*
X113490000Y-86240000D02*
X116522000Y-86240000D01*
X108003000Y-86200000D02*
X111010000Y-86200000D01*
X113490000Y-86200000D02*
X116497000Y-86200000D01*
X108030000Y-86160000D02*
X111010000Y-86160000D01*
X113490000Y-86160000D02*
X116470000Y-86160000D01*
X108057000Y-86120000D02*
X111010000Y-86120000D01*
X113490000Y-86120000D02*
X116443000Y-86120000D01*
X108084000Y-86080000D02*
X111010000Y-86080000D01*
X113490000Y-86080000D02*
X116416000Y-86080000D01*
X108112000Y-86040000D02*
X111010000Y-86040000D01*
X113490000Y-86040000D02*
X116388000Y-86040000D01*
X108141000Y-86000000D02*
X111010000Y-86000000D01*
X113490000Y-86000000D02*
X116359000Y-86000000D01*
X108170000Y-85960000D02*
X111010000Y-85960000D01*
X113490000Y-85960000D02*
X116330000Y-85960000D01*
X108200000Y-85920000D02*
X111010000Y-85920000D01*
X113490000Y-85920000D02*
X116300000Y-85920000D01*
X108230000Y-85880000D02*
X111010000Y-85880000D01*
X113490000Y-85880000D02*
X116270000Y-85880000D01*
X108262000Y-85840000D02*
X111010000Y-85840000D01*
X113490000Y-85840000D02*
X116238000Y-85840000D01*
X108293000Y-85800000D02*
X111010000Y-85800000D01*
X113490000Y-85800000D02*
X116207000Y-85800000D01*
X108326000Y-85760000D02*
X111010000Y-85760000D01*
X113490000Y-85760000D02*
X116174000Y-85760000D01*
X108359000Y-85720000D02*
X111010000Y-85720000D01*
X113490000Y-85720000D02*
X116141000Y-85720000D01*
X108392000Y-85680000D02*
X111010000Y-85680000D01*
X113490000Y-85680000D02*
X116108000Y-85680000D01*
X108427000Y-85640000D02*
X111010000Y-85640000D01*
X113490000Y-85640000D02*
X116073000Y-85640000D01*
X108462000Y-85600000D02*
X111010000Y-85600000D01*
X113490000Y-85600000D02*
X116038000Y-85600000D01*
X108498000Y-85560000D02*
X111010000Y-85560000D01*
X113490000Y-85560000D02*
X116002000Y-85560000D01*
X108534000Y-85520000D02*
X111010000Y-85520000D01*
X113490000Y-85520000D02*
X115966000Y-85520000D01*
X108572000Y-85480000D02*
X111010000Y-85480000D01*
X113490000Y-85480000D02*
X115928000Y-85480000D01*
X108610000Y-85440000D02*
X111010000Y-85440000D01*
X113490000Y-85440000D02*
X115890000Y-85440000D01*
X108649000Y-85400000D02*
X111010000Y-85400000D01*
X113490000Y-85400000D02*
X115851000Y-85400000D01*
X108689000Y-85360000D02*
X111010000Y-85360000D01*
X113490000Y-85360000D02*
X115811000Y-85360000D01*
X108730000Y-85320000D02*
X111010000Y-85320000D01*
X113490000Y-85320000D02*
X115770000Y-85320000D01*
X108772000Y-85280000D02*
X111010000Y-85280000D01*
X113490000Y-85280000D02*
X115728000Y-85280000D01*
X108815000Y-85240000D02*
X115685000Y-85240000D01*
X108859000Y-85200000D02*
X115641000Y-85200000D01*
X108903000Y-85160000D02*
X115597000Y-85160000D01*
X108949000Y-85120000D02*
X115551000Y-85120000D01*
X108996000Y-85080000D02*
X115504000Y-85080000D01*
X109045000Y-85040000D02*
X115455000Y-85040000D01*
X109094000Y-85000000D02*
X115406000Y-85000000D01*
X109145000Y-84960000D02*
X115355000Y-84960000D01*
X109197000Y-84920000D02*
X115303000Y-84920000D01*
X109250000Y-84880000D02*
X115250000Y-84880000D01*
X109305000Y-84840000D02*
X115195000Y-84840000D01*
X109362000Y-84800000D02*
X115138000Y-84800000D01*
X109420000Y-84760000D02*
X115080000Y-84760000D01*
X109480000Y-84720000D02*
X115020000Y-84720000D01*
X109542000Y-84680000D02*
X114958000Y-84680000D01*
X109606000Y-84640000D02*
X114894000Y-84640000D01*
X109672000Y-84600000D02*
X114828000Y-84600000D01*
X109740000Y-84560000D02*
X114760000Y-84560000D01*
X109811000Y-84520000D02*
X114689000Y-84520000D01*
X109885000Y-84480000D02*
X114615000Y-84480000D01*
X109962000Y-84440000D02*
X114538000Y-84440000D01*
X110042000Y-84400000D02*
X114458000Y-84400000D01*
X110126000Y-84360000D02*
X114374000Y-84360000D01*
X110213000Y-84320000D02*
X114287000Y-84320000D01*
X110306000Y-84280000D02*
X114194000Y-84280000D01*
X110404000Y-84240000D02*
X114096000Y-84240000D01*
X110508000Y-84200000D02*
X113992000Y-84200000D01*
X110620000Y-84160000D02*
X113880000Y-84160000D01*
X110741000Y-84120000D02*
X113759000Y-84120000D01*
X110873000Y-84080000D02*
X113627000Y-84080000D01*
X111020000Y-84040000D02*
X113480000Y-84040000D01*
X111188000Y-84000000D02*
X113312000Y-84000000D01*
X111388000Y-83960000D02*
X113112000Y-83960000D01*
X111651000Y-83920000D02*
X112849000Y-83920000D01*
X117370000Y-89000000D02*
G75*
G02*
X107130000Y-89000000I-5120000J0D01*
G01*
X107130000Y-89000000D02*
G75*
G02*
X117370000Y-89000000I5120000J0D01*
G01*
X159210000Y-89750000D02*
X159980000Y-89750000D01*
X167290000Y-89750000D02*
X166520000Y-89750000D01*
X159980000Y-88380000D02*
X166520000Y-88380000D01*
X166520000Y-91120000D01*
X159980000Y-91120000D01*
X159980000Y-88380000D01*
X126500000Y-134790000D02*
X126500000Y-134020000D01*
X126500000Y-126710000D02*
X126500000Y-127480000D01*
X125130000Y-134020000D02*
X127870000Y-134020000D01*
X127870000Y-127480000D01*
X125130000Y-127480000D01*
X125130000Y-134020000D01*
X90750000Y-123040000D02*
X90750000Y-123810000D01*
X90750000Y-131120000D02*
X90750000Y-130350000D01*
X92120000Y-123810000D02*
X89380000Y-123810000D01*
X89380000Y-130350000D01*
X92120000Y-130350000D01*
X92120000Y-123810000D01*
X130850000Y-91110000D02*
X130850000Y-93780000D01*
X130850000Y-96320000D02*
X130850000Y-134550000D01*
X130850000Y-134550000D02*
X135930000Y-134550000D01*
X133520000Y-93780000D02*
X130850000Y-93780000D01*
X133520000Y-96320000D02*
X130850000Y-96320000D01*
X133520000Y-96320000D02*
X133520000Y-93780000D01*
X133520000Y-96320000D02*
X133520000Y-131880000D01*
X133520000Y-131880000D02*
X130850000Y-131880000D01*
X135930000Y-126670000D02*
X143810000Y-126670000D01*
X135930000Y-137090000D02*
X135930000Y-126670000D01*
X143810000Y-126670000D02*
X143810000Y-137090000D01*
X143810000Y-137090000D02*
X135930000Y-137090000D01*
X146220000Y-93780000D02*
X146220000Y-131880000D01*
X146220000Y-93780000D02*
X148890000Y-93780000D01*
X146220000Y-131880000D02*
X148890000Y-131880000D01*
X148890000Y-91110000D02*
X130850000Y-91110000D01*
X148890000Y-134550000D02*
X143810000Y-134550000D01*
X148890000Y-134550000D02*
X148890000Y-91110000D01*
X153870000Y-91824888D02*
X151130000Y-91824888D01*
X153870000Y-91824888D02*
X153870000Y-99264888D01*
X151130000Y-91824888D02*
X151130000Y-99264888D01*
X153870000Y-99264888D02*
X151130000Y-99264888D01*
X124540000Y-82000000D02*
X125310000Y-82000000D01*
X132620000Y-82000000D02*
X131850000Y-82000000D01*
X125310000Y-80630000D02*
X131850000Y-80630000D01*
X131850000Y-83370000D01*
X125310000Y-83370000D01*
X125310000Y-80630000D01*
X78380000Y-118000000D02*
X79150000Y-118000000D01*
X86460000Y-118000000D02*
X85690000Y-118000000D01*
X79150000Y-116630000D02*
X85690000Y-116630000D01*
X85690000Y-119370000D01*
X79150000Y-119370000D01*
X79150000Y-116630000D01*
X94250000Y-123290000D02*
X94250000Y-123940000D01*
X95370000Y-124540000D02*
X93130000Y-124540000D01*
X95370000Y-124660000D02*
X93130000Y-124660000D01*
X95370000Y-124780000D02*
X93130000Y-124780000D01*
X94250000Y-128830000D02*
X94250000Y-128180000D01*
X95370000Y-123940000D02*
X93130000Y-123940000D01*
X93130000Y-128180000D01*
X95370000Y-128180000D01*
X95370000Y-123940000D01*
X111710000Y-82000000D02*
X112480000Y-82000000D01*
X119790000Y-82000000D02*
X119020000Y-82000000D01*
X112480000Y-80630000D02*
X119020000Y-80630000D01*
X119020000Y-83370000D01*
X112480000Y-83370000D01*
X112480000Y-80630000D01*
X100380000Y-131380000D02*
X100380000Y-136620000D01*
X100380000Y-131380000D02*
X113620000Y-131380000D01*
X100380000Y-136620000D02*
X113620000Y-136620000D01*
X113620000Y-131380000D02*
X113620000Y-136620000D01*
X113620000Y-126370000D02*
X113620000Y-121130000D01*
X113620000Y-126370000D02*
X100380000Y-126370000D01*
X113620000Y-121130000D02*
X100380000Y-121130000D01*
X100380000Y-126370000D02*
X100380000Y-121130000D01*
X89790000Y-100250000D02*
X90560000Y-100250000D01*
X97870000Y-100250000D02*
X97100000Y-100250000D01*
X90560000Y-98880000D02*
X97100000Y-98880000D01*
X97100000Y-101620000D01*
X90560000Y-101620000D01*
X90560000Y-98880000D01*
X102000000Y-102960000D02*
X102000000Y-102310000D01*
X100880000Y-101710000D02*
X103120000Y-101710000D01*
X100880000Y-101590000D02*
X103120000Y-101590000D01*
X100880000Y-101470000D02*
X103120000Y-101470000D01*
X102000000Y-97420000D02*
X102000000Y-98070000D01*
X100880000Y-102310000D02*
X103120000Y-102310000D01*
X103120000Y-98070000D01*
X100880000Y-98070000D01*
X100880000Y-102310000D01*
X97870000Y-114250000D02*
X97100000Y-114250000D01*
X89790000Y-114250000D02*
X90560000Y-114250000D01*
X97100000Y-115620000D02*
X90560000Y-115620000D01*
X90560000Y-112880000D01*
X97100000Y-112880000D01*
X97100000Y-115620000D01*
X159210000Y-103250000D02*
X159980000Y-103250000D01*
X167290000Y-103250000D02*
X166520000Y-103250000D01*
X159980000Y-101880000D02*
X166520000Y-101880000D01*
X166520000Y-104620000D01*
X159980000Y-104620000D01*
X159980000Y-101880000D01*
X151652677Y-121325000D02*
X152402677Y-121325000D01*
X152027677Y-120950000D02*
X152027677Y-121700000D01*
X155794888Y-119670000D02*
X155794888Y-127330000D01*
X155834888Y-119670000D02*
X155834888Y-127330000D01*
X155874888Y-119671000D02*
X155874888Y-127329000D01*
X155914888Y-119672000D02*
X155914888Y-127328000D01*
X155954888Y-119673000D02*
X155954888Y-127327000D01*
X155994888Y-119675000D02*
X155994888Y-127325000D01*
X156034888Y-119677000D02*
X156034888Y-122460000D01*
X156034888Y-124540000D02*
X156034888Y-127323000D01*
X156074888Y-119680000D02*
X156074888Y-122460000D01*
X156074888Y-124540000D02*
X156074888Y-127320000D01*
X156114888Y-119683000D02*
X156114888Y-122460000D01*
X156114888Y-124540000D02*
X156114888Y-127317000D01*
X156154888Y-119687000D02*
X156154888Y-122460000D01*
X156154888Y-124540000D02*
X156154888Y-127313000D01*
X156194888Y-119691000D02*
X156194888Y-122460000D01*
X156194888Y-124540000D02*
X156194888Y-127309000D01*
X156234888Y-119695000D02*
X156234888Y-122460000D01*
X156234888Y-124540000D02*
X156234888Y-127305000D01*
X156274888Y-119700000D02*
X156274888Y-122460000D01*
X156274888Y-124540000D02*
X156274888Y-127300000D01*
X156314888Y-119705000D02*
X156314888Y-122460000D01*
X156314888Y-124540000D02*
X156314888Y-127295000D01*
X156354888Y-119711000D02*
X156354888Y-122460000D01*
X156354888Y-124540000D02*
X156354888Y-127289000D01*
X156394888Y-119717000D02*
X156394888Y-122460000D01*
X156394888Y-124540000D02*
X156394888Y-127283000D01*
X156434888Y-119723000D02*
X156434888Y-122460000D01*
X156434888Y-124540000D02*
X156434888Y-127277000D01*
X156474888Y-119730000D02*
X156474888Y-122460000D01*
X156474888Y-124540000D02*
X156474888Y-127270000D01*
X156514888Y-119738000D02*
X156514888Y-122460000D01*
X156514888Y-124540000D02*
X156514888Y-127262000D01*
X156554888Y-119745000D02*
X156554888Y-122460000D01*
X156554888Y-124540000D02*
X156554888Y-127255000D01*
X156594888Y-119754000D02*
X156594888Y-122460000D01*
X156594888Y-124540000D02*
X156594888Y-127246000D01*
X156634888Y-119762000D02*
X156634888Y-122460000D01*
X156634888Y-124540000D02*
X156634888Y-127238000D01*
X156674888Y-119771000D02*
X156674888Y-122460000D01*
X156674888Y-124540000D02*
X156674888Y-127229000D01*
X156714888Y-119781000D02*
X156714888Y-122460000D01*
X156714888Y-124540000D02*
X156714888Y-127219000D01*
X156754888Y-119791000D02*
X156754888Y-122460000D01*
X156754888Y-124540000D02*
X156754888Y-127209000D01*
X156794888Y-119801000D02*
X156794888Y-122460000D01*
X156794888Y-124540000D02*
X156794888Y-127199000D01*
X156834888Y-119812000D02*
X156834888Y-122460000D01*
X156834888Y-124540000D02*
X156834888Y-127188000D01*
X156874888Y-119824000D02*
X156874888Y-122460000D01*
X156874888Y-124540000D02*
X156874888Y-127176000D01*
X156914888Y-119836000D02*
X156914888Y-122460000D01*
X156914888Y-124540000D02*
X156914888Y-127164000D01*
X156954888Y-119848000D02*
X156954888Y-122460000D01*
X156954888Y-124540000D02*
X156954888Y-127152000D01*
X156994888Y-119861000D02*
X156994888Y-122460000D01*
X156994888Y-124540000D02*
X156994888Y-127139000D01*
X157034888Y-119874000D02*
X157034888Y-122460000D01*
X157034888Y-124540000D02*
X157034888Y-127126000D01*
X157074888Y-119888000D02*
X157074888Y-122460000D01*
X157074888Y-124540000D02*
X157074888Y-127112000D01*
X157114888Y-119902000D02*
X157114888Y-122460000D01*
X157114888Y-124540000D02*
X157114888Y-127098000D01*
X157154888Y-119917000D02*
X157154888Y-122460000D01*
X157154888Y-124540000D02*
X157154888Y-127083000D01*
X157194888Y-119932000D02*
X157194888Y-122460000D01*
X157194888Y-124540000D02*
X157194888Y-127068000D01*
X157234888Y-119948000D02*
X157234888Y-122460000D01*
X157234888Y-124540000D02*
X157234888Y-127052000D01*
X157274888Y-119964000D02*
X157274888Y-122460000D01*
X157274888Y-124540000D02*
X157274888Y-127036000D01*
X157314888Y-119981000D02*
X157314888Y-122460000D01*
X157314888Y-124540000D02*
X157314888Y-127019000D01*
X157354888Y-119998000D02*
X157354888Y-122460000D01*
X157354888Y-124540000D02*
X157354888Y-127002000D01*
X157394888Y-120016000D02*
X157394888Y-122460000D01*
X157394888Y-124540000D02*
X157394888Y-126984000D01*
X157434888Y-120035000D02*
X157434888Y-122460000D01*
X157434888Y-124540000D02*
X157434888Y-126965000D01*
X157474888Y-120054000D02*
X157474888Y-122460000D01*
X157474888Y-124540000D02*
X157474888Y-126946000D01*
X157514888Y-120073000D02*
X157514888Y-122460000D01*
X157514888Y-124540000D02*
X157514888Y-126927000D01*
X157554888Y-120093000D02*
X157554888Y-122460000D01*
X157554888Y-124540000D02*
X157554888Y-126907000D01*
X157594888Y-120114000D02*
X157594888Y-122460000D01*
X157594888Y-124540000D02*
X157594888Y-126886000D01*
X157634888Y-120135000D02*
X157634888Y-122460000D01*
X157634888Y-124540000D02*
X157634888Y-126865000D01*
X157674888Y-120157000D02*
X157674888Y-122460000D01*
X157674888Y-124540000D02*
X157674888Y-126843000D01*
X157714888Y-120180000D02*
X157714888Y-122460000D01*
X157714888Y-124540000D02*
X157714888Y-126820000D01*
X157754888Y-120203000D02*
X157754888Y-122460000D01*
X157754888Y-124540000D02*
X157754888Y-126797000D01*
X157794888Y-120227000D02*
X157794888Y-122460000D01*
X157794888Y-124540000D02*
X157794888Y-126773000D01*
X157834888Y-120251000D02*
X157834888Y-122460000D01*
X157834888Y-124540000D02*
X157834888Y-126749000D01*
X157874888Y-120276000D02*
X157874888Y-122460000D01*
X157874888Y-124540000D02*
X157874888Y-126724000D01*
X157914888Y-120302000D02*
X157914888Y-122460000D01*
X157914888Y-124540000D02*
X157914888Y-126698000D01*
X157954888Y-120329000D02*
X157954888Y-122460000D01*
X157954888Y-124540000D02*
X157954888Y-126671000D01*
X157994888Y-120356000D02*
X157994888Y-122460000D01*
X157994888Y-124540000D02*
X157994888Y-126644000D01*
X158034888Y-120384000D02*
X158034888Y-122460000D01*
X158034888Y-124540000D02*
X158034888Y-126616000D01*
X158074888Y-120413000D02*
X158074888Y-122460000D01*
X158074888Y-124540000D02*
X158074888Y-126587000D01*
X158114888Y-120443000D02*
X158114888Y-126557000D01*
X158154888Y-120473000D02*
X158154888Y-126527000D01*
X158194888Y-120504000D02*
X158194888Y-126496000D01*
X158234888Y-120536000D02*
X158234888Y-126464000D01*
X158274888Y-120569000D02*
X158274888Y-126431000D01*
X158314888Y-120603000D02*
X158314888Y-126397000D01*
X158354888Y-120638000D02*
X158354888Y-126362000D01*
X158394888Y-120673000D02*
X158394888Y-126327000D01*
X158434888Y-120710000D02*
X158434888Y-126290000D01*
X158474888Y-120748000D02*
X158474888Y-126252000D01*
X158514888Y-120787000D02*
X158514888Y-126213000D01*
X158554888Y-120827000D02*
X158554888Y-126173000D01*
X158594888Y-120869000D02*
X158594888Y-126131000D01*
X158634888Y-120911000D02*
X158634888Y-126089000D01*
X158674888Y-120955000D02*
X158674888Y-126045000D01*
X158714888Y-121000000D02*
X158714888Y-126000000D01*
X158754888Y-121047000D02*
X158754888Y-125953000D01*
X158794888Y-121095000D02*
X158794888Y-125905000D01*
X158834888Y-121145000D02*
X158834888Y-125855000D01*
X158874888Y-121197000D02*
X158874888Y-125803000D01*
X158914888Y-121250000D02*
X158914888Y-125750000D01*
X158954888Y-121306000D02*
X158954888Y-125694000D01*
X158994888Y-121364000D02*
X158994888Y-125636000D01*
X159034888Y-121424000D02*
X159034888Y-125576000D01*
X159074888Y-121486000D02*
X159074888Y-125514000D01*
X159114888Y-121551000D02*
X159114888Y-125449000D01*
X159154888Y-121620000D02*
X159154888Y-125380000D01*
X159194888Y-121692000D02*
X159194888Y-125308000D01*
X159234888Y-121767000D02*
X159234888Y-125233000D01*
X159274888Y-121847000D02*
X159274888Y-125153000D01*
X159314888Y-121932000D02*
X159314888Y-125068000D01*
X159354888Y-122022000D02*
X159354888Y-124978000D01*
X159394888Y-122120000D02*
X159394888Y-124880000D01*
X159434888Y-122226000D02*
X159434888Y-124774000D01*
X159474888Y-122342000D02*
X159474888Y-124658000D01*
X159514888Y-122473000D02*
X159514888Y-124527000D01*
X159554888Y-122624000D02*
X159554888Y-124376000D01*
X159594888Y-122807000D02*
X159594888Y-124193000D01*
X159634888Y-123059000D02*
X159634888Y-123941000D01*
X159664888Y-123500000D02*
G75*
G02*
X151924888Y-123500000I-3870000J0D01*
G01*
X151924888Y-123500000D02*
G75*
G02*
X159664888Y-123500000I3870000J0D01*
G01*
X129130000Y-87110000D02*
X118850000Y-87110000D01*
X118850000Y-87110000D02*
X118850000Y-92410000D01*
X129130000Y-88760000D02*
X129130000Y-87110000D01*
X129130000Y-92410000D02*
X129130000Y-90760000D01*
X118850000Y-92410000D02*
X129130000Y-92410000D01*
X129130000Y-90760000D02*
G75*
G02*
X129130000Y-88760000I0J1000000D01*
G01*
X119170000Y-126710000D02*
X119170000Y-127480000D01*
X119170000Y-134790000D02*
X119170000Y-134020000D01*
X120540000Y-127480000D02*
X117800000Y-127480000D01*
X117800000Y-134020000D01*
X120540000Y-134020000D01*
X120540000Y-127480000D01*
%LPC*%
D15*
X127167677Y-103250000D03*
D16*
X122167677Y-103250000D03*
D17*
X93500000Y-84750000D03*
D18*
X98580000Y-84750000D03*
X103660000Y-84750000D03*
D19*
X80250000Y-106960000D03*
D18*
X80250000Y-112040000D03*
D17*
X137500000Y-85750000D03*
D18*
X142500000Y-85750000D03*
X147500000Y-85750000D03*
X152500000Y-85750000D03*
D20*
X155182380Y-114300000D03*
D21*
X152682380Y-114300000D03*
X88750000Y-104000000D03*
X98910000Y-104000000D03*
X87500000Y-127250000D03*
X77340000Y-127250000D03*
D22*
X102250000Y-107440000D03*
D21*
X102250000Y-115060000D03*
D15*
X127117677Y-114250000D03*
D16*
X122117677Y-114250000D03*
D21*
X168330000Y-94250000D03*
X158170000Y-94250000D03*
X100160000Y-118000000D03*
X90000000Y-118000000D03*
D22*
X105500000Y-96380000D03*
D21*
X105500000Y-104000000D03*
X102000000Y-128750000D03*
X107000000Y-128750000D03*
X88750000Y-110750000D03*
X98910000Y-110750000D03*
D23*
X172250000Y-82000000D03*
D21*
X162955113Y-131000000D03*
X152795113Y-131000000D03*
D23*
X77750000Y-136500000D03*
D24*
X159700000Y-108450000D03*
D21*
X159700000Y-110990000D03*
X159700000Y-113530000D03*
X159700000Y-116070000D03*
X167320000Y-116070000D03*
X167320000Y-113530000D03*
X167320000Y-110990000D03*
X167320000Y-108450000D03*
D25*
X109560000Y-98590000D03*
D26*
X109560000Y-101130000D03*
X109560000Y-103670000D03*
X109560000Y-106210000D03*
X109560000Y-108750000D03*
X109560000Y-111290000D03*
X109560000Y-113830000D03*
X117500000Y-113830000D03*
X117500000Y-111290000D03*
X117500000Y-108750000D03*
X117500000Y-106210000D03*
X117500000Y-103670000D03*
X117500000Y-101130000D03*
X117500000Y-98590000D03*
D21*
X77340000Y-131750000D03*
X87500000Y-131750000D03*
D23*
X77750000Y-82000000D03*
D21*
X98910000Y-107250000D03*
X88750000Y-107250000D03*
D23*
X172250000Y-136500000D03*
D20*
X154455113Y-105750000D03*
D21*
X151955113Y-105750000D03*
X110500000Y-118500000D03*
X105500000Y-118500000D03*
X77340000Y-122500000D03*
X87500000Y-122500000D03*
X122920000Y-135830000D03*
X122920000Y-125670000D03*
X158170000Y-98750000D03*
X168330000Y-98750000D03*
X93500000Y-90750000D03*
X93500000Y-95750000D03*
X87500000Y-136000000D03*
X97660000Y-136000000D03*
X166500000Y-122750000D03*
X161500000Y-122750000D03*
D27*
X112250000Y-91500000D03*
D16*
X112250000Y-86500000D03*
D21*
X158170000Y-89750000D03*
X168330000Y-89750000D03*
X126500000Y-135830000D03*
X126500000Y-125670000D03*
X90750000Y-122000000D03*
X90750000Y-132160000D03*
D28*
X132250000Y-95050000D03*
D29*
X132250000Y-97590000D03*
X132250000Y-100130000D03*
X132250000Y-102670000D03*
X132250000Y-105210000D03*
X132250000Y-107750000D03*
X132250000Y-110290000D03*
X132250000Y-112830000D03*
X132250000Y-115370000D03*
X132250000Y-117910000D03*
X132250000Y-120450000D03*
X132250000Y-122990000D03*
X132250000Y-125530000D03*
X132250000Y-128070000D03*
X132250000Y-130610000D03*
X147490000Y-130610000D03*
X147490000Y-128070000D03*
X147490000Y-125530000D03*
X147490000Y-122990000D03*
X147490000Y-120450000D03*
X147490000Y-117910000D03*
X147490000Y-115370000D03*
X147490000Y-112830000D03*
X147490000Y-110290000D03*
X147490000Y-107750000D03*
X147490000Y-105210000D03*
X147490000Y-102670000D03*
X147490000Y-100130000D03*
X147490000Y-97590000D03*
X147490000Y-95050000D03*
D21*
X152500000Y-93044888D03*
X152500000Y-98044888D03*
X123500000Y-82000000D03*
X133660000Y-82000000D03*
X77340000Y-118000000D03*
X87500000Y-118000000D03*
D22*
X94250000Y-122250000D03*
D21*
X94250000Y-129870000D03*
X110670000Y-82000000D03*
X120830000Y-82000000D03*
D16*
X102000000Y-134000000D03*
X112000000Y-134000000D03*
X112000000Y-123750000D03*
X102000000Y-123750000D03*
D21*
X88750000Y-100250000D03*
X98910000Y-100250000D03*
D30*
X102000000Y-104000000D03*
D21*
X102000000Y-96380000D03*
X98910000Y-114250000D03*
X88750000Y-114250000D03*
X158170000Y-103250000D03*
X168330000Y-103250000D03*
D24*
X154544888Y-123500000D03*
D21*
X157044888Y-123500000D03*
D22*
X127800000Y-85950000D03*
D21*
X125260000Y-85950000D03*
X122720000Y-85950000D03*
X120180000Y-85950000D03*
X120180000Y-93570000D03*
X122720000Y-93570000D03*
X125260000Y-93570000D03*
X127800000Y-93570000D03*
X119170000Y-125670000D03*
X119170000Y-135830000D03*
%LPD*%
M02*
