%TF.GenerationSoftware,KiCad,Pcbnew,8.0.5*%
%TF.CreationDate,2025-05-15T16:06:16+03:00*%
%TF.ProjectId,spro2,7370726f-322e-46b6-9963-61645f706362,rev?*%
%TF.SameCoordinates,Original*%
%TF.FileFunction,Drillmap*%
%TF.FilePolarity,Positive*%
%FSLAX45Y45*%
G04 Gerber Fmt 4.5, Leading zero omitted, Abs format (unit mm)*
G04 Created by KiCad (PCBNEW 8.0.5) date 2025-05-15 16:06:16*
%MOMM*%
%LPD*%
G01*
G04 APERTURE LIST*
%ADD10C,0.050000*%
%ADD11C,0.200000*%
%ADD12C,0.100000*%
%ADD13C,0.120000*%
G04 APERTURE END LIST*
D10*
X7500000Y-7925000D02*
X17500000Y-7925000D01*
X17500000Y-13925000D01*
X7500000Y-13925000D01*
X7500000Y-7925000D01*
D11*
D12*
X11571500Y-9813500D02*
X11644500Y-9886500D01*
X11644500Y-9813500D02*
X11571500Y-9886500D01*
X11571500Y-10067500D02*
X11644500Y-10140500D01*
X11644500Y-10067500D02*
X11571500Y-10140500D01*
X11571500Y-10321500D02*
X11644500Y-10394500D01*
X11644500Y-10321500D02*
X11571500Y-10394500D01*
X11571500Y-10575500D02*
X11644500Y-10648500D01*
X11644500Y-10575500D02*
X11571500Y-10648500D01*
X11571500Y-10829500D02*
X11644500Y-10902500D01*
X11644500Y-10829500D02*
X11571500Y-10902500D01*
X11571500Y-11083500D02*
X11644500Y-11156500D01*
X11644500Y-11083500D02*
X11571500Y-11156500D01*
X11571500Y-11337500D02*
X11644500Y-11410500D01*
X11644500Y-11337500D02*
X11571500Y-11410500D01*
X12365500Y-9813500D02*
X12438500Y-9886500D01*
X12438500Y-9813500D02*
X12365500Y-9886500D01*
X12365500Y-10067500D02*
X12438500Y-10140500D01*
X12438500Y-10067500D02*
X12365500Y-10140500D01*
X12365500Y-10321500D02*
X12438500Y-10394500D01*
X12438500Y-10321500D02*
X12365500Y-10394500D01*
X12365500Y-10575500D02*
X12438500Y-10648500D01*
X12438500Y-10575500D02*
X12365500Y-10648500D01*
X12365500Y-10829500D02*
X12438500Y-10902500D01*
X12438500Y-10829500D02*
X12365500Y-10902500D01*
X12365500Y-11083500D02*
X12438500Y-11156500D01*
X12438500Y-11083500D02*
X12365500Y-11156500D01*
X12365500Y-11337500D02*
X12438500Y-11410500D01*
X12438500Y-11337500D02*
X12365500Y-11410500D01*
X7757000Y-11550000D02*
G75*
G02*
X7677000Y-11550000I-40000J0D01*
G01*
X7677000Y-11550000D02*
G75*
G02*
X7757000Y-11550000I40000J0D01*
G01*
X7757000Y-12025000D02*
G75*
G02*
X7677000Y-12025000I-40000J0D01*
G01*
X7677000Y-12025000D02*
G75*
G02*
X7757000Y-12025000I40000J0D01*
G01*
X7757000Y-12500000D02*
G75*
G02*
X7677000Y-12500000I-40000J0D01*
G01*
X7677000Y-12500000D02*
G75*
G02*
X7757000Y-12500000I40000J0D01*
G01*
X7757000Y-12975000D02*
G75*
G02*
X7677000Y-12975000I-40000J0D01*
G01*
X7677000Y-12975000D02*
G75*
G02*
X7757000Y-12975000I40000J0D01*
G01*
X8773000Y-11550000D02*
G75*
G02*
X8693000Y-11550000I-40000J0D01*
G01*
X8693000Y-11550000D02*
G75*
G02*
X8773000Y-11550000I40000J0D01*
G01*
X8773000Y-12025000D02*
G75*
G02*
X8693000Y-12025000I-40000J0D01*
G01*
X8693000Y-12025000D02*
G75*
G02*
X8773000Y-12025000I40000J0D01*
G01*
X8773000Y-12500000D02*
G75*
G02*
X8693000Y-12500000I-40000J0D01*
G01*
X8693000Y-12500000D02*
G75*
G02*
X8773000Y-12500000I40000J0D01*
G01*
X8773000Y-12975000D02*
G75*
G02*
X8693000Y-12975000I-40000J0D01*
G01*
X8693000Y-12975000D02*
G75*
G02*
X8773000Y-12975000I40000J0D01*
G01*
X9082000Y-9075000D02*
G75*
G02*
X9002000Y-9075000I-40000J0D01*
G01*
X9002000Y-9075000D02*
G75*
G02*
X9082000Y-9075000I40000J0D01*
G01*
X9082000Y-9575000D02*
G75*
G02*
X9002000Y-9575000I-40000J0D01*
G01*
X9002000Y-9575000D02*
G75*
G02*
X9082000Y-9575000I40000J0D01*
G01*
X9082000Y-10075000D02*
G75*
G02*
X9002000Y-10075000I-40000J0D01*
G01*
X9002000Y-10075000D02*
G75*
G02*
X9082000Y-10075000I40000J0D01*
G01*
X9082000Y-10575000D02*
G75*
G02*
X9002000Y-10575000I-40000J0D01*
G01*
X9002000Y-10575000D02*
G75*
G02*
X9082000Y-10575000I40000J0D01*
G01*
X9082000Y-11100000D02*
G75*
G02*
X9002000Y-11100000I-40000J0D01*
G01*
X9002000Y-11100000D02*
G75*
G02*
X9082000Y-11100000I40000J0D01*
G01*
X9082000Y-11550000D02*
G75*
G02*
X9002000Y-11550000I-40000J0D01*
G01*
X9002000Y-11550000D02*
G75*
G02*
X9082000Y-11550000I40000J0D01*
G01*
X9082000Y-12025000D02*
G75*
G02*
X9002000Y-12025000I-40000J0D01*
G01*
X9002000Y-12025000D02*
G75*
G02*
X9082000Y-12025000I40000J0D01*
G01*
X10098000Y-9075000D02*
G75*
G02*
X10018000Y-9075000I-40000J0D01*
G01*
X10018000Y-9075000D02*
G75*
G02*
X10098000Y-9075000I40000J0D01*
G01*
X10098000Y-9575000D02*
G75*
G02*
X10018000Y-9575000I-40000J0D01*
G01*
X10018000Y-9575000D02*
G75*
G02*
X10098000Y-9575000I40000J0D01*
G01*
X10098000Y-10075000D02*
G75*
G02*
X10018000Y-10075000I-40000J0D01*
G01*
X10018000Y-10075000D02*
G75*
G02*
X10098000Y-10075000I40000J0D01*
G01*
X10098000Y-10575000D02*
G75*
G02*
X10018000Y-10575000I-40000J0D01*
G01*
X10018000Y-10575000D02*
G75*
G02*
X10098000Y-10575000I40000J0D01*
G01*
X10098000Y-11100000D02*
G75*
G02*
X10018000Y-11100000I-40000J0D01*
G01*
X10018000Y-11100000D02*
G75*
G02*
X10098000Y-11100000I40000J0D01*
G01*
X10098000Y-11550000D02*
G75*
G02*
X10018000Y-11550000I-40000J0D01*
G01*
X10018000Y-11550000D02*
G75*
G02*
X10098000Y-11550000I40000J0D01*
G01*
X10098000Y-12025000D02*
G75*
G02*
X10018000Y-12025000I-40000J0D01*
G01*
X10018000Y-12025000D02*
G75*
G02*
X10098000Y-12025000I40000J0D01*
G01*
X10598000Y-10863000D02*
G75*
G02*
X10518000Y-10863000I-40000J0D01*
G01*
X10518000Y-10863000D02*
G75*
G02*
X10598000Y-10863000I40000J0D01*
G01*
X10598000Y-11625000D02*
G75*
G02*
X10518000Y-11625000I-40000J0D01*
G01*
X10518000Y-11625000D02*
G75*
G02*
X10598000Y-11625000I40000J0D01*
G01*
X10648000Y-9713000D02*
G75*
G02*
X10568000Y-9713000I-40000J0D01*
G01*
X10568000Y-9713000D02*
G75*
G02*
X10648000Y-9713000I40000J0D01*
G01*
X10648000Y-10475000D02*
G75*
G02*
X10568000Y-10475000I-40000J0D01*
G01*
X10568000Y-10475000D02*
G75*
G02*
X10648000Y-10475000I40000J0D01*
G01*
X10698000Y-12100000D02*
G75*
G02*
X10618000Y-12100000I-40000J0D01*
G01*
X10618000Y-12100000D02*
G75*
G02*
X10698000Y-12100000I40000J0D01*
G01*
X10798000Y-9100000D02*
G75*
G02*
X10718000Y-9100000I-40000J0D01*
G01*
X10718000Y-9100000D02*
G75*
G02*
X10798000Y-9100000I40000J0D01*
G01*
X10898000Y-12100000D02*
G75*
G02*
X10818000Y-12100000I-40000J0D01*
G01*
X10818000Y-12100000D02*
G75*
G02*
X10898000Y-12100000I40000J0D01*
G01*
X10998000Y-9100000D02*
G75*
G02*
X10918000Y-9100000I-40000J0D01*
G01*
X10918000Y-9100000D02*
G75*
G02*
X10998000Y-9100000I40000J0D01*
G01*
X11140000Y-10863000D02*
G75*
G02*
X11060000Y-10863000I-40000J0D01*
G01*
X11060000Y-10863000D02*
G75*
G02*
X11140000Y-10863000I40000J0D01*
G01*
X11140000Y-11625000D02*
G75*
G02*
X11060000Y-11625000I-40000J0D01*
G01*
X11060000Y-11625000D02*
G75*
G02*
X11140000Y-11625000I40000J0D01*
G01*
X11173000Y-9713000D02*
G75*
G02*
X11093000Y-9713000I-40000J0D01*
G01*
X11093000Y-9713000D02*
G75*
G02*
X11173000Y-9713000I40000J0D01*
G01*
X11173000Y-10475000D02*
G75*
G02*
X11093000Y-10475000I-40000J0D01*
G01*
X11093000Y-10475000D02*
G75*
G02*
X11173000Y-10475000I40000J0D01*
G01*
X11557000Y-8650000D02*
G75*
G02*
X11477000Y-8650000I-40000J0D01*
G01*
X11477000Y-8650000D02*
G75*
G02*
X11557000Y-8650000I40000J0D01*
G01*
X11557000Y-9125000D02*
G75*
G02*
X11477000Y-9125000I-40000J0D01*
G01*
X11477000Y-9125000D02*
G75*
G02*
X11557000Y-9125000I40000J0D01*
G01*
X11565000Y-12650000D02*
G75*
G02*
X11485000Y-12650000I-40000J0D01*
G01*
X11485000Y-12650000D02*
G75*
G02*
X11565000Y-12650000I40000J0D01*
G01*
X11565000Y-13666000D02*
G75*
G02*
X11485000Y-13666000I-40000J0D01*
G01*
X11485000Y-13666000D02*
G75*
G02*
X11565000Y-13666000I40000J0D01*
G01*
X11652489Y-12100000D02*
G75*
G02*
X11572489Y-12100000I-40000J0D01*
G01*
X11572489Y-12100000D02*
G75*
G02*
X11652489Y-12100000I40000J0D01*
G01*
X11852489Y-12100000D02*
G75*
G02*
X11772489Y-12100000I-40000J0D01*
G01*
X11772489Y-12100000D02*
G75*
G02*
X11852489Y-12100000I40000J0D01*
G01*
X12115000Y-12650000D02*
G75*
G02*
X12035000Y-12650000I-40000J0D01*
G01*
X12035000Y-12650000D02*
G75*
G02*
X12115000Y-12650000I40000J0D01*
G01*
X12115000Y-13666000D02*
G75*
G02*
X12035000Y-13666000I-40000J0D01*
G01*
X12035000Y-13666000D02*
G75*
G02*
X12115000Y-13666000I40000J0D01*
G01*
X12373000Y-12100000D02*
G75*
G02*
X12293000Y-12100000I-40000J0D01*
G01*
X12293000Y-12100000D02*
G75*
G02*
X12373000Y-12100000I40000J0D01*
G01*
X12573000Y-8650000D02*
G75*
G02*
X12493000Y-8650000I-40000J0D01*
G01*
X12493000Y-8650000D02*
G75*
G02*
X12573000Y-8650000I40000J0D01*
G01*
X12573000Y-9125000D02*
G75*
G02*
X12493000Y-9125000I-40000J0D01*
G01*
X12493000Y-9125000D02*
G75*
G02*
X12573000Y-9125000I40000J0D01*
G01*
X12573000Y-12100000D02*
G75*
G02*
X12493000Y-12100000I-40000J0D01*
G01*
X12493000Y-12100000D02*
G75*
G02*
X12573000Y-12100000I40000J0D01*
G01*
X12673000Y-12650000D02*
G75*
G02*
X12593000Y-12650000I-40000J0D01*
G01*
X12593000Y-12650000D02*
G75*
G02*
X12673000Y-12650000I40000J0D01*
G01*
X12673000Y-13666000D02*
G75*
G02*
X12593000Y-13666000I-40000J0D01*
G01*
X12593000Y-13666000D02*
G75*
G02*
X12673000Y-13666000I40000J0D01*
G01*
X15290000Y-9304489D02*
G75*
G02*
X15210000Y-9304489I-40000J0D01*
G01*
X15210000Y-9304489D02*
G75*
G02*
X15290000Y-9304489I40000J0D01*
G01*
X15290000Y-9504489D02*
G75*
G02*
X15210000Y-9504489I-40000J0D01*
G01*
X15210000Y-9504489D02*
G75*
G02*
X15290000Y-9504489I40000J0D01*
G01*
X15294489Y-10800000D02*
G75*
G02*
X15214489Y-10800000I-40000J0D01*
G01*
X15214489Y-10800000D02*
G75*
G02*
X15294489Y-10800000I40000J0D01*
G01*
X15294489Y-11600000D02*
G75*
G02*
X15214489Y-11600000I-40000J0D01*
G01*
X15214489Y-11600000D02*
G75*
G02*
X15294489Y-11600000I40000J0D01*
G01*
X15319489Y-12350000D02*
G75*
G02*
X15239489Y-12350000I-40000J0D01*
G01*
X15239489Y-12350000D02*
G75*
G02*
X15319489Y-12350000I40000J0D01*
G01*
X15319511Y-13100000D02*
G75*
G02*
X15239511Y-13100000I-40000J0D01*
G01*
X15239511Y-13100000D02*
G75*
G02*
X15319511Y-13100000I40000J0D01*
G01*
X15494489Y-10800000D02*
G75*
G02*
X15414489Y-10800000I-40000J0D01*
G01*
X15414489Y-10800000D02*
G75*
G02*
X15494489Y-10800000I40000J0D01*
G01*
X15494489Y-11600000D02*
G75*
G02*
X15414489Y-11600000I-40000J0D01*
G01*
X15414489Y-11600000D02*
G75*
G02*
X15494489Y-11600000I40000J0D01*
G01*
X15519489Y-12350000D02*
G75*
G02*
X15439489Y-12350000I-40000J0D01*
G01*
X15439489Y-12350000D02*
G75*
G02*
X15519489Y-12350000I40000J0D01*
G01*
X15857000Y-8975000D02*
G75*
G02*
X15777000Y-8975000I-40000J0D01*
G01*
X15777000Y-8975000D02*
G75*
G02*
X15857000Y-8975000I40000J0D01*
G01*
X15857000Y-9425000D02*
G75*
G02*
X15777000Y-9425000I-40000J0D01*
G01*
X15777000Y-9425000D02*
G75*
G02*
X15857000Y-9425000I40000J0D01*
G01*
X15857000Y-9875000D02*
G75*
G02*
X15777000Y-9875000I-40000J0D01*
G01*
X15777000Y-9875000D02*
G75*
G02*
X15857000Y-9875000I40000J0D01*
G01*
X15857000Y-10325000D02*
G75*
G02*
X15777000Y-10325000I-40000J0D01*
G01*
X15777000Y-10325000D02*
G75*
G02*
X15857000Y-10325000I40000J0D01*
G01*
X15965000Y-10838000D02*
G75*
G02*
X15885000Y-10838000I-40000J0D01*
G01*
X15885000Y-10838000D02*
G75*
G02*
X15965000Y-10838000I40000J0D01*
G01*
X15965000Y-11092000D02*
G75*
G02*
X15885000Y-11092000I-40000J0D01*
G01*
X15885000Y-11092000D02*
G75*
G02*
X15965000Y-11092000I40000J0D01*
G01*
X15965000Y-11346000D02*
G75*
G02*
X15885000Y-11346000I-40000J0D01*
G01*
X15885000Y-11346000D02*
G75*
G02*
X15965000Y-11346000I40000J0D01*
G01*
X15965000Y-11600000D02*
G75*
G02*
X15885000Y-11600000I-40000J0D01*
G01*
X15885000Y-11600000D02*
G75*
G02*
X15965000Y-11600000I40000J0D01*
G01*
X15990000Y-12350000D02*
G75*
G02*
X15910000Y-12350000I-40000J0D01*
G01*
X15910000Y-12350000D02*
G75*
G02*
X15990000Y-12350000I40000J0D01*
G01*
X16190000Y-12350000D02*
G75*
G02*
X16110000Y-12350000I-40000J0D01*
G01*
X16110000Y-12350000D02*
G75*
G02*
X16190000Y-12350000I40000J0D01*
G01*
X16335511Y-13100000D02*
G75*
G02*
X16255511Y-13100000I-40000J0D01*
G01*
X16255511Y-13100000D02*
G75*
G02*
X16335511Y-13100000I40000J0D01*
G01*
X16727000Y-10838000D02*
G75*
G02*
X16647000Y-10838000I-40000J0D01*
G01*
X16647000Y-10838000D02*
G75*
G02*
X16727000Y-10838000I40000J0D01*
G01*
X16727000Y-11092000D02*
G75*
G02*
X16647000Y-11092000I-40000J0D01*
G01*
X16647000Y-11092000D02*
G75*
G02*
X16727000Y-11092000I40000J0D01*
G01*
X16727000Y-11346000D02*
G75*
G02*
X16647000Y-11346000I-40000J0D01*
G01*
X16647000Y-11346000D02*
G75*
G02*
X16727000Y-11346000I40000J0D01*
G01*
X16727000Y-11600000D02*
G75*
G02*
X16647000Y-11600000I-40000J0D01*
G01*
X16647000Y-11600000D02*
G75*
G02*
X16727000Y-11600000I40000J0D01*
G01*
X16873000Y-8975000D02*
G75*
G02*
X16793000Y-8975000I-40000J0D01*
G01*
X16793000Y-8975000D02*
G75*
G02*
X16873000Y-8975000I40000J0D01*
G01*
X16873000Y-9425000D02*
G75*
G02*
X16793000Y-9425000I-40000J0D01*
G01*
X16793000Y-9425000D02*
G75*
G02*
X16873000Y-9425000I40000J0D01*
G01*
X16873000Y-9875000D02*
G75*
G02*
X16793000Y-9875000I-40000J0D01*
G01*
X16793000Y-9875000D02*
G75*
G02*
X16873000Y-9875000I40000J0D01*
G01*
X16873000Y-10325000D02*
G75*
G02*
X16793000Y-10325000I-40000J0D01*
G01*
X16793000Y-10325000D02*
G75*
G02*
X16873000Y-10325000I40000J0D01*
G01*
X13225000Y-9455000D02*
X13225000Y-9555000D01*
X13175000Y-9505000D02*
X13275000Y-9505000D01*
X13225000Y-9709000D02*
X13225000Y-9809000D01*
X13175000Y-9759000D02*
X13275000Y-9759000D01*
X13225000Y-9963000D02*
X13225000Y-10063000D01*
X13175000Y-10013000D02*
X13275000Y-10013000D01*
X13225000Y-10217000D02*
X13225000Y-10317000D01*
X13175000Y-10267000D02*
X13275000Y-10267000D01*
X13225000Y-10471000D02*
X13225000Y-10571000D01*
X13175000Y-10521000D02*
X13275000Y-10521000D01*
X13225000Y-10725000D02*
X13225000Y-10825000D01*
X13175000Y-10775000D02*
X13275000Y-10775000D01*
X13225000Y-10979000D02*
X13225000Y-11079000D01*
X13175000Y-11029000D02*
X13275000Y-11029000D01*
X13225000Y-11233000D02*
X13225000Y-11333000D01*
X13175000Y-11283000D02*
X13275000Y-11283000D01*
X13225000Y-11487000D02*
X13225000Y-11587000D01*
X13175000Y-11537000D02*
X13275000Y-11537000D01*
X13225000Y-11741000D02*
X13225000Y-11841000D01*
X13175000Y-11791000D02*
X13275000Y-11791000D01*
X13225000Y-11995000D02*
X13225000Y-12095000D01*
X13175000Y-12045000D02*
X13275000Y-12045000D01*
X13225000Y-12249000D02*
X13225000Y-12349000D01*
X13175000Y-12299000D02*
X13275000Y-12299000D01*
X13225000Y-12503000D02*
X13225000Y-12603000D01*
X13175000Y-12553000D02*
X13275000Y-12553000D01*
X13225000Y-12757000D02*
X13225000Y-12857000D01*
X13175000Y-12807000D02*
X13275000Y-12807000D01*
X13225000Y-13011000D02*
X13225000Y-13111000D01*
X13175000Y-13061000D02*
X13275000Y-13061000D01*
X14749000Y-9455000D02*
X14749000Y-9555000D01*
X14699000Y-9505000D02*
X14799000Y-9505000D01*
X14749000Y-9709000D02*
X14749000Y-9809000D01*
X14699000Y-9759000D02*
X14799000Y-9759000D01*
X14749000Y-9963000D02*
X14749000Y-10063000D01*
X14699000Y-10013000D02*
X14799000Y-10013000D01*
X14749000Y-10217000D02*
X14749000Y-10317000D01*
X14699000Y-10267000D02*
X14799000Y-10267000D01*
X14749000Y-10471000D02*
X14749000Y-10571000D01*
X14699000Y-10521000D02*
X14799000Y-10521000D01*
X14749000Y-10725000D02*
X14749000Y-10825000D01*
X14699000Y-10775000D02*
X14799000Y-10775000D01*
X14749000Y-10979000D02*
X14749000Y-11079000D01*
X14699000Y-11029000D02*
X14799000Y-11029000D01*
X14749000Y-11233000D02*
X14749000Y-11333000D01*
X14699000Y-11283000D02*
X14799000Y-11283000D01*
X14749000Y-11487000D02*
X14749000Y-11587000D01*
X14699000Y-11537000D02*
X14799000Y-11537000D01*
X14749000Y-11741000D02*
X14749000Y-11841000D01*
X14699000Y-11791000D02*
X14799000Y-11791000D01*
X14749000Y-11995000D02*
X14749000Y-12095000D01*
X14699000Y-12045000D02*
X14799000Y-12045000D01*
X14749000Y-12249000D02*
X14749000Y-12349000D01*
X14699000Y-12299000D02*
X14799000Y-12299000D01*
X14749000Y-12503000D02*
X14749000Y-12603000D01*
X14699000Y-12553000D02*
X14799000Y-12553000D01*
X14749000Y-12757000D02*
X14749000Y-12857000D01*
X14699000Y-12807000D02*
X14799000Y-12807000D01*
X14749000Y-13011000D02*
X14749000Y-13111000D01*
X14699000Y-13061000D02*
X14799000Y-13061000D01*
D13*
X8392427Y-9613427D02*
X8392427Y-9528573D01*
X8307573Y-9528573D01*
X8307573Y-9613427D01*
X8392427Y-9613427D01*
X8392427Y-10121427D02*
X8392427Y-10036573D01*
X8307573Y-10036573D01*
X8307573Y-10121427D01*
X8392427Y-10121427D01*
X9601427Y-8442427D02*
X9601427Y-8357573D01*
X9516573Y-8357573D01*
X9516573Y-8442427D01*
X9601427Y-8442427D01*
X10109427Y-8442427D02*
X10109427Y-8357573D01*
X10024573Y-8357573D01*
X10024573Y-8442427D01*
X10109427Y-8442427D01*
X10617427Y-8442427D02*
X10617427Y-8357573D01*
X10532573Y-8357573D01*
X10532573Y-8442427D01*
X10617427Y-8442427D01*
X13042427Y-8617427D02*
X13042427Y-8532573D01*
X12957573Y-8532573D01*
X12957573Y-8617427D01*
X13042427Y-8617427D01*
X13542427Y-8617427D02*
X13542427Y-8532573D01*
X13457573Y-8532573D01*
X13457573Y-8617427D01*
X13542427Y-8617427D01*
X14042427Y-8617427D02*
X14042427Y-8532573D01*
X13957573Y-8532573D01*
X13957573Y-8617427D01*
X14042427Y-8617427D01*
X14542427Y-8617427D02*
X14542427Y-8532573D01*
X14457573Y-8532573D01*
X14457573Y-8617427D01*
X14542427Y-8617427D01*
D11*
X7758277Y-14238984D02*
X7758277Y-14038984D01*
X7758277Y-14038984D02*
X7805896Y-14038984D01*
X7805896Y-14038984D02*
X7834467Y-14048508D01*
X7834467Y-14048508D02*
X7853515Y-14067555D01*
X7853515Y-14067555D02*
X7863039Y-14086603D01*
X7863039Y-14086603D02*
X7872562Y-14124698D01*
X7872562Y-14124698D02*
X7872562Y-14153269D01*
X7872562Y-14153269D02*
X7863039Y-14191365D01*
X7863039Y-14191365D02*
X7853515Y-14210412D01*
X7853515Y-14210412D02*
X7834467Y-14229460D01*
X7834467Y-14229460D02*
X7805896Y-14238984D01*
X7805896Y-14238984D02*
X7758277Y-14238984D01*
X7958277Y-14238984D02*
X7958277Y-14105650D01*
X7958277Y-14143746D02*
X7967801Y-14124698D01*
X7967801Y-14124698D02*
X7977324Y-14115174D01*
X7977324Y-14115174D02*
X7996372Y-14105650D01*
X7996372Y-14105650D02*
X8015420Y-14105650D01*
X8082086Y-14238984D02*
X8082086Y-14105650D01*
X8082086Y-14038984D02*
X8072562Y-14048508D01*
X8072562Y-14048508D02*
X8082086Y-14058031D01*
X8082086Y-14058031D02*
X8091610Y-14048508D01*
X8091610Y-14048508D02*
X8082086Y-14038984D01*
X8082086Y-14038984D02*
X8082086Y-14058031D01*
X8205896Y-14238984D02*
X8186848Y-14229460D01*
X8186848Y-14229460D02*
X8177324Y-14210412D01*
X8177324Y-14210412D02*
X8177324Y-14038984D01*
X8310658Y-14238984D02*
X8291610Y-14229460D01*
X8291610Y-14229460D02*
X8282086Y-14210412D01*
X8282086Y-14210412D02*
X8282086Y-14038984D01*
X8539229Y-14238984D02*
X8539229Y-14038984D01*
X8539229Y-14038984D02*
X8605896Y-14181841D01*
X8605896Y-14181841D02*
X8672563Y-14038984D01*
X8672563Y-14038984D02*
X8672563Y-14238984D01*
X8853515Y-14238984D02*
X8853515Y-14134222D01*
X8853515Y-14134222D02*
X8843991Y-14115174D01*
X8843991Y-14115174D02*
X8824944Y-14105650D01*
X8824944Y-14105650D02*
X8786848Y-14105650D01*
X8786848Y-14105650D02*
X8767801Y-14115174D01*
X8853515Y-14229460D02*
X8834467Y-14238984D01*
X8834467Y-14238984D02*
X8786848Y-14238984D01*
X8786848Y-14238984D02*
X8767801Y-14229460D01*
X8767801Y-14229460D02*
X8758277Y-14210412D01*
X8758277Y-14210412D02*
X8758277Y-14191365D01*
X8758277Y-14191365D02*
X8767801Y-14172317D01*
X8767801Y-14172317D02*
X8786848Y-14162793D01*
X8786848Y-14162793D02*
X8834467Y-14162793D01*
X8834467Y-14162793D02*
X8853515Y-14153269D01*
X8948753Y-14105650D02*
X8948753Y-14305650D01*
X8948753Y-14115174D02*
X8967801Y-14105650D01*
X8967801Y-14105650D02*
X9005896Y-14105650D01*
X9005896Y-14105650D02*
X9024944Y-14115174D01*
X9024944Y-14115174D02*
X9034467Y-14124698D01*
X9034467Y-14124698D02*
X9043991Y-14143746D01*
X9043991Y-14143746D02*
X9043991Y-14200888D01*
X9043991Y-14200888D02*
X9034467Y-14219936D01*
X9034467Y-14219936D02*
X9024944Y-14229460D01*
X9024944Y-14229460D02*
X9005896Y-14238984D01*
X9005896Y-14238984D02*
X8967801Y-14238984D01*
X8967801Y-14238984D02*
X8948753Y-14229460D01*
X9129705Y-14219936D02*
X9139229Y-14229460D01*
X9139229Y-14229460D02*
X9129705Y-14238984D01*
X9129705Y-14238984D02*
X9120182Y-14229460D01*
X9120182Y-14229460D02*
X9129705Y-14219936D01*
X9129705Y-14219936D02*
X9129705Y-14238984D01*
X9129705Y-14115174D02*
X9139229Y-14124698D01*
X9139229Y-14124698D02*
X9129705Y-14134222D01*
X9129705Y-14134222D02*
X9120182Y-14124698D01*
X9120182Y-14124698D02*
X9129705Y-14115174D01*
X9129705Y-14115174D02*
X9129705Y-14134222D01*
D12*
X7424500Y-14531000D02*
X7497500Y-14604000D01*
X7497500Y-14531000D02*
X7424500Y-14604000D01*
D11*
X7796372Y-14458984D02*
X7815420Y-14458984D01*
X7815420Y-14458984D02*
X7834467Y-14468508D01*
X7834467Y-14468508D02*
X7843991Y-14478031D01*
X7843991Y-14478031D02*
X7853515Y-14497079D01*
X7853515Y-14497079D02*
X7863039Y-14535174D01*
X7863039Y-14535174D02*
X7863039Y-14582793D01*
X7863039Y-14582793D02*
X7853515Y-14620888D01*
X7853515Y-14620888D02*
X7843991Y-14639936D01*
X7843991Y-14639936D02*
X7834467Y-14649460D01*
X7834467Y-14649460D02*
X7815420Y-14658984D01*
X7815420Y-14658984D02*
X7796372Y-14658984D01*
X7796372Y-14658984D02*
X7777324Y-14649460D01*
X7777324Y-14649460D02*
X7767801Y-14639936D01*
X7767801Y-14639936D02*
X7758277Y-14620888D01*
X7758277Y-14620888D02*
X7748753Y-14582793D01*
X7748753Y-14582793D02*
X7748753Y-14535174D01*
X7748753Y-14535174D02*
X7758277Y-14497079D01*
X7758277Y-14497079D02*
X7767801Y-14478031D01*
X7767801Y-14478031D02*
X7777324Y-14468508D01*
X7777324Y-14468508D02*
X7796372Y-14458984D01*
X7948753Y-14639936D02*
X7958277Y-14649460D01*
X7958277Y-14649460D02*
X7948753Y-14658984D01*
X7948753Y-14658984D02*
X7939229Y-14649460D01*
X7939229Y-14649460D02*
X7948753Y-14639936D01*
X7948753Y-14639936D02*
X7948753Y-14658984D01*
X8024943Y-14458984D02*
X8158277Y-14458984D01*
X8158277Y-14458984D02*
X8072562Y-14658984D01*
X8215420Y-14458984D02*
X8339229Y-14458984D01*
X8339229Y-14458984D02*
X8272562Y-14535174D01*
X8272562Y-14535174D02*
X8301134Y-14535174D01*
X8301134Y-14535174D02*
X8320182Y-14544698D01*
X8320182Y-14544698D02*
X8329705Y-14554222D01*
X8329705Y-14554222D02*
X8339229Y-14573269D01*
X8339229Y-14573269D02*
X8339229Y-14620888D01*
X8339229Y-14620888D02*
X8329705Y-14639936D01*
X8329705Y-14639936D02*
X8320182Y-14649460D01*
X8320182Y-14649460D02*
X8301134Y-14658984D01*
X8301134Y-14658984D02*
X8243991Y-14658984D01*
X8243991Y-14658984D02*
X8224943Y-14649460D01*
X8224943Y-14649460D02*
X8215420Y-14639936D01*
X8463039Y-14458984D02*
X8482086Y-14458984D01*
X8482086Y-14458984D02*
X8501134Y-14468508D01*
X8501134Y-14468508D02*
X8510658Y-14478031D01*
X8510658Y-14478031D02*
X8520182Y-14497079D01*
X8520182Y-14497079D02*
X8529705Y-14535174D01*
X8529705Y-14535174D02*
X8529705Y-14582793D01*
X8529705Y-14582793D02*
X8520182Y-14620888D01*
X8520182Y-14620888D02*
X8510658Y-14639936D01*
X8510658Y-14639936D02*
X8501134Y-14649460D01*
X8501134Y-14649460D02*
X8482086Y-14658984D01*
X8482086Y-14658984D02*
X8463039Y-14658984D01*
X8463039Y-14658984D02*
X8443991Y-14649460D01*
X8443991Y-14649460D02*
X8434467Y-14639936D01*
X8434467Y-14639936D02*
X8424944Y-14620888D01*
X8424944Y-14620888D02*
X8415420Y-14582793D01*
X8415420Y-14582793D02*
X8415420Y-14535174D01*
X8415420Y-14535174D02*
X8424944Y-14497079D01*
X8424944Y-14497079D02*
X8434467Y-14478031D01*
X8434467Y-14478031D02*
X8443991Y-14468508D01*
X8443991Y-14468508D02*
X8463039Y-14458984D01*
X8615420Y-14658984D02*
X8615420Y-14525650D01*
X8615420Y-14544698D02*
X8624944Y-14535174D01*
X8624944Y-14535174D02*
X8643991Y-14525650D01*
X8643991Y-14525650D02*
X8672563Y-14525650D01*
X8672563Y-14525650D02*
X8691610Y-14535174D01*
X8691610Y-14535174D02*
X8701134Y-14554222D01*
X8701134Y-14554222D02*
X8701134Y-14658984D01*
X8701134Y-14554222D02*
X8710658Y-14535174D01*
X8710658Y-14535174D02*
X8729705Y-14525650D01*
X8729705Y-14525650D02*
X8758277Y-14525650D01*
X8758277Y-14525650D02*
X8777325Y-14535174D01*
X8777325Y-14535174D02*
X8786848Y-14554222D01*
X8786848Y-14554222D02*
X8786848Y-14658984D01*
X8882086Y-14658984D02*
X8882086Y-14525650D01*
X8882086Y-14544698D02*
X8891610Y-14535174D01*
X8891610Y-14535174D02*
X8910658Y-14525650D01*
X8910658Y-14525650D02*
X8939229Y-14525650D01*
X8939229Y-14525650D02*
X8958277Y-14535174D01*
X8958277Y-14535174D02*
X8967801Y-14554222D01*
X8967801Y-14554222D02*
X8967801Y-14658984D01*
X8967801Y-14554222D02*
X8977325Y-14535174D01*
X8977325Y-14535174D02*
X8996372Y-14525650D01*
X8996372Y-14525650D02*
X9024944Y-14525650D01*
X9024944Y-14525650D02*
X9043991Y-14535174D01*
X9043991Y-14535174D02*
X9053515Y-14554222D01*
X9053515Y-14554222D02*
X9053515Y-14658984D01*
X9443991Y-14449460D02*
X9272563Y-14706603D01*
X9701134Y-14458984D02*
X9720182Y-14458984D01*
X9720182Y-14458984D02*
X9739229Y-14468508D01*
X9739229Y-14468508D02*
X9748753Y-14478031D01*
X9748753Y-14478031D02*
X9758277Y-14497079D01*
X9758277Y-14497079D02*
X9767801Y-14535174D01*
X9767801Y-14535174D02*
X9767801Y-14582793D01*
X9767801Y-14582793D02*
X9758277Y-14620888D01*
X9758277Y-14620888D02*
X9748753Y-14639936D01*
X9748753Y-14639936D02*
X9739229Y-14649460D01*
X9739229Y-14649460D02*
X9720182Y-14658984D01*
X9720182Y-14658984D02*
X9701134Y-14658984D01*
X9701134Y-14658984D02*
X9682087Y-14649460D01*
X9682087Y-14649460D02*
X9672563Y-14639936D01*
X9672563Y-14639936D02*
X9663039Y-14620888D01*
X9663039Y-14620888D02*
X9653515Y-14582793D01*
X9653515Y-14582793D02*
X9653515Y-14535174D01*
X9653515Y-14535174D02*
X9663039Y-14497079D01*
X9663039Y-14497079D02*
X9672563Y-14478031D01*
X9672563Y-14478031D02*
X9682087Y-14468508D01*
X9682087Y-14468508D02*
X9701134Y-14458984D01*
X9853515Y-14639936D02*
X9863039Y-14649460D01*
X9863039Y-14649460D02*
X9853515Y-14658984D01*
X9853515Y-14658984D02*
X9843991Y-14649460D01*
X9843991Y-14649460D02*
X9853515Y-14639936D01*
X9853515Y-14639936D02*
X9853515Y-14658984D01*
X9986848Y-14458984D02*
X10005896Y-14458984D01*
X10005896Y-14458984D02*
X10024944Y-14468508D01*
X10024944Y-14468508D02*
X10034468Y-14478031D01*
X10034468Y-14478031D02*
X10043991Y-14497079D01*
X10043991Y-14497079D02*
X10053515Y-14535174D01*
X10053515Y-14535174D02*
X10053515Y-14582793D01*
X10053515Y-14582793D02*
X10043991Y-14620888D01*
X10043991Y-14620888D02*
X10034468Y-14639936D01*
X10034468Y-14639936D02*
X10024944Y-14649460D01*
X10024944Y-14649460D02*
X10005896Y-14658984D01*
X10005896Y-14658984D02*
X9986848Y-14658984D01*
X9986848Y-14658984D02*
X9967801Y-14649460D01*
X9967801Y-14649460D02*
X9958277Y-14639936D01*
X9958277Y-14639936D02*
X9948753Y-14620888D01*
X9948753Y-14620888D02*
X9939229Y-14582793D01*
X9939229Y-14582793D02*
X9939229Y-14535174D01*
X9939229Y-14535174D02*
X9948753Y-14497079D01*
X9948753Y-14497079D02*
X9958277Y-14478031D01*
X9958277Y-14478031D02*
X9967801Y-14468508D01*
X9967801Y-14468508D02*
X9986848Y-14458984D01*
X10129706Y-14478031D02*
X10139229Y-14468508D01*
X10139229Y-14468508D02*
X10158277Y-14458984D01*
X10158277Y-14458984D02*
X10205896Y-14458984D01*
X10205896Y-14458984D02*
X10224944Y-14468508D01*
X10224944Y-14468508D02*
X10234468Y-14478031D01*
X10234468Y-14478031D02*
X10243991Y-14497079D01*
X10243991Y-14497079D02*
X10243991Y-14516127D01*
X10243991Y-14516127D02*
X10234468Y-14544698D01*
X10234468Y-14544698D02*
X10120182Y-14658984D01*
X10120182Y-14658984D02*
X10243991Y-14658984D01*
X10358277Y-14544698D02*
X10339229Y-14535174D01*
X10339229Y-14535174D02*
X10329706Y-14525650D01*
X10329706Y-14525650D02*
X10320182Y-14506603D01*
X10320182Y-14506603D02*
X10320182Y-14497079D01*
X10320182Y-14497079D02*
X10329706Y-14478031D01*
X10329706Y-14478031D02*
X10339229Y-14468508D01*
X10339229Y-14468508D02*
X10358277Y-14458984D01*
X10358277Y-14458984D02*
X10396372Y-14458984D01*
X10396372Y-14458984D02*
X10415420Y-14468508D01*
X10415420Y-14468508D02*
X10424944Y-14478031D01*
X10424944Y-14478031D02*
X10434468Y-14497079D01*
X10434468Y-14497079D02*
X10434468Y-14506603D01*
X10434468Y-14506603D02*
X10424944Y-14525650D01*
X10424944Y-14525650D02*
X10415420Y-14535174D01*
X10415420Y-14535174D02*
X10396372Y-14544698D01*
X10396372Y-14544698D02*
X10358277Y-14544698D01*
X10358277Y-14544698D02*
X10339229Y-14554222D01*
X10339229Y-14554222D02*
X10329706Y-14563746D01*
X10329706Y-14563746D02*
X10320182Y-14582793D01*
X10320182Y-14582793D02*
X10320182Y-14620888D01*
X10320182Y-14620888D02*
X10329706Y-14639936D01*
X10329706Y-14639936D02*
X10339229Y-14649460D01*
X10339229Y-14649460D02*
X10358277Y-14658984D01*
X10358277Y-14658984D02*
X10396372Y-14658984D01*
X10396372Y-14658984D02*
X10415420Y-14649460D01*
X10415420Y-14649460D02*
X10424944Y-14639936D01*
X10424944Y-14639936D02*
X10434468Y-14620888D01*
X10434468Y-14620888D02*
X10434468Y-14582793D01*
X10434468Y-14582793D02*
X10424944Y-14563746D01*
X10424944Y-14563746D02*
X10415420Y-14554222D01*
X10415420Y-14554222D02*
X10396372Y-14544698D01*
X10501134Y-14458984D02*
X10634468Y-14458984D01*
X10634468Y-14458984D02*
X10548753Y-14658984D01*
X10701134Y-14458984D02*
X10701134Y-14497079D01*
X10777325Y-14458984D02*
X10777325Y-14497079D01*
X11072563Y-14735174D02*
X11063039Y-14725650D01*
X11063039Y-14725650D02*
X11043991Y-14697079D01*
X11043991Y-14697079D02*
X11034468Y-14678031D01*
X11034468Y-14678031D02*
X11024944Y-14649460D01*
X11024944Y-14649460D02*
X11015420Y-14601841D01*
X11015420Y-14601841D02*
X11015420Y-14563746D01*
X11015420Y-14563746D02*
X11024944Y-14516127D01*
X11024944Y-14516127D02*
X11034468Y-14487555D01*
X11034468Y-14487555D02*
X11043991Y-14468508D01*
X11043991Y-14468508D02*
X11063039Y-14439936D01*
X11063039Y-14439936D02*
X11072563Y-14430412D01*
X11253515Y-14658984D02*
X11139230Y-14658984D01*
X11196372Y-14658984D02*
X11196372Y-14458984D01*
X11196372Y-14458984D02*
X11177325Y-14487555D01*
X11177325Y-14487555D02*
X11158277Y-14506603D01*
X11158277Y-14506603D02*
X11139230Y-14516127D01*
X11424944Y-14525650D02*
X11424944Y-14658984D01*
X11377325Y-14449460D02*
X11329706Y-14592317D01*
X11329706Y-14592317D02*
X11453515Y-14592317D01*
X11682087Y-14658984D02*
X11682087Y-14458984D01*
X11767801Y-14658984D02*
X11767801Y-14554222D01*
X11767801Y-14554222D02*
X11758277Y-14535174D01*
X11758277Y-14535174D02*
X11739230Y-14525650D01*
X11739230Y-14525650D02*
X11710658Y-14525650D01*
X11710658Y-14525650D02*
X11691610Y-14535174D01*
X11691610Y-14535174D02*
X11682087Y-14544698D01*
X11891610Y-14658984D02*
X11872563Y-14649460D01*
X11872563Y-14649460D02*
X11863039Y-14639936D01*
X11863039Y-14639936D02*
X11853515Y-14620888D01*
X11853515Y-14620888D02*
X11853515Y-14563746D01*
X11853515Y-14563746D02*
X11863039Y-14544698D01*
X11863039Y-14544698D02*
X11872563Y-14535174D01*
X11872563Y-14535174D02*
X11891610Y-14525650D01*
X11891610Y-14525650D02*
X11920182Y-14525650D01*
X11920182Y-14525650D02*
X11939230Y-14535174D01*
X11939230Y-14535174D02*
X11948753Y-14544698D01*
X11948753Y-14544698D02*
X11958277Y-14563746D01*
X11958277Y-14563746D02*
X11958277Y-14620888D01*
X11958277Y-14620888D02*
X11948753Y-14639936D01*
X11948753Y-14639936D02*
X11939230Y-14649460D01*
X11939230Y-14649460D02*
X11920182Y-14658984D01*
X11920182Y-14658984D02*
X11891610Y-14658984D01*
X12072563Y-14658984D02*
X12053515Y-14649460D01*
X12053515Y-14649460D02*
X12043991Y-14630412D01*
X12043991Y-14630412D02*
X12043991Y-14458984D01*
X12224944Y-14649460D02*
X12205896Y-14658984D01*
X12205896Y-14658984D02*
X12167801Y-14658984D01*
X12167801Y-14658984D02*
X12148753Y-14649460D01*
X12148753Y-14649460D02*
X12139230Y-14630412D01*
X12139230Y-14630412D02*
X12139230Y-14554222D01*
X12139230Y-14554222D02*
X12148753Y-14535174D01*
X12148753Y-14535174D02*
X12167801Y-14525650D01*
X12167801Y-14525650D02*
X12205896Y-14525650D01*
X12205896Y-14525650D02*
X12224944Y-14535174D01*
X12224944Y-14535174D02*
X12234468Y-14554222D01*
X12234468Y-14554222D02*
X12234468Y-14573269D01*
X12234468Y-14573269D02*
X12139230Y-14592317D01*
X12310658Y-14649460D02*
X12329706Y-14658984D01*
X12329706Y-14658984D02*
X12367801Y-14658984D01*
X12367801Y-14658984D02*
X12386849Y-14649460D01*
X12386849Y-14649460D02*
X12396372Y-14630412D01*
X12396372Y-14630412D02*
X12396372Y-14620888D01*
X12396372Y-14620888D02*
X12386849Y-14601841D01*
X12386849Y-14601841D02*
X12367801Y-14592317D01*
X12367801Y-14592317D02*
X12339230Y-14592317D01*
X12339230Y-14592317D02*
X12320182Y-14582793D01*
X12320182Y-14582793D02*
X12310658Y-14563746D01*
X12310658Y-14563746D02*
X12310658Y-14554222D01*
X12310658Y-14554222D02*
X12320182Y-14535174D01*
X12320182Y-14535174D02*
X12339230Y-14525650D01*
X12339230Y-14525650D02*
X12367801Y-14525650D01*
X12367801Y-14525650D02*
X12386849Y-14535174D01*
X12463039Y-14735174D02*
X12472563Y-14725650D01*
X12472563Y-14725650D02*
X12491611Y-14697079D01*
X12491611Y-14697079D02*
X12501134Y-14678031D01*
X12501134Y-14678031D02*
X12510658Y-14649460D01*
X12510658Y-14649460D02*
X12520182Y-14601841D01*
X12520182Y-14601841D02*
X12520182Y-14563746D01*
X12520182Y-14563746D02*
X12510658Y-14516127D01*
X12510658Y-14516127D02*
X12501134Y-14487555D01*
X12501134Y-14487555D02*
X12491611Y-14468508D01*
X12491611Y-14468508D02*
X12472563Y-14439936D01*
X12472563Y-14439936D02*
X12463039Y-14430412D01*
D12*
X7497500Y-14831500D02*
G75*
G02*
X7417500Y-14831500I-40000J0D01*
G01*
X7417500Y-14831500D02*
G75*
G02*
X7497500Y-14831500I40000J0D01*
G01*
D11*
X7796372Y-14722984D02*
X7815420Y-14722984D01*
X7815420Y-14722984D02*
X7834467Y-14732508D01*
X7834467Y-14732508D02*
X7843991Y-14742031D01*
X7843991Y-14742031D02*
X7853515Y-14761079D01*
X7853515Y-14761079D02*
X7863039Y-14799174D01*
X7863039Y-14799174D02*
X7863039Y-14846793D01*
X7863039Y-14846793D02*
X7853515Y-14884888D01*
X7853515Y-14884888D02*
X7843991Y-14903936D01*
X7843991Y-14903936D02*
X7834467Y-14913460D01*
X7834467Y-14913460D02*
X7815420Y-14922984D01*
X7815420Y-14922984D02*
X7796372Y-14922984D01*
X7796372Y-14922984D02*
X7777324Y-14913460D01*
X7777324Y-14913460D02*
X7767801Y-14903936D01*
X7767801Y-14903936D02*
X7758277Y-14884888D01*
X7758277Y-14884888D02*
X7748753Y-14846793D01*
X7748753Y-14846793D02*
X7748753Y-14799174D01*
X7748753Y-14799174D02*
X7758277Y-14761079D01*
X7758277Y-14761079D02*
X7767801Y-14742031D01*
X7767801Y-14742031D02*
X7777324Y-14732508D01*
X7777324Y-14732508D02*
X7796372Y-14722984D01*
X7948753Y-14903936D02*
X7958277Y-14913460D01*
X7958277Y-14913460D02*
X7948753Y-14922984D01*
X7948753Y-14922984D02*
X7939229Y-14913460D01*
X7939229Y-14913460D02*
X7948753Y-14903936D01*
X7948753Y-14903936D02*
X7948753Y-14922984D01*
X8072562Y-14808698D02*
X8053515Y-14799174D01*
X8053515Y-14799174D02*
X8043991Y-14789650D01*
X8043991Y-14789650D02*
X8034467Y-14770603D01*
X8034467Y-14770603D02*
X8034467Y-14761079D01*
X8034467Y-14761079D02*
X8043991Y-14742031D01*
X8043991Y-14742031D02*
X8053515Y-14732508D01*
X8053515Y-14732508D02*
X8072562Y-14722984D01*
X8072562Y-14722984D02*
X8110658Y-14722984D01*
X8110658Y-14722984D02*
X8129705Y-14732508D01*
X8129705Y-14732508D02*
X8139229Y-14742031D01*
X8139229Y-14742031D02*
X8148753Y-14761079D01*
X8148753Y-14761079D02*
X8148753Y-14770603D01*
X8148753Y-14770603D02*
X8139229Y-14789650D01*
X8139229Y-14789650D02*
X8129705Y-14799174D01*
X8129705Y-14799174D02*
X8110658Y-14808698D01*
X8110658Y-14808698D02*
X8072562Y-14808698D01*
X8072562Y-14808698D02*
X8053515Y-14818222D01*
X8053515Y-14818222D02*
X8043991Y-14827746D01*
X8043991Y-14827746D02*
X8034467Y-14846793D01*
X8034467Y-14846793D02*
X8034467Y-14884888D01*
X8034467Y-14884888D02*
X8043991Y-14903936D01*
X8043991Y-14903936D02*
X8053515Y-14913460D01*
X8053515Y-14913460D02*
X8072562Y-14922984D01*
X8072562Y-14922984D02*
X8110658Y-14922984D01*
X8110658Y-14922984D02*
X8129705Y-14913460D01*
X8129705Y-14913460D02*
X8139229Y-14903936D01*
X8139229Y-14903936D02*
X8148753Y-14884888D01*
X8148753Y-14884888D02*
X8148753Y-14846793D01*
X8148753Y-14846793D02*
X8139229Y-14827746D01*
X8139229Y-14827746D02*
X8129705Y-14818222D01*
X8129705Y-14818222D02*
X8110658Y-14808698D01*
X8272562Y-14722984D02*
X8291610Y-14722984D01*
X8291610Y-14722984D02*
X8310658Y-14732508D01*
X8310658Y-14732508D02*
X8320182Y-14742031D01*
X8320182Y-14742031D02*
X8329705Y-14761079D01*
X8329705Y-14761079D02*
X8339229Y-14799174D01*
X8339229Y-14799174D02*
X8339229Y-14846793D01*
X8339229Y-14846793D02*
X8329705Y-14884888D01*
X8329705Y-14884888D02*
X8320182Y-14903936D01*
X8320182Y-14903936D02*
X8310658Y-14913460D01*
X8310658Y-14913460D02*
X8291610Y-14922984D01*
X8291610Y-14922984D02*
X8272562Y-14922984D01*
X8272562Y-14922984D02*
X8253515Y-14913460D01*
X8253515Y-14913460D02*
X8243991Y-14903936D01*
X8243991Y-14903936D02*
X8234467Y-14884888D01*
X8234467Y-14884888D02*
X8224943Y-14846793D01*
X8224943Y-14846793D02*
X8224943Y-14799174D01*
X8224943Y-14799174D02*
X8234467Y-14761079D01*
X8234467Y-14761079D02*
X8243991Y-14742031D01*
X8243991Y-14742031D02*
X8253515Y-14732508D01*
X8253515Y-14732508D02*
X8272562Y-14722984D01*
X8463039Y-14722984D02*
X8482086Y-14722984D01*
X8482086Y-14722984D02*
X8501134Y-14732508D01*
X8501134Y-14732508D02*
X8510658Y-14742031D01*
X8510658Y-14742031D02*
X8520182Y-14761079D01*
X8520182Y-14761079D02*
X8529705Y-14799174D01*
X8529705Y-14799174D02*
X8529705Y-14846793D01*
X8529705Y-14846793D02*
X8520182Y-14884888D01*
X8520182Y-14884888D02*
X8510658Y-14903936D01*
X8510658Y-14903936D02*
X8501134Y-14913460D01*
X8501134Y-14913460D02*
X8482086Y-14922984D01*
X8482086Y-14922984D02*
X8463039Y-14922984D01*
X8463039Y-14922984D02*
X8443991Y-14913460D01*
X8443991Y-14913460D02*
X8434467Y-14903936D01*
X8434467Y-14903936D02*
X8424944Y-14884888D01*
X8424944Y-14884888D02*
X8415420Y-14846793D01*
X8415420Y-14846793D02*
X8415420Y-14799174D01*
X8415420Y-14799174D02*
X8424944Y-14761079D01*
X8424944Y-14761079D02*
X8434467Y-14742031D01*
X8434467Y-14742031D02*
X8443991Y-14732508D01*
X8443991Y-14732508D02*
X8463039Y-14722984D01*
X8615420Y-14922984D02*
X8615420Y-14789650D01*
X8615420Y-14808698D02*
X8624944Y-14799174D01*
X8624944Y-14799174D02*
X8643991Y-14789650D01*
X8643991Y-14789650D02*
X8672563Y-14789650D01*
X8672563Y-14789650D02*
X8691610Y-14799174D01*
X8691610Y-14799174D02*
X8701134Y-14818222D01*
X8701134Y-14818222D02*
X8701134Y-14922984D01*
X8701134Y-14818222D02*
X8710658Y-14799174D01*
X8710658Y-14799174D02*
X8729705Y-14789650D01*
X8729705Y-14789650D02*
X8758277Y-14789650D01*
X8758277Y-14789650D02*
X8777325Y-14799174D01*
X8777325Y-14799174D02*
X8786848Y-14818222D01*
X8786848Y-14818222D02*
X8786848Y-14922984D01*
X8882086Y-14922984D02*
X8882086Y-14789650D01*
X8882086Y-14808698D02*
X8891610Y-14799174D01*
X8891610Y-14799174D02*
X8910658Y-14789650D01*
X8910658Y-14789650D02*
X8939229Y-14789650D01*
X8939229Y-14789650D02*
X8958277Y-14799174D01*
X8958277Y-14799174D02*
X8967801Y-14818222D01*
X8967801Y-14818222D02*
X8967801Y-14922984D01*
X8967801Y-14818222D02*
X8977325Y-14799174D01*
X8977325Y-14799174D02*
X8996372Y-14789650D01*
X8996372Y-14789650D02*
X9024944Y-14789650D01*
X9024944Y-14789650D02*
X9043991Y-14799174D01*
X9043991Y-14799174D02*
X9053515Y-14818222D01*
X9053515Y-14818222D02*
X9053515Y-14922984D01*
X9443991Y-14713460D02*
X9272563Y-14970603D01*
X9701134Y-14722984D02*
X9720182Y-14722984D01*
X9720182Y-14722984D02*
X9739229Y-14732508D01*
X9739229Y-14732508D02*
X9748753Y-14742031D01*
X9748753Y-14742031D02*
X9758277Y-14761079D01*
X9758277Y-14761079D02*
X9767801Y-14799174D01*
X9767801Y-14799174D02*
X9767801Y-14846793D01*
X9767801Y-14846793D02*
X9758277Y-14884888D01*
X9758277Y-14884888D02*
X9748753Y-14903936D01*
X9748753Y-14903936D02*
X9739229Y-14913460D01*
X9739229Y-14913460D02*
X9720182Y-14922984D01*
X9720182Y-14922984D02*
X9701134Y-14922984D01*
X9701134Y-14922984D02*
X9682087Y-14913460D01*
X9682087Y-14913460D02*
X9672563Y-14903936D01*
X9672563Y-14903936D02*
X9663039Y-14884888D01*
X9663039Y-14884888D02*
X9653515Y-14846793D01*
X9653515Y-14846793D02*
X9653515Y-14799174D01*
X9653515Y-14799174D02*
X9663039Y-14761079D01*
X9663039Y-14761079D02*
X9672563Y-14742031D01*
X9672563Y-14742031D02*
X9682087Y-14732508D01*
X9682087Y-14732508D02*
X9701134Y-14722984D01*
X9853515Y-14903936D02*
X9863039Y-14913460D01*
X9863039Y-14913460D02*
X9853515Y-14922984D01*
X9853515Y-14922984D02*
X9843991Y-14913460D01*
X9843991Y-14913460D02*
X9853515Y-14903936D01*
X9853515Y-14903936D02*
X9853515Y-14922984D01*
X9986848Y-14722984D02*
X10005896Y-14722984D01*
X10005896Y-14722984D02*
X10024944Y-14732508D01*
X10024944Y-14732508D02*
X10034468Y-14742031D01*
X10034468Y-14742031D02*
X10043991Y-14761079D01*
X10043991Y-14761079D02*
X10053515Y-14799174D01*
X10053515Y-14799174D02*
X10053515Y-14846793D01*
X10053515Y-14846793D02*
X10043991Y-14884888D01*
X10043991Y-14884888D02*
X10034468Y-14903936D01*
X10034468Y-14903936D02*
X10024944Y-14913460D01*
X10024944Y-14913460D02*
X10005896Y-14922984D01*
X10005896Y-14922984D02*
X9986848Y-14922984D01*
X9986848Y-14922984D02*
X9967801Y-14913460D01*
X9967801Y-14913460D02*
X9958277Y-14903936D01*
X9958277Y-14903936D02*
X9948753Y-14884888D01*
X9948753Y-14884888D02*
X9939229Y-14846793D01*
X9939229Y-14846793D02*
X9939229Y-14799174D01*
X9939229Y-14799174D02*
X9948753Y-14761079D01*
X9948753Y-14761079D02*
X9958277Y-14742031D01*
X9958277Y-14742031D02*
X9967801Y-14732508D01*
X9967801Y-14732508D02*
X9986848Y-14722984D01*
X10120182Y-14722984D02*
X10243991Y-14722984D01*
X10243991Y-14722984D02*
X10177325Y-14799174D01*
X10177325Y-14799174D02*
X10205896Y-14799174D01*
X10205896Y-14799174D02*
X10224944Y-14808698D01*
X10224944Y-14808698D02*
X10234468Y-14818222D01*
X10234468Y-14818222D02*
X10243991Y-14837269D01*
X10243991Y-14837269D02*
X10243991Y-14884888D01*
X10243991Y-14884888D02*
X10234468Y-14903936D01*
X10234468Y-14903936D02*
X10224944Y-14913460D01*
X10224944Y-14913460D02*
X10205896Y-14922984D01*
X10205896Y-14922984D02*
X10148753Y-14922984D01*
X10148753Y-14922984D02*
X10129706Y-14913460D01*
X10129706Y-14913460D02*
X10120182Y-14903936D01*
X10434468Y-14922984D02*
X10320182Y-14922984D01*
X10377325Y-14922984D02*
X10377325Y-14722984D01*
X10377325Y-14722984D02*
X10358277Y-14751555D01*
X10358277Y-14751555D02*
X10339229Y-14770603D01*
X10339229Y-14770603D02*
X10320182Y-14780127D01*
X10615420Y-14722984D02*
X10520182Y-14722984D01*
X10520182Y-14722984D02*
X10510658Y-14818222D01*
X10510658Y-14818222D02*
X10520182Y-14808698D01*
X10520182Y-14808698D02*
X10539229Y-14799174D01*
X10539229Y-14799174D02*
X10586849Y-14799174D01*
X10586849Y-14799174D02*
X10605896Y-14808698D01*
X10605896Y-14808698D02*
X10615420Y-14818222D01*
X10615420Y-14818222D02*
X10624944Y-14837269D01*
X10624944Y-14837269D02*
X10624944Y-14884888D01*
X10624944Y-14884888D02*
X10615420Y-14903936D01*
X10615420Y-14903936D02*
X10605896Y-14913460D01*
X10605896Y-14913460D02*
X10586849Y-14922984D01*
X10586849Y-14922984D02*
X10539229Y-14922984D01*
X10539229Y-14922984D02*
X10520182Y-14913460D01*
X10520182Y-14913460D02*
X10510658Y-14903936D01*
X10701134Y-14722984D02*
X10701134Y-14761079D01*
X10777325Y-14722984D02*
X10777325Y-14761079D01*
X11072563Y-14999174D02*
X11063039Y-14989650D01*
X11063039Y-14989650D02*
X11043991Y-14961079D01*
X11043991Y-14961079D02*
X11034468Y-14942031D01*
X11034468Y-14942031D02*
X11024944Y-14913460D01*
X11024944Y-14913460D02*
X11015420Y-14865841D01*
X11015420Y-14865841D02*
X11015420Y-14827746D01*
X11015420Y-14827746D02*
X11024944Y-14780127D01*
X11024944Y-14780127D02*
X11034468Y-14751555D01*
X11034468Y-14751555D02*
X11043991Y-14732508D01*
X11043991Y-14732508D02*
X11063039Y-14703936D01*
X11063039Y-14703936D02*
X11072563Y-14694412D01*
X11129706Y-14722984D02*
X11263039Y-14722984D01*
X11263039Y-14722984D02*
X11177325Y-14922984D01*
X11424944Y-14722984D02*
X11386848Y-14722984D01*
X11386848Y-14722984D02*
X11367801Y-14732508D01*
X11367801Y-14732508D02*
X11358277Y-14742031D01*
X11358277Y-14742031D02*
X11339229Y-14770603D01*
X11339229Y-14770603D02*
X11329706Y-14808698D01*
X11329706Y-14808698D02*
X11329706Y-14884888D01*
X11329706Y-14884888D02*
X11339229Y-14903936D01*
X11339229Y-14903936D02*
X11348753Y-14913460D01*
X11348753Y-14913460D02*
X11367801Y-14922984D01*
X11367801Y-14922984D02*
X11405896Y-14922984D01*
X11405896Y-14922984D02*
X11424944Y-14913460D01*
X11424944Y-14913460D02*
X11434468Y-14903936D01*
X11434468Y-14903936D02*
X11443991Y-14884888D01*
X11443991Y-14884888D02*
X11443991Y-14837269D01*
X11443991Y-14837269D02*
X11434468Y-14818222D01*
X11434468Y-14818222D02*
X11424944Y-14808698D01*
X11424944Y-14808698D02*
X11405896Y-14799174D01*
X11405896Y-14799174D02*
X11367801Y-14799174D01*
X11367801Y-14799174D02*
X11348753Y-14808698D01*
X11348753Y-14808698D02*
X11339229Y-14818222D01*
X11339229Y-14818222D02*
X11329706Y-14837269D01*
X11682087Y-14922984D02*
X11682087Y-14722984D01*
X11767801Y-14922984D02*
X11767801Y-14818222D01*
X11767801Y-14818222D02*
X11758277Y-14799174D01*
X11758277Y-14799174D02*
X11739230Y-14789650D01*
X11739230Y-14789650D02*
X11710658Y-14789650D01*
X11710658Y-14789650D02*
X11691610Y-14799174D01*
X11691610Y-14799174D02*
X11682087Y-14808698D01*
X11891610Y-14922984D02*
X11872563Y-14913460D01*
X11872563Y-14913460D02*
X11863039Y-14903936D01*
X11863039Y-14903936D02*
X11853515Y-14884888D01*
X11853515Y-14884888D02*
X11853515Y-14827746D01*
X11853515Y-14827746D02*
X11863039Y-14808698D01*
X11863039Y-14808698D02*
X11872563Y-14799174D01*
X11872563Y-14799174D02*
X11891610Y-14789650D01*
X11891610Y-14789650D02*
X11920182Y-14789650D01*
X11920182Y-14789650D02*
X11939230Y-14799174D01*
X11939230Y-14799174D02*
X11948753Y-14808698D01*
X11948753Y-14808698D02*
X11958277Y-14827746D01*
X11958277Y-14827746D02*
X11958277Y-14884888D01*
X11958277Y-14884888D02*
X11948753Y-14903936D01*
X11948753Y-14903936D02*
X11939230Y-14913460D01*
X11939230Y-14913460D02*
X11920182Y-14922984D01*
X11920182Y-14922984D02*
X11891610Y-14922984D01*
X12072563Y-14922984D02*
X12053515Y-14913460D01*
X12053515Y-14913460D02*
X12043991Y-14894412D01*
X12043991Y-14894412D02*
X12043991Y-14722984D01*
X12224944Y-14913460D02*
X12205896Y-14922984D01*
X12205896Y-14922984D02*
X12167801Y-14922984D01*
X12167801Y-14922984D02*
X12148753Y-14913460D01*
X12148753Y-14913460D02*
X12139230Y-14894412D01*
X12139230Y-14894412D02*
X12139230Y-14818222D01*
X12139230Y-14818222D02*
X12148753Y-14799174D01*
X12148753Y-14799174D02*
X12167801Y-14789650D01*
X12167801Y-14789650D02*
X12205896Y-14789650D01*
X12205896Y-14789650D02*
X12224944Y-14799174D01*
X12224944Y-14799174D02*
X12234468Y-14818222D01*
X12234468Y-14818222D02*
X12234468Y-14837269D01*
X12234468Y-14837269D02*
X12139230Y-14856317D01*
X12310658Y-14913460D02*
X12329706Y-14922984D01*
X12329706Y-14922984D02*
X12367801Y-14922984D01*
X12367801Y-14922984D02*
X12386849Y-14913460D01*
X12386849Y-14913460D02*
X12396372Y-14894412D01*
X12396372Y-14894412D02*
X12396372Y-14884888D01*
X12396372Y-14884888D02*
X12386849Y-14865841D01*
X12386849Y-14865841D02*
X12367801Y-14856317D01*
X12367801Y-14856317D02*
X12339230Y-14856317D01*
X12339230Y-14856317D02*
X12320182Y-14846793D01*
X12320182Y-14846793D02*
X12310658Y-14827746D01*
X12310658Y-14827746D02*
X12310658Y-14818222D01*
X12310658Y-14818222D02*
X12320182Y-14799174D01*
X12320182Y-14799174D02*
X12339230Y-14789650D01*
X12339230Y-14789650D02*
X12367801Y-14789650D01*
X12367801Y-14789650D02*
X12386849Y-14799174D01*
X12463039Y-14999174D02*
X12472563Y-14989650D01*
X12472563Y-14989650D02*
X12491611Y-14961079D01*
X12491611Y-14961079D02*
X12501134Y-14942031D01*
X12501134Y-14942031D02*
X12510658Y-14913460D01*
X12510658Y-14913460D02*
X12520182Y-14865841D01*
X12520182Y-14865841D02*
X12520182Y-14827746D01*
X12520182Y-14827746D02*
X12510658Y-14780127D01*
X12510658Y-14780127D02*
X12501134Y-14751555D01*
X12501134Y-14751555D02*
X12491611Y-14732508D01*
X12491611Y-14732508D02*
X12472563Y-14703936D01*
X12472563Y-14703936D02*
X12463039Y-14694412D01*
D12*
X7447500Y-15045500D02*
X7447500Y-15145500D01*
X7397500Y-15095500D02*
X7497500Y-15095500D01*
D11*
X7863039Y-15186984D02*
X7748753Y-15186984D01*
X7805896Y-15186984D02*
X7805896Y-14986984D01*
X7805896Y-14986984D02*
X7786848Y-15015555D01*
X7786848Y-15015555D02*
X7767801Y-15034603D01*
X7767801Y-15034603D02*
X7748753Y-15044127D01*
X7948753Y-15167936D02*
X7958277Y-15177460D01*
X7958277Y-15177460D02*
X7948753Y-15186984D01*
X7948753Y-15186984D02*
X7939229Y-15177460D01*
X7939229Y-15177460D02*
X7948753Y-15167936D01*
X7948753Y-15167936D02*
X7948753Y-15186984D01*
X8082086Y-14986984D02*
X8101134Y-14986984D01*
X8101134Y-14986984D02*
X8120182Y-14996508D01*
X8120182Y-14996508D02*
X8129705Y-15006031D01*
X8129705Y-15006031D02*
X8139229Y-15025079D01*
X8139229Y-15025079D02*
X8148753Y-15063174D01*
X8148753Y-15063174D02*
X8148753Y-15110793D01*
X8148753Y-15110793D02*
X8139229Y-15148888D01*
X8139229Y-15148888D02*
X8129705Y-15167936D01*
X8129705Y-15167936D02*
X8120182Y-15177460D01*
X8120182Y-15177460D02*
X8101134Y-15186984D01*
X8101134Y-15186984D02*
X8082086Y-15186984D01*
X8082086Y-15186984D02*
X8063039Y-15177460D01*
X8063039Y-15177460D02*
X8053515Y-15167936D01*
X8053515Y-15167936D02*
X8043991Y-15148888D01*
X8043991Y-15148888D02*
X8034467Y-15110793D01*
X8034467Y-15110793D02*
X8034467Y-15063174D01*
X8034467Y-15063174D02*
X8043991Y-15025079D01*
X8043991Y-15025079D02*
X8053515Y-15006031D01*
X8053515Y-15006031D02*
X8063039Y-14996508D01*
X8063039Y-14996508D02*
X8082086Y-14986984D01*
X8272562Y-14986984D02*
X8291610Y-14986984D01*
X8291610Y-14986984D02*
X8310658Y-14996508D01*
X8310658Y-14996508D02*
X8320182Y-15006031D01*
X8320182Y-15006031D02*
X8329705Y-15025079D01*
X8329705Y-15025079D02*
X8339229Y-15063174D01*
X8339229Y-15063174D02*
X8339229Y-15110793D01*
X8339229Y-15110793D02*
X8329705Y-15148888D01*
X8329705Y-15148888D02*
X8320182Y-15167936D01*
X8320182Y-15167936D02*
X8310658Y-15177460D01*
X8310658Y-15177460D02*
X8291610Y-15186984D01*
X8291610Y-15186984D02*
X8272562Y-15186984D01*
X8272562Y-15186984D02*
X8253515Y-15177460D01*
X8253515Y-15177460D02*
X8243991Y-15167936D01*
X8243991Y-15167936D02*
X8234467Y-15148888D01*
X8234467Y-15148888D02*
X8224943Y-15110793D01*
X8224943Y-15110793D02*
X8224943Y-15063174D01*
X8224943Y-15063174D02*
X8234467Y-15025079D01*
X8234467Y-15025079D02*
X8243991Y-15006031D01*
X8243991Y-15006031D02*
X8253515Y-14996508D01*
X8253515Y-14996508D02*
X8272562Y-14986984D01*
X8463039Y-14986984D02*
X8482086Y-14986984D01*
X8482086Y-14986984D02*
X8501134Y-14996508D01*
X8501134Y-14996508D02*
X8510658Y-15006031D01*
X8510658Y-15006031D02*
X8520182Y-15025079D01*
X8520182Y-15025079D02*
X8529705Y-15063174D01*
X8529705Y-15063174D02*
X8529705Y-15110793D01*
X8529705Y-15110793D02*
X8520182Y-15148888D01*
X8520182Y-15148888D02*
X8510658Y-15167936D01*
X8510658Y-15167936D02*
X8501134Y-15177460D01*
X8501134Y-15177460D02*
X8482086Y-15186984D01*
X8482086Y-15186984D02*
X8463039Y-15186984D01*
X8463039Y-15186984D02*
X8443991Y-15177460D01*
X8443991Y-15177460D02*
X8434467Y-15167936D01*
X8434467Y-15167936D02*
X8424944Y-15148888D01*
X8424944Y-15148888D02*
X8415420Y-15110793D01*
X8415420Y-15110793D02*
X8415420Y-15063174D01*
X8415420Y-15063174D02*
X8424944Y-15025079D01*
X8424944Y-15025079D02*
X8434467Y-15006031D01*
X8434467Y-15006031D02*
X8443991Y-14996508D01*
X8443991Y-14996508D02*
X8463039Y-14986984D01*
X8615420Y-15186984D02*
X8615420Y-15053650D01*
X8615420Y-15072698D02*
X8624944Y-15063174D01*
X8624944Y-15063174D02*
X8643991Y-15053650D01*
X8643991Y-15053650D02*
X8672563Y-15053650D01*
X8672563Y-15053650D02*
X8691610Y-15063174D01*
X8691610Y-15063174D02*
X8701134Y-15082222D01*
X8701134Y-15082222D02*
X8701134Y-15186984D01*
X8701134Y-15082222D02*
X8710658Y-15063174D01*
X8710658Y-15063174D02*
X8729705Y-15053650D01*
X8729705Y-15053650D02*
X8758277Y-15053650D01*
X8758277Y-15053650D02*
X8777325Y-15063174D01*
X8777325Y-15063174D02*
X8786848Y-15082222D01*
X8786848Y-15082222D02*
X8786848Y-15186984D01*
X8882086Y-15186984D02*
X8882086Y-15053650D01*
X8882086Y-15072698D02*
X8891610Y-15063174D01*
X8891610Y-15063174D02*
X8910658Y-15053650D01*
X8910658Y-15053650D02*
X8939229Y-15053650D01*
X8939229Y-15053650D02*
X8958277Y-15063174D01*
X8958277Y-15063174D02*
X8967801Y-15082222D01*
X8967801Y-15082222D02*
X8967801Y-15186984D01*
X8967801Y-15082222D02*
X8977325Y-15063174D01*
X8977325Y-15063174D02*
X8996372Y-15053650D01*
X8996372Y-15053650D02*
X9024944Y-15053650D01*
X9024944Y-15053650D02*
X9043991Y-15063174D01*
X9043991Y-15063174D02*
X9053515Y-15082222D01*
X9053515Y-15082222D02*
X9053515Y-15186984D01*
X9443991Y-14977460D02*
X9272563Y-15234603D01*
X9701134Y-14986984D02*
X9720182Y-14986984D01*
X9720182Y-14986984D02*
X9739229Y-14996508D01*
X9739229Y-14996508D02*
X9748753Y-15006031D01*
X9748753Y-15006031D02*
X9758277Y-15025079D01*
X9758277Y-15025079D02*
X9767801Y-15063174D01*
X9767801Y-15063174D02*
X9767801Y-15110793D01*
X9767801Y-15110793D02*
X9758277Y-15148888D01*
X9758277Y-15148888D02*
X9748753Y-15167936D01*
X9748753Y-15167936D02*
X9739229Y-15177460D01*
X9739229Y-15177460D02*
X9720182Y-15186984D01*
X9720182Y-15186984D02*
X9701134Y-15186984D01*
X9701134Y-15186984D02*
X9682087Y-15177460D01*
X9682087Y-15177460D02*
X9672563Y-15167936D01*
X9672563Y-15167936D02*
X9663039Y-15148888D01*
X9663039Y-15148888D02*
X9653515Y-15110793D01*
X9653515Y-15110793D02*
X9653515Y-15063174D01*
X9653515Y-15063174D02*
X9663039Y-15025079D01*
X9663039Y-15025079D02*
X9672563Y-15006031D01*
X9672563Y-15006031D02*
X9682087Y-14996508D01*
X9682087Y-14996508D02*
X9701134Y-14986984D01*
X9853515Y-15167936D02*
X9863039Y-15177460D01*
X9863039Y-15177460D02*
X9853515Y-15186984D01*
X9853515Y-15186984D02*
X9843991Y-15177460D01*
X9843991Y-15177460D02*
X9853515Y-15167936D01*
X9853515Y-15167936D02*
X9853515Y-15186984D01*
X9986848Y-14986984D02*
X10005896Y-14986984D01*
X10005896Y-14986984D02*
X10024944Y-14996508D01*
X10024944Y-14996508D02*
X10034468Y-15006031D01*
X10034468Y-15006031D02*
X10043991Y-15025079D01*
X10043991Y-15025079D02*
X10053515Y-15063174D01*
X10053515Y-15063174D02*
X10053515Y-15110793D01*
X10053515Y-15110793D02*
X10043991Y-15148888D01*
X10043991Y-15148888D02*
X10034468Y-15167936D01*
X10034468Y-15167936D02*
X10024944Y-15177460D01*
X10024944Y-15177460D02*
X10005896Y-15186984D01*
X10005896Y-15186984D02*
X9986848Y-15186984D01*
X9986848Y-15186984D02*
X9967801Y-15177460D01*
X9967801Y-15177460D02*
X9958277Y-15167936D01*
X9958277Y-15167936D02*
X9948753Y-15148888D01*
X9948753Y-15148888D02*
X9939229Y-15110793D01*
X9939229Y-15110793D02*
X9939229Y-15063174D01*
X9939229Y-15063174D02*
X9948753Y-15025079D01*
X9948753Y-15025079D02*
X9958277Y-15006031D01*
X9958277Y-15006031D02*
X9967801Y-14996508D01*
X9967801Y-14996508D02*
X9986848Y-14986984D01*
X10120182Y-14986984D02*
X10243991Y-14986984D01*
X10243991Y-14986984D02*
X10177325Y-15063174D01*
X10177325Y-15063174D02*
X10205896Y-15063174D01*
X10205896Y-15063174D02*
X10224944Y-15072698D01*
X10224944Y-15072698D02*
X10234468Y-15082222D01*
X10234468Y-15082222D02*
X10243991Y-15101269D01*
X10243991Y-15101269D02*
X10243991Y-15148888D01*
X10243991Y-15148888D02*
X10234468Y-15167936D01*
X10234468Y-15167936D02*
X10224944Y-15177460D01*
X10224944Y-15177460D02*
X10205896Y-15186984D01*
X10205896Y-15186984D02*
X10148753Y-15186984D01*
X10148753Y-15186984D02*
X10129706Y-15177460D01*
X10129706Y-15177460D02*
X10120182Y-15167936D01*
X10339229Y-15186984D02*
X10377325Y-15186984D01*
X10377325Y-15186984D02*
X10396372Y-15177460D01*
X10396372Y-15177460D02*
X10405896Y-15167936D01*
X10405896Y-15167936D02*
X10424944Y-15139365D01*
X10424944Y-15139365D02*
X10434468Y-15101269D01*
X10434468Y-15101269D02*
X10434468Y-15025079D01*
X10434468Y-15025079D02*
X10424944Y-15006031D01*
X10424944Y-15006031D02*
X10415420Y-14996508D01*
X10415420Y-14996508D02*
X10396372Y-14986984D01*
X10396372Y-14986984D02*
X10358277Y-14986984D01*
X10358277Y-14986984D02*
X10339229Y-14996508D01*
X10339229Y-14996508D02*
X10329706Y-15006031D01*
X10329706Y-15006031D02*
X10320182Y-15025079D01*
X10320182Y-15025079D02*
X10320182Y-15072698D01*
X10320182Y-15072698D02*
X10329706Y-15091746D01*
X10329706Y-15091746D02*
X10339229Y-15101269D01*
X10339229Y-15101269D02*
X10358277Y-15110793D01*
X10358277Y-15110793D02*
X10396372Y-15110793D01*
X10396372Y-15110793D02*
X10415420Y-15101269D01*
X10415420Y-15101269D02*
X10424944Y-15091746D01*
X10424944Y-15091746D02*
X10434468Y-15072698D01*
X10605896Y-15053650D02*
X10605896Y-15186984D01*
X10558277Y-14977460D02*
X10510658Y-15120317D01*
X10510658Y-15120317D02*
X10634468Y-15120317D01*
X10701134Y-14986984D02*
X10701134Y-15025079D01*
X10777325Y-14986984D02*
X10777325Y-15025079D01*
X11072563Y-15263174D02*
X11063039Y-15253650D01*
X11063039Y-15253650D02*
X11043991Y-15225079D01*
X11043991Y-15225079D02*
X11034468Y-15206031D01*
X11034468Y-15206031D02*
X11024944Y-15177460D01*
X11024944Y-15177460D02*
X11015420Y-15129841D01*
X11015420Y-15129841D02*
X11015420Y-15091746D01*
X11015420Y-15091746D02*
X11024944Y-15044127D01*
X11024944Y-15044127D02*
X11034468Y-15015555D01*
X11034468Y-15015555D02*
X11043991Y-14996508D01*
X11043991Y-14996508D02*
X11063039Y-14967936D01*
X11063039Y-14967936D02*
X11072563Y-14958412D01*
X11129706Y-14986984D02*
X11253515Y-14986984D01*
X11253515Y-14986984D02*
X11186848Y-15063174D01*
X11186848Y-15063174D02*
X11215420Y-15063174D01*
X11215420Y-15063174D02*
X11234468Y-15072698D01*
X11234468Y-15072698D02*
X11243991Y-15082222D01*
X11243991Y-15082222D02*
X11253515Y-15101269D01*
X11253515Y-15101269D02*
X11253515Y-15148888D01*
X11253515Y-15148888D02*
X11243991Y-15167936D01*
X11243991Y-15167936D02*
X11234468Y-15177460D01*
X11234468Y-15177460D02*
X11215420Y-15186984D01*
X11215420Y-15186984D02*
X11158277Y-15186984D01*
X11158277Y-15186984D02*
X11139230Y-15177460D01*
X11139230Y-15177460D02*
X11129706Y-15167936D01*
X11377325Y-14986984D02*
X11396372Y-14986984D01*
X11396372Y-14986984D02*
X11415420Y-14996508D01*
X11415420Y-14996508D02*
X11424944Y-15006031D01*
X11424944Y-15006031D02*
X11434468Y-15025079D01*
X11434468Y-15025079D02*
X11443991Y-15063174D01*
X11443991Y-15063174D02*
X11443991Y-15110793D01*
X11443991Y-15110793D02*
X11434468Y-15148888D01*
X11434468Y-15148888D02*
X11424944Y-15167936D01*
X11424944Y-15167936D02*
X11415420Y-15177460D01*
X11415420Y-15177460D02*
X11396372Y-15186984D01*
X11396372Y-15186984D02*
X11377325Y-15186984D01*
X11377325Y-15186984D02*
X11358277Y-15177460D01*
X11358277Y-15177460D02*
X11348753Y-15167936D01*
X11348753Y-15167936D02*
X11339229Y-15148888D01*
X11339229Y-15148888D02*
X11329706Y-15110793D01*
X11329706Y-15110793D02*
X11329706Y-15063174D01*
X11329706Y-15063174D02*
X11339229Y-15025079D01*
X11339229Y-15025079D02*
X11348753Y-15006031D01*
X11348753Y-15006031D02*
X11358277Y-14996508D01*
X11358277Y-14996508D02*
X11377325Y-14986984D01*
X11682087Y-15186984D02*
X11682087Y-14986984D01*
X11767801Y-15186984D02*
X11767801Y-15082222D01*
X11767801Y-15082222D02*
X11758277Y-15063174D01*
X11758277Y-15063174D02*
X11739230Y-15053650D01*
X11739230Y-15053650D02*
X11710658Y-15053650D01*
X11710658Y-15053650D02*
X11691610Y-15063174D01*
X11691610Y-15063174D02*
X11682087Y-15072698D01*
X11891610Y-15186984D02*
X11872563Y-15177460D01*
X11872563Y-15177460D02*
X11863039Y-15167936D01*
X11863039Y-15167936D02*
X11853515Y-15148888D01*
X11853515Y-15148888D02*
X11853515Y-15091746D01*
X11853515Y-15091746D02*
X11863039Y-15072698D01*
X11863039Y-15072698D02*
X11872563Y-15063174D01*
X11872563Y-15063174D02*
X11891610Y-15053650D01*
X11891610Y-15053650D02*
X11920182Y-15053650D01*
X11920182Y-15053650D02*
X11939230Y-15063174D01*
X11939230Y-15063174D02*
X11948753Y-15072698D01*
X11948753Y-15072698D02*
X11958277Y-15091746D01*
X11958277Y-15091746D02*
X11958277Y-15148888D01*
X11958277Y-15148888D02*
X11948753Y-15167936D01*
X11948753Y-15167936D02*
X11939230Y-15177460D01*
X11939230Y-15177460D02*
X11920182Y-15186984D01*
X11920182Y-15186984D02*
X11891610Y-15186984D01*
X12072563Y-15186984D02*
X12053515Y-15177460D01*
X12053515Y-15177460D02*
X12043991Y-15158412D01*
X12043991Y-15158412D02*
X12043991Y-14986984D01*
X12224944Y-15177460D02*
X12205896Y-15186984D01*
X12205896Y-15186984D02*
X12167801Y-15186984D01*
X12167801Y-15186984D02*
X12148753Y-15177460D01*
X12148753Y-15177460D02*
X12139230Y-15158412D01*
X12139230Y-15158412D02*
X12139230Y-15082222D01*
X12139230Y-15082222D02*
X12148753Y-15063174D01*
X12148753Y-15063174D02*
X12167801Y-15053650D01*
X12167801Y-15053650D02*
X12205896Y-15053650D01*
X12205896Y-15053650D02*
X12224944Y-15063174D01*
X12224944Y-15063174D02*
X12234468Y-15082222D01*
X12234468Y-15082222D02*
X12234468Y-15101269D01*
X12234468Y-15101269D02*
X12139230Y-15120317D01*
X12310658Y-15177460D02*
X12329706Y-15186984D01*
X12329706Y-15186984D02*
X12367801Y-15186984D01*
X12367801Y-15186984D02*
X12386849Y-15177460D01*
X12386849Y-15177460D02*
X12396372Y-15158412D01*
X12396372Y-15158412D02*
X12396372Y-15148888D01*
X12396372Y-15148888D02*
X12386849Y-15129841D01*
X12386849Y-15129841D02*
X12367801Y-15120317D01*
X12367801Y-15120317D02*
X12339230Y-15120317D01*
X12339230Y-15120317D02*
X12320182Y-15110793D01*
X12320182Y-15110793D02*
X12310658Y-15091746D01*
X12310658Y-15091746D02*
X12310658Y-15082222D01*
X12310658Y-15082222D02*
X12320182Y-15063174D01*
X12320182Y-15063174D02*
X12339230Y-15053650D01*
X12339230Y-15053650D02*
X12367801Y-15053650D01*
X12367801Y-15053650D02*
X12386849Y-15063174D01*
X12463039Y-15263174D02*
X12472563Y-15253650D01*
X12472563Y-15253650D02*
X12491611Y-15225079D01*
X12491611Y-15225079D02*
X12501134Y-15206031D01*
X12501134Y-15206031D02*
X12510658Y-15177460D01*
X12510658Y-15177460D02*
X12520182Y-15129841D01*
X12520182Y-15129841D02*
X12520182Y-15091746D01*
X12520182Y-15091746D02*
X12510658Y-15044127D01*
X12510658Y-15044127D02*
X12501134Y-15015555D01*
X12501134Y-15015555D02*
X12491611Y-14996508D01*
X12491611Y-14996508D02*
X12472563Y-14967936D01*
X12472563Y-14967936D02*
X12463039Y-14958412D01*
D13*
X7479927Y-15401927D02*
X7479927Y-15317073D01*
X7395073Y-15317073D01*
X7395073Y-15401927D01*
X7479927Y-15401927D01*
D11*
X7863039Y-15450984D02*
X7748753Y-15450984D01*
X7805896Y-15450984D02*
X7805896Y-15250984D01*
X7805896Y-15250984D02*
X7786848Y-15279555D01*
X7786848Y-15279555D02*
X7767801Y-15298603D01*
X7767801Y-15298603D02*
X7748753Y-15308127D01*
X7948753Y-15431936D02*
X7958277Y-15441460D01*
X7958277Y-15441460D02*
X7948753Y-15450984D01*
X7948753Y-15450984D02*
X7939229Y-15441460D01*
X7939229Y-15441460D02*
X7948753Y-15431936D01*
X7948753Y-15431936D02*
X7948753Y-15450984D01*
X8034467Y-15270031D02*
X8043991Y-15260508D01*
X8043991Y-15260508D02*
X8063039Y-15250984D01*
X8063039Y-15250984D02*
X8110658Y-15250984D01*
X8110658Y-15250984D02*
X8129705Y-15260508D01*
X8129705Y-15260508D02*
X8139229Y-15270031D01*
X8139229Y-15270031D02*
X8148753Y-15289079D01*
X8148753Y-15289079D02*
X8148753Y-15308127D01*
X8148753Y-15308127D02*
X8139229Y-15336698D01*
X8139229Y-15336698D02*
X8024943Y-15450984D01*
X8024943Y-15450984D02*
X8148753Y-15450984D01*
X8272562Y-15250984D02*
X8291610Y-15250984D01*
X8291610Y-15250984D02*
X8310658Y-15260508D01*
X8310658Y-15260508D02*
X8320182Y-15270031D01*
X8320182Y-15270031D02*
X8329705Y-15289079D01*
X8329705Y-15289079D02*
X8339229Y-15327174D01*
X8339229Y-15327174D02*
X8339229Y-15374793D01*
X8339229Y-15374793D02*
X8329705Y-15412888D01*
X8329705Y-15412888D02*
X8320182Y-15431936D01*
X8320182Y-15431936D02*
X8310658Y-15441460D01*
X8310658Y-15441460D02*
X8291610Y-15450984D01*
X8291610Y-15450984D02*
X8272562Y-15450984D01*
X8272562Y-15450984D02*
X8253515Y-15441460D01*
X8253515Y-15441460D02*
X8243991Y-15431936D01*
X8243991Y-15431936D02*
X8234467Y-15412888D01*
X8234467Y-15412888D02*
X8224943Y-15374793D01*
X8224943Y-15374793D02*
X8224943Y-15327174D01*
X8224943Y-15327174D02*
X8234467Y-15289079D01*
X8234467Y-15289079D02*
X8243991Y-15270031D01*
X8243991Y-15270031D02*
X8253515Y-15260508D01*
X8253515Y-15260508D02*
X8272562Y-15250984D01*
X8463039Y-15250984D02*
X8482086Y-15250984D01*
X8482086Y-15250984D02*
X8501134Y-15260508D01*
X8501134Y-15260508D02*
X8510658Y-15270031D01*
X8510658Y-15270031D02*
X8520182Y-15289079D01*
X8520182Y-15289079D02*
X8529705Y-15327174D01*
X8529705Y-15327174D02*
X8529705Y-15374793D01*
X8529705Y-15374793D02*
X8520182Y-15412888D01*
X8520182Y-15412888D02*
X8510658Y-15431936D01*
X8510658Y-15431936D02*
X8501134Y-15441460D01*
X8501134Y-15441460D02*
X8482086Y-15450984D01*
X8482086Y-15450984D02*
X8463039Y-15450984D01*
X8463039Y-15450984D02*
X8443991Y-15441460D01*
X8443991Y-15441460D02*
X8434467Y-15431936D01*
X8434467Y-15431936D02*
X8424944Y-15412888D01*
X8424944Y-15412888D02*
X8415420Y-15374793D01*
X8415420Y-15374793D02*
X8415420Y-15327174D01*
X8415420Y-15327174D02*
X8424944Y-15289079D01*
X8424944Y-15289079D02*
X8434467Y-15270031D01*
X8434467Y-15270031D02*
X8443991Y-15260508D01*
X8443991Y-15260508D02*
X8463039Y-15250984D01*
X8615420Y-15450984D02*
X8615420Y-15317650D01*
X8615420Y-15336698D02*
X8624944Y-15327174D01*
X8624944Y-15327174D02*
X8643991Y-15317650D01*
X8643991Y-15317650D02*
X8672563Y-15317650D01*
X8672563Y-15317650D02*
X8691610Y-15327174D01*
X8691610Y-15327174D02*
X8701134Y-15346222D01*
X8701134Y-15346222D02*
X8701134Y-15450984D01*
X8701134Y-15346222D02*
X8710658Y-15327174D01*
X8710658Y-15327174D02*
X8729705Y-15317650D01*
X8729705Y-15317650D02*
X8758277Y-15317650D01*
X8758277Y-15317650D02*
X8777325Y-15327174D01*
X8777325Y-15327174D02*
X8786848Y-15346222D01*
X8786848Y-15346222D02*
X8786848Y-15450984D01*
X8882086Y-15450984D02*
X8882086Y-15317650D01*
X8882086Y-15336698D02*
X8891610Y-15327174D01*
X8891610Y-15327174D02*
X8910658Y-15317650D01*
X8910658Y-15317650D02*
X8939229Y-15317650D01*
X8939229Y-15317650D02*
X8958277Y-15327174D01*
X8958277Y-15327174D02*
X8967801Y-15346222D01*
X8967801Y-15346222D02*
X8967801Y-15450984D01*
X8967801Y-15346222D02*
X8977325Y-15327174D01*
X8977325Y-15327174D02*
X8996372Y-15317650D01*
X8996372Y-15317650D02*
X9024944Y-15317650D01*
X9024944Y-15317650D02*
X9043991Y-15327174D01*
X9043991Y-15327174D02*
X9053515Y-15346222D01*
X9053515Y-15346222D02*
X9053515Y-15450984D01*
X9443991Y-15241460D02*
X9272563Y-15498603D01*
X9701134Y-15250984D02*
X9720182Y-15250984D01*
X9720182Y-15250984D02*
X9739229Y-15260508D01*
X9739229Y-15260508D02*
X9748753Y-15270031D01*
X9748753Y-15270031D02*
X9758277Y-15289079D01*
X9758277Y-15289079D02*
X9767801Y-15327174D01*
X9767801Y-15327174D02*
X9767801Y-15374793D01*
X9767801Y-15374793D02*
X9758277Y-15412888D01*
X9758277Y-15412888D02*
X9748753Y-15431936D01*
X9748753Y-15431936D02*
X9739229Y-15441460D01*
X9739229Y-15441460D02*
X9720182Y-15450984D01*
X9720182Y-15450984D02*
X9701134Y-15450984D01*
X9701134Y-15450984D02*
X9682087Y-15441460D01*
X9682087Y-15441460D02*
X9672563Y-15431936D01*
X9672563Y-15431936D02*
X9663039Y-15412888D01*
X9663039Y-15412888D02*
X9653515Y-15374793D01*
X9653515Y-15374793D02*
X9653515Y-15327174D01*
X9653515Y-15327174D02*
X9663039Y-15289079D01*
X9663039Y-15289079D02*
X9672563Y-15270031D01*
X9672563Y-15270031D02*
X9682087Y-15260508D01*
X9682087Y-15260508D02*
X9701134Y-15250984D01*
X9853515Y-15431936D02*
X9863039Y-15441460D01*
X9863039Y-15441460D02*
X9853515Y-15450984D01*
X9853515Y-15450984D02*
X9843991Y-15441460D01*
X9843991Y-15441460D02*
X9853515Y-15431936D01*
X9853515Y-15431936D02*
X9853515Y-15450984D01*
X9986848Y-15250984D02*
X10005896Y-15250984D01*
X10005896Y-15250984D02*
X10024944Y-15260508D01*
X10024944Y-15260508D02*
X10034468Y-15270031D01*
X10034468Y-15270031D02*
X10043991Y-15289079D01*
X10043991Y-15289079D02*
X10053515Y-15327174D01*
X10053515Y-15327174D02*
X10053515Y-15374793D01*
X10053515Y-15374793D02*
X10043991Y-15412888D01*
X10043991Y-15412888D02*
X10034468Y-15431936D01*
X10034468Y-15431936D02*
X10024944Y-15441460D01*
X10024944Y-15441460D02*
X10005896Y-15450984D01*
X10005896Y-15450984D02*
X9986848Y-15450984D01*
X9986848Y-15450984D02*
X9967801Y-15441460D01*
X9967801Y-15441460D02*
X9958277Y-15431936D01*
X9958277Y-15431936D02*
X9948753Y-15412888D01*
X9948753Y-15412888D02*
X9939229Y-15374793D01*
X9939229Y-15374793D02*
X9939229Y-15327174D01*
X9939229Y-15327174D02*
X9948753Y-15289079D01*
X9948753Y-15289079D02*
X9958277Y-15270031D01*
X9958277Y-15270031D02*
X9967801Y-15260508D01*
X9967801Y-15260508D02*
X9986848Y-15250984D01*
X10224944Y-15317650D02*
X10224944Y-15450984D01*
X10177325Y-15241460D02*
X10129706Y-15384317D01*
X10129706Y-15384317D02*
X10253515Y-15384317D01*
X10310658Y-15250984D02*
X10443991Y-15250984D01*
X10443991Y-15250984D02*
X10358277Y-15450984D01*
X10510658Y-15270031D02*
X10520182Y-15260508D01*
X10520182Y-15260508D02*
X10539229Y-15250984D01*
X10539229Y-15250984D02*
X10586849Y-15250984D01*
X10586849Y-15250984D02*
X10605896Y-15260508D01*
X10605896Y-15260508D02*
X10615420Y-15270031D01*
X10615420Y-15270031D02*
X10624944Y-15289079D01*
X10624944Y-15289079D02*
X10624944Y-15308127D01*
X10624944Y-15308127D02*
X10615420Y-15336698D01*
X10615420Y-15336698D02*
X10501134Y-15450984D01*
X10501134Y-15450984D02*
X10624944Y-15450984D01*
X10701134Y-15250984D02*
X10701134Y-15289079D01*
X10777325Y-15250984D02*
X10777325Y-15289079D01*
X11072563Y-15527174D02*
X11063039Y-15517650D01*
X11063039Y-15517650D02*
X11043991Y-15489079D01*
X11043991Y-15489079D02*
X11034468Y-15470031D01*
X11034468Y-15470031D02*
X11024944Y-15441460D01*
X11024944Y-15441460D02*
X11015420Y-15393841D01*
X11015420Y-15393841D02*
X11015420Y-15355746D01*
X11015420Y-15355746D02*
X11024944Y-15308127D01*
X11024944Y-15308127D02*
X11034468Y-15279555D01*
X11034468Y-15279555D02*
X11043991Y-15260508D01*
X11043991Y-15260508D02*
X11063039Y-15231936D01*
X11063039Y-15231936D02*
X11072563Y-15222412D01*
X11158277Y-15450984D02*
X11196372Y-15450984D01*
X11196372Y-15450984D02*
X11215420Y-15441460D01*
X11215420Y-15441460D02*
X11224944Y-15431936D01*
X11224944Y-15431936D02*
X11243991Y-15403365D01*
X11243991Y-15403365D02*
X11253515Y-15365269D01*
X11253515Y-15365269D02*
X11253515Y-15289079D01*
X11253515Y-15289079D02*
X11243991Y-15270031D01*
X11243991Y-15270031D02*
X11234468Y-15260508D01*
X11234468Y-15260508D02*
X11215420Y-15250984D01*
X11215420Y-15250984D02*
X11177325Y-15250984D01*
X11177325Y-15250984D02*
X11158277Y-15260508D01*
X11158277Y-15260508D02*
X11148753Y-15270031D01*
X11148753Y-15270031D02*
X11139230Y-15289079D01*
X11139230Y-15289079D02*
X11139230Y-15336698D01*
X11139230Y-15336698D02*
X11148753Y-15355746D01*
X11148753Y-15355746D02*
X11158277Y-15365269D01*
X11158277Y-15365269D02*
X11177325Y-15374793D01*
X11177325Y-15374793D02*
X11215420Y-15374793D01*
X11215420Y-15374793D02*
X11234468Y-15365269D01*
X11234468Y-15365269D02*
X11243991Y-15355746D01*
X11243991Y-15355746D02*
X11253515Y-15336698D01*
X11491610Y-15450984D02*
X11491610Y-15250984D01*
X11577325Y-15450984D02*
X11577325Y-15346222D01*
X11577325Y-15346222D02*
X11567801Y-15327174D01*
X11567801Y-15327174D02*
X11548753Y-15317650D01*
X11548753Y-15317650D02*
X11520182Y-15317650D01*
X11520182Y-15317650D02*
X11501134Y-15327174D01*
X11501134Y-15327174D02*
X11491610Y-15336698D01*
X11701134Y-15450984D02*
X11682087Y-15441460D01*
X11682087Y-15441460D02*
X11672563Y-15431936D01*
X11672563Y-15431936D02*
X11663039Y-15412888D01*
X11663039Y-15412888D02*
X11663039Y-15355746D01*
X11663039Y-15355746D02*
X11672563Y-15336698D01*
X11672563Y-15336698D02*
X11682087Y-15327174D01*
X11682087Y-15327174D02*
X11701134Y-15317650D01*
X11701134Y-15317650D02*
X11729706Y-15317650D01*
X11729706Y-15317650D02*
X11748753Y-15327174D01*
X11748753Y-15327174D02*
X11758277Y-15336698D01*
X11758277Y-15336698D02*
X11767801Y-15355746D01*
X11767801Y-15355746D02*
X11767801Y-15412888D01*
X11767801Y-15412888D02*
X11758277Y-15431936D01*
X11758277Y-15431936D02*
X11748753Y-15441460D01*
X11748753Y-15441460D02*
X11729706Y-15450984D01*
X11729706Y-15450984D02*
X11701134Y-15450984D01*
X11882087Y-15450984D02*
X11863039Y-15441460D01*
X11863039Y-15441460D02*
X11853515Y-15422412D01*
X11853515Y-15422412D02*
X11853515Y-15250984D01*
X12034468Y-15441460D02*
X12015420Y-15450984D01*
X12015420Y-15450984D02*
X11977325Y-15450984D01*
X11977325Y-15450984D02*
X11958277Y-15441460D01*
X11958277Y-15441460D02*
X11948753Y-15422412D01*
X11948753Y-15422412D02*
X11948753Y-15346222D01*
X11948753Y-15346222D02*
X11958277Y-15327174D01*
X11958277Y-15327174D02*
X11977325Y-15317650D01*
X11977325Y-15317650D02*
X12015420Y-15317650D01*
X12015420Y-15317650D02*
X12034468Y-15327174D01*
X12034468Y-15327174D02*
X12043991Y-15346222D01*
X12043991Y-15346222D02*
X12043991Y-15365269D01*
X12043991Y-15365269D02*
X11948753Y-15384317D01*
X12120182Y-15441460D02*
X12139230Y-15450984D01*
X12139230Y-15450984D02*
X12177325Y-15450984D01*
X12177325Y-15450984D02*
X12196372Y-15441460D01*
X12196372Y-15441460D02*
X12205896Y-15422412D01*
X12205896Y-15422412D02*
X12205896Y-15412888D01*
X12205896Y-15412888D02*
X12196372Y-15393841D01*
X12196372Y-15393841D02*
X12177325Y-15384317D01*
X12177325Y-15384317D02*
X12148753Y-15384317D01*
X12148753Y-15384317D02*
X12129706Y-15374793D01*
X12129706Y-15374793D02*
X12120182Y-15355746D01*
X12120182Y-15355746D02*
X12120182Y-15346222D01*
X12120182Y-15346222D02*
X12129706Y-15327174D01*
X12129706Y-15327174D02*
X12148753Y-15317650D01*
X12148753Y-15317650D02*
X12177325Y-15317650D01*
X12177325Y-15317650D02*
X12196372Y-15327174D01*
X12272563Y-15527174D02*
X12282087Y-15517650D01*
X12282087Y-15517650D02*
X12301134Y-15489079D01*
X12301134Y-15489079D02*
X12310658Y-15470031D01*
X12310658Y-15470031D02*
X12320182Y-15441460D01*
X12320182Y-15441460D02*
X12329706Y-15393841D01*
X12329706Y-15393841D02*
X12329706Y-15355746D01*
X12329706Y-15355746D02*
X12320182Y-15308127D01*
X12320182Y-15308127D02*
X12310658Y-15279555D01*
X12310658Y-15279555D02*
X12301134Y-15260508D01*
X12301134Y-15260508D02*
X12282087Y-15231936D01*
X12282087Y-15231936D02*
X12272563Y-15222412D01*
M02*
