G04 #@! TF.GenerationSoftware,KiCad,Pcbnew,9.0.2*
G04 #@! TF.CreationDate,2025-05-16T19:44:45+03:00*
G04 #@! TF.ProjectId,spro2,7370726f-322e-46b6-9963-61645f706362,rev?*
G04 #@! TF.SameCoordinates,Original*
G04 #@! TF.FileFunction,Soldermask,Top*
G04 #@! TF.FilePolarity,Negative*
%FSLAX46Y46*%
G04 Gerber Fmt 4.6, Leading zero omitted, Abs format (unit mm)*
G04 Created by KiCad (PCBNEW 9.0.2) date 2025-05-16 19:44:45*
%MOMM*%
%LPD*%
G01*
G04 APERTURE LIST*
G04 Aperture macros list*
%AMRoundRect*
0 Rectangle with rounded corners*
0 $1 Rounding radius*
0 $2 $3 $4 $5 $6 $7 $8 $9 X,Y pos of 4 corners*
0 Add a 4 corners polygon primitive as box body*
4,1,4,$2,$3,$4,$5,$6,$7,$8,$9,$2,$3,0*
0 Add four circle primitives for the rounded corners*
1,1,$1+$1,$2,$3*
1,1,$1+$1,$4,$5*
1,1,$1+$1,$6,$7*
1,1,$1+$1,$8,$9*
0 Add four rect primitives between the rounded corners*
20,1,$1+$1,$2,$3,$4,$5,0*
20,1,$1+$1,$4,$5,$6,$7,0*
20,1,$1+$1,$6,$7,$8,$9,0*
20,1,$1+$1,$8,$9,$2,$3,0*%
G04 Aperture macros list end*
%ADD10RoundRect,0.250000X0.750000X0.750000X-0.750000X0.750000X-0.750000X-0.750000X0.750000X-0.750000X0*%
%ADD11C,2.000000*%
%ADD12RoundRect,0.102000X-1.200000X-1.200000X1.200000X-1.200000X1.200000X1.200000X-1.200000X1.200000X0*%
%ADD13C,2.604000*%
%ADD14RoundRect,0.102000X-1.200000X1.200000X-1.200000X-1.200000X1.200000X-1.200000X1.200000X1.200000X0*%
%ADD15RoundRect,0.250000X0.550000X0.550000X-0.550000X0.550000X-0.550000X-0.550000X0.550000X-0.550000X0*%
%ADD16C,1.600000*%
%ADD17RoundRect,0.250000X-0.550000X0.550000X-0.550000X-0.550000X0.550000X-0.550000X0.550000X0.550000X0*%
%ADD18C,2.200000*%
%ADD19RoundRect,0.250000X-0.550000X-0.550000X0.550000X-0.550000X0.550000X0.550000X-0.550000X0.550000X0*%
%ADD20R,1.130000X1.130000*%
%ADD21C,1.130000*%
%ADD22RoundRect,0.250000X0.750000X-0.750000X0.750000X0.750000X-0.750000X0.750000X-0.750000X-0.750000X0*%
%ADD23R,1.600000X1.600000*%
%ADD24O,1.600000X1.600000*%
%ADD25RoundRect,0.250000X0.550000X-0.550000X0.550000X0.550000X-0.550000X0.550000X-0.550000X-0.550000X0*%
G04 APERTURE END LIST*
D10*
X127167677Y-103250000D03*
D11*
X122167677Y-103250000D03*
D12*
X93500000Y-84750000D03*
D13*
X98580000Y-84750000D03*
X103660000Y-84750000D03*
D14*
X80250000Y-106960000D03*
D13*
X80250000Y-112040000D03*
D12*
X137500000Y-85750000D03*
D13*
X142500000Y-85750000D03*
X147500000Y-85750000D03*
X152500000Y-85750000D03*
D15*
X155182380Y-114300000D03*
D16*
X152682380Y-114300000D03*
X88750000Y-104000000D03*
X98910000Y-104000000D03*
X87500000Y-127250000D03*
X77340000Y-127250000D03*
D17*
X102250000Y-107440000D03*
D16*
X102250000Y-115060000D03*
D10*
X127117677Y-114250000D03*
D11*
X122117677Y-114250000D03*
D16*
X168330000Y-94250000D03*
X158170000Y-94250000D03*
X100160000Y-118000000D03*
X90000000Y-118000000D03*
D17*
X105500000Y-96380000D03*
D16*
X105500000Y-104000000D03*
X102000000Y-128750000D03*
X107000000Y-128750000D03*
X88750000Y-110750000D03*
X98910000Y-110750000D03*
D18*
X172250000Y-82000000D03*
D16*
X162955113Y-131000000D03*
X152795113Y-131000000D03*
D18*
X77750000Y-136500000D03*
D19*
X159700000Y-108450000D03*
D16*
X159700000Y-110990000D03*
X159700000Y-113530000D03*
X159700000Y-116070000D03*
X167320000Y-116070000D03*
X167320000Y-113530000D03*
X167320000Y-110990000D03*
X167320000Y-108450000D03*
D20*
X109560000Y-98590000D03*
D21*
X109560000Y-101130000D03*
X109560000Y-103670000D03*
X109560000Y-106210000D03*
X109560000Y-108750000D03*
X109560000Y-111290000D03*
X109560000Y-113830000D03*
X117500000Y-113830000D03*
X117500000Y-111290000D03*
X117500000Y-108750000D03*
X117500000Y-106210000D03*
X117500000Y-103670000D03*
X117500000Y-101130000D03*
X117500000Y-98590000D03*
D16*
X77340000Y-131750000D03*
X87500000Y-131750000D03*
D18*
X77750000Y-82000000D03*
D16*
X98910000Y-107250000D03*
X88750000Y-107250000D03*
D18*
X172250000Y-136500000D03*
D15*
X154455113Y-105750000D03*
D16*
X151955113Y-105750000D03*
X110500000Y-118500000D03*
X105500000Y-118500000D03*
X77340000Y-122500000D03*
X87500000Y-122500000D03*
X122920000Y-135830000D03*
X122920000Y-125670000D03*
X158170000Y-98750000D03*
X168330000Y-98750000D03*
X93500000Y-90750000D03*
X93500000Y-95750000D03*
X87500000Y-136000000D03*
X97660000Y-136000000D03*
X166500000Y-122750000D03*
X161500000Y-122750000D03*
D22*
X112250000Y-91500000D03*
D11*
X112250000Y-86500000D03*
D16*
X158170000Y-89750000D03*
X168330000Y-89750000D03*
X126500000Y-135830000D03*
X126500000Y-125670000D03*
X90750000Y-122000000D03*
X90750000Y-132160000D03*
D23*
X132250000Y-95050000D03*
D24*
X132250000Y-97590000D03*
X132250000Y-100130000D03*
X132250000Y-102670000D03*
X132250000Y-105210000D03*
X132250000Y-107750000D03*
X132250000Y-110290000D03*
X132250000Y-112830000D03*
X132250000Y-115370000D03*
X132250000Y-117910000D03*
X132250000Y-120450000D03*
X132250000Y-122990000D03*
X132250000Y-125530000D03*
X132250000Y-128070000D03*
X132250000Y-130610000D03*
X147490000Y-130610000D03*
X147490000Y-128070000D03*
X147490000Y-125530000D03*
X147490000Y-122990000D03*
X147490000Y-120450000D03*
X147490000Y-117910000D03*
X147490000Y-115370000D03*
X147490000Y-112830000D03*
X147490000Y-110290000D03*
X147490000Y-107750000D03*
X147490000Y-105210000D03*
X147490000Y-102670000D03*
X147490000Y-100130000D03*
X147490000Y-97590000D03*
X147490000Y-95050000D03*
D16*
X152500000Y-93044888D03*
X152500000Y-98044888D03*
X123500000Y-82000000D03*
X133660000Y-82000000D03*
X77340000Y-118000000D03*
X87500000Y-118000000D03*
D17*
X94250000Y-122250000D03*
D16*
X94250000Y-129870000D03*
X110670000Y-82000000D03*
X120830000Y-82000000D03*
D11*
X102000000Y-134000000D03*
X112000000Y-134000000D03*
X112000000Y-123750000D03*
X102000000Y-123750000D03*
D16*
X88750000Y-100250000D03*
X98910000Y-100250000D03*
D25*
X102000000Y-104000000D03*
D16*
X102000000Y-96380000D03*
X98910000Y-114250000D03*
X88750000Y-114250000D03*
X158170000Y-103250000D03*
X168330000Y-103250000D03*
D19*
X154544888Y-123500000D03*
D16*
X157044888Y-123500000D03*
D17*
X127800000Y-85950000D03*
D16*
X125260000Y-85950000D03*
X122720000Y-85950000D03*
X120180000Y-85950000D03*
X120180000Y-93570000D03*
X122720000Y-93570000D03*
X125260000Y-93570000D03*
X127800000Y-93570000D03*
X119170000Y-125670000D03*
X119170000Y-135830000D03*
M02*
