%TF.GenerationSoftware,KiCad,Pcbnew,9.0.2*%
%TF.CreationDate,2025-05-16T19:45:09+03:00*%
%TF.ProjectId,spro2,7370726f-322e-46b6-9963-61645f706362,rev?*%
%TF.SameCoordinates,Original*%
%TF.FileFunction,Drillmap*%
%TF.FilePolarity,Positive*%
%FSLAX45Y45*%
G04 Gerber Fmt 4.5, Leading zero omitted, Abs format (unit mm)*
G04 Created by KiCad (PCBNEW 9.0.2) date 2025-05-16 19:45:09*
%MOMM*%
%LPD*%
G01*
G04 APERTURE LIST*
%ADD10C,0.050000*%
%ADD11C,0.200000*%
%ADD12C,0.100000*%
%ADD13C,0.120000*%
G04 APERTURE END LIST*
D10*
X7500000Y-7925000D02*
X17500000Y-7925000D01*
X17500000Y-13925000D01*
X7500000Y-13925000D01*
X7500000Y-7925000D01*
D11*
D12*
X10919500Y-9822500D02*
X10992500Y-9895500D01*
X10992500Y-9822500D02*
X10919500Y-9895500D01*
X10919500Y-10076500D02*
X10992500Y-10149500D01*
X10992500Y-10076500D02*
X10919500Y-10149500D01*
X10919500Y-10330500D02*
X10992500Y-10403500D01*
X10992500Y-10330500D02*
X10919500Y-10403500D01*
X10919500Y-10584500D02*
X10992500Y-10657500D01*
X10992500Y-10584500D02*
X10919500Y-10657500D01*
X10919500Y-10838500D02*
X10992500Y-10911500D01*
X10992500Y-10838500D02*
X10919500Y-10911500D01*
X10919500Y-11092500D02*
X10992500Y-11165500D01*
X10992500Y-11092500D02*
X10919500Y-11165500D01*
X10919500Y-11346500D02*
X10992500Y-11419500D01*
X10992500Y-11346500D02*
X10919500Y-11419500D01*
X11713500Y-9822500D02*
X11786500Y-9895500D01*
X11786500Y-9822500D02*
X11713500Y-9895500D01*
X11713500Y-10076500D02*
X11786500Y-10149500D01*
X11786500Y-10076500D02*
X11713500Y-10149500D01*
X11713500Y-10330500D02*
X11786500Y-10403500D01*
X11786500Y-10330500D02*
X11713500Y-10403500D01*
X11713500Y-10584500D02*
X11786500Y-10657500D01*
X11786500Y-10584500D02*
X11713500Y-10657500D01*
X11713500Y-10838500D02*
X11786500Y-10911500D01*
X11786500Y-10838500D02*
X11713500Y-10911500D01*
X11713500Y-11092500D02*
X11786500Y-11165500D01*
X11786500Y-11092500D02*
X11713500Y-11165500D01*
X11713500Y-11346500D02*
X11786500Y-11419500D01*
X11786500Y-11346500D02*
X11713500Y-11419500D01*
X7774000Y-11800000D02*
G75*
G02*
X7694000Y-11800000I-40000J0D01*
G01*
X7694000Y-11800000D02*
G75*
G02*
X7774000Y-11800000I40000J0D01*
G01*
X7774000Y-12250000D02*
G75*
G02*
X7694000Y-12250000I-40000J0D01*
G01*
X7694000Y-12250000D02*
G75*
G02*
X7774000Y-12250000I40000J0D01*
G01*
X7774000Y-12725000D02*
G75*
G02*
X7694000Y-12725000I-40000J0D01*
G01*
X7694000Y-12725000D02*
G75*
G02*
X7774000Y-12725000I40000J0D01*
G01*
X7774000Y-13175000D02*
G75*
G02*
X7694000Y-13175000I-40000J0D01*
G01*
X7694000Y-13175000D02*
G75*
G02*
X7774000Y-13175000I40000J0D01*
G01*
X8790000Y-11800000D02*
G75*
G02*
X8710000Y-11800000I-40000J0D01*
G01*
X8710000Y-11800000D02*
G75*
G02*
X8790000Y-11800000I40000J0D01*
G01*
X8790000Y-12250000D02*
G75*
G02*
X8710000Y-12250000I-40000J0D01*
G01*
X8710000Y-12250000D02*
G75*
G02*
X8790000Y-12250000I40000J0D01*
G01*
X8790000Y-12725000D02*
G75*
G02*
X8710000Y-12725000I-40000J0D01*
G01*
X8710000Y-12725000D02*
G75*
G02*
X8790000Y-12725000I40000J0D01*
G01*
X8790000Y-13175000D02*
G75*
G02*
X8710000Y-13175000I-40000J0D01*
G01*
X8710000Y-13175000D02*
G75*
G02*
X8790000Y-13175000I40000J0D01*
G01*
X8790000Y-13600000D02*
G75*
G02*
X8710000Y-13600000I-40000J0D01*
G01*
X8710000Y-13600000D02*
G75*
G02*
X8790000Y-13600000I40000J0D01*
G01*
X8915000Y-10025000D02*
G75*
G02*
X8835000Y-10025000I-40000J0D01*
G01*
X8835000Y-10025000D02*
G75*
G02*
X8915000Y-10025000I40000J0D01*
G01*
X8915000Y-10400000D02*
G75*
G02*
X8835000Y-10400000I-40000J0D01*
G01*
X8835000Y-10400000D02*
G75*
G02*
X8915000Y-10400000I40000J0D01*
G01*
X8915000Y-10725000D02*
G75*
G02*
X8835000Y-10725000I-40000J0D01*
G01*
X8835000Y-10725000D02*
G75*
G02*
X8915000Y-10725000I40000J0D01*
G01*
X8915000Y-11075000D02*
G75*
G02*
X8835000Y-11075000I-40000J0D01*
G01*
X8835000Y-11075000D02*
G75*
G02*
X8915000Y-11075000I40000J0D01*
G01*
X8915000Y-11425000D02*
G75*
G02*
X8835000Y-11425000I-40000J0D01*
G01*
X8835000Y-11425000D02*
G75*
G02*
X8915000Y-11425000I40000J0D01*
G01*
X9040000Y-11800000D02*
G75*
G02*
X8960000Y-11800000I-40000J0D01*
G01*
X8960000Y-11800000D02*
G75*
G02*
X9040000Y-11800000I40000J0D01*
G01*
X9115000Y-12200000D02*
G75*
G02*
X9035000Y-12200000I-40000J0D01*
G01*
X9035000Y-12200000D02*
G75*
G02*
X9115000Y-12200000I40000J0D01*
G01*
X9115000Y-13216000D02*
G75*
G02*
X9035000Y-13216000I-40000J0D01*
G01*
X9035000Y-13216000D02*
G75*
G02*
X9115000Y-13216000I40000J0D01*
G01*
X9390000Y-9075000D02*
G75*
G02*
X9310000Y-9075000I-40000J0D01*
G01*
X9310000Y-9075000D02*
G75*
G02*
X9390000Y-9075000I40000J0D01*
G01*
X9390000Y-9575000D02*
G75*
G02*
X9310000Y-9575000I-40000J0D01*
G01*
X9310000Y-9575000D02*
G75*
G02*
X9390000Y-9575000I40000J0D01*
G01*
X9465000Y-12225000D02*
G75*
G02*
X9385000Y-12225000I-40000J0D01*
G01*
X9385000Y-12225000D02*
G75*
G02*
X9465000Y-12225000I40000J0D01*
G01*
X9465000Y-12987000D02*
G75*
G02*
X9385000Y-12987000I-40000J0D01*
G01*
X9385000Y-12987000D02*
G75*
G02*
X9465000Y-12987000I40000J0D01*
G01*
X9806000Y-13600000D02*
G75*
G02*
X9726000Y-13600000I-40000J0D01*
G01*
X9726000Y-13600000D02*
G75*
G02*
X9806000Y-13600000I40000J0D01*
G01*
X9931000Y-10025000D02*
G75*
G02*
X9851000Y-10025000I-40000J0D01*
G01*
X9851000Y-10025000D02*
G75*
G02*
X9931000Y-10025000I40000J0D01*
G01*
X9931000Y-10400000D02*
G75*
G02*
X9851000Y-10400000I-40000J0D01*
G01*
X9851000Y-10400000D02*
G75*
G02*
X9931000Y-10400000I40000J0D01*
G01*
X9931000Y-10725000D02*
G75*
G02*
X9851000Y-10725000I-40000J0D01*
G01*
X9851000Y-10725000D02*
G75*
G02*
X9931000Y-10725000I40000J0D01*
G01*
X9931000Y-11075000D02*
G75*
G02*
X9851000Y-11075000I-40000J0D01*
G01*
X9851000Y-11075000D02*
G75*
G02*
X9931000Y-11075000I40000J0D01*
G01*
X9931000Y-11425000D02*
G75*
G02*
X9851000Y-11425000I-40000J0D01*
G01*
X9851000Y-11425000D02*
G75*
G02*
X9931000Y-11425000I40000J0D01*
G01*
X10056000Y-11800000D02*
G75*
G02*
X9976000Y-11800000I-40000J0D01*
G01*
X9976000Y-11800000D02*
G75*
G02*
X10056000Y-11800000I40000J0D01*
G01*
X10240000Y-9638000D02*
G75*
G02*
X10160000Y-9638000I-40000J0D01*
G01*
X10160000Y-9638000D02*
G75*
G02*
X10240000Y-9638000I40000J0D01*
G01*
X10240000Y-10400000D02*
G75*
G02*
X10160000Y-10400000I-40000J0D01*
G01*
X10160000Y-10400000D02*
G75*
G02*
X10240000Y-10400000I40000J0D01*
G01*
X10240000Y-12875000D02*
G75*
G02*
X10160000Y-12875000I-40000J0D01*
G01*
X10160000Y-12875000D02*
G75*
G02*
X10240000Y-12875000I40000J0D01*
G01*
X10265000Y-10744000D02*
G75*
G02*
X10185000Y-10744000I-40000J0D01*
G01*
X10185000Y-10744000D02*
G75*
G02*
X10265000Y-10744000I40000J0D01*
G01*
X10265000Y-11506000D02*
G75*
G02*
X10185000Y-11506000I-40000J0D01*
G01*
X10185000Y-11506000D02*
G75*
G02*
X10265000Y-11506000I40000J0D01*
G01*
X10590000Y-9638000D02*
G75*
G02*
X10510000Y-9638000I-40000J0D01*
G01*
X10510000Y-9638000D02*
G75*
G02*
X10590000Y-9638000I40000J0D01*
G01*
X10590000Y-10400000D02*
G75*
G02*
X10510000Y-10400000I-40000J0D01*
G01*
X10510000Y-10400000D02*
G75*
G02*
X10590000Y-10400000I40000J0D01*
G01*
X10590000Y-11850000D02*
G75*
G02*
X10510000Y-11850000I-40000J0D01*
G01*
X10510000Y-11850000D02*
G75*
G02*
X10590000Y-11850000I40000J0D01*
G01*
X10740000Y-12875000D02*
G75*
G02*
X10660000Y-12875000I-40000J0D01*
G01*
X10660000Y-12875000D02*
G75*
G02*
X10740000Y-12875000I40000J0D01*
G01*
X11090000Y-11850000D02*
G75*
G02*
X11010000Y-11850000I-40000J0D01*
G01*
X11010000Y-11850000D02*
G75*
G02*
X11090000Y-11850000I40000J0D01*
G01*
X11107000Y-8200000D02*
G75*
G02*
X11027000Y-8200000I-40000J0D01*
G01*
X11027000Y-8200000D02*
G75*
G02*
X11107000Y-8200000I40000J0D01*
G01*
X11957000Y-12567000D02*
G75*
G02*
X11877000Y-12567000I-40000J0D01*
G01*
X11877000Y-12567000D02*
G75*
G02*
X11957000Y-12567000I40000J0D01*
G01*
X11957000Y-13583000D02*
G75*
G02*
X11877000Y-13583000I-40000J0D01*
G01*
X11877000Y-13583000D02*
G75*
G02*
X11957000Y-13583000I40000J0D01*
G01*
X12058000Y-8595000D02*
G75*
G02*
X11978000Y-8595000I-40000J0D01*
G01*
X11978000Y-8595000D02*
G75*
G02*
X12058000Y-8595000I40000J0D01*
G01*
X12058000Y-9357000D02*
G75*
G02*
X11978000Y-9357000I-40000J0D01*
G01*
X11978000Y-9357000D02*
G75*
G02*
X12058000Y-9357000I40000J0D01*
G01*
X12123000Y-8200000D02*
G75*
G02*
X12043000Y-8200000I-40000J0D01*
G01*
X12043000Y-8200000D02*
G75*
G02*
X12123000Y-8200000I40000J0D01*
G01*
X12312000Y-8595000D02*
G75*
G02*
X12232000Y-8595000I-40000J0D01*
G01*
X12232000Y-8595000D02*
G75*
G02*
X12312000Y-8595000I40000J0D01*
G01*
X12312000Y-9357000D02*
G75*
G02*
X12232000Y-9357000I-40000J0D01*
G01*
X12232000Y-9357000D02*
G75*
G02*
X12312000Y-9357000I40000J0D01*
G01*
X12332000Y-12567000D02*
G75*
G02*
X12252000Y-12567000I-40000J0D01*
G01*
X12252000Y-12567000D02*
G75*
G02*
X12332000Y-12567000I40000J0D01*
G01*
X12332000Y-13583000D02*
G75*
G02*
X12252000Y-13583000I-40000J0D01*
G01*
X12252000Y-13583000D02*
G75*
G02*
X12332000Y-13583000I40000J0D01*
G01*
X12390000Y-8200000D02*
G75*
G02*
X12310000Y-8200000I-40000J0D01*
G01*
X12310000Y-8200000D02*
G75*
G02*
X12390000Y-8200000I40000J0D01*
G01*
X12566000Y-8595000D02*
G75*
G02*
X12486000Y-8595000I-40000J0D01*
G01*
X12486000Y-8595000D02*
G75*
G02*
X12566000Y-8595000I40000J0D01*
G01*
X12566000Y-9357000D02*
G75*
G02*
X12486000Y-9357000I-40000J0D01*
G01*
X12486000Y-9357000D02*
G75*
G02*
X12566000Y-9357000I40000J0D01*
G01*
X12690000Y-12567000D02*
G75*
G02*
X12610000Y-12567000I-40000J0D01*
G01*
X12610000Y-12567000D02*
G75*
G02*
X12690000Y-12567000I40000J0D01*
G01*
X12690000Y-13583000D02*
G75*
G02*
X12610000Y-13583000I-40000J0D01*
G01*
X12610000Y-13583000D02*
G75*
G02*
X12690000Y-13583000I40000J0D01*
G01*
X12820000Y-8595000D02*
G75*
G02*
X12740000Y-8595000I-40000J0D01*
G01*
X12740000Y-8595000D02*
G75*
G02*
X12820000Y-8595000I40000J0D01*
G01*
X12820000Y-9357000D02*
G75*
G02*
X12740000Y-9357000I-40000J0D01*
G01*
X12740000Y-9357000D02*
G75*
G02*
X12820000Y-9357000I40000J0D01*
G01*
X13406000Y-8200000D02*
G75*
G02*
X13326000Y-8200000I-40000J0D01*
G01*
X13326000Y-8200000D02*
G75*
G02*
X13406000Y-8200000I40000J0D01*
G01*
X15235511Y-10575000D02*
G75*
G02*
X15155511Y-10575000I-40000J0D01*
G01*
X15155511Y-10575000D02*
G75*
G02*
X15235511Y-10575000I40000J0D01*
G01*
X15290000Y-9304489D02*
G75*
G02*
X15210000Y-9304489I-40000J0D01*
G01*
X15210000Y-9304489D02*
G75*
G02*
X15290000Y-9304489I40000J0D01*
G01*
X15290000Y-9804489D02*
G75*
G02*
X15210000Y-9804489I-40000J0D01*
G01*
X15210000Y-9804489D02*
G75*
G02*
X15290000Y-9804489I40000J0D01*
G01*
X15308238Y-11430000D02*
G75*
G02*
X15228238Y-11430000I-40000J0D01*
G01*
X15228238Y-11430000D02*
G75*
G02*
X15308238Y-11430000I40000J0D01*
G01*
X15319511Y-13100000D02*
G75*
G02*
X15239511Y-13100000I-40000J0D01*
G01*
X15239511Y-13100000D02*
G75*
G02*
X15319511Y-13100000I40000J0D01*
G01*
X15485511Y-10575000D02*
G75*
G02*
X15405511Y-10575000I-40000J0D01*
G01*
X15405511Y-10575000D02*
G75*
G02*
X15485511Y-10575000I40000J0D01*
G01*
X15494489Y-12350000D02*
G75*
G02*
X15414489Y-12350000I-40000J0D01*
G01*
X15414489Y-12350000D02*
G75*
G02*
X15494489Y-12350000I40000J0D01*
G01*
X15558238Y-11430000D02*
G75*
G02*
X15478238Y-11430000I-40000J0D01*
G01*
X15478238Y-11430000D02*
G75*
G02*
X15558238Y-11430000I40000J0D01*
G01*
X15744489Y-12350000D02*
G75*
G02*
X15664489Y-12350000I-40000J0D01*
G01*
X15664489Y-12350000D02*
G75*
G02*
X15744489Y-12350000I40000J0D01*
G01*
X15857000Y-8975000D02*
G75*
G02*
X15777000Y-8975000I-40000J0D01*
G01*
X15777000Y-8975000D02*
G75*
G02*
X15857000Y-8975000I40000J0D01*
G01*
X15857000Y-9425000D02*
G75*
G02*
X15777000Y-9425000I-40000J0D01*
G01*
X15777000Y-9425000D02*
G75*
G02*
X15857000Y-9425000I40000J0D01*
G01*
X15857000Y-9875000D02*
G75*
G02*
X15777000Y-9875000I-40000J0D01*
G01*
X15777000Y-9875000D02*
G75*
G02*
X15857000Y-9875000I40000J0D01*
G01*
X15857000Y-10325000D02*
G75*
G02*
X15777000Y-10325000I-40000J0D01*
G01*
X15777000Y-10325000D02*
G75*
G02*
X15857000Y-10325000I40000J0D01*
G01*
X16010000Y-10845000D02*
G75*
G02*
X15930000Y-10845000I-40000J0D01*
G01*
X15930000Y-10845000D02*
G75*
G02*
X16010000Y-10845000I40000J0D01*
G01*
X16010000Y-11099000D02*
G75*
G02*
X15930000Y-11099000I-40000J0D01*
G01*
X15930000Y-11099000D02*
G75*
G02*
X16010000Y-11099000I40000J0D01*
G01*
X16010000Y-11353000D02*
G75*
G02*
X15930000Y-11353000I-40000J0D01*
G01*
X15930000Y-11353000D02*
G75*
G02*
X16010000Y-11353000I40000J0D01*
G01*
X16010000Y-11607000D02*
G75*
G02*
X15930000Y-11607000I-40000J0D01*
G01*
X15930000Y-11607000D02*
G75*
G02*
X16010000Y-11607000I40000J0D01*
G01*
X16190000Y-12275000D02*
G75*
G02*
X16110000Y-12275000I-40000J0D01*
G01*
X16110000Y-12275000D02*
G75*
G02*
X16190000Y-12275000I40000J0D01*
G01*
X16335511Y-13100000D02*
G75*
G02*
X16255511Y-13100000I-40000J0D01*
G01*
X16255511Y-13100000D02*
G75*
G02*
X16335511Y-13100000I40000J0D01*
G01*
X16690000Y-12275000D02*
G75*
G02*
X16610000Y-12275000I-40000J0D01*
G01*
X16610000Y-12275000D02*
G75*
G02*
X16690000Y-12275000I40000J0D01*
G01*
X16772000Y-10845000D02*
G75*
G02*
X16692000Y-10845000I-40000J0D01*
G01*
X16692000Y-10845000D02*
G75*
G02*
X16772000Y-10845000I40000J0D01*
G01*
X16772000Y-11099000D02*
G75*
G02*
X16692000Y-11099000I-40000J0D01*
G01*
X16692000Y-11099000D02*
G75*
G02*
X16772000Y-11099000I40000J0D01*
G01*
X16772000Y-11353000D02*
G75*
G02*
X16692000Y-11353000I-40000J0D01*
G01*
X16692000Y-11353000D02*
G75*
G02*
X16772000Y-11353000I40000J0D01*
G01*
X16772000Y-11607000D02*
G75*
G02*
X16692000Y-11607000I-40000J0D01*
G01*
X16692000Y-11607000D02*
G75*
G02*
X16772000Y-11607000I40000J0D01*
G01*
X16873000Y-8975000D02*
G75*
G02*
X16793000Y-8975000I-40000J0D01*
G01*
X16793000Y-8975000D02*
G75*
G02*
X16873000Y-8975000I40000J0D01*
G01*
X16873000Y-9425000D02*
G75*
G02*
X16793000Y-9425000I-40000J0D01*
G01*
X16793000Y-9425000D02*
G75*
G02*
X16873000Y-9425000I40000J0D01*
G01*
X16873000Y-9875000D02*
G75*
G02*
X16793000Y-9875000I-40000J0D01*
G01*
X16793000Y-9875000D02*
G75*
G02*
X16873000Y-9875000I40000J0D01*
G01*
X16873000Y-10325000D02*
G75*
G02*
X16793000Y-10325000I-40000J0D01*
G01*
X16793000Y-10325000D02*
G75*
G02*
X16873000Y-10325000I40000J0D01*
G01*
X10200000Y-12325000D02*
X10200000Y-12425000D01*
X10150000Y-12375000D02*
X10250000Y-12375000D01*
X10200000Y-13350000D02*
X10200000Y-13450000D01*
X10150000Y-13400000D02*
X10250000Y-13400000D01*
X11200000Y-12325000D02*
X11200000Y-12425000D01*
X11150000Y-12375000D02*
X11250000Y-12375000D01*
X11200000Y-13350000D02*
X11200000Y-13450000D01*
X11150000Y-13400000D02*
X11250000Y-13400000D01*
X11225000Y-8600000D02*
X11225000Y-8700000D01*
X11175000Y-8650000D02*
X11275000Y-8650000D01*
X11225000Y-9100000D02*
X11225000Y-9200000D01*
X11175000Y-9150000D02*
X11275000Y-9150000D01*
X12211768Y-11375000D02*
X12211768Y-11475000D01*
X12161768Y-11425000D02*
X12261768Y-11425000D01*
X12216768Y-10275000D02*
X12216768Y-10375000D01*
X12166768Y-10325000D02*
X12266768Y-10325000D01*
X12711768Y-11375000D02*
X12711768Y-11475000D01*
X12661768Y-11425000D02*
X12761768Y-11425000D01*
X12716768Y-10275000D02*
X12716768Y-10375000D01*
X12666768Y-10325000D02*
X12766768Y-10325000D01*
X13225000Y-9455000D02*
X13225000Y-9555000D01*
X13175000Y-9505000D02*
X13275000Y-9505000D01*
X13225000Y-9709000D02*
X13225000Y-9809000D01*
X13175000Y-9759000D02*
X13275000Y-9759000D01*
X13225000Y-9963000D02*
X13225000Y-10063000D01*
X13175000Y-10013000D02*
X13275000Y-10013000D01*
X13225000Y-10217000D02*
X13225000Y-10317000D01*
X13175000Y-10267000D02*
X13275000Y-10267000D01*
X13225000Y-10471000D02*
X13225000Y-10571000D01*
X13175000Y-10521000D02*
X13275000Y-10521000D01*
X13225000Y-10725000D02*
X13225000Y-10825000D01*
X13175000Y-10775000D02*
X13275000Y-10775000D01*
X13225000Y-10979000D02*
X13225000Y-11079000D01*
X13175000Y-11029000D02*
X13275000Y-11029000D01*
X13225000Y-11233000D02*
X13225000Y-11333000D01*
X13175000Y-11283000D02*
X13275000Y-11283000D01*
X13225000Y-11487000D02*
X13225000Y-11587000D01*
X13175000Y-11537000D02*
X13275000Y-11537000D01*
X13225000Y-11741000D02*
X13225000Y-11841000D01*
X13175000Y-11791000D02*
X13275000Y-11791000D01*
X13225000Y-11995000D02*
X13225000Y-12095000D01*
X13175000Y-12045000D02*
X13275000Y-12045000D01*
X13225000Y-12249000D02*
X13225000Y-12349000D01*
X13175000Y-12299000D02*
X13275000Y-12299000D01*
X13225000Y-12503000D02*
X13225000Y-12603000D01*
X13175000Y-12553000D02*
X13275000Y-12553000D01*
X13225000Y-12757000D02*
X13225000Y-12857000D01*
X13175000Y-12807000D02*
X13275000Y-12807000D01*
X13225000Y-13011000D02*
X13225000Y-13111000D01*
X13175000Y-13061000D02*
X13275000Y-13061000D01*
X14749000Y-9455000D02*
X14749000Y-9555000D01*
X14699000Y-9505000D02*
X14799000Y-9505000D01*
X14749000Y-9709000D02*
X14749000Y-9809000D01*
X14699000Y-9759000D02*
X14799000Y-9759000D01*
X14749000Y-9963000D02*
X14749000Y-10063000D01*
X14699000Y-10013000D02*
X14799000Y-10013000D01*
X14749000Y-10217000D02*
X14749000Y-10317000D01*
X14699000Y-10267000D02*
X14799000Y-10267000D01*
X14749000Y-10471000D02*
X14749000Y-10571000D01*
X14699000Y-10521000D02*
X14799000Y-10521000D01*
X14749000Y-10725000D02*
X14749000Y-10825000D01*
X14699000Y-10775000D02*
X14799000Y-10775000D01*
X14749000Y-10979000D02*
X14749000Y-11079000D01*
X14699000Y-11029000D02*
X14799000Y-11029000D01*
X14749000Y-11233000D02*
X14749000Y-11333000D01*
X14699000Y-11283000D02*
X14799000Y-11283000D01*
X14749000Y-11487000D02*
X14749000Y-11587000D01*
X14699000Y-11537000D02*
X14799000Y-11537000D01*
X14749000Y-11741000D02*
X14749000Y-11841000D01*
X14699000Y-11791000D02*
X14799000Y-11791000D01*
X14749000Y-11995000D02*
X14749000Y-12095000D01*
X14699000Y-12045000D02*
X14799000Y-12045000D01*
X14749000Y-12249000D02*
X14749000Y-12349000D01*
X14699000Y-12299000D02*
X14799000Y-12299000D01*
X14749000Y-12503000D02*
X14749000Y-12603000D01*
X14699000Y-12553000D02*
X14799000Y-12553000D01*
X14749000Y-12757000D02*
X14749000Y-12857000D01*
X14699000Y-12807000D02*
X14799000Y-12807000D01*
X14749000Y-13011000D02*
X14749000Y-13111000D01*
X14699000Y-13061000D02*
X14799000Y-13061000D01*
D13*
X8067427Y-10738427D02*
X8067427Y-10653573D01*
X7982573Y-10653573D01*
X7982573Y-10738427D01*
X8067427Y-10738427D01*
X8067427Y-11246427D02*
X8067427Y-11161573D01*
X7982573Y-11161573D01*
X7982573Y-11246427D01*
X8067427Y-11246427D01*
X9392427Y-8517427D02*
X9392427Y-8432573D01*
X9307573Y-8432573D01*
X9307573Y-8517427D01*
X9392427Y-8517427D01*
X9900427Y-8517427D02*
X9900427Y-8432573D01*
X9815573Y-8432573D01*
X9815573Y-8517427D01*
X9900427Y-8517427D01*
X10408427Y-8517427D02*
X10408427Y-8432573D01*
X10323573Y-8432573D01*
X10323573Y-8517427D01*
X10408427Y-8517427D01*
X13792427Y-8617427D02*
X13792427Y-8532573D01*
X13707573Y-8532573D01*
X13707573Y-8617427D01*
X13792427Y-8617427D01*
X14292427Y-8617427D02*
X14292427Y-8532573D01*
X14207573Y-8532573D01*
X14207573Y-8617427D01*
X14292427Y-8617427D01*
X14792427Y-8617427D02*
X14792427Y-8532573D01*
X14707573Y-8532573D01*
X14707573Y-8617427D01*
X14792427Y-8617427D01*
X15292427Y-8617427D02*
X15292427Y-8532573D01*
X15207573Y-8532573D01*
X15207573Y-8617427D01*
X15292427Y-8617427D01*
D11*
X7758277Y-14238984D02*
X7758277Y-14038984D01*
X7758277Y-14038984D02*
X7805896Y-14038984D01*
X7805896Y-14038984D02*
X7834467Y-14048508D01*
X7834467Y-14048508D02*
X7853515Y-14067555D01*
X7853515Y-14067555D02*
X7863039Y-14086603D01*
X7863039Y-14086603D02*
X7872562Y-14124698D01*
X7872562Y-14124698D02*
X7872562Y-14153269D01*
X7872562Y-14153269D02*
X7863039Y-14191365D01*
X7863039Y-14191365D02*
X7853515Y-14210412D01*
X7853515Y-14210412D02*
X7834467Y-14229460D01*
X7834467Y-14229460D02*
X7805896Y-14238984D01*
X7805896Y-14238984D02*
X7758277Y-14238984D01*
X7958277Y-14238984D02*
X7958277Y-14105650D01*
X7958277Y-14143746D02*
X7967801Y-14124698D01*
X7967801Y-14124698D02*
X7977324Y-14115174D01*
X7977324Y-14115174D02*
X7996372Y-14105650D01*
X7996372Y-14105650D02*
X8015420Y-14105650D01*
X8082086Y-14238984D02*
X8082086Y-14105650D01*
X8082086Y-14038984D02*
X8072562Y-14048508D01*
X8072562Y-14048508D02*
X8082086Y-14058031D01*
X8082086Y-14058031D02*
X8091610Y-14048508D01*
X8091610Y-14048508D02*
X8082086Y-14038984D01*
X8082086Y-14038984D02*
X8082086Y-14058031D01*
X8205896Y-14238984D02*
X8186848Y-14229460D01*
X8186848Y-14229460D02*
X8177324Y-14210412D01*
X8177324Y-14210412D02*
X8177324Y-14038984D01*
X8310658Y-14238984D02*
X8291610Y-14229460D01*
X8291610Y-14229460D02*
X8282086Y-14210412D01*
X8282086Y-14210412D02*
X8282086Y-14038984D01*
X8539229Y-14238984D02*
X8539229Y-14038984D01*
X8539229Y-14038984D02*
X8605896Y-14181841D01*
X8605896Y-14181841D02*
X8672563Y-14038984D01*
X8672563Y-14038984D02*
X8672563Y-14238984D01*
X8853515Y-14238984D02*
X8853515Y-14134222D01*
X8853515Y-14134222D02*
X8843991Y-14115174D01*
X8843991Y-14115174D02*
X8824944Y-14105650D01*
X8824944Y-14105650D02*
X8786848Y-14105650D01*
X8786848Y-14105650D02*
X8767801Y-14115174D01*
X8853515Y-14229460D02*
X8834467Y-14238984D01*
X8834467Y-14238984D02*
X8786848Y-14238984D01*
X8786848Y-14238984D02*
X8767801Y-14229460D01*
X8767801Y-14229460D02*
X8758277Y-14210412D01*
X8758277Y-14210412D02*
X8758277Y-14191365D01*
X8758277Y-14191365D02*
X8767801Y-14172317D01*
X8767801Y-14172317D02*
X8786848Y-14162793D01*
X8786848Y-14162793D02*
X8834467Y-14162793D01*
X8834467Y-14162793D02*
X8853515Y-14153269D01*
X8948753Y-14105650D02*
X8948753Y-14305650D01*
X8948753Y-14115174D02*
X8967801Y-14105650D01*
X8967801Y-14105650D02*
X9005896Y-14105650D01*
X9005896Y-14105650D02*
X9024944Y-14115174D01*
X9024944Y-14115174D02*
X9034467Y-14124698D01*
X9034467Y-14124698D02*
X9043991Y-14143746D01*
X9043991Y-14143746D02*
X9043991Y-14200888D01*
X9043991Y-14200888D02*
X9034467Y-14219936D01*
X9034467Y-14219936D02*
X9024944Y-14229460D01*
X9024944Y-14229460D02*
X9005896Y-14238984D01*
X9005896Y-14238984D02*
X8967801Y-14238984D01*
X8967801Y-14238984D02*
X8948753Y-14229460D01*
X9129705Y-14219936D02*
X9139229Y-14229460D01*
X9139229Y-14229460D02*
X9129705Y-14238984D01*
X9129705Y-14238984D02*
X9120182Y-14229460D01*
X9120182Y-14229460D02*
X9129705Y-14219936D01*
X9129705Y-14219936D02*
X9129705Y-14238984D01*
X9129705Y-14115174D02*
X9139229Y-14124698D01*
X9139229Y-14124698D02*
X9129705Y-14134222D01*
X9129705Y-14134222D02*
X9120182Y-14124698D01*
X9120182Y-14124698D02*
X9129705Y-14115174D01*
X9129705Y-14115174D02*
X9129705Y-14134222D01*
D12*
X7424500Y-14531000D02*
X7497500Y-14604000D01*
X7497500Y-14531000D02*
X7424500Y-14604000D01*
D11*
X7796372Y-14458984D02*
X7815420Y-14458984D01*
X7815420Y-14458984D02*
X7834467Y-14468508D01*
X7834467Y-14468508D02*
X7843991Y-14478031D01*
X7843991Y-14478031D02*
X7853515Y-14497079D01*
X7853515Y-14497079D02*
X7863039Y-14535174D01*
X7863039Y-14535174D02*
X7863039Y-14582793D01*
X7863039Y-14582793D02*
X7853515Y-14620888D01*
X7853515Y-14620888D02*
X7843991Y-14639936D01*
X7843991Y-14639936D02*
X7834467Y-14649460D01*
X7834467Y-14649460D02*
X7815420Y-14658984D01*
X7815420Y-14658984D02*
X7796372Y-14658984D01*
X7796372Y-14658984D02*
X7777324Y-14649460D01*
X7777324Y-14649460D02*
X7767801Y-14639936D01*
X7767801Y-14639936D02*
X7758277Y-14620888D01*
X7758277Y-14620888D02*
X7748753Y-14582793D01*
X7748753Y-14582793D02*
X7748753Y-14535174D01*
X7748753Y-14535174D02*
X7758277Y-14497079D01*
X7758277Y-14497079D02*
X7767801Y-14478031D01*
X7767801Y-14478031D02*
X7777324Y-14468508D01*
X7777324Y-14468508D02*
X7796372Y-14458984D01*
X7948753Y-14639936D02*
X7958277Y-14649460D01*
X7958277Y-14649460D02*
X7948753Y-14658984D01*
X7948753Y-14658984D02*
X7939229Y-14649460D01*
X7939229Y-14649460D02*
X7948753Y-14639936D01*
X7948753Y-14639936D02*
X7948753Y-14658984D01*
X8024943Y-14458984D02*
X8158277Y-14458984D01*
X8158277Y-14458984D02*
X8072562Y-14658984D01*
X8215420Y-14458984D02*
X8339229Y-14458984D01*
X8339229Y-14458984D02*
X8272562Y-14535174D01*
X8272562Y-14535174D02*
X8301134Y-14535174D01*
X8301134Y-14535174D02*
X8320182Y-14544698D01*
X8320182Y-14544698D02*
X8329705Y-14554222D01*
X8329705Y-14554222D02*
X8339229Y-14573269D01*
X8339229Y-14573269D02*
X8339229Y-14620888D01*
X8339229Y-14620888D02*
X8329705Y-14639936D01*
X8329705Y-14639936D02*
X8320182Y-14649460D01*
X8320182Y-14649460D02*
X8301134Y-14658984D01*
X8301134Y-14658984D02*
X8243991Y-14658984D01*
X8243991Y-14658984D02*
X8224943Y-14649460D01*
X8224943Y-14649460D02*
X8215420Y-14639936D01*
X8463039Y-14458984D02*
X8482086Y-14458984D01*
X8482086Y-14458984D02*
X8501134Y-14468508D01*
X8501134Y-14468508D02*
X8510658Y-14478031D01*
X8510658Y-14478031D02*
X8520182Y-14497079D01*
X8520182Y-14497079D02*
X8529705Y-14535174D01*
X8529705Y-14535174D02*
X8529705Y-14582793D01*
X8529705Y-14582793D02*
X8520182Y-14620888D01*
X8520182Y-14620888D02*
X8510658Y-14639936D01*
X8510658Y-14639936D02*
X8501134Y-14649460D01*
X8501134Y-14649460D02*
X8482086Y-14658984D01*
X8482086Y-14658984D02*
X8463039Y-14658984D01*
X8463039Y-14658984D02*
X8443991Y-14649460D01*
X8443991Y-14649460D02*
X8434467Y-14639936D01*
X8434467Y-14639936D02*
X8424944Y-14620888D01*
X8424944Y-14620888D02*
X8415420Y-14582793D01*
X8415420Y-14582793D02*
X8415420Y-14535174D01*
X8415420Y-14535174D02*
X8424944Y-14497079D01*
X8424944Y-14497079D02*
X8434467Y-14478031D01*
X8434467Y-14478031D02*
X8443991Y-14468508D01*
X8443991Y-14468508D02*
X8463039Y-14458984D01*
X8615420Y-14658984D02*
X8615420Y-14525650D01*
X8615420Y-14544698D02*
X8624944Y-14535174D01*
X8624944Y-14535174D02*
X8643991Y-14525650D01*
X8643991Y-14525650D02*
X8672563Y-14525650D01*
X8672563Y-14525650D02*
X8691610Y-14535174D01*
X8691610Y-14535174D02*
X8701134Y-14554222D01*
X8701134Y-14554222D02*
X8701134Y-14658984D01*
X8701134Y-14554222D02*
X8710658Y-14535174D01*
X8710658Y-14535174D02*
X8729705Y-14525650D01*
X8729705Y-14525650D02*
X8758277Y-14525650D01*
X8758277Y-14525650D02*
X8777325Y-14535174D01*
X8777325Y-14535174D02*
X8786848Y-14554222D01*
X8786848Y-14554222D02*
X8786848Y-14658984D01*
X8882086Y-14658984D02*
X8882086Y-14525650D01*
X8882086Y-14544698D02*
X8891610Y-14535174D01*
X8891610Y-14535174D02*
X8910658Y-14525650D01*
X8910658Y-14525650D02*
X8939229Y-14525650D01*
X8939229Y-14525650D02*
X8958277Y-14535174D01*
X8958277Y-14535174D02*
X8967801Y-14554222D01*
X8967801Y-14554222D02*
X8967801Y-14658984D01*
X8967801Y-14554222D02*
X8977325Y-14535174D01*
X8977325Y-14535174D02*
X8996372Y-14525650D01*
X8996372Y-14525650D02*
X9024944Y-14525650D01*
X9024944Y-14525650D02*
X9043991Y-14535174D01*
X9043991Y-14535174D02*
X9053515Y-14554222D01*
X9053515Y-14554222D02*
X9053515Y-14658984D01*
X9443991Y-14449460D02*
X9272563Y-14706603D01*
X9701134Y-14458984D02*
X9720182Y-14458984D01*
X9720182Y-14458984D02*
X9739229Y-14468508D01*
X9739229Y-14468508D02*
X9748753Y-14478031D01*
X9748753Y-14478031D02*
X9758277Y-14497079D01*
X9758277Y-14497079D02*
X9767801Y-14535174D01*
X9767801Y-14535174D02*
X9767801Y-14582793D01*
X9767801Y-14582793D02*
X9758277Y-14620888D01*
X9758277Y-14620888D02*
X9748753Y-14639936D01*
X9748753Y-14639936D02*
X9739229Y-14649460D01*
X9739229Y-14649460D02*
X9720182Y-14658984D01*
X9720182Y-14658984D02*
X9701134Y-14658984D01*
X9701134Y-14658984D02*
X9682087Y-14649460D01*
X9682087Y-14649460D02*
X9672563Y-14639936D01*
X9672563Y-14639936D02*
X9663039Y-14620888D01*
X9663039Y-14620888D02*
X9653515Y-14582793D01*
X9653515Y-14582793D02*
X9653515Y-14535174D01*
X9653515Y-14535174D02*
X9663039Y-14497079D01*
X9663039Y-14497079D02*
X9672563Y-14478031D01*
X9672563Y-14478031D02*
X9682087Y-14468508D01*
X9682087Y-14468508D02*
X9701134Y-14458984D01*
X9853515Y-14639936D02*
X9863039Y-14649460D01*
X9863039Y-14649460D02*
X9853515Y-14658984D01*
X9853515Y-14658984D02*
X9843991Y-14649460D01*
X9843991Y-14649460D02*
X9853515Y-14639936D01*
X9853515Y-14639936D02*
X9853515Y-14658984D01*
X9986848Y-14458984D02*
X10005896Y-14458984D01*
X10005896Y-14458984D02*
X10024944Y-14468508D01*
X10024944Y-14468508D02*
X10034468Y-14478031D01*
X10034468Y-14478031D02*
X10043991Y-14497079D01*
X10043991Y-14497079D02*
X10053515Y-14535174D01*
X10053515Y-14535174D02*
X10053515Y-14582793D01*
X10053515Y-14582793D02*
X10043991Y-14620888D01*
X10043991Y-14620888D02*
X10034468Y-14639936D01*
X10034468Y-14639936D02*
X10024944Y-14649460D01*
X10024944Y-14649460D02*
X10005896Y-14658984D01*
X10005896Y-14658984D02*
X9986848Y-14658984D01*
X9986848Y-14658984D02*
X9967801Y-14649460D01*
X9967801Y-14649460D02*
X9958277Y-14639936D01*
X9958277Y-14639936D02*
X9948753Y-14620888D01*
X9948753Y-14620888D02*
X9939229Y-14582793D01*
X9939229Y-14582793D02*
X9939229Y-14535174D01*
X9939229Y-14535174D02*
X9948753Y-14497079D01*
X9948753Y-14497079D02*
X9958277Y-14478031D01*
X9958277Y-14478031D02*
X9967801Y-14468508D01*
X9967801Y-14468508D02*
X9986848Y-14458984D01*
X10129706Y-14478031D02*
X10139229Y-14468508D01*
X10139229Y-14468508D02*
X10158277Y-14458984D01*
X10158277Y-14458984D02*
X10205896Y-14458984D01*
X10205896Y-14458984D02*
X10224944Y-14468508D01*
X10224944Y-14468508D02*
X10234468Y-14478031D01*
X10234468Y-14478031D02*
X10243991Y-14497079D01*
X10243991Y-14497079D02*
X10243991Y-14516127D01*
X10243991Y-14516127D02*
X10234468Y-14544698D01*
X10234468Y-14544698D02*
X10120182Y-14658984D01*
X10120182Y-14658984D02*
X10243991Y-14658984D01*
X10358277Y-14544698D02*
X10339229Y-14535174D01*
X10339229Y-14535174D02*
X10329706Y-14525650D01*
X10329706Y-14525650D02*
X10320182Y-14506603D01*
X10320182Y-14506603D02*
X10320182Y-14497079D01*
X10320182Y-14497079D02*
X10329706Y-14478031D01*
X10329706Y-14478031D02*
X10339229Y-14468508D01*
X10339229Y-14468508D02*
X10358277Y-14458984D01*
X10358277Y-14458984D02*
X10396372Y-14458984D01*
X10396372Y-14458984D02*
X10415420Y-14468508D01*
X10415420Y-14468508D02*
X10424944Y-14478031D01*
X10424944Y-14478031D02*
X10434468Y-14497079D01*
X10434468Y-14497079D02*
X10434468Y-14506603D01*
X10434468Y-14506603D02*
X10424944Y-14525650D01*
X10424944Y-14525650D02*
X10415420Y-14535174D01*
X10415420Y-14535174D02*
X10396372Y-14544698D01*
X10396372Y-14544698D02*
X10358277Y-14544698D01*
X10358277Y-14544698D02*
X10339229Y-14554222D01*
X10339229Y-14554222D02*
X10329706Y-14563746D01*
X10329706Y-14563746D02*
X10320182Y-14582793D01*
X10320182Y-14582793D02*
X10320182Y-14620888D01*
X10320182Y-14620888D02*
X10329706Y-14639936D01*
X10329706Y-14639936D02*
X10339229Y-14649460D01*
X10339229Y-14649460D02*
X10358277Y-14658984D01*
X10358277Y-14658984D02*
X10396372Y-14658984D01*
X10396372Y-14658984D02*
X10415420Y-14649460D01*
X10415420Y-14649460D02*
X10424944Y-14639936D01*
X10424944Y-14639936D02*
X10434468Y-14620888D01*
X10434468Y-14620888D02*
X10434468Y-14582793D01*
X10434468Y-14582793D02*
X10424944Y-14563746D01*
X10424944Y-14563746D02*
X10415420Y-14554222D01*
X10415420Y-14554222D02*
X10396372Y-14544698D01*
X10501134Y-14458984D02*
X10634468Y-14458984D01*
X10634468Y-14458984D02*
X10548753Y-14658984D01*
X10701134Y-14458984D02*
X10701134Y-14497079D01*
X10777325Y-14458984D02*
X10777325Y-14497079D01*
X11072563Y-14735174D02*
X11063039Y-14725650D01*
X11063039Y-14725650D02*
X11043991Y-14697079D01*
X11043991Y-14697079D02*
X11034468Y-14678031D01*
X11034468Y-14678031D02*
X11024944Y-14649460D01*
X11024944Y-14649460D02*
X11015420Y-14601841D01*
X11015420Y-14601841D02*
X11015420Y-14563746D01*
X11015420Y-14563746D02*
X11024944Y-14516127D01*
X11024944Y-14516127D02*
X11034468Y-14487555D01*
X11034468Y-14487555D02*
X11043991Y-14468508D01*
X11043991Y-14468508D02*
X11063039Y-14439936D01*
X11063039Y-14439936D02*
X11072563Y-14430412D01*
X11253515Y-14658984D02*
X11139230Y-14658984D01*
X11196372Y-14658984D02*
X11196372Y-14458984D01*
X11196372Y-14458984D02*
X11177325Y-14487555D01*
X11177325Y-14487555D02*
X11158277Y-14506603D01*
X11158277Y-14506603D02*
X11139230Y-14516127D01*
X11424944Y-14525650D02*
X11424944Y-14658984D01*
X11377325Y-14449460D02*
X11329706Y-14592317D01*
X11329706Y-14592317D02*
X11453515Y-14592317D01*
X11682087Y-14658984D02*
X11682087Y-14458984D01*
X11767801Y-14658984D02*
X11767801Y-14554222D01*
X11767801Y-14554222D02*
X11758277Y-14535174D01*
X11758277Y-14535174D02*
X11739230Y-14525650D01*
X11739230Y-14525650D02*
X11710658Y-14525650D01*
X11710658Y-14525650D02*
X11691610Y-14535174D01*
X11691610Y-14535174D02*
X11682087Y-14544698D01*
X11891610Y-14658984D02*
X11872563Y-14649460D01*
X11872563Y-14649460D02*
X11863039Y-14639936D01*
X11863039Y-14639936D02*
X11853515Y-14620888D01*
X11853515Y-14620888D02*
X11853515Y-14563746D01*
X11853515Y-14563746D02*
X11863039Y-14544698D01*
X11863039Y-14544698D02*
X11872563Y-14535174D01*
X11872563Y-14535174D02*
X11891610Y-14525650D01*
X11891610Y-14525650D02*
X11920182Y-14525650D01*
X11920182Y-14525650D02*
X11939230Y-14535174D01*
X11939230Y-14535174D02*
X11948753Y-14544698D01*
X11948753Y-14544698D02*
X11958277Y-14563746D01*
X11958277Y-14563746D02*
X11958277Y-14620888D01*
X11958277Y-14620888D02*
X11948753Y-14639936D01*
X11948753Y-14639936D02*
X11939230Y-14649460D01*
X11939230Y-14649460D02*
X11920182Y-14658984D01*
X11920182Y-14658984D02*
X11891610Y-14658984D01*
X12072563Y-14658984D02*
X12053515Y-14649460D01*
X12053515Y-14649460D02*
X12043991Y-14630412D01*
X12043991Y-14630412D02*
X12043991Y-14458984D01*
X12224944Y-14649460D02*
X12205896Y-14658984D01*
X12205896Y-14658984D02*
X12167801Y-14658984D01*
X12167801Y-14658984D02*
X12148753Y-14649460D01*
X12148753Y-14649460D02*
X12139230Y-14630412D01*
X12139230Y-14630412D02*
X12139230Y-14554222D01*
X12139230Y-14554222D02*
X12148753Y-14535174D01*
X12148753Y-14535174D02*
X12167801Y-14525650D01*
X12167801Y-14525650D02*
X12205896Y-14525650D01*
X12205896Y-14525650D02*
X12224944Y-14535174D01*
X12224944Y-14535174D02*
X12234468Y-14554222D01*
X12234468Y-14554222D02*
X12234468Y-14573269D01*
X12234468Y-14573269D02*
X12139230Y-14592317D01*
X12310658Y-14649460D02*
X12329706Y-14658984D01*
X12329706Y-14658984D02*
X12367801Y-14658984D01*
X12367801Y-14658984D02*
X12386849Y-14649460D01*
X12386849Y-14649460D02*
X12396372Y-14630412D01*
X12396372Y-14630412D02*
X12396372Y-14620888D01*
X12396372Y-14620888D02*
X12386849Y-14601841D01*
X12386849Y-14601841D02*
X12367801Y-14592317D01*
X12367801Y-14592317D02*
X12339230Y-14592317D01*
X12339230Y-14592317D02*
X12320182Y-14582793D01*
X12320182Y-14582793D02*
X12310658Y-14563746D01*
X12310658Y-14563746D02*
X12310658Y-14554222D01*
X12310658Y-14554222D02*
X12320182Y-14535174D01*
X12320182Y-14535174D02*
X12339230Y-14525650D01*
X12339230Y-14525650D02*
X12367801Y-14525650D01*
X12367801Y-14525650D02*
X12386849Y-14535174D01*
X12463039Y-14735174D02*
X12472563Y-14725650D01*
X12472563Y-14725650D02*
X12491611Y-14697079D01*
X12491611Y-14697079D02*
X12501134Y-14678031D01*
X12501134Y-14678031D02*
X12510658Y-14649460D01*
X12510658Y-14649460D02*
X12520182Y-14601841D01*
X12520182Y-14601841D02*
X12520182Y-14563746D01*
X12520182Y-14563746D02*
X12510658Y-14516127D01*
X12510658Y-14516127D02*
X12501134Y-14487555D01*
X12501134Y-14487555D02*
X12491611Y-14468508D01*
X12491611Y-14468508D02*
X12472563Y-14439936D01*
X12472563Y-14439936D02*
X12463039Y-14430412D01*
D12*
X7497500Y-14831500D02*
G75*
G02*
X7417500Y-14831500I-40000J0D01*
G01*
X7417500Y-14831500D02*
G75*
G02*
X7497500Y-14831500I40000J0D01*
G01*
D11*
X7796372Y-14722984D02*
X7815420Y-14722984D01*
X7815420Y-14722984D02*
X7834467Y-14732508D01*
X7834467Y-14732508D02*
X7843991Y-14742031D01*
X7843991Y-14742031D02*
X7853515Y-14761079D01*
X7853515Y-14761079D02*
X7863039Y-14799174D01*
X7863039Y-14799174D02*
X7863039Y-14846793D01*
X7863039Y-14846793D02*
X7853515Y-14884888D01*
X7853515Y-14884888D02*
X7843991Y-14903936D01*
X7843991Y-14903936D02*
X7834467Y-14913460D01*
X7834467Y-14913460D02*
X7815420Y-14922984D01*
X7815420Y-14922984D02*
X7796372Y-14922984D01*
X7796372Y-14922984D02*
X7777324Y-14913460D01*
X7777324Y-14913460D02*
X7767801Y-14903936D01*
X7767801Y-14903936D02*
X7758277Y-14884888D01*
X7758277Y-14884888D02*
X7748753Y-14846793D01*
X7748753Y-14846793D02*
X7748753Y-14799174D01*
X7748753Y-14799174D02*
X7758277Y-14761079D01*
X7758277Y-14761079D02*
X7767801Y-14742031D01*
X7767801Y-14742031D02*
X7777324Y-14732508D01*
X7777324Y-14732508D02*
X7796372Y-14722984D01*
X7948753Y-14903936D02*
X7958277Y-14913460D01*
X7958277Y-14913460D02*
X7948753Y-14922984D01*
X7948753Y-14922984D02*
X7939229Y-14913460D01*
X7939229Y-14913460D02*
X7948753Y-14903936D01*
X7948753Y-14903936D02*
X7948753Y-14922984D01*
X8072562Y-14808698D02*
X8053515Y-14799174D01*
X8053515Y-14799174D02*
X8043991Y-14789650D01*
X8043991Y-14789650D02*
X8034467Y-14770603D01*
X8034467Y-14770603D02*
X8034467Y-14761079D01*
X8034467Y-14761079D02*
X8043991Y-14742031D01*
X8043991Y-14742031D02*
X8053515Y-14732508D01*
X8053515Y-14732508D02*
X8072562Y-14722984D01*
X8072562Y-14722984D02*
X8110658Y-14722984D01*
X8110658Y-14722984D02*
X8129705Y-14732508D01*
X8129705Y-14732508D02*
X8139229Y-14742031D01*
X8139229Y-14742031D02*
X8148753Y-14761079D01*
X8148753Y-14761079D02*
X8148753Y-14770603D01*
X8148753Y-14770603D02*
X8139229Y-14789650D01*
X8139229Y-14789650D02*
X8129705Y-14799174D01*
X8129705Y-14799174D02*
X8110658Y-14808698D01*
X8110658Y-14808698D02*
X8072562Y-14808698D01*
X8072562Y-14808698D02*
X8053515Y-14818222D01*
X8053515Y-14818222D02*
X8043991Y-14827746D01*
X8043991Y-14827746D02*
X8034467Y-14846793D01*
X8034467Y-14846793D02*
X8034467Y-14884888D01*
X8034467Y-14884888D02*
X8043991Y-14903936D01*
X8043991Y-14903936D02*
X8053515Y-14913460D01*
X8053515Y-14913460D02*
X8072562Y-14922984D01*
X8072562Y-14922984D02*
X8110658Y-14922984D01*
X8110658Y-14922984D02*
X8129705Y-14913460D01*
X8129705Y-14913460D02*
X8139229Y-14903936D01*
X8139229Y-14903936D02*
X8148753Y-14884888D01*
X8148753Y-14884888D02*
X8148753Y-14846793D01*
X8148753Y-14846793D02*
X8139229Y-14827746D01*
X8139229Y-14827746D02*
X8129705Y-14818222D01*
X8129705Y-14818222D02*
X8110658Y-14808698D01*
X8272562Y-14722984D02*
X8291610Y-14722984D01*
X8291610Y-14722984D02*
X8310658Y-14732508D01*
X8310658Y-14732508D02*
X8320182Y-14742031D01*
X8320182Y-14742031D02*
X8329705Y-14761079D01*
X8329705Y-14761079D02*
X8339229Y-14799174D01*
X8339229Y-14799174D02*
X8339229Y-14846793D01*
X8339229Y-14846793D02*
X8329705Y-14884888D01*
X8329705Y-14884888D02*
X8320182Y-14903936D01*
X8320182Y-14903936D02*
X8310658Y-14913460D01*
X8310658Y-14913460D02*
X8291610Y-14922984D01*
X8291610Y-14922984D02*
X8272562Y-14922984D01*
X8272562Y-14922984D02*
X8253515Y-14913460D01*
X8253515Y-14913460D02*
X8243991Y-14903936D01*
X8243991Y-14903936D02*
X8234467Y-14884888D01*
X8234467Y-14884888D02*
X8224943Y-14846793D01*
X8224943Y-14846793D02*
X8224943Y-14799174D01*
X8224943Y-14799174D02*
X8234467Y-14761079D01*
X8234467Y-14761079D02*
X8243991Y-14742031D01*
X8243991Y-14742031D02*
X8253515Y-14732508D01*
X8253515Y-14732508D02*
X8272562Y-14722984D01*
X8463039Y-14722984D02*
X8482086Y-14722984D01*
X8482086Y-14722984D02*
X8501134Y-14732508D01*
X8501134Y-14732508D02*
X8510658Y-14742031D01*
X8510658Y-14742031D02*
X8520182Y-14761079D01*
X8520182Y-14761079D02*
X8529705Y-14799174D01*
X8529705Y-14799174D02*
X8529705Y-14846793D01*
X8529705Y-14846793D02*
X8520182Y-14884888D01*
X8520182Y-14884888D02*
X8510658Y-14903936D01*
X8510658Y-14903936D02*
X8501134Y-14913460D01*
X8501134Y-14913460D02*
X8482086Y-14922984D01*
X8482086Y-14922984D02*
X8463039Y-14922984D01*
X8463039Y-14922984D02*
X8443991Y-14913460D01*
X8443991Y-14913460D02*
X8434467Y-14903936D01*
X8434467Y-14903936D02*
X8424944Y-14884888D01*
X8424944Y-14884888D02*
X8415420Y-14846793D01*
X8415420Y-14846793D02*
X8415420Y-14799174D01*
X8415420Y-14799174D02*
X8424944Y-14761079D01*
X8424944Y-14761079D02*
X8434467Y-14742031D01*
X8434467Y-14742031D02*
X8443991Y-14732508D01*
X8443991Y-14732508D02*
X8463039Y-14722984D01*
X8615420Y-14922984D02*
X8615420Y-14789650D01*
X8615420Y-14808698D02*
X8624944Y-14799174D01*
X8624944Y-14799174D02*
X8643991Y-14789650D01*
X8643991Y-14789650D02*
X8672563Y-14789650D01*
X8672563Y-14789650D02*
X8691610Y-14799174D01*
X8691610Y-14799174D02*
X8701134Y-14818222D01*
X8701134Y-14818222D02*
X8701134Y-14922984D01*
X8701134Y-14818222D02*
X8710658Y-14799174D01*
X8710658Y-14799174D02*
X8729705Y-14789650D01*
X8729705Y-14789650D02*
X8758277Y-14789650D01*
X8758277Y-14789650D02*
X8777325Y-14799174D01*
X8777325Y-14799174D02*
X8786848Y-14818222D01*
X8786848Y-14818222D02*
X8786848Y-14922984D01*
X8882086Y-14922984D02*
X8882086Y-14789650D01*
X8882086Y-14808698D02*
X8891610Y-14799174D01*
X8891610Y-14799174D02*
X8910658Y-14789650D01*
X8910658Y-14789650D02*
X8939229Y-14789650D01*
X8939229Y-14789650D02*
X8958277Y-14799174D01*
X8958277Y-14799174D02*
X8967801Y-14818222D01*
X8967801Y-14818222D02*
X8967801Y-14922984D01*
X8967801Y-14818222D02*
X8977325Y-14799174D01*
X8977325Y-14799174D02*
X8996372Y-14789650D01*
X8996372Y-14789650D02*
X9024944Y-14789650D01*
X9024944Y-14789650D02*
X9043991Y-14799174D01*
X9043991Y-14799174D02*
X9053515Y-14818222D01*
X9053515Y-14818222D02*
X9053515Y-14922984D01*
X9443991Y-14713460D02*
X9272563Y-14970603D01*
X9701134Y-14722984D02*
X9720182Y-14722984D01*
X9720182Y-14722984D02*
X9739229Y-14732508D01*
X9739229Y-14732508D02*
X9748753Y-14742031D01*
X9748753Y-14742031D02*
X9758277Y-14761079D01*
X9758277Y-14761079D02*
X9767801Y-14799174D01*
X9767801Y-14799174D02*
X9767801Y-14846793D01*
X9767801Y-14846793D02*
X9758277Y-14884888D01*
X9758277Y-14884888D02*
X9748753Y-14903936D01*
X9748753Y-14903936D02*
X9739229Y-14913460D01*
X9739229Y-14913460D02*
X9720182Y-14922984D01*
X9720182Y-14922984D02*
X9701134Y-14922984D01*
X9701134Y-14922984D02*
X9682087Y-14913460D01*
X9682087Y-14913460D02*
X9672563Y-14903936D01*
X9672563Y-14903936D02*
X9663039Y-14884888D01*
X9663039Y-14884888D02*
X9653515Y-14846793D01*
X9653515Y-14846793D02*
X9653515Y-14799174D01*
X9653515Y-14799174D02*
X9663039Y-14761079D01*
X9663039Y-14761079D02*
X9672563Y-14742031D01*
X9672563Y-14742031D02*
X9682087Y-14732508D01*
X9682087Y-14732508D02*
X9701134Y-14722984D01*
X9853515Y-14903936D02*
X9863039Y-14913460D01*
X9863039Y-14913460D02*
X9853515Y-14922984D01*
X9853515Y-14922984D02*
X9843991Y-14913460D01*
X9843991Y-14913460D02*
X9853515Y-14903936D01*
X9853515Y-14903936D02*
X9853515Y-14922984D01*
X9986848Y-14722984D02*
X10005896Y-14722984D01*
X10005896Y-14722984D02*
X10024944Y-14732508D01*
X10024944Y-14732508D02*
X10034468Y-14742031D01*
X10034468Y-14742031D02*
X10043991Y-14761079D01*
X10043991Y-14761079D02*
X10053515Y-14799174D01*
X10053515Y-14799174D02*
X10053515Y-14846793D01*
X10053515Y-14846793D02*
X10043991Y-14884888D01*
X10043991Y-14884888D02*
X10034468Y-14903936D01*
X10034468Y-14903936D02*
X10024944Y-14913460D01*
X10024944Y-14913460D02*
X10005896Y-14922984D01*
X10005896Y-14922984D02*
X9986848Y-14922984D01*
X9986848Y-14922984D02*
X9967801Y-14913460D01*
X9967801Y-14913460D02*
X9958277Y-14903936D01*
X9958277Y-14903936D02*
X9948753Y-14884888D01*
X9948753Y-14884888D02*
X9939229Y-14846793D01*
X9939229Y-14846793D02*
X9939229Y-14799174D01*
X9939229Y-14799174D02*
X9948753Y-14761079D01*
X9948753Y-14761079D02*
X9958277Y-14742031D01*
X9958277Y-14742031D02*
X9967801Y-14732508D01*
X9967801Y-14732508D02*
X9986848Y-14722984D01*
X10120182Y-14722984D02*
X10243991Y-14722984D01*
X10243991Y-14722984D02*
X10177325Y-14799174D01*
X10177325Y-14799174D02*
X10205896Y-14799174D01*
X10205896Y-14799174D02*
X10224944Y-14808698D01*
X10224944Y-14808698D02*
X10234468Y-14818222D01*
X10234468Y-14818222D02*
X10243991Y-14837269D01*
X10243991Y-14837269D02*
X10243991Y-14884888D01*
X10243991Y-14884888D02*
X10234468Y-14903936D01*
X10234468Y-14903936D02*
X10224944Y-14913460D01*
X10224944Y-14913460D02*
X10205896Y-14922984D01*
X10205896Y-14922984D02*
X10148753Y-14922984D01*
X10148753Y-14922984D02*
X10129706Y-14913460D01*
X10129706Y-14913460D02*
X10120182Y-14903936D01*
X10434468Y-14922984D02*
X10320182Y-14922984D01*
X10377325Y-14922984D02*
X10377325Y-14722984D01*
X10377325Y-14722984D02*
X10358277Y-14751555D01*
X10358277Y-14751555D02*
X10339229Y-14770603D01*
X10339229Y-14770603D02*
X10320182Y-14780127D01*
X10615420Y-14722984D02*
X10520182Y-14722984D01*
X10520182Y-14722984D02*
X10510658Y-14818222D01*
X10510658Y-14818222D02*
X10520182Y-14808698D01*
X10520182Y-14808698D02*
X10539229Y-14799174D01*
X10539229Y-14799174D02*
X10586849Y-14799174D01*
X10586849Y-14799174D02*
X10605896Y-14808698D01*
X10605896Y-14808698D02*
X10615420Y-14818222D01*
X10615420Y-14818222D02*
X10624944Y-14837269D01*
X10624944Y-14837269D02*
X10624944Y-14884888D01*
X10624944Y-14884888D02*
X10615420Y-14903936D01*
X10615420Y-14903936D02*
X10605896Y-14913460D01*
X10605896Y-14913460D02*
X10586849Y-14922984D01*
X10586849Y-14922984D02*
X10539229Y-14922984D01*
X10539229Y-14922984D02*
X10520182Y-14913460D01*
X10520182Y-14913460D02*
X10510658Y-14903936D01*
X10701134Y-14722984D02*
X10701134Y-14761079D01*
X10777325Y-14722984D02*
X10777325Y-14761079D01*
X11072563Y-14999174D02*
X11063039Y-14989650D01*
X11063039Y-14989650D02*
X11043991Y-14961079D01*
X11043991Y-14961079D02*
X11034468Y-14942031D01*
X11034468Y-14942031D02*
X11024944Y-14913460D01*
X11024944Y-14913460D02*
X11015420Y-14865841D01*
X11015420Y-14865841D02*
X11015420Y-14827746D01*
X11015420Y-14827746D02*
X11024944Y-14780127D01*
X11024944Y-14780127D02*
X11034468Y-14751555D01*
X11034468Y-14751555D02*
X11043991Y-14732508D01*
X11043991Y-14732508D02*
X11063039Y-14703936D01*
X11063039Y-14703936D02*
X11072563Y-14694412D01*
X11177325Y-14808698D02*
X11158277Y-14799174D01*
X11158277Y-14799174D02*
X11148753Y-14789650D01*
X11148753Y-14789650D02*
X11139230Y-14770603D01*
X11139230Y-14770603D02*
X11139230Y-14761079D01*
X11139230Y-14761079D02*
X11148753Y-14742031D01*
X11148753Y-14742031D02*
X11158277Y-14732508D01*
X11158277Y-14732508D02*
X11177325Y-14722984D01*
X11177325Y-14722984D02*
X11215420Y-14722984D01*
X11215420Y-14722984D02*
X11234468Y-14732508D01*
X11234468Y-14732508D02*
X11243991Y-14742031D01*
X11243991Y-14742031D02*
X11253515Y-14761079D01*
X11253515Y-14761079D02*
X11253515Y-14770603D01*
X11253515Y-14770603D02*
X11243991Y-14789650D01*
X11243991Y-14789650D02*
X11234468Y-14799174D01*
X11234468Y-14799174D02*
X11215420Y-14808698D01*
X11215420Y-14808698D02*
X11177325Y-14808698D01*
X11177325Y-14808698D02*
X11158277Y-14818222D01*
X11158277Y-14818222D02*
X11148753Y-14827746D01*
X11148753Y-14827746D02*
X11139230Y-14846793D01*
X11139230Y-14846793D02*
X11139230Y-14884888D01*
X11139230Y-14884888D02*
X11148753Y-14903936D01*
X11148753Y-14903936D02*
X11158277Y-14913460D01*
X11158277Y-14913460D02*
X11177325Y-14922984D01*
X11177325Y-14922984D02*
X11215420Y-14922984D01*
X11215420Y-14922984D02*
X11234468Y-14913460D01*
X11234468Y-14913460D02*
X11243991Y-14903936D01*
X11243991Y-14903936D02*
X11253515Y-14884888D01*
X11253515Y-14884888D02*
X11253515Y-14846793D01*
X11253515Y-14846793D02*
X11243991Y-14827746D01*
X11243991Y-14827746D02*
X11234468Y-14818222D01*
X11234468Y-14818222D02*
X11215420Y-14808698D01*
X11424944Y-14789650D02*
X11424944Y-14922984D01*
X11377325Y-14713460D02*
X11329706Y-14856317D01*
X11329706Y-14856317D02*
X11453515Y-14856317D01*
X11682087Y-14922984D02*
X11682087Y-14722984D01*
X11767801Y-14922984D02*
X11767801Y-14818222D01*
X11767801Y-14818222D02*
X11758277Y-14799174D01*
X11758277Y-14799174D02*
X11739230Y-14789650D01*
X11739230Y-14789650D02*
X11710658Y-14789650D01*
X11710658Y-14789650D02*
X11691610Y-14799174D01*
X11691610Y-14799174D02*
X11682087Y-14808698D01*
X11891610Y-14922984D02*
X11872563Y-14913460D01*
X11872563Y-14913460D02*
X11863039Y-14903936D01*
X11863039Y-14903936D02*
X11853515Y-14884888D01*
X11853515Y-14884888D02*
X11853515Y-14827746D01*
X11853515Y-14827746D02*
X11863039Y-14808698D01*
X11863039Y-14808698D02*
X11872563Y-14799174D01*
X11872563Y-14799174D02*
X11891610Y-14789650D01*
X11891610Y-14789650D02*
X11920182Y-14789650D01*
X11920182Y-14789650D02*
X11939230Y-14799174D01*
X11939230Y-14799174D02*
X11948753Y-14808698D01*
X11948753Y-14808698D02*
X11958277Y-14827746D01*
X11958277Y-14827746D02*
X11958277Y-14884888D01*
X11958277Y-14884888D02*
X11948753Y-14903936D01*
X11948753Y-14903936D02*
X11939230Y-14913460D01*
X11939230Y-14913460D02*
X11920182Y-14922984D01*
X11920182Y-14922984D02*
X11891610Y-14922984D01*
X12072563Y-14922984D02*
X12053515Y-14913460D01*
X12053515Y-14913460D02*
X12043991Y-14894412D01*
X12043991Y-14894412D02*
X12043991Y-14722984D01*
X12224944Y-14913460D02*
X12205896Y-14922984D01*
X12205896Y-14922984D02*
X12167801Y-14922984D01*
X12167801Y-14922984D02*
X12148753Y-14913460D01*
X12148753Y-14913460D02*
X12139230Y-14894412D01*
X12139230Y-14894412D02*
X12139230Y-14818222D01*
X12139230Y-14818222D02*
X12148753Y-14799174D01*
X12148753Y-14799174D02*
X12167801Y-14789650D01*
X12167801Y-14789650D02*
X12205896Y-14789650D01*
X12205896Y-14789650D02*
X12224944Y-14799174D01*
X12224944Y-14799174D02*
X12234468Y-14818222D01*
X12234468Y-14818222D02*
X12234468Y-14837269D01*
X12234468Y-14837269D02*
X12139230Y-14856317D01*
X12310658Y-14913460D02*
X12329706Y-14922984D01*
X12329706Y-14922984D02*
X12367801Y-14922984D01*
X12367801Y-14922984D02*
X12386849Y-14913460D01*
X12386849Y-14913460D02*
X12396372Y-14894412D01*
X12396372Y-14894412D02*
X12396372Y-14884888D01*
X12396372Y-14884888D02*
X12386849Y-14865841D01*
X12386849Y-14865841D02*
X12367801Y-14856317D01*
X12367801Y-14856317D02*
X12339230Y-14856317D01*
X12339230Y-14856317D02*
X12320182Y-14846793D01*
X12320182Y-14846793D02*
X12310658Y-14827746D01*
X12310658Y-14827746D02*
X12310658Y-14818222D01*
X12310658Y-14818222D02*
X12320182Y-14799174D01*
X12320182Y-14799174D02*
X12339230Y-14789650D01*
X12339230Y-14789650D02*
X12367801Y-14789650D01*
X12367801Y-14789650D02*
X12386849Y-14799174D01*
X12463039Y-14999174D02*
X12472563Y-14989650D01*
X12472563Y-14989650D02*
X12491611Y-14961079D01*
X12491611Y-14961079D02*
X12501134Y-14942031D01*
X12501134Y-14942031D02*
X12510658Y-14913460D01*
X12510658Y-14913460D02*
X12520182Y-14865841D01*
X12520182Y-14865841D02*
X12520182Y-14827746D01*
X12520182Y-14827746D02*
X12510658Y-14780127D01*
X12510658Y-14780127D02*
X12501134Y-14751555D01*
X12501134Y-14751555D02*
X12491611Y-14732508D01*
X12491611Y-14732508D02*
X12472563Y-14703936D01*
X12472563Y-14703936D02*
X12463039Y-14694412D01*
D12*
X7447500Y-15045500D02*
X7447500Y-15145500D01*
X7397500Y-15095500D02*
X7497500Y-15095500D01*
D11*
X7863039Y-15186984D02*
X7748753Y-15186984D01*
X7805896Y-15186984D02*
X7805896Y-14986984D01*
X7805896Y-14986984D02*
X7786848Y-15015555D01*
X7786848Y-15015555D02*
X7767801Y-15034603D01*
X7767801Y-15034603D02*
X7748753Y-15044127D01*
X7948753Y-15167936D02*
X7958277Y-15177460D01*
X7958277Y-15177460D02*
X7948753Y-15186984D01*
X7948753Y-15186984D02*
X7939229Y-15177460D01*
X7939229Y-15177460D02*
X7948753Y-15167936D01*
X7948753Y-15167936D02*
X7948753Y-15186984D01*
X8082086Y-14986984D02*
X8101134Y-14986984D01*
X8101134Y-14986984D02*
X8120182Y-14996508D01*
X8120182Y-14996508D02*
X8129705Y-15006031D01*
X8129705Y-15006031D02*
X8139229Y-15025079D01*
X8139229Y-15025079D02*
X8148753Y-15063174D01*
X8148753Y-15063174D02*
X8148753Y-15110793D01*
X8148753Y-15110793D02*
X8139229Y-15148888D01*
X8139229Y-15148888D02*
X8129705Y-15167936D01*
X8129705Y-15167936D02*
X8120182Y-15177460D01*
X8120182Y-15177460D02*
X8101134Y-15186984D01*
X8101134Y-15186984D02*
X8082086Y-15186984D01*
X8082086Y-15186984D02*
X8063039Y-15177460D01*
X8063039Y-15177460D02*
X8053515Y-15167936D01*
X8053515Y-15167936D02*
X8043991Y-15148888D01*
X8043991Y-15148888D02*
X8034467Y-15110793D01*
X8034467Y-15110793D02*
X8034467Y-15063174D01*
X8034467Y-15063174D02*
X8043991Y-15025079D01*
X8043991Y-15025079D02*
X8053515Y-15006031D01*
X8053515Y-15006031D02*
X8063039Y-14996508D01*
X8063039Y-14996508D02*
X8082086Y-14986984D01*
X8272562Y-14986984D02*
X8291610Y-14986984D01*
X8291610Y-14986984D02*
X8310658Y-14996508D01*
X8310658Y-14996508D02*
X8320182Y-15006031D01*
X8320182Y-15006031D02*
X8329705Y-15025079D01*
X8329705Y-15025079D02*
X8339229Y-15063174D01*
X8339229Y-15063174D02*
X8339229Y-15110793D01*
X8339229Y-15110793D02*
X8329705Y-15148888D01*
X8329705Y-15148888D02*
X8320182Y-15167936D01*
X8320182Y-15167936D02*
X8310658Y-15177460D01*
X8310658Y-15177460D02*
X8291610Y-15186984D01*
X8291610Y-15186984D02*
X8272562Y-15186984D01*
X8272562Y-15186984D02*
X8253515Y-15177460D01*
X8253515Y-15177460D02*
X8243991Y-15167936D01*
X8243991Y-15167936D02*
X8234467Y-15148888D01*
X8234467Y-15148888D02*
X8224943Y-15110793D01*
X8224943Y-15110793D02*
X8224943Y-15063174D01*
X8224943Y-15063174D02*
X8234467Y-15025079D01*
X8234467Y-15025079D02*
X8243991Y-15006031D01*
X8243991Y-15006031D02*
X8253515Y-14996508D01*
X8253515Y-14996508D02*
X8272562Y-14986984D01*
X8463039Y-14986984D02*
X8482086Y-14986984D01*
X8482086Y-14986984D02*
X8501134Y-14996508D01*
X8501134Y-14996508D02*
X8510658Y-15006031D01*
X8510658Y-15006031D02*
X8520182Y-15025079D01*
X8520182Y-15025079D02*
X8529705Y-15063174D01*
X8529705Y-15063174D02*
X8529705Y-15110793D01*
X8529705Y-15110793D02*
X8520182Y-15148888D01*
X8520182Y-15148888D02*
X8510658Y-15167936D01*
X8510658Y-15167936D02*
X8501134Y-15177460D01*
X8501134Y-15177460D02*
X8482086Y-15186984D01*
X8482086Y-15186984D02*
X8463039Y-15186984D01*
X8463039Y-15186984D02*
X8443991Y-15177460D01*
X8443991Y-15177460D02*
X8434467Y-15167936D01*
X8434467Y-15167936D02*
X8424944Y-15148888D01*
X8424944Y-15148888D02*
X8415420Y-15110793D01*
X8415420Y-15110793D02*
X8415420Y-15063174D01*
X8415420Y-15063174D02*
X8424944Y-15025079D01*
X8424944Y-15025079D02*
X8434467Y-15006031D01*
X8434467Y-15006031D02*
X8443991Y-14996508D01*
X8443991Y-14996508D02*
X8463039Y-14986984D01*
X8615420Y-15186984D02*
X8615420Y-15053650D01*
X8615420Y-15072698D02*
X8624944Y-15063174D01*
X8624944Y-15063174D02*
X8643991Y-15053650D01*
X8643991Y-15053650D02*
X8672563Y-15053650D01*
X8672563Y-15053650D02*
X8691610Y-15063174D01*
X8691610Y-15063174D02*
X8701134Y-15082222D01*
X8701134Y-15082222D02*
X8701134Y-15186984D01*
X8701134Y-15082222D02*
X8710658Y-15063174D01*
X8710658Y-15063174D02*
X8729705Y-15053650D01*
X8729705Y-15053650D02*
X8758277Y-15053650D01*
X8758277Y-15053650D02*
X8777325Y-15063174D01*
X8777325Y-15063174D02*
X8786848Y-15082222D01*
X8786848Y-15082222D02*
X8786848Y-15186984D01*
X8882086Y-15186984D02*
X8882086Y-15053650D01*
X8882086Y-15072698D02*
X8891610Y-15063174D01*
X8891610Y-15063174D02*
X8910658Y-15053650D01*
X8910658Y-15053650D02*
X8939229Y-15053650D01*
X8939229Y-15053650D02*
X8958277Y-15063174D01*
X8958277Y-15063174D02*
X8967801Y-15082222D01*
X8967801Y-15082222D02*
X8967801Y-15186984D01*
X8967801Y-15082222D02*
X8977325Y-15063174D01*
X8977325Y-15063174D02*
X8996372Y-15053650D01*
X8996372Y-15053650D02*
X9024944Y-15053650D01*
X9024944Y-15053650D02*
X9043991Y-15063174D01*
X9043991Y-15063174D02*
X9053515Y-15082222D01*
X9053515Y-15082222D02*
X9053515Y-15186984D01*
X9443991Y-14977460D02*
X9272563Y-15234603D01*
X9701134Y-14986984D02*
X9720182Y-14986984D01*
X9720182Y-14986984D02*
X9739229Y-14996508D01*
X9739229Y-14996508D02*
X9748753Y-15006031D01*
X9748753Y-15006031D02*
X9758277Y-15025079D01*
X9758277Y-15025079D02*
X9767801Y-15063174D01*
X9767801Y-15063174D02*
X9767801Y-15110793D01*
X9767801Y-15110793D02*
X9758277Y-15148888D01*
X9758277Y-15148888D02*
X9748753Y-15167936D01*
X9748753Y-15167936D02*
X9739229Y-15177460D01*
X9739229Y-15177460D02*
X9720182Y-15186984D01*
X9720182Y-15186984D02*
X9701134Y-15186984D01*
X9701134Y-15186984D02*
X9682087Y-15177460D01*
X9682087Y-15177460D02*
X9672563Y-15167936D01*
X9672563Y-15167936D02*
X9663039Y-15148888D01*
X9663039Y-15148888D02*
X9653515Y-15110793D01*
X9653515Y-15110793D02*
X9653515Y-15063174D01*
X9653515Y-15063174D02*
X9663039Y-15025079D01*
X9663039Y-15025079D02*
X9672563Y-15006031D01*
X9672563Y-15006031D02*
X9682087Y-14996508D01*
X9682087Y-14996508D02*
X9701134Y-14986984D01*
X9853515Y-15167936D02*
X9863039Y-15177460D01*
X9863039Y-15177460D02*
X9853515Y-15186984D01*
X9853515Y-15186984D02*
X9843991Y-15177460D01*
X9843991Y-15177460D02*
X9853515Y-15167936D01*
X9853515Y-15167936D02*
X9853515Y-15186984D01*
X9986848Y-14986984D02*
X10005896Y-14986984D01*
X10005896Y-14986984D02*
X10024944Y-14996508D01*
X10024944Y-14996508D02*
X10034468Y-15006031D01*
X10034468Y-15006031D02*
X10043991Y-15025079D01*
X10043991Y-15025079D02*
X10053515Y-15063174D01*
X10053515Y-15063174D02*
X10053515Y-15110793D01*
X10053515Y-15110793D02*
X10043991Y-15148888D01*
X10043991Y-15148888D02*
X10034468Y-15167936D01*
X10034468Y-15167936D02*
X10024944Y-15177460D01*
X10024944Y-15177460D02*
X10005896Y-15186984D01*
X10005896Y-15186984D02*
X9986848Y-15186984D01*
X9986848Y-15186984D02*
X9967801Y-15177460D01*
X9967801Y-15177460D02*
X9958277Y-15167936D01*
X9958277Y-15167936D02*
X9948753Y-15148888D01*
X9948753Y-15148888D02*
X9939229Y-15110793D01*
X9939229Y-15110793D02*
X9939229Y-15063174D01*
X9939229Y-15063174D02*
X9948753Y-15025079D01*
X9948753Y-15025079D02*
X9958277Y-15006031D01*
X9958277Y-15006031D02*
X9967801Y-14996508D01*
X9967801Y-14996508D02*
X9986848Y-14986984D01*
X10120182Y-14986984D02*
X10243991Y-14986984D01*
X10243991Y-14986984D02*
X10177325Y-15063174D01*
X10177325Y-15063174D02*
X10205896Y-15063174D01*
X10205896Y-15063174D02*
X10224944Y-15072698D01*
X10224944Y-15072698D02*
X10234468Y-15082222D01*
X10234468Y-15082222D02*
X10243991Y-15101269D01*
X10243991Y-15101269D02*
X10243991Y-15148888D01*
X10243991Y-15148888D02*
X10234468Y-15167936D01*
X10234468Y-15167936D02*
X10224944Y-15177460D01*
X10224944Y-15177460D02*
X10205896Y-15186984D01*
X10205896Y-15186984D02*
X10148753Y-15186984D01*
X10148753Y-15186984D02*
X10129706Y-15177460D01*
X10129706Y-15177460D02*
X10120182Y-15167936D01*
X10339229Y-15186984D02*
X10377325Y-15186984D01*
X10377325Y-15186984D02*
X10396372Y-15177460D01*
X10396372Y-15177460D02*
X10405896Y-15167936D01*
X10405896Y-15167936D02*
X10424944Y-15139365D01*
X10424944Y-15139365D02*
X10434468Y-15101269D01*
X10434468Y-15101269D02*
X10434468Y-15025079D01*
X10434468Y-15025079D02*
X10424944Y-15006031D01*
X10424944Y-15006031D02*
X10415420Y-14996508D01*
X10415420Y-14996508D02*
X10396372Y-14986984D01*
X10396372Y-14986984D02*
X10358277Y-14986984D01*
X10358277Y-14986984D02*
X10339229Y-14996508D01*
X10339229Y-14996508D02*
X10329706Y-15006031D01*
X10329706Y-15006031D02*
X10320182Y-15025079D01*
X10320182Y-15025079D02*
X10320182Y-15072698D01*
X10320182Y-15072698D02*
X10329706Y-15091746D01*
X10329706Y-15091746D02*
X10339229Y-15101269D01*
X10339229Y-15101269D02*
X10358277Y-15110793D01*
X10358277Y-15110793D02*
X10396372Y-15110793D01*
X10396372Y-15110793D02*
X10415420Y-15101269D01*
X10415420Y-15101269D02*
X10424944Y-15091746D01*
X10424944Y-15091746D02*
X10434468Y-15072698D01*
X10605896Y-15053650D02*
X10605896Y-15186984D01*
X10558277Y-14977460D02*
X10510658Y-15120317D01*
X10510658Y-15120317D02*
X10634468Y-15120317D01*
X10701134Y-14986984D02*
X10701134Y-15025079D01*
X10777325Y-14986984D02*
X10777325Y-15025079D01*
X11072563Y-15263174D02*
X11063039Y-15253650D01*
X11063039Y-15253650D02*
X11043991Y-15225079D01*
X11043991Y-15225079D02*
X11034468Y-15206031D01*
X11034468Y-15206031D02*
X11024944Y-15177460D01*
X11024944Y-15177460D02*
X11015420Y-15129841D01*
X11015420Y-15129841D02*
X11015420Y-15091746D01*
X11015420Y-15091746D02*
X11024944Y-15044127D01*
X11024944Y-15044127D02*
X11034468Y-15015555D01*
X11034468Y-15015555D02*
X11043991Y-14996508D01*
X11043991Y-14996508D02*
X11063039Y-14967936D01*
X11063039Y-14967936D02*
X11072563Y-14958412D01*
X11234468Y-15053650D02*
X11234468Y-15186984D01*
X11186848Y-14977460D02*
X11139230Y-15120317D01*
X11139230Y-15120317D02*
X11263039Y-15120317D01*
X11377325Y-14986984D02*
X11396372Y-14986984D01*
X11396372Y-14986984D02*
X11415420Y-14996508D01*
X11415420Y-14996508D02*
X11424944Y-15006031D01*
X11424944Y-15006031D02*
X11434468Y-15025079D01*
X11434468Y-15025079D02*
X11443991Y-15063174D01*
X11443991Y-15063174D02*
X11443991Y-15110793D01*
X11443991Y-15110793D02*
X11434468Y-15148888D01*
X11434468Y-15148888D02*
X11424944Y-15167936D01*
X11424944Y-15167936D02*
X11415420Y-15177460D01*
X11415420Y-15177460D02*
X11396372Y-15186984D01*
X11396372Y-15186984D02*
X11377325Y-15186984D01*
X11377325Y-15186984D02*
X11358277Y-15177460D01*
X11358277Y-15177460D02*
X11348753Y-15167936D01*
X11348753Y-15167936D02*
X11339229Y-15148888D01*
X11339229Y-15148888D02*
X11329706Y-15110793D01*
X11329706Y-15110793D02*
X11329706Y-15063174D01*
X11329706Y-15063174D02*
X11339229Y-15025079D01*
X11339229Y-15025079D02*
X11348753Y-15006031D01*
X11348753Y-15006031D02*
X11358277Y-14996508D01*
X11358277Y-14996508D02*
X11377325Y-14986984D01*
X11682087Y-15186984D02*
X11682087Y-14986984D01*
X11767801Y-15186984D02*
X11767801Y-15082222D01*
X11767801Y-15082222D02*
X11758277Y-15063174D01*
X11758277Y-15063174D02*
X11739230Y-15053650D01*
X11739230Y-15053650D02*
X11710658Y-15053650D01*
X11710658Y-15053650D02*
X11691610Y-15063174D01*
X11691610Y-15063174D02*
X11682087Y-15072698D01*
X11891610Y-15186984D02*
X11872563Y-15177460D01*
X11872563Y-15177460D02*
X11863039Y-15167936D01*
X11863039Y-15167936D02*
X11853515Y-15148888D01*
X11853515Y-15148888D02*
X11853515Y-15091746D01*
X11853515Y-15091746D02*
X11863039Y-15072698D01*
X11863039Y-15072698D02*
X11872563Y-15063174D01*
X11872563Y-15063174D02*
X11891610Y-15053650D01*
X11891610Y-15053650D02*
X11920182Y-15053650D01*
X11920182Y-15053650D02*
X11939230Y-15063174D01*
X11939230Y-15063174D02*
X11948753Y-15072698D01*
X11948753Y-15072698D02*
X11958277Y-15091746D01*
X11958277Y-15091746D02*
X11958277Y-15148888D01*
X11958277Y-15148888D02*
X11948753Y-15167936D01*
X11948753Y-15167936D02*
X11939230Y-15177460D01*
X11939230Y-15177460D02*
X11920182Y-15186984D01*
X11920182Y-15186984D02*
X11891610Y-15186984D01*
X12072563Y-15186984D02*
X12053515Y-15177460D01*
X12053515Y-15177460D02*
X12043991Y-15158412D01*
X12043991Y-15158412D02*
X12043991Y-14986984D01*
X12224944Y-15177460D02*
X12205896Y-15186984D01*
X12205896Y-15186984D02*
X12167801Y-15186984D01*
X12167801Y-15186984D02*
X12148753Y-15177460D01*
X12148753Y-15177460D02*
X12139230Y-15158412D01*
X12139230Y-15158412D02*
X12139230Y-15082222D01*
X12139230Y-15082222D02*
X12148753Y-15063174D01*
X12148753Y-15063174D02*
X12167801Y-15053650D01*
X12167801Y-15053650D02*
X12205896Y-15053650D01*
X12205896Y-15053650D02*
X12224944Y-15063174D01*
X12224944Y-15063174D02*
X12234468Y-15082222D01*
X12234468Y-15082222D02*
X12234468Y-15101269D01*
X12234468Y-15101269D02*
X12139230Y-15120317D01*
X12310658Y-15177460D02*
X12329706Y-15186984D01*
X12329706Y-15186984D02*
X12367801Y-15186984D01*
X12367801Y-15186984D02*
X12386849Y-15177460D01*
X12386849Y-15177460D02*
X12396372Y-15158412D01*
X12396372Y-15158412D02*
X12396372Y-15148888D01*
X12396372Y-15148888D02*
X12386849Y-15129841D01*
X12386849Y-15129841D02*
X12367801Y-15120317D01*
X12367801Y-15120317D02*
X12339230Y-15120317D01*
X12339230Y-15120317D02*
X12320182Y-15110793D01*
X12320182Y-15110793D02*
X12310658Y-15091746D01*
X12310658Y-15091746D02*
X12310658Y-15082222D01*
X12310658Y-15082222D02*
X12320182Y-15063174D01*
X12320182Y-15063174D02*
X12339230Y-15053650D01*
X12339230Y-15053650D02*
X12367801Y-15053650D01*
X12367801Y-15053650D02*
X12386849Y-15063174D01*
X12463039Y-15263174D02*
X12472563Y-15253650D01*
X12472563Y-15253650D02*
X12491611Y-15225079D01*
X12491611Y-15225079D02*
X12501134Y-15206031D01*
X12501134Y-15206031D02*
X12510658Y-15177460D01*
X12510658Y-15177460D02*
X12520182Y-15129841D01*
X12520182Y-15129841D02*
X12520182Y-15091746D01*
X12520182Y-15091746D02*
X12510658Y-15044127D01*
X12510658Y-15044127D02*
X12501134Y-15015555D01*
X12501134Y-15015555D02*
X12491611Y-14996508D01*
X12491611Y-14996508D02*
X12472563Y-14967936D01*
X12472563Y-14967936D02*
X12463039Y-14958412D01*
D13*
X7479927Y-15401927D02*
X7479927Y-15317073D01*
X7395073Y-15317073D01*
X7395073Y-15401927D01*
X7479927Y-15401927D01*
D11*
X7863039Y-15450984D02*
X7748753Y-15450984D01*
X7805896Y-15450984D02*
X7805896Y-15250984D01*
X7805896Y-15250984D02*
X7786848Y-15279555D01*
X7786848Y-15279555D02*
X7767801Y-15298603D01*
X7767801Y-15298603D02*
X7748753Y-15308127D01*
X7948753Y-15431936D02*
X7958277Y-15441460D01*
X7958277Y-15441460D02*
X7948753Y-15450984D01*
X7948753Y-15450984D02*
X7939229Y-15441460D01*
X7939229Y-15441460D02*
X7948753Y-15431936D01*
X7948753Y-15431936D02*
X7948753Y-15450984D01*
X8034467Y-15270031D02*
X8043991Y-15260508D01*
X8043991Y-15260508D02*
X8063039Y-15250984D01*
X8063039Y-15250984D02*
X8110658Y-15250984D01*
X8110658Y-15250984D02*
X8129705Y-15260508D01*
X8129705Y-15260508D02*
X8139229Y-15270031D01*
X8139229Y-15270031D02*
X8148753Y-15289079D01*
X8148753Y-15289079D02*
X8148753Y-15308127D01*
X8148753Y-15308127D02*
X8139229Y-15336698D01*
X8139229Y-15336698D02*
X8024943Y-15450984D01*
X8024943Y-15450984D02*
X8148753Y-15450984D01*
X8272562Y-15250984D02*
X8291610Y-15250984D01*
X8291610Y-15250984D02*
X8310658Y-15260508D01*
X8310658Y-15260508D02*
X8320182Y-15270031D01*
X8320182Y-15270031D02*
X8329705Y-15289079D01*
X8329705Y-15289079D02*
X8339229Y-15327174D01*
X8339229Y-15327174D02*
X8339229Y-15374793D01*
X8339229Y-15374793D02*
X8329705Y-15412888D01*
X8329705Y-15412888D02*
X8320182Y-15431936D01*
X8320182Y-15431936D02*
X8310658Y-15441460D01*
X8310658Y-15441460D02*
X8291610Y-15450984D01*
X8291610Y-15450984D02*
X8272562Y-15450984D01*
X8272562Y-15450984D02*
X8253515Y-15441460D01*
X8253515Y-15441460D02*
X8243991Y-15431936D01*
X8243991Y-15431936D02*
X8234467Y-15412888D01*
X8234467Y-15412888D02*
X8224943Y-15374793D01*
X8224943Y-15374793D02*
X8224943Y-15327174D01*
X8224943Y-15327174D02*
X8234467Y-15289079D01*
X8234467Y-15289079D02*
X8243991Y-15270031D01*
X8243991Y-15270031D02*
X8253515Y-15260508D01*
X8253515Y-15260508D02*
X8272562Y-15250984D01*
X8463039Y-15250984D02*
X8482086Y-15250984D01*
X8482086Y-15250984D02*
X8501134Y-15260508D01*
X8501134Y-15260508D02*
X8510658Y-15270031D01*
X8510658Y-15270031D02*
X8520182Y-15289079D01*
X8520182Y-15289079D02*
X8529705Y-15327174D01*
X8529705Y-15327174D02*
X8529705Y-15374793D01*
X8529705Y-15374793D02*
X8520182Y-15412888D01*
X8520182Y-15412888D02*
X8510658Y-15431936D01*
X8510658Y-15431936D02*
X8501134Y-15441460D01*
X8501134Y-15441460D02*
X8482086Y-15450984D01*
X8482086Y-15450984D02*
X8463039Y-15450984D01*
X8463039Y-15450984D02*
X8443991Y-15441460D01*
X8443991Y-15441460D02*
X8434467Y-15431936D01*
X8434467Y-15431936D02*
X8424944Y-15412888D01*
X8424944Y-15412888D02*
X8415420Y-15374793D01*
X8415420Y-15374793D02*
X8415420Y-15327174D01*
X8415420Y-15327174D02*
X8424944Y-15289079D01*
X8424944Y-15289079D02*
X8434467Y-15270031D01*
X8434467Y-15270031D02*
X8443991Y-15260508D01*
X8443991Y-15260508D02*
X8463039Y-15250984D01*
X8615420Y-15450984D02*
X8615420Y-15317650D01*
X8615420Y-15336698D02*
X8624944Y-15327174D01*
X8624944Y-15327174D02*
X8643991Y-15317650D01*
X8643991Y-15317650D02*
X8672563Y-15317650D01*
X8672563Y-15317650D02*
X8691610Y-15327174D01*
X8691610Y-15327174D02*
X8701134Y-15346222D01*
X8701134Y-15346222D02*
X8701134Y-15450984D01*
X8701134Y-15346222D02*
X8710658Y-15327174D01*
X8710658Y-15327174D02*
X8729705Y-15317650D01*
X8729705Y-15317650D02*
X8758277Y-15317650D01*
X8758277Y-15317650D02*
X8777325Y-15327174D01*
X8777325Y-15327174D02*
X8786848Y-15346222D01*
X8786848Y-15346222D02*
X8786848Y-15450984D01*
X8882086Y-15450984D02*
X8882086Y-15317650D01*
X8882086Y-15336698D02*
X8891610Y-15327174D01*
X8891610Y-15327174D02*
X8910658Y-15317650D01*
X8910658Y-15317650D02*
X8939229Y-15317650D01*
X8939229Y-15317650D02*
X8958277Y-15327174D01*
X8958277Y-15327174D02*
X8967801Y-15346222D01*
X8967801Y-15346222D02*
X8967801Y-15450984D01*
X8967801Y-15346222D02*
X8977325Y-15327174D01*
X8977325Y-15327174D02*
X8996372Y-15317650D01*
X8996372Y-15317650D02*
X9024944Y-15317650D01*
X9024944Y-15317650D02*
X9043991Y-15327174D01*
X9043991Y-15327174D02*
X9053515Y-15346222D01*
X9053515Y-15346222D02*
X9053515Y-15450984D01*
X9443991Y-15241460D02*
X9272563Y-15498603D01*
X9701134Y-15250984D02*
X9720182Y-15250984D01*
X9720182Y-15250984D02*
X9739229Y-15260508D01*
X9739229Y-15260508D02*
X9748753Y-15270031D01*
X9748753Y-15270031D02*
X9758277Y-15289079D01*
X9758277Y-15289079D02*
X9767801Y-15327174D01*
X9767801Y-15327174D02*
X9767801Y-15374793D01*
X9767801Y-15374793D02*
X9758277Y-15412888D01*
X9758277Y-15412888D02*
X9748753Y-15431936D01*
X9748753Y-15431936D02*
X9739229Y-15441460D01*
X9739229Y-15441460D02*
X9720182Y-15450984D01*
X9720182Y-15450984D02*
X9701134Y-15450984D01*
X9701134Y-15450984D02*
X9682087Y-15441460D01*
X9682087Y-15441460D02*
X9672563Y-15431936D01*
X9672563Y-15431936D02*
X9663039Y-15412888D01*
X9663039Y-15412888D02*
X9653515Y-15374793D01*
X9653515Y-15374793D02*
X9653515Y-15327174D01*
X9653515Y-15327174D02*
X9663039Y-15289079D01*
X9663039Y-15289079D02*
X9672563Y-15270031D01*
X9672563Y-15270031D02*
X9682087Y-15260508D01*
X9682087Y-15260508D02*
X9701134Y-15250984D01*
X9853515Y-15431936D02*
X9863039Y-15441460D01*
X9863039Y-15441460D02*
X9853515Y-15450984D01*
X9853515Y-15450984D02*
X9843991Y-15441460D01*
X9843991Y-15441460D02*
X9853515Y-15431936D01*
X9853515Y-15431936D02*
X9853515Y-15450984D01*
X9986848Y-15250984D02*
X10005896Y-15250984D01*
X10005896Y-15250984D02*
X10024944Y-15260508D01*
X10024944Y-15260508D02*
X10034468Y-15270031D01*
X10034468Y-15270031D02*
X10043991Y-15289079D01*
X10043991Y-15289079D02*
X10053515Y-15327174D01*
X10053515Y-15327174D02*
X10053515Y-15374793D01*
X10053515Y-15374793D02*
X10043991Y-15412888D01*
X10043991Y-15412888D02*
X10034468Y-15431936D01*
X10034468Y-15431936D02*
X10024944Y-15441460D01*
X10024944Y-15441460D02*
X10005896Y-15450984D01*
X10005896Y-15450984D02*
X9986848Y-15450984D01*
X9986848Y-15450984D02*
X9967801Y-15441460D01*
X9967801Y-15441460D02*
X9958277Y-15431936D01*
X9958277Y-15431936D02*
X9948753Y-15412888D01*
X9948753Y-15412888D02*
X9939229Y-15374793D01*
X9939229Y-15374793D02*
X9939229Y-15327174D01*
X9939229Y-15327174D02*
X9948753Y-15289079D01*
X9948753Y-15289079D02*
X9958277Y-15270031D01*
X9958277Y-15270031D02*
X9967801Y-15260508D01*
X9967801Y-15260508D02*
X9986848Y-15250984D01*
X10224944Y-15317650D02*
X10224944Y-15450984D01*
X10177325Y-15241460D02*
X10129706Y-15384317D01*
X10129706Y-15384317D02*
X10253515Y-15384317D01*
X10310658Y-15250984D02*
X10443991Y-15250984D01*
X10443991Y-15250984D02*
X10358277Y-15450984D01*
X10510658Y-15270031D02*
X10520182Y-15260508D01*
X10520182Y-15260508D02*
X10539229Y-15250984D01*
X10539229Y-15250984D02*
X10586849Y-15250984D01*
X10586849Y-15250984D02*
X10605896Y-15260508D01*
X10605896Y-15260508D02*
X10615420Y-15270031D01*
X10615420Y-15270031D02*
X10624944Y-15289079D01*
X10624944Y-15289079D02*
X10624944Y-15308127D01*
X10624944Y-15308127D02*
X10615420Y-15336698D01*
X10615420Y-15336698D02*
X10501134Y-15450984D01*
X10501134Y-15450984D02*
X10624944Y-15450984D01*
X10701134Y-15250984D02*
X10701134Y-15289079D01*
X10777325Y-15250984D02*
X10777325Y-15289079D01*
X11072563Y-15527174D02*
X11063039Y-15517650D01*
X11063039Y-15517650D02*
X11043991Y-15489079D01*
X11043991Y-15489079D02*
X11034468Y-15470031D01*
X11034468Y-15470031D02*
X11024944Y-15441460D01*
X11024944Y-15441460D02*
X11015420Y-15393841D01*
X11015420Y-15393841D02*
X11015420Y-15355746D01*
X11015420Y-15355746D02*
X11024944Y-15308127D01*
X11024944Y-15308127D02*
X11034468Y-15279555D01*
X11034468Y-15279555D02*
X11043991Y-15260508D01*
X11043991Y-15260508D02*
X11063039Y-15231936D01*
X11063039Y-15231936D02*
X11072563Y-15222412D01*
X11158277Y-15450984D02*
X11196372Y-15450984D01*
X11196372Y-15450984D02*
X11215420Y-15441460D01*
X11215420Y-15441460D02*
X11224944Y-15431936D01*
X11224944Y-15431936D02*
X11243991Y-15403365D01*
X11243991Y-15403365D02*
X11253515Y-15365269D01*
X11253515Y-15365269D02*
X11253515Y-15289079D01*
X11253515Y-15289079D02*
X11243991Y-15270031D01*
X11243991Y-15270031D02*
X11234468Y-15260508D01*
X11234468Y-15260508D02*
X11215420Y-15250984D01*
X11215420Y-15250984D02*
X11177325Y-15250984D01*
X11177325Y-15250984D02*
X11158277Y-15260508D01*
X11158277Y-15260508D02*
X11148753Y-15270031D01*
X11148753Y-15270031D02*
X11139230Y-15289079D01*
X11139230Y-15289079D02*
X11139230Y-15336698D01*
X11139230Y-15336698D02*
X11148753Y-15355746D01*
X11148753Y-15355746D02*
X11158277Y-15365269D01*
X11158277Y-15365269D02*
X11177325Y-15374793D01*
X11177325Y-15374793D02*
X11215420Y-15374793D01*
X11215420Y-15374793D02*
X11234468Y-15365269D01*
X11234468Y-15365269D02*
X11243991Y-15355746D01*
X11243991Y-15355746D02*
X11253515Y-15336698D01*
X11491610Y-15450984D02*
X11491610Y-15250984D01*
X11577325Y-15450984D02*
X11577325Y-15346222D01*
X11577325Y-15346222D02*
X11567801Y-15327174D01*
X11567801Y-15327174D02*
X11548753Y-15317650D01*
X11548753Y-15317650D02*
X11520182Y-15317650D01*
X11520182Y-15317650D02*
X11501134Y-15327174D01*
X11501134Y-15327174D02*
X11491610Y-15336698D01*
X11701134Y-15450984D02*
X11682087Y-15441460D01*
X11682087Y-15441460D02*
X11672563Y-15431936D01*
X11672563Y-15431936D02*
X11663039Y-15412888D01*
X11663039Y-15412888D02*
X11663039Y-15355746D01*
X11663039Y-15355746D02*
X11672563Y-15336698D01*
X11672563Y-15336698D02*
X11682087Y-15327174D01*
X11682087Y-15327174D02*
X11701134Y-15317650D01*
X11701134Y-15317650D02*
X11729706Y-15317650D01*
X11729706Y-15317650D02*
X11748753Y-15327174D01*
X11748753Y-15327174D02*
X11758277Y-15336698D01*
X11758277Y-15336698D02*
X11767801Y-15355746D01*
X11767801Y-15355746D02*
X11767801Y-15412888D01*
X11767801Y-15412888D02*
X11758277Y-15431936D01*
X11758277Y-15431936D02*
X11748753Y-15441460D01*
X11748753Y-15441460D02*
X11729706Y-15450984D01*
X11729706Y-15450984D02*
X11701134Y-15450984D01*
X11882087Y-15450984D02*
X11863039Y-15441460D01*
X11863039Y-15441460D02*
X11853515Y-15422412D01*
X11853515Y-15422412D02*
X11853515Y-15250984D01*
X12034468Y-15441460D02*
X12015420Y-15450984D01*
X12015420Y-15450984D02*
X11977325Y-15450984D01*
X11977325Y-15450984D02*
X11958277Y-15441460D01*
X11958277Y-15441460D02*
X11948753Y-15422412D01*
X11948753Y-15422412D02*
X11948753Y-15346222D01*
X11948753Y-15346222D02*
X11958277Y-15327174D01*
X11958277Y-15327174D02*
X11977325Y-15317650D01*
X11977325Y-15317650D02*
X12015420Y-15317650D01*
X12015420Y-15317650D02*
X12034468Y-15327174D01*
X12034468Y-15327174D02*
X12043991Y-15346222D01*
X12043991Y-15346222D02*
X12043991Y-15365269D01*
X12043991Y-15365269D02*
X11948753Y-15384317D01*
X12120182Y-15441460D02*
X12139230Y-15450984D01*
X12139230Y-15450984D02*
X12177325Y-15450984D01*
X12177325Y-15450984D02*
X12196372Y-15441460D01*
X12196372Y-15441460D02*
X12205896Y-15422412D01*
X12205896Y-15422412D02*
X12205896Y-15412888D01*
X12205896Y-15412888D02*
X12196372Y-15393841D01*
X12196372Y-15393841D02*
X12177325Y-15384317D01*
X12177325Y-15384317D02*
X12148753Y-15384317D01*
X12148753Y-15384317D02*
X12129706Y-15374793D01*
X12129706Y-15374793D02*
X12120182Y-15355746D01*
X12120182Y-15355746D02*
X12120182Y-15346222D01*
X12120182Y-15346222D02*
X12129706Y-15327174D01*
X12129706Y-15327174D02*
X12148753Y-15317650D01*
X12148753Y-15317650D02*
X12177325Y-15317650D01*
X12177325Y-15317650D02*
X12196372Y-15327174D01*
X12272563Y-15527174D02*
X12282087Y-15517650D01*
X12282087Y-15517650D02*
X12301134Y-15489079D01*
X12301134Y-15489079D02*
X12310658Y-15470031D01*
X12310658Y-15470031D02*
X12320182Y-15441460D01*
X12320182Y-15441460D02*
X12329706Y-15393841D01*
X12329706Y-15393841D02*
X12329706Y-15355746D01*
X12329706Y-15355746D02*
X12320182Y-15308127D01*
X12320182Y-15308127D02*
X12310658Y-15279555D01*
X12310658Y-15279555D02*
X12301134Y-15260508D01*
X12301134Y-15260508D02*
X12282087Y-15231936D01*
X12282087Y-15231936D02*
X12272563Y-15222412D01*
M02*
