M48
; DRILL file {KiCad 9.0.2} date 2025-05-16T19:45:09+0300
; FORMAT={-:-/ absolute / metric / decimal}
; #@! TF.CreationDate,2025-05-16T19:45:09+03:00
; #@! TF.GenerationSoftware,Kicad,Pcbnew,9.0.2
; #@! TF.FileFunction,Plated,1,2,PTH
FMAT,2
METRIC
; #@! TA.AperFunction,Plated,PTH,ComponentDrill
T1C0.730
; #@! TA.AperFunction,Plated,PTH,ComponentDrill
T2C0.800
; #@! TA.AperFunction,Plated,PTH,ComponentDrill
T3C1.000
; #@! TA.AperFunction,Plated,PTH,ComponentDrill
T4C1.200
%
G90
G05
T1
X109.56Y-98.59
X109.56Y-101.13
X109.56Y-103.67
X109.56Y-106.21
X109.56Y-108.75
X109.56Y-111.29
X109.56Y-113.83
X117.5Y-98.59
X117.5Y-101.13
X117.5Y-103.67
X117.5Y-106.21
X117.5Y-108.75
X117.5Y-111.29
X117.5Y-113.83
T2
X77.34Y-118.0
X77.34Y-122.5
X77.34Y-127.25
X77.34Y-131.75
X87.5Y-118.0
X87.5Y-122.5
X87.5Y-127.25
X87.5Y-131.75
X87.5Y-136.0
X88.75Y-100.25
X88.75Y-104.0
X88.75Y-107.25
X88.75Y-110.75
X88.75Y-114.25
X90.0Y-118.0
X90.75Y-122.0
X90.75Y-132.16
X93.5Y-90.75
X93.5Y-95.75
X94.25Y-122.25
X94.25Y-129.87
X97.66Y-136.0
X98.91Y-100.25
X98.91Y-104.0
X98.91Y-107.25
X98.91Y-110.75
X98.91Y-114.25
X100.16Y-118.0
X102.0Y-96.38
X102.0Y-104.0
X102.0Y-128.75
X102.25Y-107.44
X102.25Y-115.06
X105.5Y-96.38
X105.5Y-104.0
X105.5Y-118.5
X107.0Y-128.75
X110.5Y-118.5
X110.67Y-82.0
X119.17Y-125.67
X119.17Y-135.83
X120.18Y-85.95
X120.18Y-93.57
X120.83Y-82.0
X122.72Y-85.95
X122.72Y-93.57
X122.92Y-125.67
X122.92Y-135.83
X123.5Y-82.0
X125.26Y-85.95
X125.26Y-93.57
X126.5Y-125.67
X126.5Y-135.83
X127.8Y-85.95
X127.8Y-93.57
X133.66Y-82.0
X151.955Y-105.75
X152.5Y-93.045
X152.5Y-98.045
X152.682Y-114.3
X152.795Y-131.0
X154.455Y-105.75
X154.545Y-123.5
X155.182Y-114.3
X157.045Y-123.5
X158.17Y-89.75
X158.17Y-94.25
X158.17Y-98.75
X158.17Y-103.25
X159.7Y-108.45
X159.7Y-110.99
X159.7Y-113.53
X159.7Y-116.07
X161.5Y-122.75
X162.955Y-131.0
X166.5Y-122.75
X167.32Y-108.45
X167.32Y-110.99
X167.32Y-113.53
X167.32Y-116.07
X168.33Y-89.75
X168.33Y-94.25
X168.33Y-98.75
X168.33Y-103.25
T3
X102.0Y-123.75
X102.0Y-134.0
X112.0Y-123.75
X112.0Y-134.0
X112.25Y-86.5
X112.25Y-91.5
X122.118Y-114.25
X122.168Y-103.25
X127.118Y-114.25
X127.168Y-103.25
X132.25Y-95.05
X132.25Y-97.59
X132.25Y-100.13
X132.25Y-102.67
X132.25Y-105.21
X132.25Y-107.75
X132.25Y-110.29
X132.25Y-112.83
X132.25Y-115.37
X132.25Y-117.91
X132.25Y-120.45
X132.25Y-122.99
X132.25Y-125.53
X132.25Y-128.07
X132.25Y-130.61
X147.49Y-95.05
X147.49Y-97.59
X147.49Y-100.13
X147.49Y-102.67
X147.49Y-105.21
X147.49Y-107.75
X147.49Y-110.29
X147.49Y-112.83
X147.49Y-115.37
X147.49Y-117.91
X147.49Y-120.45
X147.49Y-122.99
X147.49Y-125.53
X147.49Y-128.07
X147.49Y-130.61
T4
X80.25Y-106.96
X80.25Y-112.04
X93.5Y-84.75
X98.58Y-84.75
X103.66Y-84.75
X137.5Y-85.75
X142.5Y-85.75
X147.5Y-85.75
X152.5Y-85.75
M30
